<?xml version="1.0" encoding="UTF-8"?>
<svg id="layer" xmlns="http://www.w3.org/2000/svg" viewBox="0 0 533 500">
  <defs>
    <style>
      .cls-1 {
        fill: #fff;
      }
    </style>
  </defs>
  <path class="cls-1" d="M276.4,415.1l.6,.1c10.3,1.4,22.2,2,35.3,2,70,0,155.6-19.4,156.4-19.6l.9-.2h29.9l-15.5-19.6-.5-1.2c-6.6-18-23.2-50.3-23.4-50.6l-.4-.9c-24.7-65.8-99.7-166.9-100.4-167.9l-.3-.5L268.6,16.2h-31L18.9,391.1l16,26.1,241.5-2.1m-250.6,18.4L0,391.3,228.3,0h49.2l94.9,147.8c5,6.7,76.9,104.2,102.2,171.2,2.1,4,16.7,32.7,23.6,50.8l34.8,43.8h-61.6c-9.9,2.2-90.5,19.8-159.2,19.8-13.6,0-26-.7-36.9-2.1l-249.5,2.2"/>
  <path class="cls-1" d="M236.3,231.9c-13,0-14.2-4.4-14.2-4.4-1.6-8.8,7-9.3,8.9-9.3h24.8c32-.5,35.7-16.8,35.7-16.8,10.1-21-8.3-25.8-8.3-25.8-5.6-2-11.6-2.7-17.1-2.7-12.7,0-23.3,3.7-23.3,3.7-1.5,.3-2.8,.4-3.9,.4-10,0-7-9.2-7-9.2,2.1-6.4,26.1-8.6,26.1-8.6,21.9-6.4,19.6-19.9,19.6-19.9-3.1-13.5-19.8-14-19.8-14-1.2-.1-2.5-.2-3.8-.2-14.8,0-30.2,8.2-30.2,8.2-2.6,1.3-4.7,1.8-6.2,1.8-4.5,0-5.2-3.9-5.2-3.9-.8-6.8,6-9.8,6-9.8,15.5-8.6,33.8-8.8,33.8-8.8,30.7,2.2,34.1,20.3,34.1,20.3,6.2,18.1-11.3,29.9-11.3,29.9,6.4,.8,19.3,6.8,19.3,6.8,16.7,13.7,10.6,29.9,10.6,29.9-4.7,24.7-31,29.6-31,29.6-11,2.9-30.8,3.1-34.8,3.1h-.7c-.7-.3-1.4-.3-2.1-.3"/>
  <path class="cls-1" d="M214.7,365c-.6,0-1.1,0-1.8-.1h-2.2c-5.8,0-21.7-.4-30.6-4.8,0,0-24.5-10.4-32.7-22.8,0,0-20.9-28.1,3.4-56,0,0,21.9-23,47.7-26,0,0,.9-.1,2.4-.1,4.5,0,14.5,.6,21.4,5.8,0,0,2.7,3.8-2.4,3.8h-.3s-2.7-1.1-7.9-1.1c-2.6,0-5.8,.3-9.5,1.1,0,0-21.1,7-31.5,17,0,0-24.3,13.8-16,38.9,0,0,7.6,21.8,36.4,29.2,0,0,8.4,1.7,17.6,1.7,2,0,4.1-.1,6.1-.3,0,0,.5-.1,1.2-.1,2.7,0,9.4,.7,8.6,7.6,0,.1-.8,6.2-9.9,6.2"/>
  <path class="cls-1" d="M322.5,362.1h-1.9l-30.5-.7s-7.6-.2-6.7-10.4l1.1-40.8s-3.9-1.9-3.3-7.7c0,0,.3-2,3.1-3.9v-39.6s.6-6.8,6.4-7.3h68.6s7.6,1.8,5.4,10c0,0-2.2,3.6-8.1,3.6h-.4l-58.5-.3v32s35.9-2.1,38.4-2.1l30.2-.6s6,1.8,6.2,6.4c0,0,1.1,6-6.7,7.3l-68.1,2.3-.8,37.6s82.9,5.7,85.1,6.2c0,0,3.1,2.8,0,4.3,0-.1-45.9,3.7-59.5,3.7"/>
  <path class="cls-1" d="M64.7,500c-7.6,0-13.1-1.8-18-6.7l5.1-5.1c3.7,3.7,7.8,4.8,13,4.8,6.6,0,10.5-2.8,10.5-7.8,0-2.2-.6-4.1-2-5.3-1.3-1.2-2.6-1.7-5.6-2.1l-6-.9c-4.1-.6-7.4-2-9.6-4.1-2.5-2.4-3.7-5.6-3.7-9.7,0-8.9,6.4-14.9,17-14.9,6.7,0,11.4,1.7,15.8,5.8l-4.9,4.9c-3.1-3-6.8-3.9-11.1-3.9-6,0-9.3,3.4-9.3,7.9,0,1.9,.6,3.5,1.9,4.7,1.3,1.1,3.4,2,5.7,2.3l5.8,.9c4.7,.7,7.3,1.9,9.5,3.8,2.8,2.4,4.1,6.1,4.1,10.4,0,9.4-7.6,15-18.2,15"/>
  <polyline class="cls-1" points="110.5 499.6 102.8 499.6 102.8 455.7 88.8 455.7 88.8 448.8 124.5 448.8 124.5 455.7 110.5 455.7 110.5 499.6"/>
  <polyline class="cls-1" points="149.9 499.6 142.2 499.6 142.2 478.7 127 448.8 135.4 448.8 146 471.1 156.6 448.8 165.1 448.8 149.9 478.7 149.9 499.6"/>
  <polyline class="cls-1" points="204.2 499.6 172.1 499.6 172.1 448.8 179.8 448.8 179.8 492.7 204.2 492.7 204.2 499.6"/>
  <polyline class="cls-1" points="245.5 499.6 213 499.6 213 448.8 245.5 448.8 245.5 455.7 220.7 455.7 220.7 470.5 241.8 470.5 241.8 477.4 220.7 477.4 220.7 492.7 245.5 492.7 245.5 499.6"/>
  <polyline class="cls-1" points="294.3 499.6 287.2 499.6 263.7 463.8 263.7 499.6 256 499.6 256 448.8 263.1 448.8 286.6 484.4 286.6 448.8 294.3 448.8 294.3 499.6"/>
  <path class="cls-1" d="M323.4,460.3l-7.9,22.5h15.6l-7.7-22.5m21.5,39.3h-8.2l-3.5-10.2h-20l-3.5,10.2h-8.2l18.6-50.8h6.2l18.6,50.8"/>
  <polyline class="cls-1" points="390.4 499.6 383.3 499.6 359.9 463.8 359.9 499.6 352.1 499.6 352.1 448.8 359.2 448.8 382.7 484.4 382.7 448.8 390.4 448.8 390.4 499.6"/>
  <path class="cls-1" d="M411.4,455.7v37h9.3c3.6,0,6.5-1.1,8.6-3.4,2.6-2.9,2.7-8.4,2.7-15.4s-.1-11.8-2.7-14.7c-2.1-2.3-5-3.4-8.6-3.4h-9.3m10.1,43.8h-17.8v-50.8h17.8c5.3,0,9.9,1.6,13.1,4.8,5.5,5.5,5.1,12.9,5.1,20.3s.4,15.5-5.1,21c-3.2,3.1-7.8,4.7-13.1,4.7"/>
  <path class="cls-1" d="M466.3,460.3l-7.9,22.5h15.6l-7.7-22.5m21.5,39.3h-8.2l-3.5-10.2h-20l-3.5,10.2h-8.2l18.6-50.8h6.2l18.6,50.8"/>
</svg>