<?xml version="1.0" encoding="UTF-8"?>
<svg id="Layer_1" data-name="Layer 1" xmlns="http://www.w3.org/2000/svg" viewBox="0 0 1001 155.53">
  <defs>
    <style>
      .cls-1 {
        fill: #fff;
      }
    </style>
  </defs>
  <g id="AMUSE">
    <path class="cls-1" d="M884.8,149.65c-12.39,.04-24.77,.1-37.16,.11-29.51,.02-59.03,0-88.54,0h-4.56V6.02h130.26V31.99s-65.42-.1-95.78-.1c-1.55,0-3.1,0-4.71,0v33.42h90.03v25.78h-89.99v32.43c7.57,0,14.85,0,22.13,0,26.1-.04,52.21-.08,78.31-.12v26.25Z"/>
    <path class="cls-1" d="M642.02,155.48c-11.05-2.19-22.24-3.82-33.1-6.7-12.69-3.36-24.47-9.14-35.84-16.5,4.21-8.12,8.32-16.06,12.53-24.19,5.91,3.07,11.61,6.18,17.45,9.02,17.15,8.35,35.33,12.13,54.33,11.14,5.48-.29,10.98-1.82,16.27-3.45,5.11-1.58,7.74-5.79,8.26-11,.5-4.98-1.89-9.01-6.12-11.17-6.66-3.4-13.55-6.48-20.58-9.02-13.45-4.86-27.25-8.78-40.54-14.03-6.88-2.72-13.42-6.86-19.35-11.36-19.09-14.48-19.31-50.22,9.62-61.94,13-5.27,26.58-6.45,40.38-6.18,22.28,.42,43.45,5.74,63.75,14.78,.43,.19,.83,.47,1.59,.9-3.81,7.86-7.59,15.66-11.46,23.65-5.28-2.04-10.38-4.22-15.61-6-16.25-5.53-32.89-8.5-50.11-6.93-3.34,.3-6.78,.95-9.88,2.18-8.21,3.28-10.49,12.8-4.15,18.95,3.53,3.43,8.2,6.12,12.84,7.89,12.57,4.78,25.46,8.72,38.11,13.31,10.15,3.68,20.22,7.53,28.64,14.73,21.15,18.09,18.71,47.74-5.2,61.87-9.61,5.68-20.18,8.14-31.13,9.34-1.81,.2-3.6,.48-5.4,.72h-15.31Z"/>
    <path class="cls-1" d="M458.29,155.48c-9.87-1.33-19.65-3.04-28.79-7.28-17.16-7.97-30.67-19.39-34.9-38.78-1.62-7.42-2.44-15.14-2.53-22.73-.3-25.87-.12-51.75-.11-77.63,0-.83,.1-1.66,.17-2.69h29.59c0,1.55,0,2.96,0,4.37,.04,27.33-.18,54.67,.22,82,.21,14.37,7.65,24.55,20.88,30.15,14.17,5.99,28.59,6.11,42.93,.62,14.73-5.64,22.46-17.06,22.49-32.82,.05-26.48,.01-52.97,.01-79.45V6.37h29.87c0,1.62,0,3.04,0,4.46,0,23.69,.09,47.38-.04,71.07-.06,11.41-.42,22.84-4.42,33.76-5.68,15.51-17.46,25-31.77,31.89-8.38,4.03-17.28,6.37-26.53,7.31-1.08,.11-2.14,.41-3.2,.62h-13.85Z"/>
    <path class="cls-1" d="M269.26,127.79c-15.43-19.8-30.6-39.26-46.32-59.43-2.03,27.64-4,54.33-5.98,81.32h-31.05c4.21-47.86,8.41-95.55,12.64-143.64,3.58,0,6.96-.23,10.29,.13,1.13,.12,2.29,1.55,3.11,2.64,18.42,24.43,36.79,48.9,55.18,73.35,.64,.85,1.31,1.66,2.18,2.75,2.93-3.86,5.73-7.51,8.49-11.18,16.12-21.45,32.26-42.88,48.28-64.41,1.77-2.38,3.49-3.71,6.55-3.34,2.27,.27,4.59,.05,7.34,.05,4.22,47.86,8.43,95.57,12.67,143.67-1.16,.11-2.19,.29-3.23,.29-8.14,.02-16.28-.09-24.42,.07-2.78,.05-3.65-.75-3.84-3.63-1.62-24.22-3.43-48.43-5.2-72.63-.11-1.44-.35-2.88-.64-5.2-15.56,20.01-30.68,39.47-46.03,59.21Z"/>
    <path class="cls-1" d="M160.11,149.98c-11.27,0-21.82,.06-32.37-.1-.94-.01-2.22-1.29-2.74-2.29-3.33-6.47-6.56-12.99-9.64-19.58-.94-2.02-2.03-2.86-4.35-2.85-20.65,.09-41.3,.08-61.96,.01-2.11,0-3.28,.63-4.19,2.57-3.03,6.48-6.34,12.83-9.36,19.31-1.01,2.16-2.22,3.04-4.69,3.01-10.06-.14-20.12-.06-30.82-.06,.83-1.83,1.37-3.13,2-4.39C25.1,99.94,48.21,54.27,71.27,8.58c.94-1.86,1.97-2.74,4.15-2.6,3.98,.26,8.75-1.07,11.76,.69,2.84,1.67,3.91,6.43,5.65,9.88,21.79,43.08,43.56,86.16,65.33,129.25,.59,1.17,1.11,2.37,1.95,4.18ZM80.05,52.56c-7.55,16.53-14.72,32.22-22.01,48.16h44.02c-7.34-16.05-14.51-31.74-22.01-48.16Z"/>
  </g>
</svg>