<?xml version="1.0" encoding="utf-8"?>
<!-- Generator: Adobe Illustrator 27.1.1, SVG Export Plug-In . SVG Version: 6.00 Build 0)  -->
<svg version="1.1" id="final_3" xmlns="http://www.w3.org/2000/svg" xmlns:xlink="http://www.w3.org/1999/xlink" x="0px" y="0px"
	 viewBox="0 0 906 217" style="enable-background:new 0 0 906 217;" xml:space="preserve">
<style type="text/css">
	.st0{display:none;}
	.st1{display:inline;}
	.st2{fill:none;stroke:#000000;stroke-width:14.9886;stroke-linecap:round;stroke-linejoin:round;stroke-miterlimit:10;}
	.st3{fill:none;stroke:#000000;stroke-width:15;stroke-linecap:round;stroke-linejoin:round;stroke-miterlimit:10;}
	.st4{fill:none;stroke:#000000;stroke-width:15;stroke-linejoin:round;stroke-miterlimit:10;}
	.st5{fill:#E882AA;}
	.st6{fill:#FEDD79;}
	.st7{fill:#E4AF23;}
</style>
<g>
	<path d="M832.3,64.2c24,0,43.5,19.5,43.5,43.4v35.9c0,21.3-18.8,39.9-42.7,42.4c-1.3,0.1-2.6,0.2-3.9,0.2c-21.7,0-37-18.8-38.8-21
		c-2.5-3.3-2-8,1.3-10.5c1.4-1.1,3-1.6,4.6-1.6c2.2,0,4.4,1,5.9,2.9c0.5,0.7,12,15.2,26.9,15.2c0.8,0,1.6,0,2.4-0.1
		c16.1-1.7,29.3-14,29.3-27.5v-3.2c-7.6,6.6-17.6,10.7-28.5,10.7c-24,0-43.5-19.5-43.5-43.4S808.3,64.2,832.3,64.2 M832.3,136.1
		c15.7,0,28.5-12.8,28.5-28.5c0-15.7-12.8-28.5-28.5-28.5c-15.7,0-28.5,12.8-28.5,28.5C803.8,123.4,816.6,136.1,832.3,136.1
		 M832.3,34.2c-40.5,0-73.5,32.9-73.5,73.4c0,11.1,2.5,21.7,7,31.2c-3.6,5-5.9,10.9-6.7,17.1c-1.2,9.9,1.5,19.8,7.6,27.7
		c4.2,5.4,27.2,32.6,62.4,32.6c2.4,0,4.7-0.1,7.1-0.4c18.4-1.9,35.5-10,48.4-22.7c13.7-13.6,21.2-31.2,21.2-49.5v-35.9
		C905.8,67.2,872.8,34.2,832.3,34.2L832.3,34.2z"/>
</g>
<g>
	<path d="M832.6,100.2c4.1,0,7.5,3.4,7.5,7.5c0,4.1-3.4,7.5-7.5,7.5c-4.1,0-7.5-3.4-7.5-7.5C825.1,103.5,828.4,100.2,832.6,100.2
		 M832.6,70.2c-20.7,0-37.5,16.8-37.5,37.5c0,20.7,16.8,37.5,37.5,37.5s37.5-16.8,37.5-37.5C870.1,87,853.3,70.2,832.6,70.2
		L832.6,70.2z"/>
</g>
<g>
	<path d="M725.6,64.4c24,0,43.5,19.5,43.5,43.5v36c0,4.1-3.4,7.5-7.5,7.5s-7.5-3.4-7.5-7.5v-36c0-15.7-12.8-28.5-28.5-28.5
		s-28.5,12.8-28.5,28.5v36c0,4.1-3.4,7.5-7.5,7.5s-7.5-3.4-7.5-7.5v-36C682.1,83.9,701.6,64.4,725.6,64.4 M725.6,34.4
		c-40.5,0-73.5,33-73.5,73.5v36c0,20.7,16.8,37.5,37.5,37.5c17,0,31.4-11.4,36-27c4.6,15.6,19,27,36,27c20.7,0,37.5-16.8,37.5-37.5
		v-36C799.1,67.4,766.1,34.4,725.6,34.4L725.6,34.4z"/>
</g>
<g>
	<path d="M620.3,68.3c24,0,43.5,19.5,43.5,43.5s-19.5,43.5-43.5,43.5s-43.5-19.5-43.5-43.5S596.3,68.3,620.3,68.3 M620.3,140.3
		c15.7,0,28.5-12.8,28.5-28.5S636,83.3,620.3,83.3s-28.5,12.8-28.5,28.5S604.6,140.3,620.3,140.3 M620.3,38.3
		c-40.5,0-73.5,33-73.5,73.5s33,73.5,73.5,73.5s73.5-33,73.5-73.5S660.8,38.3,620.3,38.3L620.3,38.3z"/>
</g>
<g>
	<path d="M620.3,104.3c4.1,0,7.5,3.4,7.5,7.5c0,4.1-3.4,7.5-7.5,7.5s-7.5-3.4-7.5-7.5C612.8,107.6,616.2,104.3,620.3,104.3
		 M620.3,74.3c-20.7,0-37.5,16.8-37.5,37.5s16.8,37.5,37.5,37.5s37.5-16.8,37.5-37.5S641,74.3,620.3,74.3L620.3,74.3z"/>
</g>
<g>
	<path d="M530.6,68.3c12.7,0,25.5,11.9,25.5,34.5v45c0,4.1-3.4,7.5-7.5,7.5s-7.5-3.4-7.5-7.5v-45c0-12.8-5.3-19.5-10.5-19.5
		c-5.2,0-10.5,6.7-10.5,19.5v45c0,4.1-3.4,7.5-7.5,7.5s-7.5-3.4-7.5-7.5v-45c0-12.8-5.3-19.5-10.5-19.5s-10.5,6.7-10.5,19.5v45
		c0,4.1-3.4,7.5-7.5,7.5s-7.5-3.4-7.5-7.5v-45c0-22.6,12.8-34.5,25.5-34.5c6.6,0,13.2,3.2,18,9.4C517.4,71.5,524,68.3,530.6,68.3
		 M530.6,38.3c-6.2,0-12.3,1.1-18,3.3c-5.7-2.2-11.8-3.3-18-3.3c-15.5,0-30.3,7.2-40.6,19.6c-9.7,11.8-14.9,27.3-14.9,44.9v45
		c0,20.7,16.8,37.5,37.5,37.5c6.5,0,12.7-1.7,18-4.6c5.3,2.9,11.5,4.6,18,4.6c6.5,0,12.7-1.7,18-4.6c5.3,2.9,11.5,4.6,18,4.6
		c20.7,0,37.5-16.8,37.5-37.5v-45c0-17.6-5.1-33.1-14.9-44.9C560.9,45.5,546.1,38.3,530.6,38.3L530.6,38.3z M550.2,101.3
		L550.2,101.3L550.2,101.3L550.2,101.3z M514.2,101.3L514.2,101.3L514.2,101.3L514.2,101.3z"/>
</g>
<g>
	<path d="M393.7,69c24,0,43.5,19.5,43.5,43.5c0,0.7,0,7.3-0.1,9.4l-0.1,1.3c-0.1,0.9-0.1,1.4-0.1,2.2l0,1.1c0,0.6,0,1.2,0,1.8
		c-0.2,7.2,2.4,12.2,4.9,13.2c0.4,0.2,0.9,0.2,1.4,0.2c0.8,0,1.6-0.1,2.6-0.4l4.4,14.3c-2.4,0.7-4.7,1.1-7,1.1c-2.5,0-4.8-0.4-7-1.3
		c-5.2-2-9.2-6.5-11.7-12.3c-7.9,7.9-18.8,12.9-30.8,12.9c-24,0-43.5-19.5-43.5-43.5C350.2,88.5,369.7,69,393.7,69 M393.7,141
		c15.7,0,28.5-12.8,28.5-28.5c0-15.7-12.8-28.5-28.5-28.5c-15.7,0-28.5,12.8-28.5,28.5C365.2,128.2,378,141,393.7,141 M393.7,39
		c-40.5,0-73.5,33-73.5,73.5s33,73.5,73.5,73.5c9.2,0,18.2-1.7,26.5-4.9c1.6,0.9,3.2,1.6,4.9,2.3c5.7,2.3,11.8,3.4,18,3.4
		c5.3,0,10.6-0.8,15.8-2.4c15.8-4.9,24.7-21.6,19.9-37.5l-4.4-14.3c-1.5-4.8-4-9-7.3-12.3c0-2.4,0.1-5.4,0.1-7.7
		C467.2,72,434.2,39,393.7,39L393.7,39z"/>
</g>
<g>
	<path d="M393.7,105c4.1,0,7.5,3.4,7.5,7.5c0,4.1-3.4,7.5-7.5,7.5c-4.1,0-7.5-3.4-7.5-7.5C386.2,108.3,389.5,105,393.7,105
		 M393.7,75c-20.7,0-37.5,16.8-37.5,37.5S373,150,393.7,150s37.5-16.8,37.5-37.5S414.4,75,393.7,75L393.7,75z"/>
</g>
<g>
	<path d="M286.7,69c24,0,43.5,19.5,43.5,43.5v36h-15v-36c0-15.7-12.8-28.5-28.5-28.5c-15.7,0-28.5,12.8-28.5,28.5v36h-15v-36
		C243.2,88.5,262.7,69,286.7,69 M286.7,39c-40.5,0-73.5,33-73.5,73.5v36c0,16.6,13.4,30,30,30h15c13.3,0,24.6-8.6,28.5-20.6
		c3.9,12,15.2,20.6,28.5,20.6h15c16.6,0,30-13.4,30-30v-36C360.2,72,327.2,39,286.7,39L286.7,39z"/>
</g>
<g>
	<path d="M177.7,68.2c24,0,43.5,19.5,43.5,43.5c0,0.7,0,7.3-0.1,9.4l-0.1,1.3c-0.1,0.9-0.1,1.4-0.1,2.2l0,1.1c0,0.6,0,1.2,0,1.8
		c-0.2,7.2,2.4,12.2,4.9,13.2c0.4,0.2,0.9,0.2,1.5,0.2c0.8,0,1.6-0.1,2.6-0.4l4.4,14.3c-2.4,0.7-4.7,1.1-7,1.1c-2.5,0-4.8-0.4-7-1.3
		c-5.2-2-9.2-6.5-11.7-12.3c-7.9,7.9-18.8,12.9-30.8,12.9c-24,0-43.5-19.5-43.5-43.5C134.2,87.7,153.7,68.2,177.7,68.2 M177.7,140.2
		c15.7,0,28.5-12.8,28.5-28.5c0-15.7-12.8-28.5-28.5-28.5c-15.7,0-28.5,12.8-28.5,28.5C149.2,127.4,162,140.2,177.7,140.2
		 M177.7,38.2c-40.5,0-73.5,33-73.5,73.5s33,73.5,73.5,73.5c9.2,0,18.2-1.7,26.5-4.9c1.6,0.9,3.2,1.6,4.9,2.3
		c5.7,2.3,11.8,3.4,18,3.4c5.3,0,10.6-0.8,15.8-2.4c15.8-4.9,24.7-21.6,19.9-37.5l-4.4-14.3c-1.5-4.8-4-9-7.3-12.3
		c0-2.4,0.1-5.4,0.1-7.7C251.2,71.2,218.2,38.2,177.7,38.2L177.7,38.2z"/>
</g>
<g>
	<path d="M177.7,105c4.1,0,7.5,3.4,7.5,7.5c0,4.1-3.4,7.5-7.5,7.5s-7.5-3.4-7.5-7.5C170.2,108.3,173.5,105,177.7,105 M177.7,75
		c-20.7,0-37.5,16.8-37.5,37.5S157,150,177.7,150s37.5-16.8,37.5-37.5S198.4,75,177.7,75L177.7,75z"/>
</g>
<g>
	<path d="M45.2,30.7v48.2c7.6-6.6,17.6-10.7,28.5-10.7c24,0,43.5,19.5,43.5,43.5s-19.5,43.5-43.5,43.5s-43.5-19.5-43.5-43.5v-81
		H45.2 M73.7,140.2c15.7,0,28.5-12.8,28.5-28.5S89.4,83.2,73.7,83.2S45.2,96,45.2,111.7S58,140.2,73.7,140.2 M45.2,0.7h-15
		c-16.6,0-30,13.4-30,30v81c0,40.5,33,73.5,73.5,73.5s73.5-33,73.5-73.5c0-40-32.2-72.7-72-73.5v-7.5C75.2,14.2,61.8,0.7,45.2,0.7
		L45.2,0.7z"/>
</g>
<g>
	<path d="M73.7,105c4.1,0,7.5,3.4,7.5,7.5c0,4.1-3.4,7.5-7.5,7.5c-4.1,0-7.5-3.4-7.5-7.5C66.2,108.3,69.5,105,73.7,105 M73.7,75
		C53,75,36.2,91.8,36.2,112.5S53,150,73.7,150s37.5-16.8,37.5-37.5S94.4,75,73.7,75L73.7,75z"/>
</g>
<path class="st5" d="M832.3,64.2c-24,0-43.5,19.5-43.5,43.4s19.5,43.4,43.5,43.4c10.9,0,20.9-4,28.5-10.7v3.2
	c0,13.5-13.1,25.8-29.3,27.5c-16,1.7-28.8-14.4-29.3-15.1c-2.5-3.3-7.3-3.9-10.5-1.3c-3.3,2.5-3.9,7.2-1.3,10.5
	c1.8,2.3,17,21,38.8,21c1.3,0,2.6-0.1,3.9-0.2c24-2.5,42.7-21.1,42.7-42.4v-35.9C875.8,83.7,856.3,64.2,832.3,64.2z M832.3,136.1
	c-15.7,0-28.5-12.8-28.5-28.5s12.8-28.5,28.5-28.5s28.5,12.8,28.5,28.5S848,136.1,832.3,136.1z"/>
<ellipse class="st5" cx="832.6" cy="107.7" rx="7.5" ry="7.5"/>
<path class="st5" d="M761.6,151.4c-4.1,0-7.5-3.4-7.5-7.5v-36c0-15.7-12.8-28.5-28.5-28.5s-28.5,12.8-28.5,28.5v36
	c0,4.1-3.4,7.5-7.5,7.5s-7.5-3.4-7.5-7.5v-36c0-24,19.5-43.5,43.5-43.5s43.5,19.5,43.5,43.5v36C769.1,148,765.7,151.4,761.6,151.4z"
	/>
<path class="st5" d="M620.3,155.3c-24,0-43.5-19.5-43.5-43.5s19.5-43.5,43.5-43.5s43.5,19.5,43.5,43.5S644.3,155.3,620.3,155.3z
	 M620.3,83.3c-15.7,0-28.5,12.8-28.5,28.5s12.8,28.5,28.5,28.5s28.5-12.8,28.5-28.5S636,83.3,620.3,83.3z"/>
<circle class="st5" cx="620.3" cy="111.8" r="7.5"/>
<path class="st5" d="M548.6,155.3c-4.1,0-7.5-3.4-7.5-7.5v-45c0-12.8-5.3-19.5-10.5-19.5s-10.5,6.7-10.5,19.5v45
	c0,4.1-3.4,7.5-7.5,7.5c-4.1,0-7.5-3.4-7.5-7.5v-45c0-12.8-5.3-19.5-10.5-19.5s-10.5,6.7-10.5,19.5v45c0,4.1-3.4,7.5-7.5,7.5
	s-7.5-3.4-7.5-7.5v-45c0-22.6,12.8-34.5,25.5-34.5c6.6,0,13.2,3.2,18,9.4c4.8-6.2,11.4-9.4,18-9.4c12.7,0,25.5,11.9,25.5,34.5v45
	C556.1,151.9,552.7,155.3,548.6,155.3z"/>
<path class="st6" d="M445.8,141.3c-1.7,0.5-3.1,0.6-4,0.2c-2.5-1-5.1-6-4.9-13.2c0-0.6,0-1.2,0-1.8l0-1.1c0-0.8,0-1.3,0.1-2.2
	l0.1-1.3c0.1-2.2,0.1-8.7,0.1-9.4c0-24-19.5-43.5-43.5-43.5s-43.5,19.5-43.5,43.5s19.5,43.5,43.5,43.5c12,0,23-4.9,30.8-12.9
	c2.5,5.9,6.5,10.3,11.7,12.3c2.2,0.9,4.5,1.3,7,1.3c2.3,0,4.6-0.4,7-1.1L445.8,141.3z M393.7,141c-15.7,0-28.5-12.8-28.5-28.5
	S378,84,393.7,84s28.5,12.8,28.5,28.5S409.4,141,393.7,141z"/>
<circle class="st6" cx="393.7" cy="112.5" r="7.5"/>
<path class="st6" d="M330.2,148.5h-15v-36c0-15.7-12.8-28.5-28.5-28.5s-28.5,12.8-28.5,28.5v36h-15v-36c0-24,19.5-43.5,43.5-43.5
	s43.5,19.5,43.5,43.5V148.5z"/>
<path class="st6" d="M229.8,140.6c-1.7,0.5-3.1,0.6-4,0.2c-2.5-1-5.1-6-4.9-13.2c0-0.6,0-1.2,0-1.8l0-1.1c0-0.8,0-1.3,0.1-2.2
	l0.1-1.3c0.1-2.2,0.1-8.7,0.1-9.4c0-24-19.5-43.5-43.5-43.5s-43.5,19.5-43.5,43.5s19.5,43.5,43.5,43.5c12,0,23-4.9,30.8-12.9
	c2.5,5.9,6.5,10.3,11.7,12.3c2.2,0.9,4.5,1.3,7,1.3c2.3,0,4.6-0.4,7-1.1L229.8,140.6z M177.7,140.2c-15.7,0-28.5-12.8-28.5-28.5
	s12.8-28.5,28.5-28.5s28.5,12.8,28.5,28.5S193.4,140.2,177.7,140.2z"/>
<circle class="st6" cx="177.7" cy="112.5" r="7.5"/>
<path class="st6" d="M73.7,68.2c-10.9,0-20.9,4-28.5,10.7V30.7h-15v81c0,24,19.5,43.5,43.5,43.5s43.5-19.5,43.5-43.5
	S97.7,68.2,73.7,68.2z M73.7,140.2c-15.7,0-28.5-12.8-28.5-28.5S58,83.2,73.7,83.2s28.5,12.8,28.5,28.5S89.4,140.2,73.7,140.2z"/>
<circle class="st6" cx="73.7" cy="112.5" r="7.5"/>
</svg>
