<?xml version="1.0" encoding="UTF-8"?>
<svg id="Illustration" xmlns="http://www.w3.org/2000/svg" xmlns:xlink="http://www.w3.org/1999/xlink" viewBox="0 0 998.3 999">
  <defs>
    <style>
      .cls-1 {
        fill: url(#linear-gradient);
      }

      .cls-2 {
        fill: #fff;
      }

      .cls-3 {
        fill: #91b3fa;
      }

      .cls-4 {
        fill: #7d97f4;
      }

      .cls-5 {
        fill: #bdd0fb;
      }

      .cls-6 {
        fill: url(#linear-gradient-9);
      }

      .cls-7 {
        fill: url(#linear-gradient-3);
      }

      .cls-8 {
        fill: url(#linear-gradient-4);
      }

      .cls-9 {
        fill: url(#linear-gradient-2);
      }

      .cls-10 {
        opacity: .3;
      }

      .cls-11 {
        opacity: .64;
      }

      .cls-12 {
        fill: url(#linear-gradient-59);
      }

      .cls-13 {
        fill: url(#linear-gradient-57);
      }

      .cls-14 {
        fill: url(#linear-gradient-58);
      }

      .cls-15 {
        fill: url(#linear-gradient-55);
      }

      .cls-16 {
        fill: url(#linear-gradient-56);
      }

      .cls-17 {
        fill: url(#linear-gradient-53);
      }

      .cls-18 {
        fill: url(#linear-gradient-54);
      }

      .cls-19 {
        fill: url(#linear-gradient-51);
      }

      .cls-20 {
        fill: url(#linear-gradient-52);
      }

      .cls-21 {
        fill: url(#linear-gradient-50);
      }

      .cls-22 {
        fill: url(#linear-gradient-77);
      }

      .cls-23 {
        fill: url(#linear-gradient-78);
      }

      .cls-24 {
        fill: url(#linear-gradient-79);
      }

      .cls-25 {
        fill: url(#linear-gradient-74);
      }

      .cls-26 {
        fill: url(#linear-gradient-75);
      }

      .cls-27 {
        fill: url(#linear-gradient-76);
      }

      .cls-28 {
        fill: url(#linear-gradient-70);
      }

      .cls-29 {
        fill: url(#linear-gradient-71);
      }

      .cls-30 {
        fill: url(#linear-gradient-72);
      }

      .cls-31 {
        fill: url(#linear-gradient-73);
      }

      .cls-32 {
        fill: url(#linear-gradient-68);
      }

      .cls-33 {
        fill: url(#linear-gradient-67);
      }

      .cls-34 {
        fill: url(#linear-gradient-69);
      }

      .cls-35 {
        fill: url(#linear-gradient-64);
      }

      .cls-36 {
        fill: url(#linear-gradient-63);
      }

      .cls-37 {
        fill: url(#linear-gradient-66);
      }

      .cls-38 {
        fill: url(#linear-gradient-65);
      }

      .cls-39 {
        fill: url(#linear-gradient-60);
      }

      .cls-40 {
        fill: url(#linear-gradient-62);
      }

      .cls-41 {
        fill: url(#linear-gradient-61);
      }

      .cls-42 {
        fill: url(#linear-gradient-81);
      }

      .cls-43 {
        fill: url(#linear-gradient-80);
      }

      .cls-44 {
        fill: url(#linear-gradient-41);
      }

      .cls-45 {
        fill: url(#linear-gradient-40);
      }

      .cls-46 {
        fill: url(#linear-gradient-43);
      }

      .cls-47 {
        fill: url(#linear-gradient-42);
      }

      .cls-48 {
        fill: url(#linear-gradient-45);
      }

      .cls-49 {
        fill: url(#linear-gradient-46);
      }

      .cls-50 {
        fill: url(#linear-gradient-44);
      }

      .cls-51 {
        fill: url(#linear-gradient-49);
      }

      .cls-52 {
        fill: url(#linear-gradient-47);
      }

      .cls-53 {
        fill: url(#linear-gradient-48);
      }

      .cls-54 {
        fill: url(#linear-gradient-14);
      }

      .cls-55 {
        fill: url(#linear-gradient-18);
      }

      .cls-56 {
        fill: url(#linear-gradient-22);
      }

      .cls-57 {
        fill: url(#linear-gradient-20);
      }

      .cls-58 {
        fill: url(#linear-gradient-21);
      }

      .cls-59 {
        fill: url(#linear-gradient-23);
      }

      .cls-60 {
        fill: url(#linear-gradient-15);
      }

      .cls-61 {
        fill: url(#linear-gradient-19);
      }

      .cls-62 {
        fill: url(#linear-gradient-16);
      }

      .cls-63 {
        fill: url(#linear-gradient-17);
      }

      .cls-64 {
        fill: url(#linear-gradient-13);
      }

      .cls-65 {
        fill: url(#linear-gradient-12);
      }

      .cls-66 {
        fill: url(#linear-gradient-10);
      }

      .cls-67 {
        fill: url(#linear-gradient-11);
      }

      .cls-68 {
        fill: url(#linear-gradient-27);
      }

      .cls-69 {
        fill: url(#linear-gradient-24);
      }

      .cls-70 {
        fill: url(#linear-gradient-26);
      }

      .cls-71 {
        fill: url(#linear-gradient-38);
      }

      .cls-72 {
        fill: url(#linear-gradient-35);
      }

      .cls-73 {
        fill: url(#linear-gradient-37);
      }

      .cls-74 {
        fill: url(#linear-gradient-34);
      }

      .cls-75 {
        fill: url(#linear-gradient-39);
      }

      .cls-76 {
        fill: url(#linear-gradient-36);
      }

      .cls-77 {
        fill: url(#linear-gradient-25);
      }

      .cls-78 {
        fill: url(#linear-gradient-28);
      }

      .cls-79 {
        fill: url(#linear-gradient-29);
      }

      .cls-80 {
        fill: url(#linear-gradient-33);
      }

      .cls-81 {
        fill: url(#linear-gradient-30);
      }

      .cls-82 {
        fill: url(#linear-gradient-32);
      }

      .cls-83 {
        fill: url(#linear-gradient-31);
      }

      .cls-84 {
        fill: url(#linear-gradient-8);
      }

      .cls-84, .cls-85, .cls-86, .cls-87 {
        opacity: .7;
      }

      .cls-85 {
        fill: url(#linear-gradient-6);
      }

      .cls-86 {
        fill: url(#linear-gradient-7);
      }

      .cls-87 {
        fill: url(#linear-gradient-5);
      }
    </style>
    <linearGradient id="linear-gradient" x1="1076.25" y1="1011.3" x2="337.76" y2="365.12" gradientUnits="userSpaceOnUse">
      <stop offset="0" stop-color="#dae3fe"/>
      <stop offset="1" stop-color="#e9effd"/>
    </linearGradient>
    <linearGradient id="linear-gradient-2" x1="86.78" y1="473.57" x2="270.6" y2="512.49" gradientUnits="userSpaceOnUse">
      <stop offset="0" stop-color="#4f52ff"/>
      <stop offset="1" stop-color="#4042e2"/>
    </linearGradient>
    <linearGradient id="linear-gradient-3" x1="744.2" y1="201.61" x2="731.28" y2="430.87" xlink:href="#linear-gradient-2"/>
    <linearGradient id="linear-gradient-4" x1="377.63" y1="294.57" x2="704.18" y2="867.65" xlink:href="#linear-gradient-2"/>
    <linearGradient id="linear-gradient-5" x1="538.83" y1="137.37" x2="674.14" y2="137.37" xlink:href="#linear-gradient"/>
    <linearGradient id="linear-gradient-6" x1="538.83" y1="157.28" x2="674.14" y2="157.28" xlink:href="#linear-gradient"/>
    <linearGradient id="linear-gradient-7" x1="538.83" y1="177.18" x2="674.14" y2="177.18" xlink:href="#linear-gradient"/>
    <linearGradient id="linear-gradient-8" x1="538.83" y1="197.09" x2="674.14" y2="197.09" xlink:href="#linear-gradient"/>
    <linearGradient id="linear-gradient-9" x1="684.5" y1="178.01" x2="729.9" y2="178.01" xlink:href="#linear-gradient"/>
    <linearGradient id="linear-gradient-10" x1="740.92" y1="178.01" x2="786.32" y2="178.01" xlink:href="#linear-gradient"/>
    <linearGradient id="linear-gradient-11" x1="797.33" y1="178.01" x2="842.73" y2="178.01" xlink:href="#linear-gradient"/>
    <linearGradient id="linear-gradient-12" x1="684.5" y1="203.47" x2="729.9" y2="203.47" xlink:href="#linear-gradient"/>
    <linearGradient id="linear-gradient-13" x1="740.92" y1="203.47" x2="786.32" y2="203.47" xlink:href="#linear-gradient"/>
    <linearGradient id="linear-gradient-14" x1="797.33" y1="203.47" x2="842.73" y2="203.47" xlink:href="#linear-gradient"/>
    <linearGradient id="linear-gradient-15" x1="5426.66" y1="932.85" x2="5256.57" y2="1117.85" gradientTransform="translate(-4986.83 -50.59) rotate(.54)" gradientUnits="userSpaceOnUse">
      <stop offset="0" stop-color="#09005d"/>
      <stop offset="1" stop-color="#1a0f91"/>
    </linearGradient>
    <linearGradient id="linear-gradient-16" x1="5371.45" y1="946.58" x2="5386.56" y2="946.58" gradientTransform="translate(-4986.83 -50.59) rotate(.54)" gradientUnits="userSpaceOnUse">
      <stop offset="0" stop-color="#febbba"/>
      <stop offset="1" stop-color="#ff928e"/>
    </linearGradient>
    <linearGradient id="linear-gradient-17" x1="5440.06" y1="723.61" x2="5295.32" y2="919.78" xlink:href="#linear-gradient-15"/>
    <linearGradient id="linear-gradient-18" x1="5388.5" y1="897.76" x2="5218.41" y2="1082.78" xlink:href="#linear-gradient-15"/>
    <linearGradient id="linear-gradient-19" x1="5317" y1="945.81" x2="5330.04" y2="945.81" xlink:href="#linear-gradient-16"/>
    <linearGradient id="linear-gradient-20" x1="5414.26" y1="704.58" x2="5269.53" y2="900.75" xlink:href="#linear-gradient-15"/>
    <linearGradient id="linear-gradient-21" x1="4358.25" y1="1213.6" x2="4384.76" y2="1085.89" gradientTransform="translate(4857.96) rotate(-180) scale(1 -1)" gradientUnits="userSpaceOnUse">
      <stop offset="0" stop-color="#ff928e"/>
      <stop offset="1" stop-color="#fe7062"/>
    </linearGradient>
    <linearGradient id="linear-gradient-22" x1="5433.64" y1="552.43" x2="5510.83" y2="552.43" xlink:href="#linear-gradient-16"/>
    <linearGradient id="linear-gradient-23" x1="515.57" y1="538.28" x2="524.4" y2="479.65" gradientTransform="matrix(1, 0, 0, 1, 0, 0)" xlink:href="#linear-gradient-16"/>
    <linearGradient id="linear-gradient-24" x1="5510.46" y1="500.24" x2="5532.07" y2="467.01" xlink:href="#linear-gradient-16"/>
    <linearGradient id="linear-gradient-25" x1="4430.95" y1="1228.69" x2="4457.46" y2="1100.98" xlink:href="#linear-gradient-21"/>
    <linearGradient id="linear-gradient-26" x1="5264.73" y1="661.75" x2="5362.41" y2="661.75" xlink:href="#linear-gradient-16"/>
    <linearGradient id="linear-gradient-27" x1="5339.74" y1="557.33" x2="5378.36" y2="557.33" xlink:href="#linear-gradient-16"/>
    <linearGradient id="linear-gradient-28" x1="-1941.54" y1="1729.91" x2="-1955.97" y2="1682.31" gradientTransform="translate(716.61 -2047.15) rotate(-41.21)" xlink:href="#linear-gradient-16"/>
    <linearGradient id="linear-gradient-29" x1="-1954.56" y1="1646.97" x2="-1942.48" y2="1715.83" gradientTransform="translate(716.61 -2047.15) rotate(-41.21)" xlink:href="#linear-gradient-15"/>
    <linearGradient id="linear-gradient-30" x1="-1956.29" y1="1729.69" x2="-1969.27" y2="1686.86" gradientTransform="translate(716.61 -2047.15) rotate(-41.21)" xlink:href="#linear-gradient-16"/>
    <linearGradient id="linear-gradient-31" x1="5101.15" y1="599.11" x2="5155.05" y2="823.69" gradientTransform="translate(-4705.66)" xlink:href="#linear-gradient-15"/>
    <linearGradient id="linear-gradient-32" x1="5064.22" y1="658.52" x2="5094.76" y2="658.52" gradientTransform="translate(-4705.66)" xlink:href="#linear-gradient-16"/>
    <linearGradient id="linear-gradient-33" x1="379.03" y1="622.45" x2="444.56" y2="622.45" xlink:href="#linear-gradient"/>
    <linearGradient id="linear-gradient-34" x1="289.66" y1="857.05" x2="273.39" y2="969.43" xlink:href="#linear-gradient-2"/>
    <linearGradient id="linear-gradient-35" x1="246.76" y1="953.58" x2="262.87" y2="953.58" gradientTransform="matrix(1, 0, 0, 1, 0, 0)" xlink:href="#linear-gradient-16"/>
    <linearGradient id="linear-gradient-36" x1="370.23" y1="868.71" x2="353.96" y2="981.1" xlink:href="#linear-gradient-2"/>
    <linearGradient id="linear-gradient-37" x1="430.33" y1="724.75" x2="249.61" y2="858.48" gradientTransform="matrix(1, 0, 0, 1, 0, 0)" xlink:href="#linear-gradient-15"/>
    <linearGradient id="linear-gradient-38" x1="323.06" y1="954.94" x2="342.29" y2="954.94" gradientTransform="matrix(1, 0, 0, 1, 0, 0)" xlink:href="#linear-gradient-16"/>
    <linearGradient id="linear-gradient-39" x1="251.16" y1="862.89" x2="480.08" y2="705.06" gradientTransform="matrix(1, 0, 0, 1, 0, 0)" xlink:href="#linear-gradient-15"/>
    <linearGradient id="linear-gradient-40" x1="216.24" y1="683.95" x2="225.72" y2="660.04" gradientTransform="matrix(1, 0, 0, 1, 0, 0)" xlink:href="#linear-gradient-16"/>
    <linearGradient id="linear-gradient-41" x1="280.08" y1="612.55" x2="249.96" y2="689.66" gradientTransform="matrix(1, 0, 0, 1, 0, 0)" xlink:href="#linear-gradient-21"/>
    <linearGradient id="linear-gradient-42" x1="224.65" y1="506.66" x2="215.61" y2="801.23" gradientUnits="userSpaceOnUse">
      <stop offset="0" stop-color="#e1473d"/>
      <stop offset="1" stop-color="#e9605a"/>
    </linearGradient>
    <linearGradient id="linear-gradient-43" x1="297.24" y1="776.93" x2="341.66" y2="776.93" gradientTransform="matrix(1, 0, 0, 1, 0, 0)" xlink:href="#linear-gradient-16"/>
    <linearGradient id="linear-gradient-44" x1="2143.73" y1="1175.52" x2="2096.13" y2="1211.94" gradientTransform="translate(-2033.63 -250.11) rotate(-7.5)" xlink:href="#linear-gradient-16"/>
    <linearGradient id="linear-gradient-45" x1="2110.28" y1="1146.76" x2="2153.39" y2="1202.26" gradientTransform="translate(-2033.63 -250.11) rotate(-7.5)" xlink:href="#linear-gradient-15"/>
    <linearGradient id="linear-gradient-46" x1="2137.82" y1="1167.8" x2="2090.22" y2="1204.22" gradientTransform="translate(-2033.63 -250.11) rotate(-7.5)" xlink:href="#linear-gradient-16"/>
    <linearGradient id="linear-gradient-47" x1="1191.83" y1="-6612.92" x2="1073.02" y2="-6498.06" gradientTransform="translate(-8020.8 -141.08) rotate(-177.17) scale(1.39 -1.39)" xlink:href="#linear-gradient-15"/>
    <linearGradient id="linear-gradient-48" x1="-1313.27" y1="-6396.17" x2="-1432.06" y2="-6281.32" gradientTransform="translate(6634.29 -9371.05) rotate(-62.23) scale(1.39 -1.39)" xlink:href="#linear-gradient-15"/>
    <linearGradient id="linear-gradient-49" x1="529.85" y1="886.83" x2="596.41" y2="886.83" gradientTransform="matrix(1, 0, 0, 1, 0, 0)" xlink:href="#linear-gradient-16"/>
    <linearGradient id="linear-gradient-50" x1="570.57" y1="930.2" x2="560.78" y2="1080.31" xlink:href="#linear-gradient-2"/>
    <linearGradient id="linear-gradient-51" x1="451.7" y1="891.38" x2="592.15" y2="891.38" gradientTransform="matrix(1, 0, 0, 1, 0, 0)" xlink:href="#linear-gradient-16"/>
    <linearGradient id="linear-gradient-52" x1="538.36" y1="818.11" x2="695.71" y2="818.11" gradientTransform="matrix(1, 0, 0, 1, 0, 0)" xlink:href="#linear-gradient-15"/>
    <linearGradient id="linear-gradient-53" x1="476.1" y1="924.04" x2="466.31" y2="1074.15" xlink:href="#linear-gradient-2"/>
    <linearGradient id="linear-gradient-54" x1="649.2" y1="555.31" x2="626.03" y2="677.03" gradientTransform="matrix(1, 0, 0, 1, 0, 0)" xlink:href="#linear-gradient-15"/>
    <linearGradient id="linear-gradient-55" x1="803.99" y1="324.49" x2="714.83" y2="541.36" gradientTransform="matrix(1, 0, 0, 1, 0, 0)" xlink:href="#linear-gradient-21"/>
    <linearGradient id="linear-gradient-56" x1="610.86" y1="707.59" x2="601.37" y2="646.76" gradientTransform="matrix(1, 0, 0, 1, 0, 0)" xlink:href="#linear-gradient-16"/>
    <linearGradient id="linear-gradient-57" x1="-1707.63" y1="4424.01" x2="-1645.57" y2="4466.16" gradientTransform="translate(-1933.99 -3390.52) rotate(-52.83)" xlink:href="#linear-gradient-16"/>
    <linearGradient id="linear-gradient-58" x1="-1666.24" y1="4373.59" x2="-1689.4" y2="4495.31" gradientTransform="translate(-1933.99 -3390.52) rotate(-52.83)" xlink:href="#linear-gradient-15"/>
    <linearGradient id="linear-gradient-59" x1="-1703.91" y1="4418.53" x2="-1641.86" y2="4460.68" gradientTransform="translate(-1933.99 -3390.52) rotate(-52.83)" xlink:href="#linear-gradient-16"/>
    <linearGradient id="linear-gradient-60" x1="649.79" y1="776.67" x2="781.72" y2="776.67" gradientTransform="matrix(1, 0, 0, 1, 0, 0)" xlink:href="#linear-gradient-16"/>
    <linearGradient id="linear-gradient-61" x1="583.84" y1="916.66" x2="500.79" y2="939.42" gradientTransform="translate(23.87 -123.64) rotate(-2.83)" xlink:href="#linear-gradient-15"/>
    <linearGradient id="linear-gradient-62" x1="539.88" y1="709.42" x2="480.95" y2="771.71" gradientTransform="matrix(1, 0, 0, 1, 0, 0)" xlink:href="#linear-gradient-15"/>
    <linearGradient id="linear-gradient-63" x1="-10155.32" y1="1070.49" x2="-10154.45" y2="1162.74" gradientTransform="translate(-9430.98) rotate(-180) scale(1 -1)" xlink:href="#linear-gradient-15"/>
    <linearGradient id="linear-gradient-64" x1="-10177.56" y1="967.48" x2="-10182.35" y2="930.07" gradientTransform="translate(-9430.98) rotate(-180) scale(1 -1)" xlink:href="#linear-gradient-16"/>
    <linearGradient id="linear-gradient-65" x1="-10279.95" y1="1071.67" x2="-10279.08" y2="1163.91" gradientTransform="translate(-9430.98) rotate(-180) scale(1 -1)" xlink:href="#linear-gradient-15"/>
    <linearGradient id="linear-gradient-66" x1="-10282.17" y1="980.31" x2="-10286.83" y2="943.84" gradientTransform="translate(-9430.98) rotate(-180) scale(1 -1)" xlink:href="#linear-gradient-16"/>
    <linearGradient id="linear-gradient-67" x1="-10314.76" y1="841.75" x2="-10171.2" y2="841.75" gradientTransform="translate(-9430.98) rotate(-180) scale(1 -1)" xlink:href="#linear-gradient-15"/>
    <linearGradient id="linear-gradient-68" x1="940.79" y1="488.98" x2="905.85" y2="537.18" gradientTransform="matrix(1, 0, 0, 1, 0, 0)" xlink:href="#linear-gradient-21"/>
    <linearGradient id="linear-gradient-69" x1="943.15" y1="425" x2="746.77" y2="662.35" xlink:href="#linear-gradient-42"/>
    <linearGradient id="linear-gradient-70" x1="859.2" y1="674.57" x2="752.58" y2="788.42" gradientTransform="matrix(1, 0, 0, 1, 0, 0)" xlink:href="#linear-gradient-16"/>
    <linearGradient id="linear-gradient-71" x1="-10186.68" y1="658.88" x2="-10064.61" y2="658.88" gradientTransform="translate(-9430.98) rotate(-180) scale(1 -1)" xlink:href="#linear-gradient-16"/>
    <linearGradient id="linear-gradient-72" x1="-10230.63" y1="590.42" x2="-10188.14" y2="546.83" gradientTransform="translate(-9430.98) rotate(-180) scale(1 -1)" xlink:href="#linear-gradient-16"/>
    <linearGradient id="linear-gradient-73" x1="-10169.01" y1="519.37" x2="-10221.98" y2="589.44" gradientTransform="translate(-9430.98) rotate(-180) scale(1 -1)" xlink:href="#linear-gradient-16"/>
    <linearGradient id="linear-gradient-74" x1="-10209.46" y1="536.27" x2="-10146.2" y2="536.27" gradientTransform="translate(-9430.98) rotate(-180) scale(1 -1)" xlink:href="#linear-gradient-15"/>
    <linearGradient id="linear-gradient-75" x1="-10246.59" y1="574.86" x2="-10204.11" y2="531.27" gradientTransform="translate(-9430.98) rotate(-180) scale(1 -1)" xlink:href="#linear-gradient-16"/>
    <linearGradient id="linear-gradient-76" x1="981.95" y1="457.11" x2="785.57" y2="694.46" xlink:href="#linear-gradient-42"/>
    <linearGradient id="linear-gradient-77" x1="-7775.24" y1="-5082.35" x2="-7863.82" y2="-4866.89" gradientTransform="translate(-9430.98) rotate(-180) scale(1 -1)" xlink:href="#linear-gradient-2"/>
    <linearGradient id="linear-gradient-78" x1="326.45" y1="141.01" x2="375.27" y2="141.01" xlink:href="#linear-gradient"/>
    <linearGradient id="linear-gradient-79" x1="290.51" y1="140.62" x2="410.54" y2="140.62" xlink:href="#linear-gradient"/>
    <linearGradient id="linear-gradient-80" x1="495.2" y1="241.74" x2="528.46" y2="241.74" xlink:href="#linear-gradient"/>
    <linearGradient id="linear-gradient-81" x1="470.2" y1="241.47" x2="553.01" y2="241.47" xlink:href="#linear-gradient"/>
  </defs>
  <path class="cls-1" d="M950.74,675.71c-95.44,224.73-349.68,350.62-570.16,316.66-35.88-5.53-134.23-21.99-221.31-99.64C-8.36,743.24-44.21,447.22,91.02,238.61,189.44,86.77,365.87,.71,533.51,5.01c36.11,.93,174.5,6.64,296.12,106.93,17.86,14.73,57.26,49.73,92.77,105.26,83.38,130.39,90.55,312.05,28.35,458.51Z"/>
  <g>
    <path class="cls-9" d="M69.04,323.91l66.97,73.31c-41.91,31.61-68.19,93.64,1.96,167.41l-94.31,45.71c-66.1-115.75-56.75-207.21,25.38-286.43Z"/>
    <path class="cls-4" d="M29.6,583.74l64.98,1.05,11.67-63.99c35.69,73.3,120.02,103.93,216.53,72.66l48.73,90.58c-139.28,63.49-280.26,30.91-341.9-100.3Z"/>
    <path class="cls-7" d="M574.51,486.91c52.67-104.11,191.68-142.51,291.65-85.5l101.33-33.54c-118.35-157.88-333.4-127.92-466.99,29.84l74.01,89.2Z"/>
    <path class="cls-3" d="M808.26,597.11l42.99,100.43c156.87-65.34,204.34-286.59,62.71-384.06l1.03,65.07-66.66,13.87c98.17,46.57,54.42,178.55-40.08,204.69Z"/>
    <path class="cls-4" d="M528.25,625.52c148.62,106.88,278.66,120.82,382.35,35.89l-72.98-25.93,20.31-65c-91,63.16-175.57,42.61-256.75-22.06l-72.93,77.11Z"/>
    <path class="cls-4" d="M69.04,323.91v70.41s66.97,2.9,66.97,2.9c43.43-28.17,106.31-25.9,185.47-.57l46-101.99c-120.29-51.51-218.9-39.21-298.45,29.24Z"/>
    <path class="cls-8" d="M321.49,396.65l-37.62-78.37,83.62-23.62c54.32,28.33,98.07,63.03,133.01,103.04,38.46,84.7,91.24,156.98,157.25,187.83l-86.63,.91,13.34,75.57c-33.94-20.33-66.7-43.14-95.52-68.02l-65.05-115.66c-22.68-34.45-54.33-62.5-102.39-81.69Z"/>
    <path class="cls-3" d="M500.49,397.71c-25.45,27.21-42.1,67.32-66.02,95.82-38.14,45.46-85.7,104.2-171.52,111.84l70.07,36.25-41.71,68.4c139.97-27.82,237.9-119.12,283.2-223.12v-100.09l-74.01,10.89Z"/>
  </g>
  <g>
    <path class="cls-4" d="M524.26,106.58l340.68-1.49c3.26-.03,5.91,2.61,5.89,5.87l-.73,119.25c-.02,3.28-2.73,5.9-6.01,5.8-30.04-.9-337.94-4.85-343.83-4.6-5.82,.24-2.66-93.93-1.79-119.2,.11-3.12,2.66-5.61,5.78-5.63Z"/>
    <path class="cls-2" d="M864.27,231.4h-.04c-19.2-.57-203.19-2.87-291.61-3.97-25.85-.32-44.21-.55-49.1-.62h-.46s-.08-.46-.08-.46c-2.09-11.79-2.05-51.2,.1-113.98,.02-.65,.56-1.17,1.21-1.18l340.68-1.49c.34,0,.65,.13,.88,.36,.23,.23,.36,.53,.36,.87l-.73,119.25c0,.67-.55,1.22-1.21,1.22Zm-340.27-5.69c5.5,.08,23.53,.3,48.64,.61,88.42,1.1,272.42,3.4,291.63,3.97h.03s.08-.05,.08-.12l.73-119.25-.13-.67v.55s-340.67,1.49-340.67,1.49c-.06,0-.11,.05-.12,.11-2.13,61.92-2.2,101.05-.2,113.3Z"/>
    <path class="cls-87" d="M538.83,137.37h0c0,3.22,1.08,5.84,2.4,5.84h130.5c1.33,0,2.4-2.61,2.4-5.84h0c0-3.22-1.08-5.84-2.4-5.84h-130.5c-1.33,0-2.4,2.61-2.4,5.84Z"/>
    <path class="cls-85" d="M538.83,157.28h0c0,3.22,1.08,5.84,2.4,5.84h130.5c1.33,0,2.4-2.61,2.4-5.84h0c0-3.22-1.08-5.84-2.4-5.84h-130.5c-1.33,0-2.4,2.61-2.4,5.84Z"/>
    <path class="cls-86" d="M538.83,177.18h0c0,3.22,1.08,5.84,2.4,5.84h130.5c1.33,0,2.4-2.61,2.4-5.84h0c0-3.22-1.08-5.84-2.4-5.84h-130.5c-1.33,0-2.4,2.61-2.4,5.84Z"/>
    <path class="cls-84" d="M538.83,197.09h0c0,3.22,1.08,5.84,2.4,5.84h130.5c1.33,0,2.4-2.61,2.4-5.84h0c0-3.22-1.08-5.84-2.4-5.84h-130.5c-1.33,0-2.4,2.61-2.4,5.84Z"/>
    <g>
      <circle class="cls-2" cx="707.2" cy="141.49" r="22.7"/>
      <circle class="cls-2" cx="763.62" cy="141.49" r="22.7"/>
      <circle class="cls-2" cx="820.03" cy="142.23" r="22.7"/>
      <g>
        <path class="cls-4" d="M720.69,136.69c.7,1.71,1.09,3.58,1.09,5.54,0,8.05-6.53,14.58-14.58,14.58s-14.58-6.53-14.58-14.58,6.53-14.58,14.58-14.58c.25,0,.49,0,.74,.02v-3.7c-.24,0-.49-.02-.74-.02-10.09,0-18.27,8.18-18.27,18.27s8.18,18.27,18.27,18.27,18.27-8.18,18.27-18.27c0-2.49-.5-4.85-1.4-7.01l-3.39,1.47Z"/>
        <path class="cls-4" d="M771.14,154.57c-2.25,1.42-4.91,2.24-7.77,2.24-8.05,0-14.58-6.53-14.58-14.58s6.53-14.58,14.58-14.58c.25,0,.49,0,.74,.02v-3.7c-.24,0-.49-.02-.74-.02-10.09,0-18.27,8.18-18.27,18.27s8.18,18.27,18.27,18.27c3.52,0,6.81-1,9.6-2.72l-1.83-3.21Z"/>
        <path class="cls-4" d="M832.2,150.43c-2.62,3.85-7.05,6.38-12.06,6.38-8.05,0-14.58-6.53-14.58-14.58s6.53-14.58,14.58-14.58c.25,0,.49,0,.74,.02v-3.7c-.24,0-.49-.02-.74-.02-10.09,0-18.27,8.18-18.27,18.27s8.18,18.27,18.27,18.27c6.24,0,11.75-3.13,15.05-7.91l-2.99-2.17Z"/>
      </g>
      <g class="cls-11">
        <path class="cls-6" d="M725.7,173.8h-36.99c-2.32,0-4.2,1.88-4.2,4.2s1.88,4.2,4.2,4.2h36.99c2.32,0,4.2-1.88,4.2-4.2s-1.88-4.2-4.2-4.2Z"/>
        <path class="cls-66" d="M782.11,173.8h-36.99c-2.32,0-4.2,1.88-4.2,4.2s1.88,4.2,4.2,4.2h36.99c2.32,0,4.2-1.88,4.2-4.2s-1.88-4.2-4.2-4.2Z"/>
        <path class="cls-67" d="M801.54,182.21h36.99c2.32,0,4.2-1.88,4.2-4.2s-1.88-4.2-4.2-4.2h-36.99c-2.32,0-4.2,1.88-4.2,4.2s1.88,4.2,4.2,4.2Z"/>
        <rect class="cls-65" x="684.5" y="186.88" width="45.4" height="33.17" rx="4.2" ry="4.2"/>
        <rect class="cls-64" x="740.92" y="186.88" width="45.4" height="33.17" rx="4.2" ry="4.2"/>
        <rect class="cls-54" x="797.33" y="186.88" width="45.4" height="33.17" rx="4.2" ry="4.2"/>
      </g>
    </g>
  </g>
  <g>
    <g>
      <path class="cls-60" d="M377.07,947.07s-1.86,9.96-2.81,19.82c-.37,3.85,2.57,7.23,6.44,7.43,13.14,.67,41.25,2.01,51.34,1.65,1.52-.05,2.52-1.6,1.98-3.01h0c-.46-1.19-1.36-2.15-2.51-2.69l-46.24-21.79-8.19-1.4Z"/>
      <path class="cls-62" d="M375.68,941.2l1.3,11.94s8.1,3.87,13.7-.35l-3.24-13.32-11.76,1.73Z"/>
      <path class="cls-63" d="M378.89,716.96c-.64,3.11-4.76,155.41,10.87,223.83,.26,1.12-.32,2.26-1.38,2.68-2.51,1-7.42,2.43-13.29,2.57-1.82,.04-3.44-1.15-3.93-2.9-4.5-15.88-26.05-95.45-28.24-171.28-2.44-84.74,.03-2.88,.03-2.88l2.41-52.34,33.54,.33Z"/>
      <path class="cls-55" d="M323.59,951.77s-2.85,5.01-5.69,18.36c-.51,2.41,1.15,4.74,3.6,5,4.34,.47,11.01,1.08,16.37,1.1,2.47,0,4.41-2.12,4.14-4.58-.55-4.89-2.32-12.92-7.96-19.22l-10.45-.67Z"/>
      <path class="cls-61" d="M321.27,936.4l3.13,18.07s3.25,2.46,9.73,.76l-1.39-19.42-11.47,.59Z"/>
      <path class="cls-57" d="M314.4,721.02c-14.08,80.24,.99,198.67,6.24,221.87,.32,1.42,1.45,2.52,2.89,2.77,2.44,.43,6.45,.8,10.42-.32,1.37-.38,2.34-1.6,2.41-3.02,.91-18.71,.69-133.61,13.53-178.9,.65-2.3,2.08-4.29,4.03-5.65l24.25-16.89,2.11-27.66-65.88,7.8Z"/>
      <g>
        <path class="cls-58" d="M400.71,569.54c-39.9-1.04-84.04,9.68-84.04,9.68-12.56,69.3-3.51,149.46-3.51,149.46,30.82,8.4,65.8-4.33,65.8-4.33,5.41-28.96,30.15-110.39,30.15-110.39,19.52-2.23,35.64-7.71,48.94-15.02-9.98-11.79-14.59-26.72-16.58-35.54-14.15,4.25-28.45,6.46-40.76,6.14Z"/>
        <path class="cls-56" d="M519.15,511.88c-3.88-4.77-8.86-2.58-8.86-2.58-6.11,24.75-37.1,44.57-68.83,54.1,1.98,8.82,6.6,23.75,16.58,35.54,52.79-29.02,61.11-87.06,61.11-87.06Z"/>
      </g>
      <g>
        <path class="cls-59" d="M518.19,513.07c.4,1.31-4.37,3.25-7.12-2.11-.07-2.56-1.52-13.52,.02-15.59,8.24-11.01,24.15-24.77,24.15-24.77,2.64,2.66,.42,5.22,.42,5.22l-7.73,7.9c1.57,2.91,3.5,5.37,4.38,8.87,.67,2.66,.22,5.48-1.14,7.88-1.37,2.41-3.23,5.53-4.98,7.98-3.32,4.63-8,4.62-8,4.62Z"/>
        <path class="cls-69" d="M524.54,488.86l-7.03,5.84-2.25,5.86,6.15,6.96s2.2-11.66,3.78-14.17c1.58-2.51,.78-3.74-.66-4.49Z"/>
      </g>
      <path class="cls-77" d="M331.6,618.01l-14.94-38.79s-37.52,24.97-43.96,57.03c7.04,.59,19.84,2.54,32.32,8.99,2.9-15.14,26.57-27.23,26.57-27.23Z"/>
      <path class="cls-70" d="M363.83,654.68s-42.08,23.25-56.01,2.92c-2.89-4.22-3.55-8.4-2.79-12.36-12.49-6.45-25.28-8.41-32.32-8.99-1.94,9.66-1.06,19.97,4.53,30.43,24.31,45.49,92.04-1.62,92.04-1.62l-5.44-10.37Z"/>
      <path class="cls-68" d="M360.59,536.75l-13.05,36.6c-.22,.61,.03,1.28,.59,1.6,3.44,1.95,15.86,7.6,30.98-1.79,1.58-.98,2.66-2.59,2.91-4.42l4.42-31.74-25.85-.25Z"/>
      <g>
        <path class="cls-78" d="M388.54,503.01s13.69,26.38,11.81,36.97c-1.89,10.59-19.16,9.66-34.17,.9l-10.27-28.44,32.64-9.43Z"/>
        <path class="cls-79" d="M366.98,526.97c.62-.27,.85-1.01,.49-1.58-1.1-1.72-3.16-5.22-3.8-8.27,0,0-2.49-1.63,6.42-3.67,8.91-2.04,22.19-5.22,25.05-12.76,2.79-7.35-4.17-25.96-15.7-11.3-.44,.56-1.29,.56-1.71,0-1.84-2.45-6.7-7.54-13.54-4.54-6.4,2.8-7.16,7.46-7.1,9.82,.02,.69-.61,1.23-1.28,1.09-3.22-.65-10.95-1.25-14.63,6.65-3.04,6.51-1.14,10.23,.6,12.05,.56,.59,.31,1.55-.48,1.79-2.12,.63-4.88,2.4-4.65,7.36,.31,6.86,7.99,6.33,10.18,6.04,.36-.05,.72,.08,.96,.35,1.85,2.09,10.21,10.97,19.33,12.12,.79,.1,1.41-.68,1.16-1.43l-3.84-11.53c-.18-.54,.08-1.12,.6-1.34l1.97-.85Z"/>
        <path class="cls-81" d="M368.55,528.62s-9.86-6.91-10.64-1.18c-.78,5.73,8.86,8.39,13.67,6.3l-3.03-5.12Z"/>
      </g>
      <g>
        <g>
          <path class="cls-83" d="M355.23,691.43l22.92-80.05c.26-.91,1.04-1.57,1.97-1.68,4.15-.48,16.19-1.85,30.08-3.02,16.74-1.42,36.17-2.56,47.79-1.59,1.65,.14,2.65,1.89,1.91,3.37-6.6,13.36-33.77,67.72-47.38,85.52-.45,.59-1.15,.93-1.89,.93l-53.18-.49c-1.55-.01-2.66-1.5-2.23-2.99Z"/>
          <path class="cls-82" d="M360.77,672.09s-3.19-13.13-1.91-17.79c1.29-4.66,3.78-10.65,12.1-9.32,8.32,1.33,18.13,4.84,18.13,4.84,0,0-.5,6.07-6.82,4.11l3.92,3.03s-.56,4.86-5.9,2.26l3.65,4.02s-2.29,3.99-6.22,1.43c-3.93-2.56-5.81,8.99-16.95,7.41Z"/>
        </g>
        <path class="cls-3" d="M408.68,630.58c0,3.72,3.01,6.73,6.73,6.73s6.73-3.01,6.73-6.73-3.01-6.73-6.73-6.73-6.73,3.01-6.73,6.73Z"/>
        <path class="cls-80" d="M380.75,635.01l-1.72-.51,4.67-15.83c.76-2.58,2.84-4.52,5.43-5.05,14.79-3.09,53.75-3.72,55.4-3.74l.03,1.79c-.4,0-40.44,.65-55.07,3.7-1.94,.41-3.51,1.86-4.08,3.81l-4.67,15.83Z"/>
      </g>
    </g>
    <g>
      <path class="cls-4" d="M109.47,859.04c-2.44,3.62-12.15,85.48-13.67,115.71-.1,2.04,1.53,3.75,3.58,3.75h0c1.77,0,3.27-1.29,3.54-3.03l17.76-113.83-11.21-2.6Z"/>
      <path class="cls-4" d="M187.54,859.04c2.44,3.62,12.15,85.48,13.67,115.71,.1,2.04-1.53,3.75-3.58,3.75h0c-1.77,0-3.27-1.29-3.54-3.03l-17.76-113.83,11.21-2.6Z"/>
      <path class="cls-4" d="M94.78,852.65v.89c-.07,6.42,5.47,11.69,12.39,11.81l82.1,1.4c6.83,.12,12.52-4.82,12.85-11.14l.04-.82c.35-6.59-5.25-12.15-12.37-12.28l-82.14-1.47c-7.03-.13-12.82,5.09-12.88,11.61Z"/>
    </g>
    <g>
      <g>
        <path class="cls-4" d="M267.73,971.78c-14.59,0-21.05-1.25-23.94-2.39,.56,2.4,2.7,4.29,5.39,4.29h51.63c1.74,0,2.84-1.66,2.42-3.17-5.89,.47-18.39,1.28-35.51,1.28Z"/>
        <path class="cls-74" d="M303.23,970.5c-.08-.3-.21-.6-.42-.88-3.93-5.02-11.83-12.91-22.58-12.76-15.74,.22-21.23,1.93-33.47,.1l-2.89,9.57c-.29,.98-.3,1.95-.09,2.85,2.89,1.14,9.34,2.39,23.94,2.39,17.12,0,29.62-.8,35.51-1.28Z"/>
      </g>
      <path class="cls-72" d="M250.31,946.65l-3.54,12.05s7.85,3.57,14.75,.7l1.36-10.44-12.57-2.31Z"/>
      <g>
        <path class="cls-4" d="M357.32,964.19c-11.38,9.14-17.19,12.21-20.15,13.14,1.93,1.51,4.78,1.64,6.88-.05l40.25-32.34c1.36-1.09,1.17-3.07-.09-3.98-4.29,4.05-13.54,12.51-26.88,23.23Z"/>
        <path class="cls-76" d="M384.2,940.96c-.25-.18-.54-.34-.88-.42-6.2-1.43-17.27-2.6-25.55,4.25-12.14,10.03-15.35,14.8-26.03,21.04l3.71,9.23c.38,.94,.98,1.7,1.71,2.27,2.96-.92,8.78-4,20.15-13.14,13.35-10.72,22.59-19.18,26.88-23.23Z"/>
      </g>
      <path class="cls-73" d="M174.51,809.36s87.38,7.13,105.31,15.57c17.93,8.44-14.63,126.71-14.63,126.71,0,0-4.88,2.35-15.74-1.03,0,0,11.13-87.28,2.85-106.2l-94.61-15.47,16.82-19.58Z"/>
      <path class="cls-71" d="M323.06,949.21c.81,.74,8.68,16.61,8.68,16.61,0,0,8.76-1.9,10.55-7.44l-7.88-14.33-11.35,5.15Z"/>
      <path class="cls-75" d="M121.89,808.63s-2.85,6.85-2.73,15.96c.16,12.59,10.28,22.81,22.86,23.44l103.3,4.71c2.18,.1,4.03,1.61,4.57,3.72,2.43,9.39,14.29,38.22,72.29,95.76,1.54,1.53,3.95,1.79,5.78,.63l8.26-5.22c.87-.55,1.14-1.68,.63-2.57l-60.15-102.71c-3.16-5.21-8.24-8.98-14.14-10.49l-88.04-22.5-52.63-.73Z"/>
      <path class="cls-45" d="M223.68,648.2s-11.07,19.57-22.35,29.04l23.32,13.01s5.25-20.71,17.26-26.78l-18.23-15.28Z"/>
      <path class="cls-44" d="M120.01,809.36s27.89,6.8,54.5,0c0,0,37.25-50.07,51.66-63.7,0,0,22.98,36.27,74.14,41.41l2.85-6.38s-40.73-18.77-53.27-47.62c-12.54-28.85-17.57-41.15-28.98-48.68-7.1-4.69-11.36-7.89-13.56-9.64-1.2-.96-2.86-1.07-4.18-.27-12.11,7.38-69.07,46.39-83.18,134.87Z"/>
      <path class="cls-47" d="M224.66,744.96c-.54,0-1.07-.24-1.42-.7-8.88-11.58-13.83-24.34-14.03-24.88-.35-.92,.11-1.96,1.03-2.31,.92-.35,1.96,.11,2.31,1.03,.05,.13,4.98,12.83,13.53,23.99,.6,.78,.45,1.91-.33,2.51-.32,.25-.71,.37-1.09,.37Z"/>
      <path class="cls-46" d="M297.24,777.37l5.76-1.53,17.48-4.05c2.1-.49,4.32-.11,6.15,1.04l15.03,9.46-41.52-.07-2.91-4.84Z"/>
      <g>
        <path class="cls-50" d="M241.25,618.86s10.75,17.88,12.62,27.76c1.87,9.88,4.86,16.06-6.38,19.58-11.25,3.52-21.7-.94-28.25-10.16,0,0-10.24-14.19-9.22-20.69,1.02-6.5,31.24-16.48,31.24-16.48Z"/>
        <path class="cls-48" d="M222.23,648.39l1.45-.19s-7.61-11.51-2.63-14.36c4.98-2.85,25.29-9.86,28.81-17.86,3.4-7.71-1.69-16.42-7.82-18.24-.39-.11-.8,.11-.94,.49l-.36,.97c-.25,.66-1.18,.69-1.46,.04h0c-.27-.62-1.15-.64-1.43-.03-1.09,2.4-4.34,6.49-14.11,9.65-13.86,4.49-22.49,11.48-21.42,21.32,.07,.62-.55,1.05-1.13,.8-1.13-.5-2.85-.58-4.84,1.6-3.47,3.79-.75,12.09,8.72,17.96,.45,.28,.53,.91,.13,1.26-1.42,1.21-3.41,3.92,3,6.33,6.55,2.47,10.13,1.63,11.45,1.1,.36-.14,.56-.51,.49-.89l-1.68-8.63c-.09-.45,.22-.87,.67-.93l3.1-.41Z"/>
        <path class="cls-49" d="M222.83,650.16s-4.75-11.7-9.73-7.59c-4.98,4.11,4.61,13.2,9.03,13.08l.7-5.49Z"/>
      </g>
    </g>
    <g>
      <path class="cls-52" d="M281.2,790.42c.07,0,.14,0,.2,0l88.69-.09c2.19,0,3.97-1.78,3.97-3.97,0-2.19-1.79-4-3.97-3.96l-88.69,.09c-2.19,0-3.97,1.78-3.97,3.97,0,2.12,1.67,3.85,3.77,3.95Z"/>
      <path class="cls-53" d="M404.44,703.57c-.03,.06-.06,.12-.09,.18l-37.32,80.46c-.92,1.99-.06,4.35,1.92,5.27,1.99,.92,4.38,.06,5.27-1.93l37.32-80.46c.92-1.99,.06-4.35-1.92-5.27-1.92-.89-4.2-.11-5.18,1.75Z"/>
    </g>
    <g>
      <g>
        <rect class="cls-4" x="627.33" y="871.28" width="9.36" height="101.23"/>
        <path class="cls-4" d="M673,974.47h-81.99c0-3.37,2.73-6.09,6.09-6.09h69.8c3.37,0,6.09,2.73,6.09,6.09h0Z"/>
        <rect class="cls-4" x="582.08" y="848.6" width="103.08" height="29.24" rx="10.07" ry="10.07"/>
      </g>
      <g>
        <path class="cls-51" d="M562.9,803.79s-13.91,2.16-29.55,12.61c-2.46,1.65-3.81,4.51-3.44,7.45,1.87,14.83,9.57,62.84,34.96,109.74,1.34,2.47,1.72,5.35,1.13,8.1l-4.41,20.53-8.18,7.67h21.07l14.03-37.97-6-1.9c-4.65-1.47-7.84-5.75-7.93-10.63l-.7-40.73c.6-18.14-11.13-30.66-11.13-30.66l33.65-1.64-33.51-42.58Z"/>
        <path class="cls-21" d="M545.19,973.59c-1.92,2.51,20.65,5.83,32.06,.33,0,0,15.81-27.5,15.81-41.67,0,0-1.25-2.89-10.54-2.23,0,0-5.31,32.57-10.91,36.21-5.6,3.65-15.68,.37-15.68,.37,0,0-7.9,3.28-10.73,6.98Z"/>
        <path class="cls-19" d="M592.15,848.6c-.18-.31-36.23-4.33-36.23-4.33,0,0,1.18,10.96-2.51,26.05-3.69,15.09-56.62,80.46-56.62,80.46l5.55,17.59c-17.16,5.98-34.04,6.93-50.65,3.05l34.39-20.64s32.19-109.7,51.91-129.26l36.14-12.5,18.02,39.59Z"/>
        <path class="cls-20" d="M673,784.77s20.77,30.89,22.47,44.99c1.7,14.09-5.69,19.82-27.48,20.76-21.79,.94-79.97,.93-79.97,.93l-49.66-42.44s36.19-12.91,45.6-16.56c9.41-3.65,89.04-7.68,89.04-7.68Z"/>
        <path class="cls-17" d="M500.25,962.45s5.98,5.79,1.94,12.23c0,0-47.33,8.39-60.18,4.58,0,0,2.67-6.09,17.14-13.02l-1.07,.82c-1.35,1.04-.56,3.2,1.14,3.1,9.54-.54,29.27-2.29,41.03-7.71Z"/>
      </g>
      <g>
        <path class="cls-18" d="M583.03,588.85c42.46-7.22,62.45,27.41,60.99,34.69-.19,.97,.72,1.78,1.67,1.53,4.87-1.31,15.64-2.97,22.32,5.4,5.89,7.38,1.49,14.35-2.1,18.18-.87,.92-.14,2.42,1.12,2.27,8.96-1.13,28.44-1.4,31.62,16.84,2.97,17.01-8.87,21.81-15.89,23.16-1.19,.23-1.47,1.79-.44,2.44,3.5,2.22,7.56,6.81,5.92,15.88-2.57,14.21-30.42,13.04-33.68,12.86-.21-.01-.4-.07-.58-.17l-44.61-25.44c-.35-.2-.59-.54-.66-.94l-9.01-52.01c-.07-.42,.06-.85,.35-1.16l-29.08-41.04c-10.56-1.55,11.56-12.38,12.06-12.47Z"/>
        <path class="cls-15" d="M616.83,780.68s-24.19-23.03-36.09-38.29c-6.44-8.25-8.46-19.1-5.48-29.13,5.44-18.31,15.1-37.28,15.98-40.23,1.35-4.52,28.47-4.34,28.47-4.34,0,0,53.37,34.64,74.34,93.31l-23.55,7.33s-13.93-23.38-27.7-38.24c0,0,23.82,31.47,24.66,44.35l-50.62,5.23Z"/>
        <path class="cls-16" d="M587.95,647.75c.28,.94,7.36,24.41,7.92,24.89,.55,.49,15.52,1.29,22.57-3.52l-17.48-34.19-13.01,12.82Z"/>
        <g>
          <path class="cls-13" d="M559.57,617.6s-3.42,13.44,6.04,31.52c9.46,18.08,20.18,18.06,26.04,12.27,5.86-5.79,13.08-15.61,11.36-33.09-1.72-17.48-38.5-27.81-43.44-10.71Z"/>
          <path class="cls-14" d="M589.93,629.26s-15.7-24.01-30.43-5.11l-.27,6.87s-17.25-2.05-14.23-17.86c3.02-15.81,17.92-25.7,37.12-18.85,19.19,6.85,30.19,13.87,31.43,27.63,1.24,13.76-9.7,10.74-9.7,10.74,0,0-3.57-9.69-8.64-10.69-5.08-1.01-3.76,6.55-3.76,6.55l-1.52,.73Z"/>
          <path class="cls-12" d="M593.95,628.93s-8.14-12.29,.2-14.13c8.35-1.83,7.05,11.98,6.15,17.09l-6.35-2.96Z"/>
        </g>
        <path class="cls-39" d="M567.55,782.39l17.77-17.13,24.58,10.39s24.47,3.79,38.48,0l14.01-3.79,31.65-9.85,4.97,14.05c1.26,3.57,0,7.53-3.09,9.72-2.74,1.95-5.95,4.08-7.99,4.98-4.17,1.82-102.74-1.26-102.74-1.26l-17.63-7.1Z"/>
      </g>
      <g>
        <path class="cls-41" d="M634.8,790.47c-.08,0-.16,0-.24,0l-103.08-.11c-2.55,0-4.61-2.07-4.61-4.62,0-2.55,2.08-4.66,4.62-4.61l103.08,.11c2.55,0,4.61,2.07,4.61,4.62,0,2.47-1.94,4.48-4.38,4.6Z"/>
        <path class="cls-40" d="M438.81,696.87h85.85c6.33,0,12.1,3.65,14.8,9.38l39.69,84.16h-106.69c-4.08,0-7.75-2.49-9.25-6.29l-30.78-77.87c-1.78-4.5,1.54-9.38,6.38-9.38Z"/>
        <path class="cls-3" d="M499.29,740.02c1.86,5.78,.49,11.39-3.07,12.54-3.56,1.14-7.95-2.61-9.81-8.39-1.86-5.78-.49-11.39,3.07-12.54,3.56-1.14,7.95,2.61,9.81,8.39Z"/>
      </g>
    </g>
    <g>
      <g>
        <path class="cls-36" d="M752.33,961.71s1.08,6.01,1.51,13.14c.18,3.04-2.07,5.68-5.1,5.97-10.55,1.02-34.57,2.91-49.9,.7-2.15-.31-3-2.95-1.41-4.43,6.32-5.89,21.59-17.35,46.73-19.86l8.18,4.47Z"/>
        <path class="cls-35" d="M757.57,948.17l-5.33,13.08c-.73,1.79-2.55,2.91-4.47,2.7-1.31-.14-2.85-.39-4.36-.84-3.01-.91-4.71-4.11-3.81-7.12l4.03-13.47,13.95,5.65Z"/>
        <path class="cls-38" d="M848.78,972.12s-10.68,8.94-14.84,20.4c-1.14,3.15,1.27,6.48,4.63,6.48h21.98c3.22,0,5.68-2.89,5.12-6.06-1.4-7.92-5.44-20.78-16.89-20.82Z"/>
        <path class="cls-37" d="M862.01,960.49s-2.16,9.55-3.82,15.86c-.3,1.15-1.52,1.77-2.64,1.38-3.33-1.19-6.03-1.72-8-1.45-.91,.12-1.7-.63-1.72-1.55l-.21-15.86,16.38,1.63Z"/>
        <path class="cls-33" d="M805.2,745.58l-64.98,198.23s12.46,8.16,18.4,7.82l77.18-159.31s13.51,98.16,6.96,168.63l22.11,1.69s35.94-180.09,8.72-241.77l-68.39,24.71Z"/>
        <path class="cls-3" d="M835.38,790.61s.05,0,.08,0c.34-.04,.59-.36,.55-.7l-2.52-20.01c-.04-.34-.35-.58-.7-.55-.34,.04-.59,.36-.55,.7l2.52,20.01c.04,.32,.31,.55,.62,.55Z"/>
      </g>
      <path class="cls-32" d="M793.02,571.15s52.64,4.67,45.2,42.18c0,0,29.1,54.76,42.71,119.27,.44,2.1-.96,4.15-3.08,4.51l-87.67,15.01c-2.42,.41-4.75-1.09-5.37-3.47l-20.95-80.96-8.16,37.64-25.94-6.76,21.83-110.6s3.05-16.14,41.42-16.83Z"/>
      <path class="cls-34" d="M763.41,664.08s.09,0,.14-.01c.35-.08,.58-.42,.5-.78l-7.31-33.56c-.08-.35-.42-.57-.78-.5-.35,.08-.58,.42-.5,.78l7.31,33.56c.07,.31,.34,.51,.64,.51Z"/>
      <path class="cls-28" d="M768.7,763.93c2.76-1.52,5.99-1.94,9.05-1.18l6.1,1.52c1.3,.32,2.58-.57,2.73-1.9l6.31-56.18c7.89,3.75,19.28,3.3,23.03,3.03l-14.53,66.23h-50.84l18.14-11.52Z"/>
      <path class="cls-29" d="M633.63,642.07l1.54-5.11c.88-2.94,3.06-5.32,5.9-6.46l27.79-11.18s.42-3.56-5.87-5.99c-6.29-2.42-4.82-9.47-4.82-9.47,0,0,8.6,3.92,21.18,10.14,7.2,3.56,11.23,9.84,13.38,14.56l62.98,76.77-7.39,5.08c-9.72,6.68-23.09,3.4-28.62-7.02l-34.12-65.42c-17.13,5.15-34.46,6.13-51.94,4.09Z"/>
      <g>
        <path class="cls-30" d="M775.96,535.34l16.19,45.32s-14.34,11.21-24.8,7.42l-8.16-25.98s6.23-31.75,16.77-26.76Z"/>
        <g>
          <path class="cls-31" d="M727.64,519.06c0,.7,15.6,44.15,15.6,44.15l24.62-9.43-8.66-43.38s-31.56-3.03-31.56,8.66Z"/>
          <path class="cls-25" d="M754.87,520.97l6.35,22.48c.08,.29,.12,.58,.12,.88,0,1.83-.45,8.14-6.88,7.28-5.83-.78-11.16-1.4-14.56,.19-1.52,.72-2.25,2.47-1.68,4.05,1.42,3.95,4.78,12.78,8.87,20.02,.83,1.47,2.65,2.04,4.19,1.34,4.62-2.1,14.25-6.81,21.11-12.42,.93-.76,1.38-1.95,1.15-3.13-1.08-5.75-4.29-23.24-4.44-28.25-.13-4.7,5.15-8.3,7.47-9.65,.76-.44,1.3-1.17,1.51-2.03,.73-3.03,1.35-9.88-7.39-11.39-1.83-.32-3.02-2.07-2.65-3.89,.74-3.62,.5-8.95-6.37-10.91-6.99-2-11.39,2.21-13.63,5.44-.9,1.3-2.6,1.73-4.05,1.08-.83-.37-1.82-.38-2.89,.52-1.44,1.22-3.64,.85-4.7-.72-2.04-3-5.74-6-12.01-3.97-11.12,3.6-10.59,16.43-6.51,23.4,4.08,6.97,15.92,2.38,21.52-2.24,4.26-3.51,10.75-1.41,13.61-.2,.91,.38,1.58,1.16,1.85,2.11Z"/>
          <path class="cls-26" d="M771.35,541.62s-6.58-12.45-2.23-16.37c4.35-3.91,11.73-3.27,11.53,6.47-.25,12.11-9.3,9.9-9.3,9.9Z"/>
        </g>
      </g>
      <path class="cls-27" d="M810.82,710.06c3.59,0,6.16-.27,6.43-.3l.47-.05,19.17-89.37c.08-.35-.15-.7-.5-.78-.36-.08-.7,.15-.78,.5l-18.97,88.45c-2.85,.25-18.09,1.26-26.13-4.44l16.61-77.65-3.47-6.53c-.17-.32-.56-.44-.88-.27-.32,.17-.44,.56-.27,.88l3.24,6.11-16.68,78.01,.33,.25c5.81,4.37,15.17,5.19,21.42,5.19Z"/>
    </g>
    <g>
      <path class="cls-3" d="M236.15,982.55c-.44,0-.89-.1-1.32-.3-1.69-.8-2.48-2.94-1.75-4.79l70.05-177.73c.73-1.85,2.69-2.7,4.39-1.91,1.69,.8,2.48,2.94,1.75,4.79l-70.05,177.73c-.54,1.38-1.78,2.21-3.07,2.21Z"/>
      <path class="cls-3" d="M315.07,982.55c-1.29,0-2.53-.83-3.07-2.21l-70.05-177.73c-.73-1.85,.05-3.99,1.75-4.79,1.69-.8,3.66,.06,4.39,1.91l70.05,177.73c.73,1.85-.05,3.99-1.75,4.79-.43,.2-.88,.3-1.32,.3Z"/>
      <path class="cls-3" d="M711.55,982.55c-.44,0-.89-.1-1.32-.3-1.69-.8-2.48-2.94-1.75-4.79l70.05-177.73c.73-1.85,2.69-2.7,4.39-1.91,1.69,.8,2.48,2.94,1.75,4.79l-70.05,177.73c-.54,1.38-1.78,2.21-3.07,2.21Z"/>
      <path class="cls-3" d="M790.46,982.55c-1.29,0-2.53-.83-3.07-2.21l-70.05-177.73c-.73-1.85,.05-3.99,1.75-4.79,1.69-.8,3.66,.06,4.39,1.91l70.05,177.73c.73,1.85-.05,3.99-1.75,4.79-.43,.2-.88,.3-1.32,.3Z"/>
    </g>
    <g>
      <path class="cls-5" d="M701.38,787.18h101.45s0-10.47,0-10.47h-101.45c2.17,0,2.17,10.47,0,10.47Z"/>
      <path class="cls-22" d="M801.63,787.18c.66,0,1.2-.54,1.2-1.2v-8.06c0-.66-.54-1.2-1.2-1.2h-102.14c-.66,0-1.2-.53-1.2-1.18s.54-1.18,1.2-1.18h109.15c2.42,0,4.38,1.96,4.38,4.38v6.69c0,2.28-1.85,4.13-4.13,4.13h-109.4c-.66,0-1.2-.53-1.2-1.18s.54-1.18,1.2-1.18h102.14Z"/>
    </g>
    <path class="cls-3" d="M817.54,794.23c.34-1.17-.12-2.38-1.27-3.3-1.14-.92-2.84-1.45-4.64-1.45H203.74c-2.36,0-4.56,.8-5.83,2.12-1.27,1.32-1.44,2.98-.45,4.4l6.59,9.46c1.51,2.17,4.78,3.55,8.37,3.55H807.47c3.35,0,6.22-1.57,6.86-3.75l3.22-11.03Z"/>
  </g>
  <g>
    <g>
      <g class="cls-10">
        <path class="cls-5" d="M485.77,174.01c-1.92-.4-3.16-2.29-2.76-4.21,.78-3.74,1.41-7.57,1.86-11.38,.23-1.93,1.97-3.31,3.89-3.11,.02,0,.05,0,.07,0,1.95,.24,3.34,2.01,3.11,3.96-.48,4.01-1.14,8.04-1.96,11.98-.37,1.8-2.05,3-3.84,2.82-.12-.01-.25-.03-.37-.06Zm.07-34.29c-.06-3.84-.29-7.71-.68-11.5-.2-1.95,1.22-3.7,3.18-3.9,1.96-.19,3.7,1.22,3.9,3.18,.41,4,.65,8.07,.72,12.11,.03,1.96-1.53,3.58-3.5,3.62-.14,0-.28,0-.42-.02-1.77-.18-3.17-1.66-3.2-3.48Zm-3.88-29.95c-.91-3.72-2-7.44-3.23-11.06-.63-1.86,.37-3.88,2.23-4.51,1.86-.63,3.88,.36,4.51,2.23,1.3,3.82,2.44,7.74,3.4,11.65,.47,1.91-.7,3.84-2.61,4.31-.41,.1-.81,.13-1.21,.09-1.45-.15-2.73-1.19-3.1-2.69Zm-10.48-28.33c-1.72-3.42-3.62-6.81-5.62-10.06-1.03-1.67-.51-3.87,1.16-4.9,1.67-1.03,3.86-.51,4.9,1.16,2.11,3.43,4.11,6.99,5.92,10.59,.88,1.75,.18,3.9-1.58,4.78-.63,.32-1.31,.43-1.96,.36-1.17-.12-2.25-.81-2.82-1.94Zm-16.53-25.29c-2.43-2.95-5.03-5.83-7.71-8.57-1.38-1.4-1.35-3.66,.05-5.03,1.4-1.38,3.66-1.35,5.03,.05,2.82,2.88,5.55,5.92,8.12,9.02,1.25,1.51,1.04,3.76-.48,5.01-.76,.63-1.71,.89-2.63,.8-.9-.09-1.76-.52-2.38-1.27Zm-21.71-21c-3.03-2.34-6.2-4.57-9.42-6.65-1.65-1.06-2.13-3.27-1.06-4.92,1.06-1.65,3.27-2.13,4.92-1.07,3.39,2.18,6.72,4.54,9.91,7,1.56,1.2,1.84,3.43,.64,4.99-.78,1.01-2,1.49-3.18,1.37-.64-.06-1.27-.3-1.81-.72ZM303.16,11.92c-.63-1.86,.37-3.88,2.23-4.51,3.81-1.29,7.74-2.43,11.66-3.38,1.91-.47,3.84,.7,4.3,2.61,.47,1.91-.7,3.83-2.61,4.3-3.72,.91-7.45,1.99-11.07,3.21-.5,.17-1,.22-1.49,.17-1.35-.14-2.55-1.04-3.01-2.4Zm104.28,7.58c-3.47-1.6-7.06-3.08-10.65-4.38-1.85-.67-2.81-2.71-2.14-4.56,.67-1.85,2.71-2.8,4.56-2.14,3.79,1.37,7.56,2.92,11.22,4.61,1.78,.82,2.56,2.94,1.74,4.72-.65,1.41-2.12,2.2-3.59,2.05-.38-.04-.77-.14-1.13-.31Zm-74.14-14.91c-.2-1.95,1.23-3.7,3.19-3.9,4.01-.4,8.08-.63,12.11-.69,1.97-.04,3.58,1.54,3.61,3.5,.03,1.96-1.54,3.58-3.51,3.61-3.83,.06-7.71,.28-11.51,.66-.24,.02-.48,.02-.72,0-1.65-.17-3.01-1.47-3.18-3.19Zm45.48,5.41c-3.74-.79-7.57-1.42-11.37-1.89-1.95-.24-3.34-2.01-3.1-3.96,.24-1.93,1.97-3.3,3.89-3.11,.02,0,.05,0,.08,0,4,.49,8.03,1.16,11.97,1.99,1.92,.41,3.15,2.29,2.75,4.22-.38,1.8-2.05,2.99-3.84,2.81-.13-.01-.25-.03-.38-.06Z"/>
        <path class="cls-5" d="M283.33,24.42c.7,.07,1.42-.06,2.08-.43,1.6-.89,3.25-1.76,4.9-2.59,1.76-.88,2.46-3.02,1.58-4.78-.88-1.76-3.02-2.47-4.78-1.58-1.73,.87-3.47,1.79-5.16,2.73-1.72,.95-2.34,3.12-1.38,4.84,.59,1.06,1.64,1.7,2.76,1.81Z"/>
      </g>
      <g class="cls-10">
        <path class="cls-5" d="M216.56,109.94c1.71,.17,3.34-.91,3.79-2.63,.47-1.77,.99-3.57,1.53-5.33,.58-1.88-.47-3.87-2.34-4.45-1.88-.58-3.87,.47-4.45,2.34-.58,1.86-1.12,3.74-1.62,5.61-.5,1.9,.63,3.85,2.53,4.35,.19,.05,.37,.08,.56,.1Z"/>
        <path class="cls-5" d="M329.44,282.64c-1.94-.29-3.28-2.11-2.99-4.05,.29-1.94,2.1-3.28,4.05-2.99,3.7,.56,7.48,.97,11.28,1.22,1.95,.12,3.44,1.83,3.31,3.79-.13,1.96-1.83,3.44-3.79,3.31-1.65-.11-3.28-.25-4.91-.41-2.32-.24-4.66-.53-6.95-.88Zm27.46-2.03c-.13-1.96,1.35-3.66,3.31-3.79,3.76-.26,7.56-.68,11.28-1.25,1.94-.3,3.76,1.03,4.06,2.98,.3,1.94-1.04,3.76-2.98,4.06-3.91,.6-7.91,1.04-11.87,1.31-.21,.01-.41,.01-.61,0-1.69-.17-3.07-1.54-3.19-3.3Zm-46.4-2.17c-3.8-1.12-7.6-2.42-11.3-3.86-1.83-.71-2.74-2.78-2.02-4.61,.71-1.83,2.78-2.73,4.61-2.02,3.51,1.37,7.12,2.6,10.73,3.67,1.88,.56,2.96,2.54,2.41,4.42-.49,1.67-2.1,2.7-3.77,2.53-.22-.02-.44-.06-.65-.13Zm76.56-2.48c-.56-1.88,.51-3.87,2.39-4.43,3.61-1.08,7.22-2.32,10.72-3.7,1.83-.72,3.89,.18,4.61,2.01,.72,1.83-.18,3.89-2.01,4.61-3.69,1.45-7.49,2.76-11.29,3.89-.46,.14-.92,.18-1.37,.13-1.39-.14-2.63-1.1-3.05-2.52Zm-105.39-9.64c-3.46-1.93-6.88-4.03-10.17-6.25-1.63-1.1-2.06-3.31-.96-4.94,1.1-1.63,3.31-2.06,4.94-.96,3.13,2.11,6.38,4.1,9.66,5.93,1.72,.96,2.33,3.13,1.37,4.84-.71,1.28-2.1,1.95-3.47,1.81-.47-.05-.94-.19-1.37-.43Zm-25.47-18.15c-2.96-2.64-5.84-5.44-8.56-8.32-1.35-1.43-1.29-3.68,.14-5.03,1.43-1.35,3.68-1.29,5.03,.14,2.59,2.73,5.33,5.39,8.14,7.9,1.47,1.31,1.59,3.56,.28,5.02-.79,.88-1.92,1.28-3.01,1.17-.72-.07-1.43-.37-2.01-.89Zm-20.91-23.27c-2.31-3.23-4.52-6.58-6.55-9.98-1.01-1.69-.46-3.87,1.23-4.88,1.69-1.01,3.87-.46,4.88,1.23,1.93,3.23,4.02,6.42,6.22,9.49,1.15,1.6,.78,3.82-.82,4.97-.73,.53-1.6,.73-2.43,.65-.98-.1-1.92-.6-2.53-1.47Zm-15.34-27.28c-1.55-3.65-2.97-7.41-4.2-11.18-.61-1.87,.4-3.88,2.27-4.49,1.86-.61,3.88,.41,4.49,2.27,1.17,3.58,2.52,7.15,3.99,10.62,.77,1.81-.07,3.9-1.88,4.67-.57,.24-1.17,.32-1.75,.27-1.25-.13-2.39-.91-2.92-2.15Zm-8.97-30c-.71-3.9-1.26-7.87-1.63-11.82-.19-1.96,1.25-3.69,3.2-3.88,1.95-.19,3.69,1.25,3.88,3.2,.36,3.75,.88,7.53,1.55,11.23,.35,1.93-.93,3.79-2.87,4.14-.34,.06-.67,.07-1,.04-1.54-.16-2.85-1.31-3.14-2.91Zm-2.17-31.2c.12-2.92,.32-5.86,.62-8.76,.11-1.05,.22-2.09,.35-3.14,.24-1.95,2-3.38,3.97-3.1,1.95,.24,3.34,2.02,3.1,3.97-.12,.99-.23,1.98-.34,2.98-.28,2.75-.48,5.56-.59,8.33-.08,1.96-1.73,3.49-3.7,3.41-.07,0-.15,0-.22-.02-1.86-.19-3.27-1.79-3.19-3.68Z"/>
        <path class="cls-5" d="M418.29,266.53c.7,.07,1.44-.07,2.1-.44,1.68-.94,3.37-1.94,5.03-2.96,1.67-1.03,2.19-3.22,1.16-4.9-1.03-1.67-3.22-2.19-4.9-1.16-1.57,.97-3.18,1.92-4.78,2.81-1.71,.96-2.32,3.13-1.36,4.84,.59,1.05,1.63,1.69,2.75,1.8Z"/>
      </g>
      <g>
        <path class="cls-5" d="M434.83,207.81c.5-.5,.63-1.27,.32-1.9l-8.87-18.2c4.98-8.03,8.72-16.92,10.94-26.39l19.12-6.6c.67-.23,1.12-.86,1.12-1.57v-24.28c0-.71-.45-1.34-1.12-1.57l-19.13-6.59c-2.22-9.47-5.96-18.36-10.94-26.39l8.86-18.2c.31-.64,.18-1.4-.32-1.9l-17.17-17.17c-.5-.5-1.27-.63-1.9-.32l-18.2,8.87c-8.03-4.98-16.92-8.72-26.39-10.94l-6.6-19.12c-.23-.67-.86-1.12-1.57-1.12h-24.28c-.71,0-1.34,.45-1.57,1.12l-6.59,19.13c-9.47,2.22-18.36,5.96-26.39,10.94l-18.2-8.86c-.64-.31-1.4-.18-1.9,.32l-17.17,17.17c-.5,.5-.63,1.27-.32,1.9l8.87,18.2c-4.98,8.03-8.72,16.92-10.94,26.39l-19.12,6.6c-.67,.23-1.12,.86-1.12,1.57v24.28c0,.71,.45,1.34,1.12,1.57l19.13,6.59c2.22,9.47,5.96,18.36,10.94,26.39l-8.86,18.2c-.31,.64-.18,1.4,.32,1.9l17.17,17.17c.5,.5,1.27,.63,1.9,.32l18.2-8.87c8.03,4.98,16.92,8.72,26.39,10.94l6.6,19.12c.23,.67,.86,1.12,1.57,1.12h24.28c.71,0,1.34-.45,1.57-1.12l6.59-19.12c9.47-2.22,18.36-5.96,26.39-10.94l18.2,8.86c.64,.31,1.4,.18,1.9-.32l17.17-17.17Z"/>
        <path class="cls-23" d="M344.89,164.68c-13.05-3.29-20.99-16.59-17.69-29.64,1.59-6.32,5.56-11.64,11.15-14.98,5.6-3.34,12.16-4.3,18.48-2.71,13.05,3.29,20.99,16.59,17.69,29.64-3,11.87-14.27,19.51-26.11,18.31-1.17-.12-2.35-.32-3.53-.62Zm-3.62-39.73c-4.29,2.56-7.33,6.64-8.55,11.49-2.52,10,3.56,20.2,13.57,22.72,10.01,2.53,20.2-3.56,22.72-13.57,2.52-10-3.56-20.2-13.57-22.72-.91-.23-1.82-.39-2.73-.48-3.97-.4-7.95,.48-11.44,2.56Z"/>
        <path class="cls-24" d="M344.37,200.33c2.03,.21,4.09,.31,6.16,.31h0c.65,0,1.3-.01,1.96-.03,3.21-.1,6.41-.46,9.55-1.07,.04,0,.09-.02,.13-.02,.12-.02,.24-.05,.36-.07,.24-.05,.47-.1,.71-.15,.62-.13,1.06-.65,1.12-1.25,.01-.15,0-.3-.03-.45-.17-.77-.92-1.25-1.69-1.09-3.95,.85-8.03,1.28-12.1,1.28-20.26,0-38.08-10.58-48.24-26.52-5.65-8.86-8.93-19.38-8.93-30.64,0-1.98,.1-3.94,.3-5.88,1.32-13.05,7.04-25.15,16.44-34.55,10.8-10.8,25.15-16.75,40.42-16.75,31.53,0,57.17,25.64,57.17,57.16,0,1.94-.1,3.88-.29,5.8-.84,8.32-3.5,16.37-7.81,23.55-.11,.19-.18,.39-.2,.59-.05,.53,.2,1.07,.68,1.36,.68,.4,1.55,.19,1.95-.49,4.52-7.54,7.31-15.99,8.2-24.73,.2-2.02,.31-4.05,.31-6.09,0-33.09-26.94-60.01-60.02-60.01-16.03,0-31.1,6.25-42.43,17.58-9.87,9.87-15.87,22.57-17.26,36.27-.21,2.04-.31,4.09-.31,6.17,0,16.03,6.25,31.1,17.58,42.43,9.87,9.87,22.57,15.88,36.28,17.26Z"/>
      </g>
    </g>
    <g>
      <g class="cls-10">
        <path class="cls-5" d="M597.51,279.6c.95,.1,1.88-.43,2.26-1.36,.7-1.73,1.36-3.5,1.96-5.27,.39-1.15-.23-2.4-1.38-2.79-1.15-.39-2.4,.23-2.79,1.38-.57,1.69-1.2,3.38-1.87,5.02-.46,1.12,.08,2.41,1.21,2.86,.2,.08,.4,.13,.61,.15Z"/>
        <path class="cls-5" d="M602.2,263.38c-1.19-.25-1.95-1.41-1.71-2.6,.62-3,1.08-6.07,1.39-9.12,.07-.64,.12-1.29,.17-1.94,.1-1.21,1.16-2.11,2.37-2.01,1.14,.14,2.11,1.16,2.02,2.37-.05,.68-.12,1.35-.18,2.03-.32,3.19-.81,6.41-1.46,9.56-.23,1.11-1.26,1.86-2.37,1.74-.07,0-.15-.02-.22-.03Zm.07-24.81c-.16-3.71-.54-7.45-1.15-11.1-.2-1.2,.61-2.33,1.81-2.53,1.19-.2,2.33,.61,2.53,1.81,.64,3.83,1.04,7.74,1.21,11.64,.05,1.21-.89,2.24-2.1,2.29-.11,0-.21,0-.32-.01-1.07-.11-1.92-.99-1.97-2.09Zm-3.67-21.97c-1.06-3.55-2.35-7.08-3.85-10.48-.49-1.11,.02-2.41,1.13-2.9,1.12-.49,2.41,.02,2.9,1.13,1.57,3.56,2.92,7.26,4.03,10.99,.35,1.16-.32,2.39-1.48,2.73-.28,.08-.57,.11-.85,.08-.86-.09-1.62-.68-1.89-1.56Zm-8.96-20.4c-1.9-3.19-4.02-6.29-6.29-9.22-.75-.96-.57-2.34,.39-3.08,.96-.74,2.34-.57,3.08,.39,2.38,3.07,4.6,6.32,6.6,9.67,.62,1.04,.28,2.39-.76,3.01-.42,.25-.89,.34-1.34,.3-.67-.07-1.3-.44-1.67-1.06Zm-13.67-17.6c-2.62-2.63-5.42-5.12-8.34-7.41-.95-.75-1.12-2.13-.37-3.09s2.13-1.12,3.09-.37c3.06,2.4,6,5.01,8.74,7.77,.86,.86,.85,2.25,0,3.11-.49,.48-1.14,.69-1.77,.63-.49-.05-.96-.26-1.34-.64Zm-17.52-13.75c-3.18-1.91-6.5-3.65-9.89-5.15-1.11-.49-1.61-1.79-1.12-2.9,.49-1.11,1.79-1.61,2.9-1.12,3.55,1.58,7.04,3.39,10.37,5.4,1.04,.63,1.37,1.98,.75,3.02-.45,.75-1.29,1.14-2.11,1.05-.31-.03-.62-.13-.91-.3Zm-20.34-9.04c-3.54-1.07-7.19-1.94-10.86-2.57-1.2-.21-2-1.34-1.79-2.54,.2-1.2,1.34-1.98,2.54-1.79,3.84,.66,7.67,1.57,11.39,2.69,1.16,.35,1.82,1.58,1.47,2.74-.31,1.02-1.3,1.65-2.32,1.55-.14-.01-.28-.04-.42-.08Zm-35.47-5.65c-.09-1.21,.82-2.26,2.03-2.36,3.35-.25,6.77-.32,10.16-.22,.52,.01,1.03,.04,1.54,.06,1.21,.02,2.15,1.09,2.09,2.3-.06,1.21-1.09,2.15-2.3,2.09-.48-.02-.96-.04-1.45-.06-3.24-.1-6.51-.04-9.7,.2-.13,.01-.26,0-.39,0-1.04-.11-1.89-.94-1.97-2.02Z"/>
      </g>
      <g class="cls-10">
        <path class="cls-5" d="M500.94,336.77c-3.81-.43-7.62-1.11-11.33-1.99-1.18-.28-1.91-1.47-1.63-2.65,.28-1.18,1.47-1.9,2.65-1.63,3.54,.85,7.18,1.49,10.81,1.9,1.21,.14,2.07,1.23,1.93,2.43-.14,1.2-1.21,2.06-2.4,1.94,0,0-.02,0-.03,0Zm9.29-1.57c0-1.21,.97-2.2,2.18-2.21,3.65-.02,7.34-.27,10.96-.73,1.2-.15,2.3,.7,2.46,1.91,.15,1.2-.7,2.3-1.9,2.46-3.79,.48-7.66,.74-11.48,.76-.08,0-.16,0-.24-.01-1.1-.11-1.97-1.04-1.97-2.17Zm-31.63-3.79c-3.59-1.34-7.13-2.92-10.52-4.68-1.08-.56-1.5-1.89-.94-2.96,.56-1.08,1.88-1.49,2.96-.94,3.23,1.68,6.61,3.18,10.03,4.46,1.14,.43,1.71,1.69,1.29,2.83-.36,.96-1.31,1.52-2.28,1.42-.18-.02-.37-.06-.55-.13Zm53.97,1.48c-.3-1.18,.41-2.37,1.59-2.67,3.54-.9,7.06-2.03,10.46-3.35,1.13-.44,2.4,.12,2.85,1.25,.44,1.13-.12,2.41-1.25,2.85-3.57,1.39-7.26,2.57-10.97,3.51-.26,.06-.51,.08-.76,.06-.89-.09-1.68-.73-1.91-1.65Zm-74.35-12.07c-3.15-2.16-6.21-4.54-9.08-7.07-.91-.8-1-2.19-.2-3.1,.8-.91,2.19-1,3.1-.2,2.74,2.41,5.65,4.68,8.66,6.74,1,.69,1.26,2.05,.57,3.06-.47,.69-1.26,1.02-2.04,.94-.35-.04-.7-.16-1.02-.37Zm-17.25-15.17c-2.55-2.86-4.95-5.9-7.13-9.04-.69-1-.45-2.36,.55-3.06,.99-.69,2.37-.45,3.06,.55,2.08,2.99,4.37,5.89,6.8,8.62,.81,.91,.73,2.3-.18,3.1-.48,.43-1.09,.61-1.69,.55-.53-.05-1.04-.3-1.42-.72Zm-13.12-18.87c-1.79-3.39-3.39-6.92-4.75-10.49-.43-1.14,.14-2.4,1.27-2.84,1.13-.43,2.4,.14,2.84,1.27,1.3,3.4,2.82,6.77,4.53,10,.57,1.07,.16,2.4-.92,2.97-.4,.21-.83,.29-1.25,.24-.71-.07-1.37-.48-1.72-1.16Z"/>
        <path class="cls-5" d="M555.49,326.35c.42,.04,.86-.04,1.26-.25,1.66-.89,3.29-1.84,4.87-2.81,1.03-.64,1.35-1.99,.72-3.03-.64-1.03-1.99-1.35-3.03-.72-1.5,.93-3.06,1.83-4.64,2.68-1.07,.58-1.47,1.91-.89,2.98,.36,.67,1.01,1.07,1.72,1.14Z"/>
      </g>
      <g>
        <path class="cls-5" d="M568.02,286.43c.34-.34,.42-.85,.21-1.27l-5.93-12.18c3.33-5.38,5.84-11.32,7.32-17.66l12.8-4.41c.45-.15,.75-.58,.75-1.05v-16.25c0-.47-.3-.9-.75-1.05l-12.8-4.41c-1.49-6.34-3.99-12.28-7.32-17.66l5.93-12.18c.21-.43,.12-.94-.21-1.27l-11.49-11.49c-.34-.34-.85-.42-1.27-.21l-12.18,5.93c-5.38-3.33-11.32-5.84-17.66-7.32l-4.41-12.8c-.15-.45-.58-.75-1.05-.75h-16.25c-.47,0-.9,.3-1.05,.75l-4.41,12.8c-6.34,1.49-12.28,3.99-17.66,7.32l-12.18-5.93c-.43-.21-.94-.12-1.27,.21l-11.49,11.49c-.34,.34-.42,.85-.21,1.27l5.93,12.18c-3.33,5.38-5.84,11.32-7.32,17.66l-12.8,4.41c-.45,.15-.75,.58-.75,1.05v16.25c0,.47,.3,.9,.75,1.05l12.8,4.41c1.49,6.34,3.99,12.28,7.32,17.66l-5.93,12.18c-.21,.43-.12,.94,.21,1.27l11.49,11.49c.34,.34,.85,.42,1.27,.21l12.18-5.93c5.38,3.33,11.32,5.84,17.66,7.32l4.41,12.8c.15,.45,.58,.75,1.05,.75h16.25c.47,0,.9-.3,1.05-.75l4.41-12.8c6.34-1.49,12.28-3.99,17.66-7.32l12.18,5.93c.43,.21,.94,.12,1.27-.21l11.49-11.49Z"/>
        <path class="cls-43" d="M507.76,257.85c-4.31-1.09-7.93-3.78-10.21-7.6-2.28-3.81-2.93-8.28-1.84-12.59,2.24-8.89,11.28-14.28,20.19-12.05,8.89,2.25,14.29,11.3,12.05,20.19-1.09,4.31-3.78,7.93-7.6,10.21-3.1,1.85-6.63,2.63-10.16,2.27-.81-.08-1.62-.22-2.43-.43Zm-7.79-19.11c-.8,3.17-.32,6.46,1.36,9.26,1.67,2.8,4.34,4.79,7.51,5.59h0c3.17,.8,6.46,.32,9.26-1.36,2.8-1.67,4.79-4.34,5.59-7.51,1.65-6.54-2.33-13.2-8.86-14.85-.59-.15-1.18-.25-1.77-.31-5.93-.6-11.58,3.23-13.08,9.18Z"/>
        <path class="cls-42" d="M507.4,282.66c1.38,.14,2.79,.21,4.2,.21,2.82,0,5.64-.29,8.39-.85,.12-.03,.25-.05,.37-.08,.96-.21,1.63-1,1.72-1.92,.02-.22,.01-.46-.04-.69-.26-1.19-1.43-1.94-2.61-1.68-2.57,.55-5.2,.83-7.84,.83h0c-.14,0-.29,0-.43,0-6.23-.06-12.22-1.67-17.52-4.62-2.88-1.6-5.56-3.6-7.98-5.97-.02-.02-.04-.04-.06-.06-.06-.06-.12-.12-.18-.18-6.99-6.99-10.84-16.28-10.84-26.17,0-1.28,.06-2.55,.19-3.8,.86-8.45,4.56-16.28,10.65-22.37,6.99-6.99,16.28-10.84,26.17-10.84,9.88,0,19.18,3.85,26.17,10.84,6.99,6.99,10.84,16.28,10.84,26.17,0,1.26-.06,2.51-.19,3.75-.55,5.39-2.27,10.6-5.05,15.25-.17,.29-.27,.6-.3,.91-.08,.82,.3,1.66,1.06,2.11,1.04,.62,2.39,.29,3.02-.76,3.12-5.2,5.04-11.03,5.66-17.06,.14-1.39,.21-2.79,.21-4.2,0-11.06-4.31-21.46-12.13-29.28-7.82-7.82-18.21-12.13-29.28-12.12-11.06,0-21.46,4.31-29.27,12.13-6.81,6.81-10.95,15.57-11.91,25.02-.14,1.4-.21,2.82-.21,4.25,0,21.41,16.34,39.08,37.2,41.19Z"/>
      </g>
    </g>
  </g>
</svg>