<?xml version="1.0" encoding="UTF-8"?>
<svg id="Layer_1" data-name="Layer 1" xmlns="http://www.w3.org/2000/svg" viewBox="0 0 885 142.75">
  <defs>
    <style>
      .cls-1 {
        fill: #fff;
      }
    </style>
  </defs>
  <path class="cls-1" d="M651.19,127.74l-34.07-48.48c-.16-.22-.26-.47-.3-.73-.04-.26-.02-.53,.06-.79,.08-.25,.23-.48,.42-.67,.19-.19,.42-.33,.68-.41,7.62-2.51,14.24-7.34,18.93-13.83,4.69-6.48,7.19-14.27,7.16-22.26,0,0,2.4-40.56-46.15-40.56-14.19-.23-28.25,2.79-41.09,8.81v2.1c2.18,.76,4.08,2.16,5.44,4.01,1.37,1.86,2.13,4.08,2.2,6.38V127.66c.14,2.11-.31,4.21-1.3,6.08-.99,1.87-2.48,3.42-4.31,4.5v2.6h29.43v-2.6s-4.41-2.6-4.41-10.39v-46.17c0-.69,.27-1.35,.76-1.84,.49-.49,1.15-.76,1.84-.76h6c.69,0,1.36,.17,1.97,.48,.61,.32,1.13,.77,1.53,1.33l41.32,58.8c.24,.33,.55,.59,.92,.78,.36,.18,.76,.28,1.17,.29h23.27v-2.6c-4.58-2.5-8.48-6.07-11.38-10.39l-.1-.03Zm-57.16-59.21h-7.59c-.69,0-1.36-.27-1.84-.76-.49-.49-.76-1.15-.76-1.84V17.45c0-1.03,.37-2.03,1.05-2.81,.68-.78,1.63-1.28,2.66-1.4,2.78-.38,5.59-.58,8.4-.6,16.57,0,27.03,10.24,27.03,27.96,0,19.8-11.5,27.93-28.93,27.93h0Zm-309.84,10.73l34.1,48.48v.03c2.91,4.33,6.82,7.89,11.4,10.39v2.6h-23.22c-.41,0-.82-.09-1.18-.28-.37-.19-.69-.45-.93-.79l-41.3-58.8c-.4-.56-.93-1.02-1.54-1.34-.61-.32-1.29-.48-1.98-.48h-5.97c-.69,0-1.36,.27-1.84,.76-.49,.49-.76,1.15-.76,1.84v46.17c0,7.79,4.43,10.39,4.43,10.39v2.6h-29.43v-2.6c1.82-1.08,3.31-2.63,4.29-4.5,.99-1.87,1.43-3.97,1.29-6.07V21.32c-.06-2.3-.83-4.52-2.2-6.38s-3.26-3.25-5.45-4.01v-2.1C236.74,2.81,250.79-.21,264.99,.02c48.58,0,46.18,40.56,46.18,40.56,.03,7.99-2.48,15.78-7.17,22.26-4.69,6.48-11.31,11.32-18.92,13.83-.26,.08-.49,.22-.69,.4-.19,.19-.34,.42-.43,.67-.09,.25-.11,.52-.07,.79,.04,.26,.14,.52,.3,.74h0Zm-30.65-10.73h7.62c17.43,0,28.91-8.13,28.91-27.93,0-17.72-10.46-27.96-27-27.96-2.82,.02-5.63,.22-8.43,.6-1.03,.13-1.97,.63-2.65,1.41-.68,.77-1.06,1.77-1.05,2.8v48.48c0,.69,.27,1.35,.76,1.84,.49,.49,1.15,.76,1.84,.76h0Zm-181.52-2.76c.17,.22,.39,.39,.64,.5v.13c13.33,5.77,22.54,18.34,22.54,35.54,0,24.66-17.98,38.97-40.1,38.97H2.06v-2.6c1.82-1.08,3.3-2.64,4.29-4.5,.99-1.87,1.43-3.97,1.29-6.07V22.25c-.06-2.3-.83-4.52-2.2-6.38-1.37-1.86-3.26-3.25-5.45-4.01v-2.1C8.95,4.38,23.48,.01,40.73,.01,85.28,.01,83.07,37.24,83.07,37.24c.12,4.89-.79,9.76-2.66,14.29-1.87,4.53-4.67,8.62-8.22,12.01-.2,.19-.35,.42-.44,.68-.09,.26-.11,.54-.06,.81,.04,.27,.16,.52,.33,.74h0ZM28.33,13.95c-.68,.77-1.05,1.77-1.04,2.79h-.05V60.11c0,.69,.27,1.35,.76,1.84,.49,.49,1.15,.76,1.84,.76h9.31c15.5,0,25.93-8.39,25.93-24.86s-9.76-25.98-25.18-25.98c-2.99,.04-5.98,.26-8.95,.68-1.02,.14-1.96,.64-2.63,1.42h0Zm2.35,116.28h15.16l.05-.05c16.83,0,27.92-10.76,27.92-28.42s-11.09-28.42-27.92-28.42h-15.99c-.69,0-1.36,.27-1.84,.76-.49,.49-.76,1.15-.76,1.84v50.9c0,.9,.36,1.76,.99,2.4,.64,.64,1.5,1,2.4,1.01h0Zm382.81-63.97c-.25-.11-.47-.28-.64-.5-.17-.22-.28-.47-.33-.74-.04-.27-.03-.55,.06-.81,.09-.26,.24-.49,.44-.68,3.55-3.39,6.35-7.48,8.22-12.01,1.87-4.53,2.78-9.39,2.66-14.29,0,0,2.24-37.23-42.34-37.23-17.17,0-31.75,4.36-40.73,9.74v2.1c2.18,.76,4.09,2.15,5.46,4.01,1.37,1.86,2.14,4.08,2.21,6.38V127.74c.14,2.11-.31,4.21-1.31,6.08-.99,1.87-2.48,3.42-4.3,4.5v2.6h53.04c22.15,0,40.1-14.32,40.1-38.97,0-17.2-9.18-29.78-22.54-35.54v-.13Zm-45.37-49.52c0-1.03,.37-2.03,1.05-2.8,.68-.77,1.62-1.28,2.65-1.41,3.01-.43,6.04-.65,9.08-.68,15.42,0,25.15,9.51,25.15,25.98s-10.44,24.86-25.93,24.86h-9.31c-.69,0-1.36-.27-1.84-.76-.49-.49-.76-1.15-.76-1.84V16.74h-.08Zm18.55,113.49h-15.21c-.45,0-.89-.09-1.31-.26-.41-.17-.79-.42-1.11-.74-.32-.32-.57-.69-.74-1.1-.17-.41-.26-.86-.26-1.3v-50.9c0-.69,.27-1.35,.76-1.84,.49-.49,1.15-.76,1.84-.76h15.99c16.85,0,27.94,10.39,27.94,28.42s-11.09,28.42-27.94,28.42l.03,.05ZM183.85,4.72V2.12h23.38v2.6c-1.82,1.07-3.31,2.62-4.31,4.48-.99,1.86-1.44,3.96-1.3,6.07V102.25c0,25.88-14.27,40.51-41.74,40.51s-44.93-14.52-44.93-40.51V15.34c.14-2.1-.31-4.2-1.3-6.07-.99-1.86-2.48-3.41-4.3-4.48V2.2h29.43v2.6s-4.41,2.6-4.41,10.39V98.92c0,22.03,8.17,31.41,26.69,31.41s27.21-9.07,27.21-28.99V15.11c-.03-7.79-4.41-10.39-4.41-10.39h0ZM734.62,79.26l34.07,48.48v.03c2.9,4.33,6.79,7.89,11.38,10.39v2.6h-23.17c-.41,0-.82-.09-1.18-.28-.37-.19-.69-.45-.93-.79l-41.3-58.8c-.39-.56-.92-1.02-1.53-1.33-.61-.32-1.28-.48-1.97-.48h-6c-.69,0-1.36,.27-1.84,.76-.49,.49-.76,1.15-.76,1.84v46.17c0,7.79,4.41,10.39,4.41,10.39v2.6h-29.43v-2.6c1.83-1.07,3.32-2.63,4.31-4.5,.99-1.87,1.44-3.97,1.3-6.08V21.32c-.07-2.3-.84-4.53-2.21-6.38-1.37-1.86-3.27-3.25-5.46-4.01v-2.1C687.16,2.81,701.22-.21,715.42,.02c48.55,0,46.15,40.56,46.15,40.56,.03,7.99-2.48,15.78-7.17,22.26-4.68,6.48-11.31,11.32-18.92,13.83-.26,.08-.49,.22-.68,.41-.19,.19-.34,.42-.42,.67-.09,.25-.11,.52-.06,.79,.04,.26,.14,.51,.3,.73h0Zm-30.68-10.73h7.59c17.43,0,28.93-8.13,28.93-27.93,0-17.72-10.46-27.96-27.03-27.96-2.82,.02-5.63,.22-8.43,.6-1.02,.13-1.96,.64-2.64,1.41-.68,.78-1.05,1.77-1.04,2.8v48.48c0,.69,.27,1.35,.76,1.84,.49,.49,1.15,.76,1.84,.76h0ZM858.54,2.04v2.6s5.53,1.82,.81,10.39l-26.38,47.34c-.15,.26-.37,.47-.63,.62-.26,.15-.56,.23-.86,.23s-.6-.08-.86-.23c-.26-.15-.48-.36-.64-.62l-26.45-47.47c-4.72-8.47,.81-10.39,.81-10.39V1.91h-34.46v2.6c4.86,2.09,8.87,5.75,11.38,10.39l35.51,63.71c.63,1.14,.96,2.42,.96,3.72v45.34c.14,2.11-.31,4.21-1.3,6.08s-2.48,3.42-4.31,4.5v2.6h30.55v-2.6c-1.83-1.07-3.32-2.63-4.31-4.5-.98-1.87-1.44-3.97-1.3-6.08v-45.13c0-1.3,.34-2.58,.96-3.71l35.59-63.71c2.51-4.64,6.52-8.3,11.38-10.39V2.12l-26.46-.08ZM484.27,130.31h42.06c2.12,.14,4.23-.31,6.1-1.3,1.87-.99,3.44-2.47,4.51-4.29h2.61v16.19h-83.69v-2.6c1.82-1.08,3.3-2.64,4.29-4.5,.99-1.87,1.43-3.97,1.29-6.07V15.26c.14-2.1-.31-4.2-1.29-6.06-.99-1.86-2.47-3.42-4.29-4.49V2.12h77.9V18.2h-2.61c-1.09-1.81-2.66-3.28-4.54-4.25-1.88-.97-3.99-1.41-6.1-1.26h-36.26c-.91,0-1.78,.36-2.42,1-.64,.64-1,1.5-1,2.41V60.58c0,.69,.27,1.35,.76,1.84,.49,.49,1.15,.76,1.84,.76h22.93c7.83,0,10.44-4.47,10.44-4.47h2.61v19.51h-2.61s-2.61-4.49-10.44-4.49h-22.91c-.69,0-1.36,.27-1.84,.76-.49,.49-.76,1.15-.76,1.84v50.59c0,.9,.36,1.77,1,2.41,.64,.64,1.51,1,2.42,1h0Z"/>
</svg>