<?xml version="1.0" encoding="UTF-8"?>
<svg id="Layer_1" data-name="Layer 1" xmlns="http://www.w3.org/2000/svg" viewBox="0 0 879.65 136.63">
  <defs>
    <style>
      .cls-1 {
        fill: #fff;
      }
    </style>
  </defs>
  <path class="cls-1" d="M66.95,.14c37.71,0,56.02,25.96,60.26,39.62h-15.85c-4.78-8.61-17.9-25.28-44.41-25.28-28.97,0-51.1,23.09-51.1,54.11s22.13,53.83,51.1,53.83c27.05,0,40.44-16.67,44.54-25h15.3c-3.83,12.71-22.13,39.21-59.85,39.21S0,107.8,0,68.45C0,29.51,29.1,.14,66.95,.14h0ZM708.18,39.76c27.05,0,47.28,21.59,46.59,51.92h-79.25c1.09,17.76,14.62,31.84,33.07,31.84s27.33-11.07,31.02-18.86h13.94c-3.55,12.71-17.22,31.84-44.95,31.84s-47-20.91-47-48.37c-.14-27.33,20.09-48.37,46.59-48.37h0Zm-526.45,0c20.91,0,30.74,13.39,33.48,19.54v-17.49h13.94v92.5h-13.94v-17.35c-3.01,6.29-12.71,19.54-33.48,19.54-26.37,0-47-20.77-47-48.37,0-27.6,20.63-48.37,47-48.37h0Zm262.88,0c25.82,0,37.98,18.99,37.98,42.36v52.19h-14.07v-51.92c0-17.35-9.29-29.51-26.1-29.51s-26.64,12.43-26.64,30.2v51.1h-13.94V41.81h13.94v15.58c1.64-5.19,9.7-17.63,28.83-17.63h0ZM546.4,2.46V72.83L608.16,2.46h18.31l-52.88,59.57,52.88,72.28h-17.49l-45.77-60.53-16.81,18.86v41.67h-15.3V2.46h15.3Zm295.27,37.3c25.82,0,37.98,18.99,37.98,42.36v52.19h-14.07v-51.92c0-17.35-9.29-29.51-26.1-29.51s-26.64,12.43-26.64,30.2v51.1h-13.94V41.81h13.94v15.58c1.64-5.19,9.7-17.63,28.83-17.63h0Zm-555.97,2.05l29.38,78.29,29.38-78.29h15.3l-35.8,92.5h-17.49l-36.07-92.5h15.3Zm99.2,0v92.5h-13.94V41.81h13.94ZM648.19,0V134.31h-13.94V0h13.94Zm133.9,41.81v92.5h-13.94V41.81h13.94ZM259.88,0V134.31h-13.94V0h13.94Zm-77.61,52.88c-19.27,0-33.34,15.17-33.34,35.12s14.07,35.12,33.34,35.12,33.2-15.3,33.2-35.12-14.07-35.12-33.2-35.12Zm525.91-.27c-17.9,0-29.51,13.53-31.84,26.78h63.4c-2.87-13.94-13.25-26.78-31.56-26.78ZM385.04,9.43V25.55h-14.21V9.43h14.21Zm397.2,0V25.55h-14.21V9.43h14.21Z"/>
</svg>