<?xml version="1.0" encoding="UTF-8"?>
<svg id="Layer_1" data-name="Layer 1" xmlns="http://www.w3.org/2000/svg" viewBox="0 0 1000 96.97">
  <defs>
    <style>
      .cls-1 {
        fill: #fff;
      }
    </style>
  </defs>
  <g id="Symbols">
    <g id="header_desktop" data-name="header/desktop">
      <path id="logo-white" class="cls-1" d="M525.17,47.56h-44.03v11.13h29.17c-1.57,18.84-15.01,24.85-31.03,25.99-20.16,1.43-36.18-15.85-36.6-35.41-.43-19.85,16.01-36.98,36.6-36.84,13.87,.14,25.45,8.13,30.74,16.84l10.86-5.71C515.59,10.3,498.14,.45,479.27,.02c-28.17-.71-51.33,22.13-50.9,49.26,.43,26.7,23.31,48.11,50.9,47.68,41.04-.71,48.62-34.41,45.9-49.4h0Zm239.49,9.29l12.29-31.99,12.3,31.99h-24.6Zm7.72-53.83l-38.17,91.09h15.15l10.15-25.85h34.46l10.15,25.85h15.16L781.1,3.02h-8.72ZM385.76,88.4c-4.29,0-7.43-3-7.43-7.28,0-3.43,2.14-5.43,6.15-8.14,0,0,.29-.14,.58-.43,1,1.14,8.72,10.28,9.86,11.57-3.28,2.86-6.15,4.29-9.15,4.29h0Zm2.43-34.41c2.72,0,4.44,1.57,4.44,4,0,2.14-1.29,4-3.86,5.56,0,0-.72,.43-1.29,.72-.72-.85-2.29-2.57-2.29-2.57-1.01-1.14-1.43-2.28-1.43-3.57,0-2.43,1.85-4.14,4.43-4.14h0Zm21.88,24.13l.43-.71-4.72-5.01s-4.43,5.57-5.43,6.86c-1.29-1.43-7.3-8.56-8.59-9.99,5.44-3.42,7.87-7,7.87-11.42,0-6.28-4.57-10.42-11.58-10.42s-11.72,4.29-11.72,10.42c0,3.14,1,5.71,3.28,8.14,0,0,.57,.57,1.14,1.14-6.72,3.99-10.01,8.56-10.01,13.99,0,8.13,6,13.7,14.72,13.7,5.15,0,9.87-2,13.87-5.57,1.01,1.14,4.15,4.85,4.15,4.85h9.44s-7.3-8.56-8.3-9.71c2.01-1.72,3.86-3.85,5.44-6.28h0Zm137.68-21.27l12.3-31.99,12.3,31.99h-24.61Zm7.73-53.83l-38.18,91.09h15.16l10.15-25.85h34.45l10.16,25.85h15.16L564.19,3.02h-8.71Zm74.64,80.24h-8.44v-30.99h8.86c9.58,0,24.02,.29,24.02,14.99,.14,13.57-11.29,16.14-24.44,16h0Zm-8.44-69.11h2.29c11.01-.29,23.02-.85,23.02,12.85s-11.29,13.85-23.16,14.14h-2.15V14.15Zm29.6,30.56c6.15-4.14,10.01-9.43,10.01-16.71,.29-21.13-14.16-24.42-29.02-24.84h-25.45V94.25h29.46c18.73,0,32.31-6.43,33.32-24.56,.71-10.99-7.44-22.41-18.3-24.98h0Zm245.78,26.27L833.28,3.02h-8.85V94.11h13.44V27.43l62.47,66.68h10.02V3.02h-13.3V70.98Zm-198.02,12.28h-8.44v-30.99h8.86c9.59,0,24.02,.29,24.02,14.99,.14,13.57-11.15,16.14-24.44,16h0Zm-8.44-69.11h2.29c11.01-.29,23.02-.85,23.02,12.85s-11.29,13.85-23.15,14.14h-2.15V14.15Zm29.6,30.56c6.15-4.14,10.01-9.43,10.01-16.71,.29-21.13-14.16-24.42-29.02-24.84h-25.45V94.25h29.45c18.73,0,32.31-6.43,33.32-24.56,.71-10.99-7.3-22.41-18.3-24.98h0ZM198.32,3.02h-13.72l-.14,91.09h39.61v-11.14h-25.74V3.02ZM945.24,56.85l12.29-31.99,12.3,31.99h-24.6Zm16.73-53.83h-9.01l-38.18,91.09h15.16l10.15-25.85h34.46l10.29,25.85h15.16L961.97,3.02ZM155.85,73.84c-7.15,6.85-16.15,10.42-25.88,10.42s-18.73-3.57-25.87-10.42c-7.01-6.86-10.73-15.42-10.73-24.99s3.72-18.41,10.73-25.27c6.86-6.71,16.01-10.28,25.87-10.28s18.87,3.57,25.88,10.28c7,6.71,10.73,15.57,10.73,25.27,.14,9.57-3.73,18.14-10.73,24.99h0Zm10.15-58.97c-9.58-9-22.59-13.85-35.89-13.85s-26.3,5-35.75,13.85c-9.72,9-14.87,20.98-14.87,33.98s5.15,24.7,14.87,33.84c9.58,9,22.45,13.99,35.75,13.99s26.31-5,35.89-13.99c9.58-9,14.72-20.85,14.72-33.84s-5-24.98-14.72-33.98h0ZM264.94,.16c-7.15,.14-11.29,1.29-17.87,4-20.73,8.85-31.45,26.41-29.46,48.26,1.72,19.13,11.44,32.13,29.46,40.12,6.43,2.86,10.58,4,17.73,4.29,7.29,.43,11.73-.14,18.58-2.57,5.29-1.86,8.44-3,12.73-6.57v-12.56s-7.44,5-12.73,6.99c-6.86,2.44-11.29,3.43-18.58,2.57-7.43-.85-11.73-2.57-17.73-6.7-5-3.43-7.58-6-10.58-11.13-2.85-5.01-3.57-8.29-4-13.99-1.14-13.99,2.86-24.7,14.59-33.12,6-4.29,10.29-6,17.73-6.71,7.29-.72,11.73,.29,18.58,2.71,5.29,1.85,8.01,3.86,12.73,6.7V10.44c-4-3.42-5.58-4.29-12.73-7.14-5.86-2.44-12.58-3.43-18.44-3.15h0Zm35.32,93.95h47.18v-10.99h-32.88v-31.27h32.03v-10.99h-32.03V14.16h32.88V3.02h-47.18V94.11ZM60.48,50.99c-.71,18.57-14.01,31.84-32.03,31.84H14.59V14.73l14.01,.14c19.16,.29,32.74,15.99,31.88,36.12h0ZM28.6,3.16H0V94.1H28.6c30.02,0,47.33-21.41,46.61-46.69C74.5,23,55.48,3.16,28.6,3.16h0Z"/>
    </g>
  </g>
</svg>