<?xml version="1.0" encoding="UTF-8"?>
<svg id="Layer_1" data-name="Layer 1" xmlns="http://www.w3.org/2000/svg" viewBox="0 0 999 420.88">
  <defs>
    <style>
      .cls-1 {
        fill: #fff;
      }
    </style>
  </defs>
  <path class="cls-1" d="M590.08,416.44c-14.11,0-28.24,.47-42.31-.16-9.66-.43-14.5-7.07-15.78-16.24-.6-4.29-.61-8.65-1.08-16.06-3.63,4.51-5.31,6.45-6.83,8.51-18.49,25.15-45.11,34.09-73.98,24.82-23.65-7.59-39.24-30.57-39.74-60.35-.55-32.65-.35-65.31-.28-97.97,.03-14.54,2.17-30.01-21.69-30.81,1.02-1.14,2.03-2.28,3.05-3.42,17.21,0,34.45-.6,51.57,.61,2.76,.2,7.01,8.42,7.09,13,.59,36.33-.07,72.68,.58,109,.21,11.78,1.5,24.05,5.18,35.15,8.93,26.91,40.05,33.36,59.86,13.02,10.57-10.85,16.67-23.49,16.33-39.49-.69-33.1-.59-66.24-.03-99.34,.24-14.6-.7-27.23-18.91-31.83,18.35,0,36.72-.45,55.01,.59,2.17,.12,5.52,8.34,5.56,12.83,.4,50.59,.54,101.19,.05,151.78-.12,12.67,2.13,22.02,17.92,22.97l-1.56,3.39Z"/>
  <path class="cls-1" d="M629.53,222.08c40.64,2.77,81.88,2.22,121.75,9.31,34.68,6.16,61.32,28.47,68.22,65.83,10,54.11-23.04,104.51-77.49,115.46-24.88,5-51.17,3.14-76.83,4.06-11.9,.43-23.83,.07-36.95,.07,6.74-5.4,14.47-8.76,17.17-14.49,3.09-6.55,2.17-15.2,2.2-22.94,.16-40,.08-80,.07-119.99q0-22.71-18.79-32.75c.21-1.52,.42-3.04,.64-4.56Zm73.94,6.13c-8.16-1.06-15.76-.56-15.59,13.55,.6,50.61,.07,101.22,.34,151.83,.1,17.47,8.51,23.98,25.86,20.71,30.73-5.79,51.41-24.32,57.24-54.39,4.29-22.09,5.11-45.72,2.52-68.09-4.33-37.41-34.31-63.28-70.39-63.61Z"/>
  <path class="cls-1" d="M0,413.32c18.02-1.19,19.86-13.06,19.84-26.32-.05-43.67-.02-87.35-.02-131.02,0-13.6-.81-26.7-18.82-30.08,2.8-.43,5.59-1.22,8.39-1.22,40.96-.08,81.91,.22,122.87-.25,10.07-.11,14.41,2.67,13.5,13.21-.75,8.64-.15,17.39-.15,29.07-2.81-3.58-4.41-4.87-5.04-6.53-8.53-22.5-20.09-30.93-44.02-31.88q-36.31-1.44-36.31,34.3c0,14.25,.19,28.5,0,42.75-.1,7.53,3,11.11,10.69,10.59,3.21-.22,6.44-.12,9.66,.01,18.19,.76,35.85,.63,41.9-22.48v48.12c-8.35-29.31-32.31-21.56-52.33-21.65-3.26-.02-9.26,6.04-9.39,9.47-.85,22.03-.77,44.12-.29,66.18,.27,12.38,8.82,18.33,20.01,18.52,28.33,.48,56.14-1.14,68.33-33.79,.36-.96,2.08-1.42,6.32-4.14-1.5,13.49-2.3,24.58-4.3,35.44-.39,2.14-5.42,4.86-8.33,4.88-46.87,.3-93.74,.22-140.61,.22-.63-1.13-1.26-2.26-1.89-3.39Z"/>
  <path class="cls-1" d="M996.52,372.14c1.91,5.09,2.59,5.95,2.46,6.68-2.12,12.04-.38,29.16-7.58,34.74-8.27,6.41-24.48,3.05-37.24,3.16-32.23,.26-64.46,.11-96.68,.05-4.3,0-8.6-.46-13.69-1.94,18.4-3.02,19.62-15.71,19.54-29.92-.26-42.31-.35-84.63,.04-126.94,.14-14.93-1.5-27.77-19.46-32.39,3.35-.32,6.71-.93,10.06-.93,40.06-.07,80.12,.36,120.16-.29,11.7-.19,15.64,3.71,14.54,15-.78,8.04-.15,16.21-2.24,24.81-.93-1.76-2.3-3.41-2.73-5.28-4.81-21.15-20.95-28.04-39.69-30.28-40.9-4.88-40.94-4.56-40.94,36.26,0,12.42,.56,24.87-.15,37.25-.64,11.11,3.98,15.07,14.55,13.86,3.64-.42,7.37-.21,11.04-.04,17.02,.81,31.64-2.11,36.7-22.29v47.7c-8.34-30.01-33.04-20.82-53.24-21.41-2.84-.08-8.3,5.81-8.41,9.08-.74,21.59-.76,43.23-.18,64.83,.35,13.2,8.62,20.22,21.45,20.39,28.59,.37,55.93-2.41,67.87-34.8,.63-1.7,1.68-3.24,3.82-7.31Z"/>
  <path class="cls-1" d="M186.49,264.45c0-10.8-.61-21.67,.43-32.37,.26-2.67,5.8-6.9,8.94-6.93,52.95-.43,105.91-.23,158.87-.4,7.36-.02,9.7,3.24,9.53,10.04-.25,9.63-.06,19.26-.06,32.57-3.39-4.9-5.8-6.9-6.27-9.28-4.95-25.37-35.51-32.32-55.44-29.17-2.84,.45-6.37,8.07-6.46,12.44-.59,28.97-.32,57.96-.33,86.94,0,17.94-.02,35.88,0,53.82,.04,24.89,1.2,26.42,23.82,33.39h-92.09c5.5-1.77,7.57-2.85,9.72-3.06,12.43-1.18,17.92-8.77,17.97-20.32,.21-51.06,0-102.13,.23-153.19,.04-8.62-3.74-10.71-11.7-10.89-27.96-.65-40,6.82-51.57,33.29-.72,1.65-1.37,3.33-2.06,4.99-1.17-.63-2.34-1.27-3.52-1.9Z"/>
  <path class="cls-1" d="M319.88,156.42c-14.21,8.35-29.47,7.61-43.14,1.05-19.78-9.49-38.11-21.96-57.65-32-14.02-7.2-28.51-15.08-43.69-17.99-16.13-3.09-25.96,7.27-26.88,22.24-.96,15.62,9.14,27.27,25.07,28.82,3.49,.34,7.01,.41,12.92,.74-21.91,6.42-36.91,2.63-46.29-10.34-9.31-12.88-8.99-34.4,.71-48.01,9.79-13.74,30.42-22.27,46.58-15,15.06,6.77,28.81,17.32,41.51,28.12,9.13,7.76,15.59,18.67,23.24,28.18,1.38-1.4,2.76-2.8,4.15-4.2-1.07-9.76-4.18-19.81-2.83-29.22,4.52-31.46,33.74-50.77,65.17-42.81,13.14,3.32,26.64,8.58,37.64,16.27,30.09,21.04,58.94,43.86,87.29,69.01-4.75-1.27-9.95-1.69-14.17-3.94-18.64-9.93-36.72-20.95-55.54-30.51-19.12-9.72-38.47-19.26-58.49-26.86-15.49-5.87-30.5-1.59-40.48,12.29-8.5,11.82-8.07,25.05-.63,37.58,8.1,13.63,23.67,20.19,40.38,17.54,1.72-.27,3.42-.63,5.12-.95Z"/>
  <path class="cls-1" d="M740.68,141.37c9.05-9.51,18.05-19.07,27.17-28.52,15.29-15.84,31.59-29.72,55.62-28.83,31.07,1.16,50.2,35.14,34.69,61.96-10.77,18.62-28.2,17.74-46.42,13.09,4.03-.19,8.09-.15,12.09-.6,15.23-1.73,25.18-13.33,24.35-28.19-.83-14.86-10.65-25-26.63-22.95-12.23,1.56-24.52,6.78-35.54,12.69-20.19,10.84-38.92,24.43-59.28,34.91-16.07,8.28-33.82,10.61-53.86,3.12,10.86-.79,19.76-.09,27.87-2.3,19.42-5.3,30.71-24.6,26.08-42.37-4.87-18.72-22.8-30.05-43.02-24.04-17.82,5.29-35.06,13.23-51.67,21.71-18.79,9.6-36.4,21.5-54.95,31.63-7.7,4.21-16.49,6.43-24.79,9.55-.68-1.3-1.36-2.59-2.04-3.89,33.75-24.38,67.02-49.48,101.46-72.83,15.46-10.48,34.07-14.31,52.87-9.56,30.61,7.74,45.79,38.4,34.35,68.02-.61,1.59-1.03,3.25-1.54,4.88,1.05,.83,2.11,1.67,3.16,2.5Z"/>
  <path class="cls-1" d="M498.18,143.39c-11.44-37.16-31.46-62.16-69.44-72.02,37.3-10.15,57.62-34.17,69.1-71.37,12.41,35.46,31.54,61.35,70.4,71.2-38.85,10.3-58.61,35.57-70.07,72.19Zm-24.06-72.31c7.83,7.74,17.46,17.25,22.71,22.44,7.84-6.4,18.63-15.2,24.81-20.25-7.79-8.63-16.83-18.65-23.13-25.63-6.99,6.72-16.77,16.11-24.39,23.43Z"/>
</svg>