<?xml version="1.0" encoding="UTF-8"?>
<svg id="Layer_1" data-name="Layer 1" xmlns="http://www.w3.org/2000/svg" viewBox="0 0 1024.35 100">
  <defs>
    <style>
      .cls-1 {
        fill: #fff;
      }
    </style>
  </defs>
  <g id="Layer_2" data-name="Layer 2">
    <g id="Layer_1-2" data-name="Layer 1-2">
      <path class="cls-1" d="M97.6,28.74V11.41s-44.13-25.68-80.27,0C6.2,21.4-.11,35.68,0,50.64,0,76.18,20.07,89.86,20.07,89.86c0,0,32.49,22.8,79,0V46.07H48.8v16.42h32.03v16.42s-59.85,21.09-58.94-28.88c0,0-2.74-27.67,26.91-31.32,0,0,19.61-5.47,48.8,10.03Z"/>
      <rect class="cls-1" x="156.89" y=".06" width="18.24" height="99.93"/>
      <polygon class="cls-1" points="221.66 .06 242.63 .06 272.74 72.53 303.75 .06 325.64 .06 280.95 97.71 264.53 97.71 221.66 .06"/>
      <polygon class="cls-1" points="369.42 .06 369.42 99.99 450.61 99.99 450.61 81.65 389.49 81.65 389.49 57.93 432.36 57.93 432.36 42.42 389.49 42.42 389.49 18.71 450.61 18.71 450.61 .06 369.42 .06"/>
      <polygon class="cls-1" points="503.51 97.71 522.67 97.71 522.67 33.3 581.96 97.71 598.38 97.71 598.38 .06 580.14 .06 580.14 67.06 519.37 .06 503.51 .06 503.51 97.71"/>
      <path class="cls-1" d="M737.94,31.48s-6.39-12.77-38.31-13.68c0,0-39.22-.31-37.4,32.23,1.82,32.53,37.82,30.71,37.82,30.71,0,0,33.32-.91,37.89-11.86v20.63s-7.37,8.21-37.89,10.49c0,0-57.89,1.72-57.89-45.71,0,0-3.65-55.54,53.82-54.22,0,0,31.93-.51,41.96,8.62V31.48Z"/>
      <polygon class="cls-1" points="789.93 .06 810 .06 810 41.52 861.99 41.52 861.99 .06 881.15 .06 881.15 97.71 862.9 97.71 862.9 58.85 809.09 58.85 809.09 97.71 789.93 97.71 789.93 .06"/>
      <polygon class="cls-1" points="958.68 57.93 958.68 97.71 978.75 97.71 978.75 57.93 1024.35 .06 1000.64 .06 968.71 40.6 938.61 .06 913.98 .06 958.68 57.93"/>
    </g>
  </g>
</svg>