<?xml version="1.0" encoding="UTF-8"?>
<svg xmlns="http://www.w3.org/2000/svg" viewBox="0 0 500 90.7">
  <defs>
    <style>
      .cls-1 {
        fill: #fff;
      }
    </style>
  </defs>
  <g id="Layer_1" data-name="Layer 1" focusable="false">
    <g>
      <path class="cls-1" d="M480.71,90.67h19.29L461.92,0l-18.56,.02c1.09,3.12-.81,9.16-2.86,14.44l-30.59,76.21h10.74l13.5-33.09h33.09l13.47,33.09Zm-43.48-40.67l13.47-33.02,13.45,33.02h-26.92Z"/>
      <path class="cls-1" d="M169.76,47.92h38.92v-6.5h-38.92V6.5h44.03V0l-64.95,.02s1.95,3.43,1.95,12.91V90.7h64.22v-6.49h-45.27V47.92h.01Z"/>
      <path class="cls-1" d="M60.98,41.42H20.92V.02H0S1.95,3.45,1.95,12.93V90.7H20.92V48.7H60.98v42h18.97V.02h-18.97V41.42Z"/>
      <path class="cls-1" d="M325.71,45.94c4.02-1.28,8.16-3.19,12.08-6.1,14.01-10.47,10.51-28.3,1.23-34.21C333.05,1.83,327.14,0,315.42,0h-37.12s1.95,3.43,1.95,12.91V90.67h19.01V48.3h5.01c.28,0,.6,0,.97,.01,5.64,.37,8.72,2.03,13.52,8.24l23.59,34.12h19.31s-25.21-35.03-27.3-37.74c-1.79-2.34-4.64-5.78-8.66-6.99m-22.09-4.05h-4.35V6.34h4.09c6.7,0,16.49,.08,21.51,7.57,4.78,7.13,3.19,15.45-.34,20.21-4.36,5.91-9.24,7.78-20.92,7.78"/>
    </g>
  </g>
</svg>