<?xml version="1.0" encoding="UTF-8"?>
<svg id="Layer_2" data-name="Layer 2" xmlns="http://www.w3.org/2000/svg" viewBox="0 0 767.87 100">
  <defs>
    <style>
      .cls-1 {
        fill: #fff;
      }
    </style>
  </defs>
  <g id="Layer_1-2" data-name="Layer 1-2">
    <path class="cls-1" d="M103.21,.31c-.56-.04-1.12-.04-1.68-.04-11.83,0-24.34,6.41-30.94,16.01l-1.11,1.6-.37-14.26h-21.86V98.24h22.74V49.3c0-19.3,12.2-28.1,23.53-28.1,12.29,0,18.26,9.17,18.26,28.04v49.01h22.72V39.18C134.5,15.5,123.09,1.33,103.21,.31h0Z"/>
    <rect class="cls-1" y="3.6" width="22.74" height="94.63"/>
    <path class="cls-1" d="M214.98,.43c-.56-.04-1.12-.04-1.69-.04-11.87,0-24.37,6.37-30.92,15.9l-1.11,1.6-.37-14.26h-21.86V98.25h22.74V49.31c0-19.22,12.2-27.98,23.53-27.98,12.29,0,18.26,9.17,18.26,28.04v48.89h22.72V39.3c0-23.66-11.41-37.83-31.29-38.87h-.01Z"/>
    <rect class="cls-1" x="270.8" y="3.6" width="22.74" height="94.63"/>
    <path class="cls-1" d="M362.14,41.9c-1.76-.45-3.51-.89-5.28-1.29-7-1.6-18.72-4.29-17.89-12.77,.68-6.81,8.51-9.24,15.61-9.24,8.51,0,19.5,4.24,26.98,10.36l10.39-14.66c-6.25-6.79-22.09-13.92-36.34-13.92-19.66,.12-31.42,5.93-37.05,18.3-2.76,6.09-2.87,14.06-.25,20.81,2.16,5.59,9.05,11.56,16.38,14.22,7.04,2.55,14.16,4.81,21.42,6.57,5.72,1.39,12.84,3.11,14.85,8.6,1.03,2.8,.53,7.92-3.79,10.55-10.36,6.29-28.86,2.51-42.31-8.59l-11.04,14.68c8.77,8.95,23.84,14.48,39.49,14.48,20.3,0,32.5-6.24,38.41-19.64,2.67-6.04,2.97-16.61-1.17-23.14-6.2-9.77-17.52-12.6-28.45-15.32h.04Z"/>
    <polygon class="cls-1" points="414.4 98.24 437.15 98.24 437.15 62.95 479.36 62.95 479.36 45.57 437.15 45.57 437.15 22.73 483.52 22.73 483.52 3.59 414.4 3.59 414.4 98.24"/>
    <path class="cls-1" d="M524.81,17.05l-1.09,1.84-.55-15.26h-21.94V98.25h22.52V48.78c0-14.05,8.4-24.1,21.38-25.6,6.01-.73,11.93,.01,18.42,2.24l.08-22.84c-2.33-.55-5.01-.92-8.15-.97-18.92,0-27.86,10.76-30.68,15.44h0Z"/>
    <path class="cls-1" d="M617.32,0h-.12c-13.44,0-25,4.45-33.46,12.89-8.76,8.75-13.58,21.48-13.58,35.85-.17,15.38,4.48,28.33,13.48,37.42,8.57,8.67,20.81,13.45,34.45,13.45,16.24,0,28.49-4.29,39.66-13.92l-10.4-15.14c-7.41,5.92-14.37,10.43-27.54,10.43l-2.16-.04c-13.1-.47-23.93-10.32-25.16-22.93l-.07-.71h68.78c1.89-17.44-2.35-33.4-11.65-43.85C641.73,4.68,630.58,.03,617.29,.01h.03Zm22.13,40.21h-46.79l.05-.68c1.01-13.34,13.73-21.61,24.48-21.34,6.27,.16,12.48,2.32,16.72,7.08,3.47,3.89,5.55,9.08,5.55,14.3v.64h0Z"/>
    <path class="cls-1" d="M755.81,13.44c-7.81-8.77-18.96-13.42-32.25-13.44h-.12c-13.44,0-25,4.45-33.46,12.89-8.76,8.75-13.58,21.48-13.58,35.85-.17,15.38,4.48,28.33,13.48,37.42,8.57,8.67,20.81,13.45,34.45,13.45,16.24,0,28.49-4.29,39.66-13.92l-10.4-15.14c-7.41,5.92-14.37,10.43-27.54,10.43-.71,0-1.41,0-2.16-.04-13.1-.47-23.93-10.32-25.16-22.93l-.07-.71h68.78c1.89-17.44-2.35-33.4-11.65-43.85h.03Zm-10.12,26.76h-46.79l.05-.68c1.01-13.34,13.73-21.61,24.48-21.34,6.27,.16,12.48,2.32,16.72,7.08,3.47,3.89,5.55,9.08,5.55,14.3v.64h0Z"/>
  </g>
</svg>