<?xml version="1.0" encoding="UTF-8"?>
<svg id="Layer_1" data-name="Layer 1" xmlns="http://www.w3.org/2000/svg" xmlns:xlink="http://www.w3.org/1999/xlink" viewBox="0 0 104 72">
  <defs>
    <style>
      .cls-1 {
        fill: none;
      }

      .cls-2 {
        clip-path: url(#clippath);
      }

      .cls-3, .cls-4 {
        fill: #f7ec13;
      }

      .cls-5 {
        fill: #1d4591;
      }

      .cls-6, .cls-7 {
        fill: #58b7e7;
      }

      .cls-4, .cls-7 {
        fill-rule: evenodd;
      }
    </style>
    <clipPath id="clippath">
      <rect class="cls-1" width="104" height="72"/>
    </clipPath>
  </defs>
  <path class="cls-3" d="M87.23,36c0,18.62-15.09,33.71-33.71,33.71S19.8,54.62,19.8,36,34.89,2.29,53.52,2.29s33.71,15.09,33.71,33.71h0Zm0,0"/>
  <path class="cls-7" d="M89.23,36c0,19.72-15.99,35.71-35.71,35.71S17.8,55.72,17.8,36,33.79,.29,53.52,.29s35.71,15.99,35.71,35.71h0Zm-35.71,33.71c18.62,0,33.71-15.09,33.71-33.71S72.13,2.29,53.52,2.29,19.8,17.38,19.8,36s15.09,33.71,33.71,33.71h0Zm0,0"/>
  <g class="cls-2">
    <path class="cls-7" d="M49.52,65.71c18.62,0,33.71-15.09,33.71-33.71,0-8.29-2.99-15.88-7.96-21.75,7.31,6.18,11.96,15.43,11.96,25.75,0,18.62-15.09,33.71-33.71,33.71-10.33,0-19.57-4.64-25.76-11.96,5.87,4.97,13.47,7.96,21.76,7.96h0Zm0,0"/>
    <path class="cls-5" d="M61.86,53.07c26.87-15.51,44.23-35.73,38.79-45.16-3.29-5.69-14.16-6.15-28.17-2.19,1.88,1.21,3.88,2.81,4.64,3.45,7.19-1.25,12.41-.49,14.19,2.6,3.96,6.86-10.48,22.62-32.26,35.19-21.77,12.57-42.64,17.2-46.6,10.34-1.92-3.33,.48-8.73,5.93-14.86-.38-1.95-.58-4.79-.59-6C5.79,47.4-.16,57.98,3.36,64.09c5.44,9.43,31.63,4.5,58.5-11.02h0Zm0,0"/>
    <path class="cls-7" d="M19.75,31.96l.04,4.48c.01,1.12,.21,3.84,.55,5.64l.19,.97-.66,.74c-2.65,2.97-4.45,5.66-5.38,7.91-.93,2.28-.83,3.73-.32,4.62,.53,.91,1.8,1.76,4.39,2.06,2.54,.3,5.96,.02,10.06-.89,8.19-1.82,18.65-6.02,29.41-12.24,10.76-6.21,19.64-13.18,25.31-19.36,2.84-3.1,4.8-5.92,5.81-8.27,1.03-2.39,.94-3.92,.41-4.83-.47-.82-1.55-1.59-3.68-1.96-2.11-.36-4.96-.28-8.43,.33l-.92,.16-.72-.61c-.73-.61-2.65-2.15-4.43-3.3l-3.71-2.4,4.26-1.2c7.13-2.01,13.59-2.94,18.78-2.59,5.12,.35,9.51,2,11.66,5.71,1.77,3.08,1.55,6.79,.16,10.55-1.39,3.77-4.06,7.87-7.65,12.06-7.2,8.38-18.45,17.45-32.03,25.29-13.57,7.84-27.05,13.05-37.91,15.09-5.42,1.02-10.3,1.27-14.26,.6-3.95-.67-7.28-2.33-9.06-5.41-2.3-3.97-1.29-8.98,1.36-13.94,2.7-5.05,7.36-10.61,13.45-16.17l3.31-3.02ZM75.03,5.04c12.77-3.2,22.53-2.48,25.62,2.87,5.45,9.43-11.92,29.64-38.79,45.16-26.87,15.51-53.06,20.44-58.5,11.02-3.33-5.77,1.81-15.53,12.5-25.83,.62-.6,1.27-1.2,1.92-1.8,0,.58,.05,1.53,.15,2.59,.1,1.14,.25,2.4,.44,3.41-5.46,6.12-7.85,11.53-5.93,14.86,3.96,6.86,24.83,2.23,46.6-10.34,21.78-12.57,36.22-28.32,32.26-35.19-1.79-3.09-7-3.85-14.19-2.6-.47-.4-1.41-1.16-2.5-1.97-.68-.5-1.41-1.02-2.14-1.49,.86-.25,1.71-.47,2.55-.68h0Zm0,0"/>
    <path class="cls-7" d="M98.65,6.91c5.45,9.43-11.92,29.64-38.79,45.16-22.25,12.84-44.04,18.43-53.96,14.62,8.7,5.6,32.06,.17,55.96-13.62,26.87-15.51,44.23-35.73,38.79-45.16-.93-1.62-2.48-2.82-4.54-3.61,1.08,.69,1.94,1.56,2.54,2.61h0Zm-22.9,1.16c.59,.46,1.07,.85,1.37,1.1,4.49-.78,8.22-.78,10.81,.09-2.37-1.73-6.66-2.08-12.18-1.2h0ZM18.02,39.89c-.57,.5-1.18,1.06-1.64,1.56-4.23,4.6-7.85,11.53-5.93,14.86,.67,1.16,1.82,1.99,3.38,2.51-.58-.42-1.04-.92-1.38-1.51-1.92-3.33,.48-8.73,5.93-14.86-.15-.77-.27-1.67-.36-2.56h0Zm0,0"/>
  </g>
  <path class="cls-4" d="M39.23,61.21c.23,.5,0,1.1-.49,1.33-8.57,3.93-19.07,5.11-23.26,5.21-.55,.01-1.01-.42-1.03-.98-.01-.55,.42-1.01,.98-1.02,4.05-.1,14.25-1.26,22.48-5.04,.5-.23,1.1,0,1.33,.49h0Zm0,0"/>
  <path class="cls-6" d="M75.37,28.51c0,1-.81,1.81-1.81,1.81s-1.81-.81-1.81-1.81,.81-1.81,1.81-1.81,1.81,.81,1.81,1.81h0ZM45.39,12.06c0,1-.81,1.81-1.81,1.81s-1.81-.81-1.81-1.81,.81-1.81,1.81-1.81,1.81,.81,1.81,1.81h0Zm-13.2,13.82c0,1-.81,1.81-1.81,1.81s-1.81-.81-1.81-1.81,.81-1.81,1.81-1.81,1.81,.81,1.81,1.81h0Zm8.94,18.25c0,1.56-1.26,2.81-2.81,2.81s-2.81-1.26-2.81-2.81,1.26-2.81,2.81-2.81,2.81,1.26,2.81,2.81h0Zm12.64-18.44c0,1.56-1.26,2.81-2.81,2.81s-2.81-1.26-2.81-2.81,1.26-2.81,2.81-2.81,2.81,1.26,2.81,2.81h0Zm13.88-11.82c0,1.55-1.26,2.81-2.81,2.81s-2.81-1.26-2.81-2.81,1.26-2.81,2.81-2.81,2.81,1.26,2.81,2.81h0Zm-4.53,27.45c0,1.56-1.26,2.81-2.81,2.81s-2.81-1.26-2.81-2.81,1.26-2.81,2.81-2.81,2.81,1.26,2.81,2.81h0Zm0,0"/>
</svg>