<?xml version="1.0" encoding="UTF-8"?>
<svg id="Layer_1" data-name="Layer 1" xmlns="http://www.w3.org/2000/svg" viewBox="0 0 780.29 158">
  <defs>
    <style>
      .cls-1 {
        fill: #fff;
      }
    </style>
  </defs>
  <path class="cls-1" d="M56.18,99.56c.9,15.13-3.1,30.15-11.39,42.83-6.81,9.97-18.2,15.84-30.27,15.6-4.99,.08-9.94-.9-14.51-2.89v-17.94c4.3,2.97,9.45,4.45,14.67,4.21,15.92,0,23.87-13.89,23.87-41.66V0h17.63V99.56Z"/>
  <path class="cls-1" d="M237.42,155.11h-17.55V23.41s.86-1.56,.78-1.01c-1.56,6.16-55.55,132.64-55.55,132.64h-9.05S102.13,31.21,100.73,26.53V155.11h-16.77V0h23.41l46.19,108.22c2.73,6.02,5.02,12.22,6.87,18.57h.7c2.96-8.5,5.38-14.82,7.18-19.04L215.34,0h22.08V155.11Z"/>
  <path class="cls-1" d="M257.94,151.91v-15.6c7.19,5.64,16.06,8.71,25.2,8.74,12.33,0,18.49-4.29,18.49-12.72,.07-2.15-.5-4.27-1.64-6.09-1.07-1.77-2.5-3.29-4.21-4.45-1.96-1.42-4.08-2.6-6.32-3.51l-7.8-3.2c-3.48-1.4-6.87-3.01-10.14-4.84-2.7-1.41-5.17-3.23-7.33-5.38-1.98-1.96-3.49-4.33-4.45-6.94-1.08-2.89-1.61-5.96-1.56-9.05,0-3.8,.97-7.53,2.81-10.84,1.94-3.29,4.61-6.09,7.8-8.19,3.25-2.26,6.87-3.95,10.69-4.99,4.07-1.1,8.27-1.65,12.48-1.64,6.98-.13,13.9,1.26,20.29,4.06v14.59c-6.56-4.42-14.33-6.71-22.24-6.55-2.37-.03-4.74,.29-7.02,.94-1.97,.53-3.82,1.43-5.46,2.65-1.45,1.05-2.65,2.41-3.51,3.98-.82,1.59-1.24,3.36-1.25,5.15-.04,2.05,.39,4.07,1.25,5.93,.91,1.65,2.16,3.08,3.67,4.21,1.8,1.33,3.73,2.45,5.77,3.35l7.8,3.2c3.54,1.4,7,2.99,10.38,4.76,2.85,1.44,5.48,3.28,7.8,5.46,2.13,1.94,3.83,4.31,4.99,6.94,2.73,6.84,2.33,14.54-1.09,21.07-2,3.14-4.67,5.8-7.8,7.8-3.35,2.26-7.07,3.9-11,4.84-4.28,1.08-8.69,1.6-13.11,1.56-8.14,.22-16.21-1.57-23.48-5.23Z"/>
  <path class="cls-1" d="M363.5,157.21c-11.76,.61-23.19-4.02-31.21-12.64-8.05-9.24-12.21-21.23-11.63-33.47-.76-12.96,3.58-25.7,12.09-35.5,8.51-8.72,20.37-13.35,32.53-12.72,11.5-.57,22.67,3.97,30.51,12.41,7.82,9.7,11.74,21.97,11,34.41,.6,12.61-3.64,24.98-11.86,34.56-8.1,8.69-19.58,13.42-31.44,12.95Zm1.01-82.23c-8.17-.31-16.02,3.21-21.22,9.52-5.59,7.49-8.36,16.72-7.8,26.06-.56,9.09,2.21,18.08,7.8,25.28,5.29,6.16,13.1,9.58,21.22,9.28,8.03,.47,15.8-2.92,20.91-9.13,5.32-7.49,7.9-16.58,7.33-25.75,.58-9.27-2.01-18.45-7.33-26.06-5.11-6.22-12.87-9.64-20.91-9.21Z"/>
  <path class="cls-1" d="M432.32,155.11h-13.97V21.69h13.97V155.11Z"/>
  <path class="cls-1" d="M520.17,155.11h-13.97v-14.28h0c-4.9,10.38-15.53,16.83-27,16.38-20.81,0-31.21-12.8-31.21-38.39v-53.83h13.89v51.57c0,19.04,7.07,28.56,21.22,28.56,6.51,.1,12.72-2.77,16.85-7.8,4.42-5.81,6.64-13,6.24-20.29v-52.04h13.97v90.11Z"/>
  <path class="cls-1" d="M578.06,154.25c-4.03,2.04-8.52,3.01-13.03,2.81-15.6,0-23.41-8.79-23.41-26.37v-53.37h-14.59v-12.33h14.98v-22l14.04-4.68v26.68h22v12.33h-22v50.79c-.37,4.52,.67,9.04,2.96,12.95,2.51,2.78,6.19,4.19,9.91,3.82,3.29,.09,6.52-.95,9.13-2.96v12.33Z"/>
  <path class="cls-1" d="M592.34,42.05c-2.39,.04-4.7-.89-6.4-2.57-1.74-1.8-2.69-4.21-2.65-6.71-.05-2.52,.9-4.97,2.65-6.79,1.7-1.68,4.01-2.6,6.4-2.57,5.08-.04,9.24,4.04,9.29,9.13,0,.08,0,.16,0,.24,.03,2.47-.96,4.84-2.73,6.55-1.69,1.81-4.08,2.8-6.55,2.73Zm6.87,113.05h-14.04V64.99h14.04v90.11Z"/>
  <path class="cls-1" d="M652.73,157.21c-11.76,.59-23.18-4.03-31.21-12.64-8.02-9.25-12.16-21.24-11.55-33.47-.79-12.95,3.52-25.69,12.02-35.5,8.53-8.7,20.37-13.32,32.53-12.72,11.53-.59,22.73,3.95,30.58,12.41,7.76,9.73,11.66,21.98,10.92,34.41,.63,12.6-3.58,24.97-11.78,34.56-8.11,8.71-19.63,13.44-31.52,12.95Zm1.01-82.23c-8.2-.34-16.08,3.19-21.3,9.52-5.64,7.47-8.41,16.72-7.8,26.06-.56,9.09,2.21,18.08,7.8,25.28,5.27,6.19,13.1,9.62,21.22,9.28,8.02,.45,15.79-2.93,20.91-9.13,5.29-7.5,7.85-16.59,7.26-25.75,.6-9.26-1.96-18.45-7.26-26.06-5.1-6.19-12.82-9.6-20.83-9.21Z"/>
  <path class="cls-1" d="M780.21,155.11h-14.04v-51.42c0-19.12-6.71-28.71-20.29-28.71-6.76-.12-13.19,2.91-17.4,8.19-4.72,5.77-7.16,13.07-6.87,20.52v51.42h-13.97V64.99h13.97v14.98h0c5.46-10.77,16.64-17.43,28.71-17.09,8.46-.56,16.68,2.98,22.08,9.52,5.64,8.06,8.39,17.8,7.8,27.62v55.08Z"/>
</svg>