<?xml version="1.0" encoding="UTF-8"?>
<svg id="Layer_1" data-name="Layer 1" xmlns="http://www.w3.org/2000/svg" viewBox="0 0 500 69.43">
  <defs>
    <style>
      .cls-1 {
        fill: #fff;
      }
    </style>
  </defs>
  <path class="cls-1" d="M256.73,69.43c-1.44-.27-2.92-.42-4.31-.84-1.35-.41-2.7-.97-3.89-1.72-1.44-.91-2.02-2.4-1.64-4.1,.3-1.35,1.27-2.18,2.6-2.42,1.69-.31,3.27-.01,4.3,1.51,.62,.92,1.07,1.96,1.51,2.98,.79,1.82,1.82,3.32,4.02,3.49,2.39,.19,4.29-.72,5.66-2.68,1.48-2.11,1.8-4.57,1.96-7.03,.19-2.99,.28-6,.29-9,.03-11.7,.03-23.4,0-35.1,0-1.61-.1-3.24-.38-4.81-.73-3.98-3.6-6.35-8.25-7.04-.39-.06-.75-.32-1.12-.48,.05-.15,.1-.3,.15-.45h28.8c.06,.08,.13,.16,.19,.25-.26,.22-.49,.53-.78,.63-.37,.13-.8,.06-1.2,.11-4.63,.6-7.11,3.21-7.44,7.89-.11,1.65-.16,3.31-.17,4.97-.05,12.91-.05,25.82-.13,38.73,0,1.55-.26,3.13-.62,4.65-.87,3.64-3.23,6.12-6.54,7.74-2.84,1.39-5.85,2.21-9.01,2.49-.44,.04-.87,.16-1.3,.25h-2.69Z"/>
  <path class="cls-1" d="M500,57.32c-4.34,.56-8.68,1.13-13.19,1.72-.18-1.44-.35-2.75-.53-4.19-.88,.44-1.66,.84-2.45,1.23-4.67,2.29-9.57,2.93-14.65,1.82-8.46-1.85-13.8-8.94-13.46-17.63,.51-13,11.56-20.11,23.42-17.54,1.99,.43,3.79,1.75,5.67,2.67,.42,.21,.79,.5,1.43,.92,0-.82,0-1.34,0-1.86-.06-5.2,.02-10.4-.23-15.59-.19-3.89-1.9-5.45-5.74-6.04-.36-.06-.68-.37-1.01-.56,.22-.18,.41-.49,.65-.52,4.31-.52,8.62-1.01,13.09-1.52,0,.65,0,1.17,0,1.7,0,15.11,0,30.22,0,45.34,0,1.07,.04,2.16,.2,3.21,.64,4.21,2.57,5.82,6.81,5.77v1.08Zm-13.61-16.98c-.24-3.17-.34-5.82-.66-8.44-.41-3.33-1.86-6.06-5.04-7.6-4.38-2.13-9.29-.95-12.68,3.07-5.9,6.99-5.97,18.74-.15,25.82,2.68,3.26,6.13,4.65,10.28,3.72,4.16-.94,6.57-3.79,7.31-7.87,.55-3.03,.67-6.13,.93-8.7Z"/>
  <path class="cls-1" d="M13.46,0V40.96c.4-.32,.61-.46,.78-.63,3.03-3.06,6.08-6.09,9.07-9.19,.83-.86,1.61-1.84,2.16-2.9,1.05-2.03,.16-3.76-2.08-4.26-.7-.16-1.42-.17-2.13-.31-.2-.04-.35-.29-.52-.44,.19-.14,.38-.38,.57-.39,1.07-.04,2.15-.03,3.23-.03,3.99,0,7.98,0,11.97,0,.31,0,.64-.05,.94,.03,.19,.05,.32,.31,.48,.47-.16,.12-.32,.34-.47,.33-4.9-.08-7.9,3.14-10.98,6.24-1.89,1.9-3.79,3.8-5.87,5.9,6.16,5.99,12.24,11.95,18.39,17.84,1.89,1.81,4.23,2.82,6.86,3.13,.26,.03,.49,.33,.74,.51-.25,.12-.51,.33-.76,.33-6.64,0-13.27,0-19.91-.02-.08,0-.16-.07-.42-.19,.19-.23,.31-.52,.51-.59,.46-.15,.97-.17,1.45-.29,1.86-.48,2.4-1.84,1.4-3.47-.12-.19-.24-.39-.4-.54-4.19-3.98-8.39-7.95-12.79-12.11-.37,.42-1.13,1.24-1.84,2.11-.2,.25-.34,.64-.34,.96,0,2.42-.05,4.85,.11,7.26,.25,3.79,1.34,4.94,5.08,5.85,.45,.11,.88,.34,1.31,.52-.05,.17-.09,.33-.14,.5H0C0,57.32,0,57.05,0,56.78c.53-.07,1.07-.12,1.59-.22,3.2-.59,4.58-2.07,4.86-5.29,.15-1.74,.25-3.49,.25-5.23,.02-11.07,.02-22.14,0-33.21,0-1.79-.09-3.59-.25-5.37-.26-2.8-1.86-4.47-4.62-4.96-.39-.07-.79-.11-1.18-.17l-.2-.34c.3-.2,.57-.53,.89-.59,.92-.17,1.87-.21,2.8-.33C6.89,.73,9.63,.36,12.38,0h1.08Z"/>
  <path class="cls-1" d="M367.87,0c-.03,.35-.1,.71-.1,1.06,0,15.87,.02,31.74,.04,47.61,0,.54,.01,1.08,.03,1.61,.12,3.98,1.22,5.33,5.08,6.27,.44,.11,.85,.35,1.28,.53-.03,.14-.06,.27-.08,.41-.36,.04-.73,.13-1.09,.13-5.83,0-11.66,.01-17.49-.01-.38,0-.76-.23-1.15-.36,.34-.2,.67-.52,1.03-.57,3.5-.53,5-1.7,5.41-6.15,.13-1.38,.12-2.78,.12-4.17,0-12.11-.01-24.21-.04-36.32,0-.94-.06-1.89-.21-2.81-.49-2.96-1.86-4.29-4.8-4.79-.36-.06-.69-.34-1.03-.52,.35-.19,.68-.5,1.05-.54,3.29-.4,6.59-.76,9.88-1.14,.25-.03,.5-.16,.74-.24,.45,0,.9,0,1.35,0Z"/>
  <path class="cls-1" d="M411.23,56.48c2.87-.56,4.15-1.83,4.54-4.44,.15-1.02,.27-2.05,.28-3.08,.02-5.83,.02-11.66,0-17.49,0-.89-.11-1.79-.28-2.67-.45-2.26-1.94-3.67-4.23-4.11-.51-.1-1.03-.21-1.63-.65,.32-.17,.63-.45,.97-.49,3.73-.47,7.46-.9,11.46-1.37,.24,1.63,.48,3.19,.73,4.9,.42-.32,.75-.58,1.09-.84,5.53-4.17,11.66-5.07,18.2-3.1,4.54,1.37,6.52,4.26,6.52,9,0,5.52,0,11.03,0,16.55,0,.58,0,1.17,.03,1.75,.21,3.89,1.32,5.21,5.11,6.13,.47,.11,.9,.35,1.35,.53-.04,.15-.09,.31-.13,.46-.42,.03-.85,.07-1.27,.07-5.74,0-11.48,.01-17.22-.01-.43,0-.86-.22-1.29-.33,.37-.21,.72-.53,1.12-.62,3.83-.8,5.22-2.19,5.29-6.07,.12-6.36,.14-12.73-.02-19.09-.12-4.69-3.01-7.4-7.73-7.56-1.33-.04-2.71,.03-4,.33-4.29,1-6.86,3.94-7.01,8.54-.2,6.18-.14,12.37-.04,18.56,.05,2.93,1.51,4.33,4.75,5.14,.53,.13,1.03,.34,1.55,.51-.03,.17-.07,.33-.1,.5-.45,.03-.91,.1-1.36,.1-5.02,0-10.05-.04-15.07,.03-1.73,.02-3.46,.24-5.17,.52-4.42,.72-8.13-.19-10.59-4.46-.84,.63-1.62,1.19-2.39,1.77-4.35,3.26-9.16,3.62-14.18,2.1-3.16-.96-5.27-3.07-5.56-6.53-.28-3.36,1.07-6.09,4.04-7.6,2.24-1.15,4.77-1.75,7.19-2.52,2.09-.67,4.23-1.15,6.3-1.86,3.09-1.06,4.62-3.3,4.42-6.58-.09-1.51-.2-3.06-.58-4.51-.74-2.84-3.08-4.66-5.93-4.87-3.16-.24-5.09,.92-6.51,3.89-.25,.53-.48,1.06-.75,1.58-.96,1.87-3.12,2.57-5.03,1.64-2.12-1.04-2.57-3.68-.65-5.04,1.35-.96,2.98-1.65,4.59-2.09,5.43-1.48,10.83-1.17,16.12,.75,4.14,1.5,5.48,3.31,5.56,7.69,.11,6.46,.11,12.91,.17,19.37,0,.62,.09,1.25,.21,1.86,.29,1.45,.97,2.62,2.51,3.02,1.62,.42,3.09,.19,4.36-1.03,.37-.35,.89-.54,1.34-.8-.15,.55-.27,1.11-.47,1.64-.11,.28-.35,.51-.61,.89Zm-14.24-18.73c-2.02,1.13-3.87,2.17-5.74,3.2-1.33,.73-2.72,1.37-4,2.18-2.5,1.58-4.15,3.76-4.49,6.8-.55,4.86,3.58,8.21,8.18,6.59,2.85-1,4.55-3.09,5.34-5.93,1.17-4.2,.56-8.5,.71-12.84Z"/>
  <path class="cls-1" d="M174.5,23.78c4.03-.78,8.14-1.03,12.39-1.6,.24,1.66,.46,3.19,.72,4.93,.41-.33,.74-.6,1.07-.85,5.52-4.18,11.66-5.09,18.2-3.13,4.56,1.37,6.54,4.24,6.55,8.98,.01,5.47,0,10.94,0,16.41,0,.58,0,1.17,.02,1.75,.2,4.09,1.25,5.34,5.23,6.31,.43,.1,.82,.35,1.23,.53-.04,.13-.09,.26-.13,.39h-19.76c-.04-.09-.09-.17-.13-.26,.26-.17,.5-.43,.78-.5,4.79-1.2,5.63-1.95,5.77-6.9,.18-6.22,.11-12.46-.09-18.69-.12-3.99-2.24-6.2-6.18-7.02-2.52-.53-4.99-.28-7.36,.77-3.52,1.56-5.12,4.45-5.19,8.12-.12,6.1-.12,12.2-.01,18.29,.05,3.02,1.51,4.39,4.83,5.22,.5,.12,.94,.47,1.41,.71-.52,.13-1.03,.36-1.55,.36-11.93,.02-23.85,.02-35.78,.02-.48,0-.97,0-1.45,0-.05-.11-.1-.23-.15-.34,.24-.18,.48-.5,.73-.52,4.42-.37,5.79-2.67,5.83-7.32,.05-6.28,.04-12.56-.03-18.83-.03-2.75-1.14-5.64-5.19-6.06-.25-.03-.5-.12-1.08-.27,.44-.33,.66-.63,.9-.66,4.04-.49,8.08-.95,12.31-1.44,0,.72,0,1.24,0,1.77,.01,8.52,.02,17.04,.04,25.56,0,.58,0,1.17,.05,1.75,.28,3.33,2.56,5.56,6,5.42,2.88-.12,5.3-.78,5.88-4.99,.1-.75,.21-1.51,.21-2.27,.02-6.05,.02-12.11,0-18.16,0-.85-.09-1.71-.29-2.53-.55-2.18-1.83-3.66-4.16-4.02-.52-.08-1.03-.21-1.55-.31-.02-.2-.05-.41-.07-.61Z"/>
  <path class="cls-1" d="M117.97,24.82c.3,1.47,.12,2.77-1.42,3.48-1.35,.62-2.89,.26-4.17-.96-.58-.56-1.13-1.16-1.75-1.67-2.5-2.01-5.7-1.54-7.49,1.12-1.42,2.1-2.11,4.51-2.18,6.98-.17,5.73-.21,11.47-.1,17.2,.07,3.37,1.37,4.67,4.6,5.53,.57,.15,1.07,.53,1.61,.8-.57,.11-1.14,.31-1.71,.32-5.56,.02-11.12,.02-16.68,.01-.47,0-.93-.05-1.66-.08,.32-.4,.43-.67,.61-.73,.42-.14,.87-.19,1.31-.27,3.05-.58,4.45-2.03,4.7-5.14,.19-2.36,.27-4.74,.26-7.12,0-4.7,.03-9.42-.21-14.11-.19-3.64-1.61-4.98-5.13-5.63-.26-.05-.51-.11-.89-.5,.35-.18,.68-.46,1.04-.51,3.46-.46,6.93-.88,10.66-1.35,.29,1.97,.56,3.89,.86,5.92,.18-.2,.36-.36,.51-.55,3.48-4.52,8.19-5.78,13.61-5.18,.44,.05,.94,.15,1.27,.4,1.29,.99,2.69,.69,4.11,.52,3.19-.38,6.38-.73,9.73-1.11,0,.63,0,1.12,0,1.6,.01,8.16,.02,16.32,.04,24.48,0,.9,.05,1.79,.12,2.69,.27,3.39,1.38,4.67,4.62,5.54,.57,.15,1.09,.52,1.63,.79-.61,.12-1.22,.33-1.83,.33-5.51,.03-11.03,.02-16.54,.01-.47,0-.94-.04-1.66-.07,.29-.39,.39-.68,.57-.73,.47-.15,.96-.2,1.45-.29,2.89-.55,4.3-2.02,4.57-4.97,.2-2.18,.29-4.38,.28-6.58-.03-5.15-.05-10.31-.27-15.45-.12-2.79-2.02-4.61-4.46-4.7Z"/>
  <path class="cls-1" d="M65.27,58.4c-6.36-.02-11.97-2.16-16.44-6.99-5.83-6.31-5.97-15.11-.34-21.6,9.07-10.46,25.71-10.16,34.35,.63,4.99,6.23,4.84,14.42-.41,20.46-4.49,5.17-10.25,7.49-17.16,7.5Zm13.03-17.15c.01-5.98-2.09-11.5-5.32-14.77-4.67-4.72-11.34-4.58-15.78,.33-2.88,3.18-4.32,6.97-4.61,11.21-.39,5.84,.79,11.24,4.87,15.7,4.88,5.34,12.37,5.03,16.77-.7,2.83-3.69,3.86-8,4.08-11.77Z"/>
  <path class="cls-1" d="M328.14,57.68v-11.52c.1-.05,.19-.11,.29-.16,.22,.34,.47,.65,.65,1.01,.99,1.99,1.74,4.16,3,5.96,2.23,3.21,5.29,5.09,9.42,4.4,2.56-.43,4.58-1.67,5.35-4.28,.8-2.71,.21-5.22-1.93-7.11-1.19-1.05-2.64-1.84-4.03-2.63-2.61-1.47-5.36-2.72-7.89-4.31-4.07-2.57-5.53-6.51-4.02-10.48,1.37-3.59,4.18-5.51,7.86-6.17,2.56-.46,5.09-.25,7.51,.8,1.28,.56,2.54,1.02,3.61-.42,.13-.17,.54-.14,.97-.23,.16,3.11,.31,6.09,.46,9.06-.15,.07-.31,.15-.46,.22-.25-.39-.6-.75-.74-1.17-1.18-3.8-3.62-6.35-7.49-7.38-3.57-.94-6.97,1.08-7.68,4.45-.41,1.94,.18,3.64,1.66,4.83,1.35,1.08,2.89,1.95,4.44,2.71,2.25,1.1,4.64,1.91,6.88,3.02,2.9,1.42,5.24,3.46,6.21,6.7,1.8,6.02-2.05,11.92-8.52,13.13-2.98,.55-5.89,.27-8.75-.66-.72-.23-1.44-.49-2.16-.72-1.35-.43-2.63-.5-3.76,.59-.19,.18-.52,.21-.9,.36Z"/>
  <path class="cls-1" d="M305.94,57.52c.08-.27,.07-.54,.2-.65,.15-.13,.42-.13,.64-.16,3.94-.47,5.55-2,5.64-6.89,.12-6.31,.05-12.63,0-18.95,0-.97-.2-1.97-.51-2.89-.61-1.78-1.85-2.92-3.76-3.25-.56-.1-1.12-.21-2.08-.39,.5-.39,.71-.69,.95-.72,4.03-.49,8.07-.95,12.32-1.44,0,.71,0,1.23,0,1.76,.02,8.42,.03,16.85,.05,25.27,0,.36,0,.72,.02,1.08,.09,3.94,1.25,5.36,5.07,6.28,.46,.11,.9,.35,1.34,.53l-.15,.43h-19.73Z"/>
  <path class="cls-1" d="M129.97,3.76c.03,2.08-1.64,3.62-3.98,3.67-2.32,.04-4.07-1.47-4.1-3.53-.03-2.1,1.63-3.63,3.96-3.65,2.34-.02,4.08,1.47,4.12,3.51Z"/>
  <path class="cls-1" d="M164.74,.25c2.34-.02,4.07,1.47,4.11,3.52,.03,2.07-1.66,3.62-3.99,3.65-2.31,.03-4.08-1.49-4.13-3.53-.05-2.02,1.72-3.62,4.01-3.64Z"/>
  <path class="cls-1" d="M319.79,3.83c0,2.08-1.71,3.6-4.04,3.59-2.32,0-4.06-1.55-4.06-3.6,0-2.03,1.77-3.58,4.07-3.58,2.33,0,4.04,1.52,4.03,3.59Z"/>
</svg>