<?xml version="1.0" encoding="UTF-8"?>
<svg id="Layer_1" data-name="Layer 1" xmlns="http://www.w3.org/2000/svg" viewBox="0 0 500 78.44">
  <defs>
    <style>
      .cls-1 {
        fill: none;
      }

      .cls-2 {
        fill: #fff;
      }
    </style>
  </defs>
  <rect id="backgroundrect" class="cls-1" x="17.1" y="2.68" width="466.9" height="73.9"/>
  <g id="svg_1" data-name="svg 1">
    <rect id="svg_2" data-name="svg 2" class="cls-2" x="322.19" y="1.25" width="12.19" height="76.25"/>
    <g id="svg_3" data-name="svg 3">
      <path id="svg_4" data-name="svg 4" class="cls-2" d="M13.12,65V1.56H0V77.19H39.06c.63,0,4.38-.31,5.94-3.44l4.06-8.75H13.12Z"/>
    </g>
    <g id="svg_5" data-name="svg 5">
      <path id="svg_6" data-name="svg 6" class="cls-2" d="M214.69,1.56h-11.87V50.94L161.56,.94h-2.19V77.5h11.87V30l37.19,45.63h0s1.25,1.87,4.06,1.87h1.88V1.56s.31,0,.31,0Z"/>
    </g>
    <path id="svg_7" data-name="svg 7" class="cls-2" d="M104.37,0h-3.12l-31.25,77.5h9.37c.63,0,4.06-.62,5.62-4.37,2.19-5.94,6.56-18.13,16.87-43.44l.63-2.19s0-.31,.31-.31h.31c.31,0,.31,.31,.31,.31l.62,2.19c10.31,25.31,14.69,37.5,16.87,43.44,1.56,3.75,5,4.37,5.62,4.37h9.38L104.37,0Z"/>
    <path id="svg_8" data-name="svg 8" class="cls-2" d="M291.56,69.38c-1.25-3.13-4.69-3.13-5.31-3.13h-29.69v-22.19h32.5v-10.94h-32.5V13.13h30c1.56,0,3.75-.63,4.69-3.44v-.31s.31-1.25,1.87-5.63l.62-1.87h-48.75V77.5h50l-3.44-8.12Z"/>
    <path id="svg_9" data-name="svg 9" class="cls-2" d="M496.56,69.38c-1.25-3.13-4.69-3.13-5.31-3.13h-29.69v-22.19h32.5v-10.94h-32.5V13.13h30c1.56,0,3.75-.63,4.69-3.44v-.31s.31-1.25,1.87-5.63l.62-1.87h-48.75V77.5h50l-3.44-8.12Z"/>
    <g id="svg_10" data-name="svg 10">
      <path id="svg_11" data-name="svg 11" class="cls-2" d="M419.38,15.31c-2.81-6.56-7.5-10.31-12.19-12.19-4.69-1.88-9.38-2.5-11.88-2.5-3.12,0-8.75,.62-14.69,3.12-5.62,2.81-11.56,7.81-15,16.56h0c-3.44,8.12-3.44,16.25-3.44,19.06h0c0,17.82,7.19,27.19,11.25,30.94,5.94,5.31,12.81,8.12,21.87,8.12h1.25s10.31,.32,18.44-4.06c6.25-3.44,6.87-5.94,6.87-8.44v-28.75h-28.12v6.88c0,2.5,2.5,4.06,4.06,4.06h12.5v14.38s-.94,4.37-14.38,4.69c-5.31,0-7.81-1.25-10-2.19-5-2.5-7.81-7.5-9.38-12.5-1.56-5-1.87-10-1.87-12.81h0v-.31c0-15.62,5.31-21.87,9.69-24.69h0c2.5-1.88,6.25-2.5,10-2.5,7.5,0,10.31,2.81,12.5,5.62,0,0,1.25,1.88,2.18,5.62h12.19c-.62-5-1.87-8.13-1.87-8.13Z"/>
    </g>
  </g>
</svg>