<?xml version="1.0" encoding="UTF-8"?>
<svg id="svg2" xmlns="http://www.w3.org/2000/svg" viewBox="0 0 775.9 50">
  <defs>
    <style>
      .cls-1 {
        fill: #fff;
      }
    </style>
  </defs>
  <g id="g10">
    <path id="path16" class="cls-1" d="M26.75,28.19L46.31,1h7.21V48.8h-8.22V15.37l-18.55,25.54L8.19,15.37V48.8H0V1H7.31L26.75,28.19Zm94.24,8.32h-26.05l-6.53,12.28h-9.01L104.77,1h6.39l25.65,47.8h-9.09l-6.73-12.28Zm-22.08-7.47h18.19l-9.12-16.9s-9.06,16.9-9.06,16.9Zm98.89-.64l12.57,20.39h-9.31l-12.37-19.98h-17.52v19.98h-8.27V1h29.42c4.27,0,8.68,.85,12.05,3.61,3.17,2.58,4.52,6.1,4.52,10.15,0,3.52-1.13,6.62-3.51,9.22-2.08,2.28-4.67,3.7-7.6,4.42Zm-26.63-7.06h20.75c2.11,0,4.67-.31,6.39-1.68,1.5-1.19,2-2.87,2-4.74s-.54-3.55-2.02-4.79c-1.65-1.39-3.96-1.75-6.06-1.75h-21.06s0,12.96,0,12.96Zm108.68,10.29l6.69,4.6-.49,.85c-2.34,4.1-5.59,7.33-9.73,9.57-4.32,2.34-9.06,3.33-13.95,3.33-7.23,0-13.76-2.09-19.08-7.05-5.16-4.83-7.57-10.89-7.57-17.94s2.42-13.14,7.6-17.97C248.63,2.09,255.17,0,262.37,0c4.52,0,8.9,.87,12.96,2.87,3.91,1.92,7.13,4.67,9.6,8.26l.62,.9-7.01,4.61-.56-.98c-1.5-2.62-3.62-4.59-6.28-6-2.91-1.52-6.05-2.19-9.32-2.19-5.01,0-9.44,1.5-13.07,4.98-3.55,3.43-5.13,7.66-5.13,12.56s1.58,9.14,5.13,12.56c3.63,3.48,8.07,4.96,13.07,4.96,3.48,0,6.8-.75,9.81-2.51,3.04-1.78,5.34-4.34,7.09-7.38,0,0,.58-1,.58-1Zm61.77-4.63h8.27v8.18c0,2.4,.85,4.29,2.98,5.48,2.86,1.62,7.71,1.85,10.93,1.85,2.84,0,7.67-.25,9.94-2.22,2.17-1.89,2.48-6.01,2.48-8.67V1h8.27V33.16c0,4.87-1.15,9.87-5.21,12.96-4.33,3.31-11.35,3.88-16.6,3.88s-11.37-.59-15.68-3.53c-3.82-2.62-5.37-6.55-5.37-11.11v-8.35h0Zm108.51,9.51h-26.06l-6.53,12.28h-9.01L433.91,1h6.39l25.64,47.8h-9.09l-6.73-12.28Zm-22.08-7.47h18.19l-9.13-16.9-9.06,16.9Zm104.46,2.6l6.68,4.6-.49,.85c-2.34,4.1-5.59,7.33-9.73,9.57-4.32,2.34-9.06,3.33-13.95,3.33-7.23,0-13.76-2.09-19.08-7.05-5.16-4.83-7.57-10.89-7.57-17.94s2.41-13.14,7.6-17.97C501.29,2.09,507.83,0,515.02,0c4.52,0,8.9,.87,12.97,2.87,3.9,1.92,7.13,4.67,9.6,8.26l.62,.9-7.02,4.61-.56-.98c-1.5-2.62-3.62-4.59-6.29-6-2.9-1.52-6.05-2.19-9.32-2.19-5.01,0-9.44,1.49-13.07,4.98-3.55,3.43-5.13,7.66-5.13,12.56s1.58,9.14,5.13,12.56c3.63,3.48,8.07,4.96,13.07,4.96,3.48,0,6.8-.75,9.81-2.51,3.04-1.78,5.34-4.34,7.09-7.38l.58-1h0Zm59.62,18.36c-7.22,0-13.76-2.1-19.08-7.05-5.16-4.83-7.57-10.89-7.57-17.94s2.41-13.14,7.61-17.97C578.4,2.09,584.94,0,592.13,0s13.79,2.09,19.14,7.07c5.2,4.82,7.65,10.87,7.65,17.94s-2.44,13.12-7.62,17.94c-5.36,4.96-11.92,7.05-19.17,7.05Zm0-7.47c5,0,9.44-1.48,13.07-4.96,3.56-3.42,5.13-7.66,5.13-12.56s-1.57-9.16-5.12-12.59c-3.62-3.5-8.09-4.95-13.09-4.95s-9.44,1.5-13.07,4.98c-3.55,3.43-5.13,7.66-5.13,12.56s1.57,9.14,5.13,12.56c3.63,3.48,8.07,4.96,13.07,4.96h0Zm99.69-20.83c1.92,1.22,3.63,2.76,4.91,4.68,1.51,2.3,2.19,4.87,2.19,7.62,0,4.35-1.5,8.08-4.88,10.86-3.64,2.99-8.29,3.94-12.9,3.94h-31.88V1h30.32c3.97,0,8.45,.61,11.68,3.1,3,2.29,4.16,5.63,4.16,9.34,0,1.89-.38,3.73-1.29,5.4-.6,1.11-1.37,2.06-2.31,2.87Zm-34.29,19.71h24.82c2.17,0,4.29-.48,5.9-2.01,1.54-1.46,2.08-3.41,2.08-5.49s-.56-4-2.08-5.47c-1.61-1.53-3.73-2.02-5.9-2.02h-24.82v14.99Zm0-22.38h22.59c1.78,0,3.85-.27,5.28-1.41,1.23-.97,1.66-2.32,1.66-3.85s-.36-3.02-1.59-4.01c-1.41-1.13-3.61-1.37-5.35-1.37h-22.59v10.64Zm107.12,10.4c-2.23-1.6-5.27-2.19-7.97-2.39-1.23-.12-2.49-.19-3.73-.25-4.82-.31-12.5-.86-16.99-2.73-2.19-.98-4.24-2.35-5.68-4.3-1.33-1.79-2-3.84-2-6.07,0-4.34,2.26-7.59,5.81-9.95,4.24-2.83,9.41-3.73,14.43-3.73,4.26,0,8.46,.65,12.52,1.92,4.18,1.31,8.12,3.23,11.74,5.7l.93,.64-4.89,6.45-.85-.62c-2.86-2.11-5.96-3.82-9.33-4.96-3.24-1.1-6.6-1.65-10.02-1.65-2.95,0-6.1,.43-8.72,1.87-1.58,.88-3.07,2.14-3.07,4.09,0,.59,.14,1.14,.44,1.65,.35,.61,.92,1.12,1.47,1.53,2.63,1.83,9.52,2.31,12.63,2.49,2.41,.13,4.85,.28,7.26,.54,4.49,.48,8.98,1.78,12.5,4.72,3.06,2.58,4.77,5.86,4.77,9.88,0,4.94-2.47,8.68-6.49,11.43-4.79,3.28-10.68,4.32-16.4,4.32-4.76,0-9.5-.61-14.05-2.04-4.45-1.38-8.59-3.52-12.39-6.22l-.88-.63,4.85-6.66,.86,.62c3.27,2.35,6.82,4.28,10.63,5.6,3.51,1.23,7.15,1.93,10.87,1.93s7.46-.57,10.56-2.52c2.24-1.4,3.78-3.29,3.78-6.01,0-2.02-.99-3.5-2.63-4.65"/>
  </g>
</svg>