<?xml version="1.0" encoding="UTF-8"?>
<svg id="Layer_1" data-name="Layer 1" xmlns="http://www.w3.org/2000/svg" viewBox="0 0 1287.93 100">
  <defs>
    <style>
      .cls-1 {
        fill: #fff;
      }
    </style>
  </defs>
  <path class="cls-1" d="M1052.55,47.55c3.08,1.13,5.36,1.88,7.59,2.79,11.1,4.5,16.34,11.9,16.06,22.58-.3,11.25-6.81,20.64-17.79,23.61-7.05,1.91-14.54,2.58-21.87,2.96-9.54,.5-19.13,.12-28.69,.21-2.15,.02-3.27-.43-3.26-2.92,.07-31.37,.05-62.74,.07-94.1,0-.49,.18-.98,.31-1.66,.47-.11,.93-.32,1.39-.31,11.85,.2,23.72,.23,35.56,.77,3.73,.17,7.55,1.31,11.06,2.68,14.78,5.75,17.52,18.91,12.85,30.99-1.32,3.41-4.71,6.1-7.43,8.84-1.37,1.37-3.38,2.11-5.84,3.58Zm-32.16,2.71v43.63c5.96,0,11.61,.49,17.15-.1,11.47-1.22,17.59-6.8,19.4-16.76,2.26-12.51-3.3-22.64-14.78-25.02-6.99-1.45-14.32-1.21-21.76-1.75Zm-.35-25.26c0,3.57,0,7.13,0,10.7q0,11.05,11.17,10.02c13.92-1.29,21.12-10.59,18.87-24.38-.12-.75-.29-1.5-.45-2.24-1.37-6.39-4.99-11.07-11.38-12.57-4.89-1.16-10.04-1.21-15.08-1.73-2.54-.26-3.23,1-3.17,3.41,.14,5.6,.05,11.21,.04,16.81Z"/>
  <path class="cls-1" d="M74.89,.85h8.1V99.21c-3.39,1.08-5.88,.39-8.3-2.53C53.61,71.26,32.38,45.94,11.19,20.6c-.73-.87-1.5-1.7-2.92-3.31V99.4H0V.69c4.18,0,8.24-.18,12.25,.12,1.1,.08,2.26,1.44,3.11,2.45,18.63,22,37.22,44.03,55.82,66.05,.94,1.11,1.93,2.17,3.7,2.88V.85Z"/>
  <path class="cls-1" d="M629.58,0c14.25,.72,28.25,1.04,42.15,2.37,4.43,.42,9.02,2.95,12.81,5.56,13.68,9.39,12.62,29.06-1.97,37.07-4.18,2.29-9.01,3.41-13.57,5.01-1.18,.41-2.43,.61-4.5,1.12,14.91,16.3,29.38,32.12,44.41,48.55-4.37,0-8.08,.41-11.63-.17-1.83-.3-3.63-2.11-5.02-3.62-12.26-13.35-24.57-26.65-36.52-40.27-3.15-3.59-6.65-3.22-10.36-2.81-.66,.07-1.54,2.29-1.54,3.52-.06,13.02,.04,26.03,.09,39.05,0,1.25,0,2.5,0,4.02h-14.37V0Zm14.25,48.35c7.45-.93,14.35-1.17,20.9-2.78,7.83-1.93,10.96-8.37,11.49-15.87,.57-8.11-.48-15.87-7.94-21.05-.92-.64-2.04-1.27-3.12-1.38-6.31-.64-12.63-1.2-18.96-1.54-.75-.04-2.26,1.41-2.27,2.18-.14,12.98-.1,25.95-.1,40.44Z"/>
  <path class="cls-1" d="M476.26,99.67c-4.47,0-7.92,.23-11.31-.11-1.42-.14-3.03-1.19-4.04-2.3-12.87-13.99-25.64-28.06-38.44-42.11-2.16-2.37-7.33-3.75-10.03-2.29-.83,.45-1.3,2.26-1.31,3.45-.04,12.63,.05,25.25,.1,37.88,0,1.64,0,3.28,0,5.19h-14.16V.67c4.77,0,9.46-.16,14.13,.03,9.28,.38,18.62,.43,27.8,1.65,4.46,.6,9.04,2.91,12.83,5.52,13.65,9.35,12.86,28.62-1.51,36.85-4.34,2.48-9.46,3.61-14.23,5.32-1.14,.41-2.34,.65-4.19,1.16,14.89,16.26,29.31,32.02,44.38,48.48Zm-65.17-52.48c7.38,.6,14.2,.79,20.87-1.44,4.31-1.44,7.75-3.97,9.54-8.23,3.3-7.83,3.06-15.64-.71-23.27-1.85-3.75-4.82-6.52-8.96-7.1-6.02-.84-12.13-1.16-18.21-1.42-.81-.03-2.41,1.56-2.42,2.41-.16,12.86-.11,25.72-.11,39.04Z"/>
  <path class="cls-1" d="M829.33,99.39h-14.88V1.14c12.45,0,24.66-.31,36.85,.15,4.97,.19,10.15,1.41,14.77,3.31,11.2,4.59,16.19,13.75,14.85,25.65-1.28,11.41-8.78,20.22-20.16,21.91-8.9,1.32-18,1.41-27.03,1.61-3.5,.08-4.54,.99-4.48,4.52,.21,12.23,.08,24.47,.08,36.71v4.39Zm.01-72.34v9.55q0,13.48,13.62,12.15c12.05-1.17,18.91-6.78,20.09-17.63,1.56-14.34-3.62-22.96-16.03-25.23-4.72-.86-9.62-.71-14.44-1.01-2.44-.15-3.33,.96-3.28,3.43,.14,6.24,.04,12.48,.04,18.72Z"/>
  <path class="cls-1" d="M785.49,1v7.7h-42.44V45.81h35.04v8.21c-4.6,0-9.02,0-13.45,0-6.25,0-12.51,0-18.76-.04-1.83-.01-3.22,.15-3.2,2.6,.09,11.1,.06,22.2,.1,33.3,0,.35,.23,.7,.51,1.51h45.99v7.96c-1.21,.09-2.55,.28-3.88,.28-17.74,.02-35.48-.07-53.22,.09-3.36,.03-4.29-.89-4.28-4.29,.14-30.24,.08-60.47,.08-90.71,0-1.13,0-2.27,0-3.73h57.52Z"/>
  <path class="cls-1" d="M493.73,.84h57.18v7.91h-42.32V46.24h34.95v7.65c-1.58,.07-3.06,.2-4.55,.21-9.06,.02-18.12,.07-27.18-.03-2.55-.03-3.62,.68-3.58,3.45,.14,10.2,.16,20.41,0,30.62-.05,2.98,1.08,3.63,3.8,3.61,12.76-.11,25.53-.05,38.29-.05,1.39,0,2.79,0,4.49,0v7.66c-.96,.09-2.06,.3-3.15,.3-18.12,.02-36.25-.03-54.37,.06-2.68,.01-3.82-.52-3.81-3.56,.11-30.87,.06-61.75,.07-92.62,0-.75,.1-1.5,.19-2.7Z"/>
  <path class="cls-1" d="M912.77,.92c0,1.75,0,3.26,0,4.76,.04,20.41,.37,40.82,.05,61.22-.28,17.96,10.81,23.88,23.82,26.09,12.01,2.04,22.78-1.6,30.88-11.19,3.99-4.72,4.75-10.58,4.75-16.55,.03-20.02,.06-40.05,.1-60.07,0-1.37,0-2.73,0-4.3h7.88c.1,1.37,.27,2.6,.26,3.83-.03,19.77-.52,39.55-.02,59.3,.6,24.16-14.81,31.92-30.17,34.84-8.73,1.66-17.55,1.27-26.22-.76-17.45-4.07-25.36-13.51-25.86-32.74-.55-20.9-.13-41.83-.11-62.75,0-.49,.19-.98,.35-1.69h14.3Z"/>
  <path class="cls-1" d="M290.77,.86h14.01c0,1.79-.01,3.4,0,5.02,.15,20.66-.05,41.33,.57,61.98,.46,15.16,8.53,23.3,23.7,25.32,9.68,1.29,18.52-1.06,26.31-6.93,5.13-3.86,8.46-9.04,8.64-15.52,.42-15.67,.52-31.36,.68-47.04,.08-7.5,.01-15.01,.01-22.76h7.83c.08,1,.25,2.09,.25,3.18,0,19.9,.1,39.8-.06,59.7-.06,7.13-.46,14.27-4.79,20.53-4.76,6.87-11.46,10.83-19.23,13.05-12.06,3.45-24.21,3.35-36.19-.44-14.37-4.55-21.66-13.71-21.9-28.74-.36-21.94-.09-43.88-.08-65.82,0-.37,.12-.74,.27-1.52Z"/>
  <path class="cls-1" d="M102.03,99.07c2.87-6.68,5.69-13.32,8.56-19.94,10.8-24.88,21.62-49.76,32.43-74.64,.9-2.08,1.44-3.99,4.64-3.98,3.1,0,3.81,1.63,4.75,3.82,13.16,30.66,26.37,61.3,39.56,91.94,.39,.91,.69,1.85,1.26,3.38-4.67,0-8.95,.16-13.21-.13-.95-.06-2.16-1.55-2.62-2.65-4.21-9.97-8.37-19.96-12.34-30.03-1.04-2.65-2.41-3.71-5.32-3.66-9.82,.17-19.65,.16-29.47,0-2.77-.04-4.05,1.01-5.04,3.5-3.6,8.98-7.42,17.87-11.16,26.8-2.91,6.95-3.92,7.44-12.03,5.57ZM145.77,20.19c-.39,.03-.77,.06-1.16,.1-4.72,11.41-9.45,22.81-14.35,34.64h29.77c-4.87-11.86-9.56-23.3-14.26-34.73Z"/>
  <path class="cls-1" d="M188.41,8.8V.94h86.75v7.86c-2.41,0-4.78,0-7.15,0-8.17,0-16.34,.17-24.5-.08-3.62-.11-4.8,.89-4.78,4.66,.16,27.05,.08,54.1,.08,81.14v4.85h-14.22v-4.73c0-26.79,0-53.59,0-80.38q0-5.47-5.65-5.47c-10.07,0-20.14,0-30.53,0Z"/>
  <path class="cls-1" d="M1157.11,91.65c.48,.57,.63,.66,.64,.76q.89,7.26-6.28,7.27c-16.08,0-32.16,0-48.24,0-1.49,0-2.99-.13-4.63-.21V.95h14.25V5.46c0,27.17,.06,54.34-.08,81.51-.02,3.63,.93,4.84,4.68,4.77,11.99-.22,23.99-.08,35.98-.08h3.68Z"/>
  <path class="cls-1" d="M1286.73,80.35c2.23,6.61-1.47,10.03-6.59,12.73-15.98,8.42-32.35,9.73-48.18,.51-16.97-9.88-24.52-25.42-23.28-44.99,1.28-20.13,10.02-35.89,28.89-44.3,16.98-7.56,33.24-4.46,47.86,6.51,1.81,1.36,1.62,5.4,2.51,8.8-4.19-3.42-7.32-6.76-11.12-8.95-17.4-10.01-44-7.61-51.41,21.11-3.21,12.44-3.59,25.03,.16,37.4,4.01,13.23,12.66,22.36,26.6,24.52,13.67,2.11,25.82-1.49,34.57-13.32Z"/>
  <path class="cls-1" d="M1190.72,99.4h-13.81V1.02h13.81V99.4Z"/>
</svg>