<?xml version="1.0" encoding="UTF-8"?>
<svg id="Illustration" xmlns="http://www.w3.org/2000/svg" xmlns:xlink="http://www.w3.org/1999/xlink" viewBox="0 0 1649.88 1000">
  <defs>
    <style>
      .cls-1 {
        fill: url(#_32);
      }

      .cls-2 {
        fill: url(#linear-gradient);
      }

      .cls-3, .cls-4, .cls-5 {
        fill: #fff;
      }

      .cls-6 {
        fill: #91b3fa;
      }

      .cls-7 {
        fill: #7d97f4;
      }

      .cls-8 {
        fill: #bdd0fb;
      }

      .cls-9 {
        fill: #dce5fe;
      }

      .cls-10 {
        fill: url(#linear-gradient-8);
      }

      .cls-11 {
        fill: url(#linear-gradient-9);
      }

      .cls-12 {
        fill: url(#linear-gradient-3);
      }

      .cls-13 {
        fill: url(#linear-gradient-4);
      }

      .cls-14 {
        fill: url(#linear-gradient-2);
      }

      .cls-15 {
        fill: url(#linear-gradient-6);
      }

      .cls-16 {
        fill: url(#linear-gradient-7);
      }

      .cls-17 {
        fill: url(#linear-gradient-5);
      }

      .cls-18 {
        fill: url(#linear-gradient-59);
      }

      .cls-19 {
        fill: url(#linear-gradient-57);
      }

      .cls-20 {
        fill: url(#linear-gradient-58);
      }

      .cls-21 {
        fill: url(#linear-gradient-55);
      }

      .cls-22 {
        fill: url(#linear-gradient-56);
      }

      .cls-23 {
        fill: url(#linear-gradient-53);
      }

      .cls-24 {
        fill: url(#linear-gradient-54);
      }

      .cls-25 {
        fill: url(#linear-gradient-51);
      }

      .cls-26 {
        fill: url(#linear-gradient-52);
      }

      .cls-27 {
        fill: url(#linear-gradient-50);
      }

      .cls-28 {
        fill: url(#linear-gradient-74);
      }

      .cls-29 {
        fill: url(#linear-gradient-75);
      }

      .cls-30 {
        fill: url(#linear-gradient-76);
      }

      .cls-31 {
        fill: url(#linear-gradient-70);
      }

      .cls-32 {
        fill: url(#linear-gradient-71);
      }

      .cls-33 {
        fill: url(#linear-gradient-72);
      }

      .cls-34 {
        fill: url(#linear-gradient-73);
      }

      .cls-35 {
        fill: url(#linear-gradient-68);
      }

      .cls-36 {
        fill: url(#linear-gradient-67);
      }

      .cls-37 {
        fill: url(#linear-gradient-69);
      }

      .cls-38 {
        fill: url(#linear-gradient-64);
      }

      .cls-39 {
        fill: url(#linear-gradient-63);
      }

      .cls-40 {
        fill: url(#linear-gradient-66);
      }

      .cls-41 {
        fill: url(#linear-gradient-65);
      }

      .cls-42 {
        fill: url(#linear-gradient-60);
      }

      .cls-43 {
        fill: url(#linear-gradient-62);
      }

      .cls-44 {
        fill: url(#linear-gradient-61);
      }

      .cls-45 {
        fill: url(#linear-gradient-41);
      }

      .cls-46 {
        fill: url(#linear-gradient-40);
      }

      .cls-47 {
        fill: url(#linear-gradient-43);
      }

      .cls-48 {
        fill: url(#linear-gradient-42);
      }

      .cls-49 {
        fill: url(#linear-gradient-45);
      }

      .cls-50 {
        fill: url(#linear-gradient-46);
      }

      .cls-51 {
        fill: url(#linear-gradient-44);
      }

      .cls-52 {
        fill: url(#linear-gradient-49);
      }

      .cls-53 {
        fill: url(#linear-gradient-47);
      }

      .cls-54 {
        fill: url(#linear-gradient-48);
      }

      .cls-55 {
        fill: url(#linear-gradient-14);
      }

      .cls-56 {
        fill: url(#linear-gradient-18);
      }

      .cls-57 {
        fill: url(#linear-gradient-22);
      }

      .cls-58 {
        fill: url(#linear-gradient-20);
      }

      .cls-59 {
        fill: url(#linear-gradient-21);
      }

      .cls-60 {
        fill: url(#linear-gradient-23);
      }

      .cls-61 {
        fill: url(#linear-gradient-15);
      }

      .cls-62 {
        fill: url(#linear-gradient-19);
      }

      .cls-63 {
        fill: url(#linear-gradient-16);
      }

      .cls-64 {
        fill: url(#linear-gradient-17);
      }

      .cls-65 {
        fill: url(#linear-gradient-13);
      }

      .cls-66 {
        fill: url(#linear-gradient-12);
      }

      .cls-67 {
        fill: url(#linear-gradient-10);
      }

      .cls-68 {
        fill: url(#linear-gradient-11);
      }

      .cls-69 {
        fill: url(#linear-gradient-27);
      }

      .cls-70 {
        fill: url(#linear-gradient-24);
      }

      .cls-71 {
        fill: url(#linear-gradient-26);
      }

      .cls-72 {
        fill: url(#linear-gradient-38);
      }

      .cls-73 {
        fill: url(#linear-gradient-35);
      }

      .cls-74 {
        fill: url(#linear-gradient-37);
      }

      .cls-75 {
        fill: url(#linear-gradient-34);
      }

      .cls-76 {
        fill: url(#linear-gradient-39);
      }

      .cls-77 {
        fill: url(#linear-gradient-36);
      }

      .cls-78 {
        fill: url(#linear-gradient-25);
      }

      .cls-79 {
        fill: url(#linear-gradient-28);
      }

      .cls-80 {
        fill: url(#linear-gradient-29);
      }

      .cls-81 {
        fill: url(#linear-gradient-33);
      }

      .cls-82 {
        fill: url(#linear-gradient-30);
      }

      .cls-83 {
        fill: url(#linear-gradient-32);
      }

      .cls-84 {
        fill: url(#linear-gradient-31);
      }

      .cls-4 {
        opacity: .6;
      }

      .cls-5 {
        opacity: .87;
      }
    </style>
    <linearGradient id="linear-gradient" x1="-1702.82" y1="493.26" x2="-58.26" y2="493.26" gradientTransform="translate(-58.26) rotate(-180) scale(1 -1)" gradientUnits="userSpaceOnUse">
      <stop offset="0" stop-color="#dae3fe"/>
      <stop offset="1" stop-color="#e9effd"/>
    </linearGradient>
    <linearGradient id="linear-gradient-2" x1="1170.86" y1="69.68" x2="282.53" y2="1236.49" gradientUnits="userSpaceOnUse">
      <stop offset="0" stop-color="#09005d"/>
      <stop offset="1" stop-color="#1a0f91"/>
    </linearGradient>
    <linearGradient id="linear-gradient-3" x1="702.74" y1="520.72" x2="948.18" y2="520.72" gradientTransform="matrix(1, 0, 0, 1, 0, 0)" xlink:href="#linear-gradient"/>
    <linearGradient id="linear-gradient-4" x1="1553.66" y1="13.95" x2="1057.86" y2="417.44" gradientTransform="translate(-10.82 58.93) rotate(1.17)" gradientUnits="userSpaceOnUse">
      <stop offset="0" stop-color="#fe7062"/>
      <stop offset="1" stop-color="#ff928e"/>
    </linearGradient>
    <linearGradient id="linear-gradient-5" x1="1222.05" y1="-205.05" x2="1312.92" y2="292.53" gradientUnits="userSpaceOnUse">
      <stop offset="0" stop-color="#ff928e"/>
      <stop offset="1" stop-color="#feb3b1"/>
    </linearGradient>
    <linearGradient id="linear-gradient-6" x1="1617.29" y1="92.11" x2="1121.47" y2="495.61" xlink:href="#linear-gradient-4"/>
    <linearGradient id="linear-gradient-7" x1="1625.75" y1="102.51" x2="1129.93" y2="506.01" xlink:href="#linear-gradient-4"/>
    <linearGradient id="linear-gradient-8" x1="1644.73" y1="125.83" x2="1148.91" y2="529.33" xlink:href="#linear-gradient-4"/>
    <linearGradient id="linear-gradient-9" x1="999.73" y1="230.88" x2="1458.72" y2="230.88" gradientUnits="userSpaceOnUse">
      <stop offset="0" stop-color="#4042e2"/>
      <stop offset="1" stop-color="#4f52ff"/>
    </linearGradient>
    <linearGradient id="linear-gradient-10" x1="1023.85" y1="236.91" x2="1438.26" y2="236.91" gradientTransform="matrix(1, 0, 0, 1, 0, 0)" xlink:href="#linear-gradient"/>
    <linearGradient id="linear-gradient-11" x1="-39.52" y1="363.45" x2="-344.31" y2="850.12" gradientTransform="translate(167.19 -157.27) rotate(-27.6)" xlink:href="#linear-gradient-9"/>
    <linearGradient id="linear-gradient-12" x1="132.84" y1="234.15" x2="306.19" y2="234.15" gradientTransform="matrix(1, 0, 0, 1, 0, 0)" xlink:href="#linear-gradient"/>
    <linearGradient id="linear-gradient-13" x1="138.8" y1="245.29" x2="312.14" y2="245.29" gradientTransform="matrix(1, 0, 0, 1, 0, 0)" xlink:href="#linear-gradient"/>
    <linearGradient id="linear-gradient-14" x1="183.2" y1="365.76" x2="219.95" y2="365.76" gradientTransform="matrix(1, 0, 0, 1, 0, 0)" xlink:href="#linear-gradient"/>
    <linearGradient id="linear-gradient-15" x1="230.17" y1="316.84" x2="351.24" y2="316.84" gradientTransform="matrix(1, 0, 0, 1, 0, 0)" xlink:href="#linear-gradient"/>
    <linearGradient id="linear-gradient-16" x1="-725.57" y1="3465.55" x2="-855.16" y2="3686.73" gradientTransform="translate(-902.96 -3128.67) rotate(-29.96)" xlink:href="#linear-gradient-4"/>
    <linearGradient id="linear-gradient-17" x1="156.79" y1="315.24" x2="193.55" y2="315.24" gradientTransform="matrix(1, 0, 0, 1, 0, 0)" xlink:href="#linear-gradient"/>
    <linearGradient id="linear-gradient-18" x1="203.77" y1="266.32" x2="324.83" y2="266.32" gradientTransform="matrix(1, 0, 0, 1, 0, 0)" xlink:href="#linear-gradient"/>
    <linearGradient id="linear-gradient-19" x1="-723.21" y1="3408.6" x2="-852.8" y2="3629.78" gradientTransform="translate(-902.96 -3128.67) rotate(-29.96)" xlink:href="#linear-gradient-4"/>
    <linearGradient id="linear-gradient-20" x1="210.37" y1="412.88" x2="247.13" y2="412.88" gradientTransform="matrix(1, 0, 0, 1, 0, 0)" xlink:href="#linear-gradient"/>
    <linearGradient id="linear-gradient-21" x1="257.34" y1="363.96" x2="378.41" y2="363.96" gradientTransform="matrix(1, 0, 0, 1, 0, 0)" xlink:href="#linear-gradient"/>
    <linearGradient id="linear-gradient-22" x1="-701.84" y1="3479.45" x2="-831.43" y2="3700.63" gradientTransform="translate(-902.96 -3128.67) rotate(-29.96)" xlink:href="#linear-gradient-4"/>
    <linearGradient id="linear-gradient-23" x1="228.95" y1="458.83" x2="277.01" y2="458.83" gradientTransform="matrix(1, 0, 0, 1, 0, 0)" xlink:href="#linear-gradient"/>
    <linearGradient id="linear-gradient-24" x1="281.38" y1="410.4" x2="402.44" y2="410.4" gradientTransform="matrix(1, 0, 0, 1, 0, 0)" xlink:href="#linear-gradient"/>
    <linearGradient id="linear-gradient-25" x1="-684.27" y1="3531.81" x2="-854.78" y2="3769.55" gradientTransform="translate(-902.96 -3128.67) rotate(-29.96)" xlink:href="#linear-gradient-4"/>
    <linearGradient id="linear-gradient-26" x1="258.81" y1="507.42" x2="295.57" y2="507.42" gradientTransform="matrix(1, 0, 0, 1, 0, 0)" xlink:href="#linear-gradient"/>
    <linearGradient id="linear-gradient-27" x1="305.78" y1="458.5" x2="426.85" y2="458.5" gradientTransform="matrix(1, 0, 0, 1, 0, 0)" xlink:href="#linear-gradient"/>
    <linearGradient id="linear-gradient-28" x1="-659.65" y1="3504.56" x2="-789.24" y2="3725.74" gradientTransform="translate(-902.96 -3128.67) rotate(-29.96)" xlink:href="#linear-gradient-4"/>
    <linearGradient id="linear-gradient-29" x1="-105.58" y1="252.48" x2="-209.39" y2="389.03" gradientTransform="translate(167.19 -157.27) rotate(-27.6)" xlink:href="#linear-gradient-2"/>
    <linearGradient id="linear-gradient-30" x1="164.55" y1="172.44" x2="177.51" y2="172.44" gradientTransform="matrix(1, 0, 0, 1, 0, 0)" xlink:href="#linear-gradient"/>
    <linearGradient id="linear-gradient-31" x1="-554.85" y1="3252.73" x2="-658.58" y2="3389.18" gradientTransform="translate(-839.13 -3013.08) rotate(-28.11)" xlink:href="#linear-gradient-2"/>
    <linearGradient id="linear-gradient-32" x1="167.7" y1="198.03" x2="172.26" y2="198.03" gradientTransform="matrix(1, 0, 0, 1, 0, 0)" xlink:href="#linear-gradient"/>
    <linearGradient id="linear-gradient-33" x1="149.53" y1="209.74" x2="166.62" y2="209.74" gradientTransform="matrix(1, 0, 0, 1, 0, 0)" xlink:href="#linear-gradient"/>
    <linearGradient id="linear-gradient-34" x1="-567.93" y1="3261.08" x2="-639.55" y2="3392.59" gradientTransform="translate(-839.13 -3013.08) rotate(-28.11)" xlink:href="#linear-gradient-2"/>
    <linearGradient id="linear-gradient-35" x1="909.46" y1="727.04" x2="665.86" y2="694.19" xlink:href="#linear-gradient-5"/>
    <linearGradient id="linear-gradient-36" x1="987.27" y1="559.82" x2="999.02" y2="860.08" gradientTransform="matrix(1, 0, 0, 1, 0, 0)" xlink:href="#linear-gradient-4"/>
    <linearGradient id="linear-gradient-37" x1="12.8" y1="764.03" x2="638.78" y2="764.03" gradientUnits="userSpaceOnUse">
      <stop offset="0" stop-color="#020039"/>
      <stop offset="1" stop-color="#090056"/>
    </linearGradient>
    <linearGradient id="linear-gradient-38" x1="86.82" y1="588.38" x2="591.8" y2="945.56" xlink:href="#linear-gradient-9"/>
    <linearGradient id="linear-gradient-39" x1="972.09" x2="1598.08" xlink:href="#linear-gradient-37"/>
    <linearGradient id="linear-gradient-40" x1="990.94" y1="764.41" x2="1560.76" y2="764.41" xlink:href="#linear-gradient-9"/>
    <linearGradient id="linear-gradient-41" x1="576.35" y1="537.81" x2="471.63" y2="644.67" gradientTransform="matrix(1, 0, 0, 1, 0, 0)" xlink:href="#linear-gradient-4"/>
    <linearGradient id="linear-gradient-42" x1="646.9" y1="207.41" x2="646.9" y2="504.39" xlink:href="#linear-gradient-5"/>
    <linearGradient id="linear-gradient-43" x1="810.14" y1="435.84" x2="784.14" y2="639.76" xlink:href="#linear-gradient-5"/>
    <linearGradient id="linear-gradient-44" x1="814.78" y1="207.41" x2="814.78" y2="504.39" xlink:href="#linear-gradient-5"/>
    <linearGradient id="linear-gradient-45" x1="597.09" y1="461.4" x2="39.34" y2="1197.05" gradientTransform="matrix(1, 0, 0, 1, 0, 0)" xlink:href="#linear-gradient-4"/>
    <linearGradient id="_32" data-name="  32" x1="503.17" y1="438.19" x2="401.9" y2="602.41" gradientUnits="userSpaceOnUse">
      <stop offset="0" stop-color="#ff928e"/>
      <stop offset=".53" stop-color="#fea5a3"/>
      <stop offset="1" stop-color="#feb3b1"/>
    </linearGradient>
    <linearGradient id="linear-gradient-46" x1="798.18" y1="352.09" x2="665.43" y2="647.7" xlink:href="#linear-gradient-5"/>
    <linearGradient id="linear-gradient-47" x1="375.21" y1="665.72" x2="450.34" y2="665.72" gradientUnits="userSpaceOnUse">
      <stop offset="0" stop-color="#e1473d"/>
      <stop offset="1" stop-color="#e9605a"/>
    </linearGradient>
    <linearGradient id="linear-gradient-48" x1="393.23" y1="583.03" x2="521.82" y2="583.03" xlink:href="#linear-gradient-47"/>
    <linearGradient id="linear-gradient-49" x1="596.26" y1="329.12" x2="448.46" y2="487.88" xlink:href="#linear-gradient-5"/>
    <linearGradient id="linear-gradient-50" x1="443.34" y1="338.22" x2="557.14" y2="484.74" xlink:href="#linear-gradient-37"/>
    <linearGradient id="linear-gradient-51" x1="574.57" y1="308.93" x2="426.77" y2="467.68" xlink:href="#linear-gradient-5"/>
    <linearGradient id="linear-gradient-52" x1="704.61" y1="683.79" x2="770.3" y2="843.92" xlink:href="#linear-gradient-5"/>
    <linearGradient id="linear-gradient-53" x1="1080.47" y1="667.12" x2="1526.05" y2="904.34" gradientTransform="matrix(1, 0, 0, 1, 0, 0)" xlink:href="#linear-gradient-4"/>
    <linearGradient id="linear-gradient-54" x1="1154.85" y1="326.47" x2="1154.85" y2="616.61" xlink:href="#linear-gradient-5"/>
    <linearGradient id="linear-gradient-55" x1="1173.86" y1="794.78" x2="1495.57" y2="794.78" gradientTransform="matrix(1, 0, 0, 1, 0, 0)" xlink:href="#linear-gradient"/>
    <linearGradient id="linear-gradient-56" x1="1339.78" y1="762.83" x2="1408.17" y2="1069.49" xlink:href="#linear-gradient-2"/>
    <linearGradient id="linear-gradient-57" x1="1136.77" y1="561.37" x2="1582.35" y2="798.58" gradientTransform="matrix(1, 0, 0, 1, 0, 0)" xlink:href="#linear-gradient-4"/>
    <linearGradient id="linear-gradient-58" x1="1214.76" y1="658.74" x2="1351.66" y2="731.62" xlink:href="#linear-gradient-47"/>
    <linearGradient id="linear-gradient-59" x1="1359.64" y1="796.96" x2="1255.46" y2="997.31" xlink:href="#linear-gradient-5"/>
    <linearGradient id="linear-gradient-60" x1="1233.38" y1="424.69" x2="1092.42" y2="415.11" xlink:href="#linear-gradient-5"/>
    <linearGradient id="linear-gradient-61" x1="1063.75" y1="411.08" x2="1215.56" y2="411.08" xlink:href="#linear-gradient-2"/>
    <linearGradient id="linear-gradient-62" x1="2795.72" y1="3640.04" x2="2888.14" y2="3545.22" gradientTransform="translate(5734.06 124.99) rotate(-133.27) scale(1 -1)" xlink:href="#linear-gradient-5"/>
    <linearGradient id="linear-gradient-63" x1="483.77" y1="887.74" x2="488.04" y2="1098.22" xlink:href="#linear-gradient-37"/>
    <linearGradient id="linear-gradient-64" x1="1123.18" y1="874.76" x2="1127.45" y2="1085.26" xlink:href="#linear-gradient-37"/>
    <linearGradient id="linear-gradient-65" x1="38.97" y1="856.13" x2="98.3" y2="787.26" gradientTransform="translate(745.43 327.32) rotate(61.85)" xlink:href="#linear-gradient-47"/>
    <linearGradient id="linear-gradient-66" x1="131.83" y1="737.02" x2="-43.63" y2="1002.09" gradientTransform="translate(77.92 -5.98) rotate(5.65)" xlink:href="#linear-gradient-4"/>
    <linearGradient id="linear-gradient-67" x1="126.6" y1="744.62" x2="33.17" y2="901.47" gradientTransform="matrix(1, 0, 0, 1, 0, 0)" xlink:href="#linear-gradient-4"/>
    <linearGradient id="linear-gradient-68" x1="120.05" y1="855.72" x2="223.34" y2="735.83" gradientTransform="translate(584.62 55.41) rotate(45)" xlink:href="#linear-gradient-47"/>
    <linearGradient id="linear-gradient-69" x1="281.71" y1="648.38" x2="-23.74" y2="1109.82" gradientTransform="translate(887.42 345.51) rotate(76.72)" xlink:href="#linear-gradient-4"/>
    <linearGradient id="linear-gradient-70" x1="272.6" y1="661.6" x2="109.95" y2="934.65" gradientTransform="matrix(1, 0, 0, 1, 0, 0)" xlink:href="#linear-gradient-4"/>
    <linearGradient id="linear-gradient-71" x1="170.1" y1="1031.27" x2="276.39" y2="907.9" gradientTransform="translate(1106.4 444.99) rotate(78.02)" xlink:href="#linear-gradient-47"/>
    <linearGradient id="linear-gradient-72" x1="336.45" y1="817.92" x2="22.15" y2="1292.73" gradientTransform="translate(721.8 68.23) rotate(45)" xlink:href="#linear-gradient-4"/>
    <linearGradient id="linear-gradient-73" x1="327.07" y1="831.52" x2="159.72" y2="1112.49" gradientTransform="matrix(1, 0, 0, 1, 0, 0)" xlink:href="#linear-gradient-4"/>
    <linearGradient id="linear-gradient-74" x1="300.74" y1="889.69" x2="378.62" y2="799.29" gradientTransform="translate(1143.58 352.79) rotate(85.27)" xlink:href="#linear-gradient-47"/>
    <linearGradient id="linear-gradient-75" x1="205.26" y1="823.66" x2="436.53" y2="789.03" gradientTransform="translate(675.25 -35.26) rotate(45)" xlink:href="#linear-gradient-4"/>
    <linearGradient id="linear-gradient-76" x1="415.76" y1="743.33" x2="293.13" y2="949.19" gradientTransform="matrix(1, 0, 0, 1, 0, 0)" xlink:href="#linear-gradient-4"/>
  </defs>
  <path class="cls-2" d="M1213.18,15.93c25.75,7.66,64.26,42.49,98.03,98.04,41.54,68.33,66.22,74.32,124.99,40.65,58.77-33.67,127.8-11.05,177.77,78.59,49.96,89.64-37.56,159.34-118.68,268.55-81.12,109.21,80.85,80.96,133.32,208.51,52.47,127.55-21.53,270.64-265.01,268.94-243.81-1.71-612.37,1.56-612.37,1.56,0,0-341.8,30.15-466.26-47.76-124.47-77.91,28.63-115.8-87.13-165.61-115.76-49.81-236.59-53.18-185.97-181.94,50.62-128.76,122.25-102.1,168.49-136.53,46.23-34.43,74.04-71.8,7.94-133.08-66.1-61.27-116.71-102.56-83.29-183.74C152.93,15.66,269.28,.63,397.11,50c127.83,49.37,149.53,112.58,360.5,75.99,117.67-20.41,236.27-175.29,455.57-110.05Z"/>
  <g>
    <path class="cls-8" d="M1152.7,957.92c.95,1.57,3.36,.61,2.95-1.18-5.9-25.79-19.18-108.84,42.32-148.73,71.7-46.51,195.23-66.69,119.54-347.68-2.77-10.29-14.64-15.02-23.74-9.48-42.12,25.6-143.18,96.55-148.48,190.6-6.71,118.98,13.85,144.18,3.31,187.98-18.65,77.45-4.28,114.69,4.1,128.51Z"/>
    <g>
      <path class="cls-8" d="M1120.2,964.07c-.29,1.11-1.95,.77-1.79-.36,6.7-46.26,25.94-192.18,20.46-308.71-6.61-140.42-31.6-202.13-42.58-273.65-10.99-71.52,34.34-162.13,155.7-132.85,99.08,23.91,176.94,40.22,213.43,34.94,7-1.01,12.21,6.32,9.03,12.63-20.96,41.68-77.89,135.84-167.48,143.33-115.34,9.65-116.96-21.93-141.25,8.69-24.29,30.62-23.04,60.68-21.16,117.04,1.81,54.3,9.43,268.5-24.37,398.94Z"/>
      <path class="cls-9" d="M1134.56,519.06c-3.45-8.68-6.16-17.32-8.51-26.19-2.31-8.85-4.24-17.82-5.54-26.9-2.59-18.14-3.11-36.79,.18-55.11,1.68-9.13,4.35-18.14,8.21-26.68,3.87-8.52,8.87-16.59,15.1-23.64,6.2-7.05,13.55-13.07,21.29-18.14,3.88-2.42,7.71-4.92,11.72-7.13,3.93-2.34,8.02-4.42,12.09-6.52,8.23-4.04,16.69-7.65,25.42-10.56,8.75-2.84,17.72-5.02,26.81-6.41,9.09-1.39,18.28-2.03,27.42-2,9.15,.02,18.25,.64,27.28,1.5,18.06,1.75,35.88,4.28,53.79,5.19,17.9,1.02,35.87,.07,53.54-3.01h.01c.78-.14,1.53,.39,1.67,1.17,.13,.77-.37,1.51-1.13,1.66-17.81,3.58-36.08,5.01-54.25,4.43-18.18-.48-36.18-2.78-54.07-4.16-17.88-1.41-35.79-1.64-53.28,1.3-8.73,1.45-17.33,3.64-25.71,6.48-8.37,2.91-16.49,6.49-24.41,10.5-3.92,2.09-7.86,4.14-11.65,6.47-3.87,2.19-7.57,4.67-11.32,7.08-7.3,4.88-13.99,10.41-19.69,16.96-11.4,13.11-18.31,29.66-21.33,46.87-3.12,17.25-2.72,35.16-.25,52.71,1.26,8.78,2.95,17.52,5.13,26.15,2.16,8.6,4.78,17.23,7.91,25.36l.05,.12c.68,1.78-.2,3.78-1.99,4.46-1.77,.68-3.75-.19-4.45-1.95Z"/>
    </g>
    <g>
      <path class="cls-8" d="M1141.32,954.84c-.67,.98-2.19,.19-1.78-.92,6.09-16.35,19.31-59.04,16.17-114.94-4.05-72.1-57.02-246.11,79.92-277.6,120.64-27.74,191.94-33.82,225.39-57.25,4.88-3.42,11.55,.17,11.34,6.12-1.53,43.13-12.79,156.99-88.18,185.25-93.54,35.06-184.36-3.36-214.17,30.32-28.93,32.68,19.84,157.91-28.69,229.02Z"/>
      <path class="cls-9" d="M1149.22,752.05c-.59-7.88-.68-15.55-.48-23.33,.22-7.75,.68-15.49,1.48-23.22,1.66-15.44,4.49-30.84,9.18-45.82,2.29-7.5,5.19-14.85,8.44-22.05,3.35-7.17,7.37-14.06,11.87-20.66,4.64-6.51,9.91-12.63,15.84-18.12l4.66-3.88c.79-.63,1.53-1.32,2.37-1.89l2.5-1.73c1.69-1.12,3.28-2.38,5.05-3.36l5.29-2.99,1.33-.74,1.38-.62,2.77-1.25c1.86-.79,3.66-1.75,5.59-2.33l5.73-1.96c1.91-.7,3.84-1.06,5.76-1.6,7.71-1.92,15.6-3.17,23.5-3.73,15.86-1.23,31.52,.86,46.61,2.74,15.09,2,30,3.47,44.68,1.19,14.68-2.18,28.69-8.19,41.66-16.05h0c.61-.38,1.41-.18,1.78,.43,.35,.57,.19,1.31-.33,1.71-6.16,4.65-12.74,8.85-19.76,12.29-7.03,3.41-14.49,6.12-22.21,7.78-7.73,1.64-15.64,2.37-23.49,2.41-7.85,.01-15.6-.58-23.25-1.21-7.65-.67-15.18-1.41-22.67-1.74-7.48-.33-14.91-.29-22.25,.37-7.34,.66-14.59,1.94-21.69,3.85-1.75,.53-3.58,.92-5.26,1.56l-5.11,1.78c-1.74,.51-3.32,1.4-4.97,2.11l-2.46,1.12-1.23,.56-1.17,.67-4.68,2.68c-1.57,.87-2.97,2.03-4.47,3.02l-2.21,1.54c-.74,.51-1.39,1.14-2.09,1.71l-4.14,3.48c-5.24,4.97-10.08,10.4-14.34,16.34-8.37,11.99-14.65,25.53-19.33,39.67-2.27,7.09-4.3,14.3-5.92,21.62-1.63,7.32-2.9,14.73-4.01,22.18-2.14,14.88-3.13,30.11-3.06,45.04v.14c0,1.91-1.53,3.46-3.44,3.47-1.82,0-3.32-1.41-3.46-3.2Z"/>
    </g>
    <g>
      <path class="cls-8" d="M559.62,691.35s4.54-119.11-49.88-151.79c-54.42-32.68-158.49-54.11-159.95-225.26-.85-100.2-2.7-144.03-4.09-163.15-.54-7.46,6.16-13.38,13.49-11.89,51.84,10.54,220.11,53.26,253.86,169.02,40.01,137.23-53.43,383.07-53.43,383.07Z"/>
      <path class="cls-9" d="M398.61,187.54c3.99,3.68,7.81,7.4,11.58,11.22,1.89,1.9,3.74,3.84,5.57,5.79,1.83,1.95,3.71,3.87,5.5,5.86,3.61,3.96,7.25,7.89,10.75,11.95l5.3,6.04,5.17,6.16,5.14,6.19,5,6.3c3.34,4.19,6.68,8.39,9.87,12.7,6.53,8.51,12.67,17.31,18.88,26.06,5.96,8.92,12.04,17.78,17.6,26.96l4.26,6.84,2.13,3.42,2.03,3.48,8.08,13.94,2,3.5,1.89,3.56,3.79,7.11,3.79,7.11,1.89,3.56,1.78,3.62c4.66,9.7,9.61,19.19,13.81,29.22,1.13,2.46,2.08,5,3.09,7.51,.99,2.52,2.02,5.02,2.98,7.55l2.75,7.64,1.37,3.82,1.25,3.86,2.5,7.72,2.27,7.79c1.58,5.17,2.76,10.45,4.13,15.68,4.97,21.03,8.56,42.38,10.46,63.86,2.05,21.47,2.5,43.05,1.72,64.55-.44,10.75-1.22,21.49-2.34,32.19-1.11,10.73-2.56,21.31-4.74,32.04-.39,1.94-2.28,3.19-4.22,2.8-1.87-.38-3.1-2.15-2.83-4.01l.02-.15c2.97-20.71,4.37-42,4.53-63.1,.2-21.13-.74-42.27-3-63.23-2.24-20.97-5.82-41.77-10.8-62.21-5.17-20.38-11.44-40.5-19.75-59.79-16.81-38.66-37.48-75.89-60.41-111.49l-8.82-13.23c-2.89-4.45-6.07-8.69-9.07-13.06-3-4.38-6.13-8.65-9.28-12.92l-4.71-6.42-4.85-6.31c-12.82-16.89-26.43-33.31-40.87-48.75l-.05-.05c-.77-.82-.72-2.11,.1-2.87,.78-.73,1.99-.72,2.76,0Z"/>
    </g>
    <g>
      <path class="cls-8" d="M575.75,950.11c8.47,4.11-80.41-106.78-108.79-281.36-13.37-82.27-13.94-185.4-60.98-224.97-39.15-32.93-171.88-11.54-215.3-3.43-5.43,1.01-7.23,7.88-2.99,11.41,20.91,17.42,65.64,58.53,77.41,100.09,15.52,54.78,67.79,89.45,114.49,98.71,46.71,9.26,72.71,18.32,95.73,92.87,23.02,74.55,76.36,195,100.42,206.68Z"/>
      <path class="cls-9" d="M251.88,463.36c28.04,1.12,55.76,7.98,81.29,20.02,12.78,5.97,24.83,13.63,35.74,22.72,10.83,9.16,20.53,19.81,28.22,31.8l2.86,4.51c.94,1.51,1.75,3.1,2.62,4.65,.84,1.56,1.74,3.13,2.52,4.69l2.34,4.67c3.13,6.22,6.23,12.46,9.27,18.72,6.09,12.53,11.98,25.16,17.66,37.87,11.38,25.43,21.94,51.23,30.88,77.68,.25,.73-.15,1.52-.88,1.77-.7,.24-1.46-.11-1.74-.79l-.02-.04c-5.26-12.81-10.74-25.58-16.47-38.22-5.66-12.67-11.47-25.27-17.41-37.81-5.93-12.55-11.95-25.05-18.13-37.47-3.05-6.23-6.16-12.43-9.3-18.62l-2.35-4.64c-.78-1.55-1.63-2.99-2.44-4.49-.83-1.48-1.58-3-2.47-4.45l-2.7-4.31c-7.23-11.5-16.48-21.61-26.68-30.59-5.2-4.38-10.56-8.61-16.31-12.29l-2.13-1.42-2.18-1.34c-1.46-.89-2.9-1.81-4.37-2.67-2.98-1.67-5.94-3.39-9.02-4.9-12.18-6.29-25.13-11.09-38.35-14.93-13.21-3.83-26.87-6.56-40.55-7.87h-.07c-.62-.07-1.07-.61-1.01-1.23,.06-.59,.57-1.04,1.16-1.01Z"/>
    </g>
    <g>
      <path class="cls-8" d="M533.74,994.75c5.01,2.64-28.25-54.61-30.8-105.04-2.55-50.44-13.93-136.52-57.43-188.02-43.5-51.5-91.13-56.19-151.15-9.38-50.02,39.01-81.21,58.7-99.51,62.36-4.53,.91-6.84,6.02-4.64,10.08,11.74,21.61,44.91,71.25,100.62,67.76,71.06-4.46,157.18-50.65,183.42-12.12,26.25,38.53,22.88,60.1,23.68,78.36,.81,18.26,2.6,78.51,35.79,96Z"/>
      <path class="cls-9" d="M314.58,754.2c3.91-3.78,8.06-7.18,12.35-10.46,4.29-3.27,8.7-6.39,13.31-9.23,9.18-5.72,19-10.6,29.48-13.97,5.24-1.66,10.64-2.95,16.17-3.66,5.53-.67,11.19-.77,16.81-.07,1.4,.23,2.81,.36,4.2,.67,1.37,.32,2.8,.59,4.13,.97l7.86,2.44,7.7,2.99,7.46,3.59c9.78,5.16,18.63,12.14,25.98,20.35,7.42,8.19,13.19,17.62,17.94,27.38,1.2,2.44,2.41,4.87,3.37,7.41,1.01,2.51,2.09,5,3.03,7.53l2.62,7.66c.93,2.54,1.51,5.17,2.26,7.76,2.94,10.36,4.97,20.91,6.68,31.48,.11,.68-.35,1.32-1.03,1.43-.64,.1-1.25-.3-1.41-.93v-.04c-2.57-10.32-5-20.66-8.48-30.65-1.58-5.05-3.57-9.93-5.42-14.86-1-2.43-2.13-4.8-3.19-7.2-1.01-2.43-2.26-4.73-3.49-7.03-4.85-9.26-10.74-17.91-17.74-25.49-7.01-7.57-15.32-13.81-24.41-18.59l-6.98-3.3-7.23-2.76-7.43-2.26c-1.23-.35-2.43-.58-3.65-.88-1.21-.29-2.46-.4-3.69-.62-4.96-.65-10.04-.62-15.1-.04-5.06,.53-10.11,1.59-15.07,3.03-9.94,2.87-19.54,7.16-28.78,12.16-4.6,2.54-9.17,5.18-13.6,8.05-4.42,2.87-8.79,5.91-12.96,9.08l-.03,.02c-.57,.43-1.38,.32-1.82-.25-.4-.53-.34-1.27,.13-1.72Z"/>
    </g>
  </g>
  <g>
    <g>
      <path class="cls-14" d="M549.56,53.14l555.86,6.12c30.73,.34,54.83,26.85,54.81,60.16l-.49,823.97c-.01,23.05-18.68,42.17-41.19,42.27l-595.93,2.63c-21.03,.09-38.28-17.49-38.28-39.08V123.42c0-39.12,29.2-70.68,65.23-70.28Z"/>
      <path class="cls-6" d="M1059.08,132.13h-467.23c-19.59,0-35.33,16.15-35.33,35.23V847.4c0,19.09,15.74,33.88,35.33,33.88h467.23c19.59,0,35.62-14.8,35.62-33.88V167.37c0-19.09-16.03-35.23-35.62-35.23Z"/>
    </g>
    <path class="cls-12" d="M796.91,711.6v-29.93c-31.2-1.25-62.06-8.61-83.98-18.21-7.83-3.43-11.82-12.21-9.57-20.45l7.6-27.88c2.79-10.23,13.91-15.52,23.69-11.42,21.74,9.11,48.59,16.33,77.54,16.33s52.46-10.19,52.46-31.07c0-18.84-17.32-30.05-59.08-41.25-59.59-16.3-102.38-42.28-102.38-94.74,0-47.37,34.64-83.53,94.74-93.21v-29.93c0-9.63,7.81-17.44,17.44-17.44h17.58c9.63,0,17.44,7.81,17.44,17.44v26.87c28.87,1.16,49.89,6.09,66.56,11.95,8.54,3,13.21,12.21,10.84,20.95l-6.99,25.78c-2.7,9.94-13.32,15.39-22.96,11.74-15.35-5.81-37.06-11.85-65.28-11.85-35.65,0-45.84,14.77-45.84,28.01,0,16.3,21.39,27.5,67.74,41.77,66.21,19.86,93.72,47.37,93.72,96.77,0,45.33-33.62,86.08-98.81,96.27v33.49c0,9.63-7.81,17.44-17.44,17.44h-17.59c-9.63,0-17.44-7.81-17.44-17.44Z"/>
  </g>
  <g>
    <g>
      <path class="cls-7" d="M1504.95,503.78l-287.32-25.5c-11.65-1.03-20.6-10.76-20.66-22.45l-1.06-193.72c-.07-13.19,11.08-23.65,24.24-22.73l305.94,21.29c12.66,.88,22.12,11.98,21,24.61l-17.57,197.93c-1.11,12.47-12.11,21.68-24.58,20.57Z"/>
      <path class="cls-5" d="M1212.76,280.86l-1.9,167.26c-.08,7.27,5.4,13.39,12.63,14.11l275.51,27.36c7.76,.77,14.66-4.94,15.35-12.71l15.87-178.85c.7-7.9-5.28-14.8-13.2-15.24l-289.48-15.78c-7.97-.43-14.69,5.86-14.78,13.84Z"/>
      <path class="cls-7" d="M1343.37,427l155.92,9.15c1.6,.09,2.8,1.49,2.66,3.08l-.22,2.5c-.14,1.55-1.49,2.7-3.04,2.58l-155.7-11.65c-1.58-.12-2.76-1.5-2.62-3.08h0c.14-1.53,1.46-2.67,2.99-2.58Z"/>
      <path class="cls-7" d="M1339.22,442.62l-.09,1.07c-.14,1.56,1.02,2.94,2.58,3.08l155.51,13.8c1.56,.14,2.94-1.02,3.08-2.58l.09-1.07c.14-1.56-1.01-2.94-2.58-3.08l-155.51-13.8c-1.56-.14-2.94,1.02-3.08,2.58Z"/>
      <path class="cls-7" d="M1385.18,460.75l-.04,.47c-.14,1.56,1.01,2.94,2.58,3.08l108.31,9.61c1.56,.14,2.94-1.01,3.08-2.58l.2-2.2c.14-1.58-1.04-2.97-2.62-3.08l-108.46-7.88c-1.55-.11-2.9,1.04-3.03,2.58Z"/>
    </g>
    <g>
      <path class="cls-13" d="M1480.87,434.58l-339.08-6.9c-13.75-.28-25.02-10.97-26.03-24.68l-16.76-227.16c-1.14-15.46,11.11-28.63,26.61-28.61l360.59,.47c14.92,.02,26.91,12.28,26.61,27.19l-4.75,233.59c-.3,14.71-12.47,26.4-27.19,26.1Z"/>
      <path class="cls-17" d="M1120.26,196.48l11.17,196.36c.48,8.53,7.41,15.27,15.95,15.54l325.37,10.03c9.17,.28,16.8-6.97,16.99-16.14l4.3-211.07c.19-9.32-7.38-16.94-16.7-16.82l-340.83,4.68c-9.38,.13-16.76,8.05-16.23,17.42Z"/>
      <path class="cls-15" d="M1285.17,357.45l183.63-1.75c1.88-.02,3.41,1.52,3.37,3.41l-.06,2.96c-.04,1.82-1.53,3.28-3.36,3.27l-183.57-1.2c-1.86-.01-3.35-1.54-3.32-3.41h0c.04-1.8,1.5-3.25,3.31-3.27Z"/>
      <path class="cls-16" d="M1281.55,376.1l-.03,1.26c-.04,1.84,1.43,3.37,3.27,3.4l183.52,3.74c1.84,.04,3.37-1.43,3.4-3.27l.03-1.26c.04-1.84-1.43-3.37-3.27-3.4l-183.52-3.74c-1.84-.04-3.37,1.43-3.4,3.27Z"/>
      <path class="cls-10" d="M1336.92,393.69v.55c-.05,1.84,1.41,3.37,3.26,3.4l127.82,2.6c1.84,.04,3.37-1.43,3.4-3.27l.05-2.6c.04-1.86-1.46-3.4-3.32-3.41l-127.86-.56c-1.82,0-3.31,1.45-3.35,3.27Z"/>
    </g>
    <g>
      <path class="cls-11" d="M1429.17,390.01h-376.17c-15.25,0-28-11.6-29.43-26.78l-23.71-251.53c-1.61-17.12,11.67-32,28.86-32.33l399.88-7.61c16.54-.31,30.12,13.01,30.12,29.55V360.45c0,16.32-13.23,29.56-29.56,29.56Z"/>
      <path class="cls-67" d="M1023.9,134.12l16.81,217.5c.73,9.45,8.56,16.77,18.03,16.87l361.04,3.78c10.17,.11,18.47-8.11,18.47-18.28V119.83c0-10.34-8.57-18.62-18.9-18.27l-377.86,12.88c-10.4,.35-18.41,9.3-17.6,19.68Z"/>
      <path class="cls-7" d="M1216.65,132.13l203.6-6.09c2.09-.06,3.81,1.61,3.81,3.7v3.28c0,2.02-1.63,3.67-3.65,3.7l-203.6,2.81c-2.06,.03-3.75-1.64-3.75-3.7h0c0-2,1.59-3.64,3.59-3.7Z"/>
      <rect class="cls-7" x="1213.06" y="149.2" width="211" height="8.8" rx="3.7" ry="3.7"/>
      <path class="cls-7" d="M1163.33,335.98c-.92,0-1.66-.74-1.66-1.66v-4.98c-.02-.92,.73-1.66,1.64-1.67h0c.92,0,1.66,.74,1.66,1.66v4.98c.02,.92-.73,1.66-1.64,1.67h0Zm-.04-16.61c-.92,0-1.66-.74-1.66-1.66v-4.98c-.02-.92,.73-1.66,1.64-1.67h0c.92,0,1.66,.74,1.66,1.66v4.98c.02,.92-.73,1.66-1.64,1.67h0Zm-.04-16.61c-.92,0-1.66-.74-1.66-1.66v-4.98c-.02-.92,.73-1.66,1.64-1.67h0c.92,0,1.66,.74,1.66,1.66v4.98c.02,.92-.73,1.66-1.64,1.67h0Zm-.04-16.61c-.92,0-1.66-.74-1.66-1.66v-4.98c-.02-.92,.73-1.66,1.64-1.67h0c.92,0,1.66,.74,1.66,1.66v4.98c.02,.92-.73,1.66-1.64,1.67h0Z"/>
      <path class="cls-7" d="M1246.76,331.25c-.92,0-1.66-.74-1.66-1.66v-4.98c0-.92,.74-1.66,1.66-1.66s1.66,.74,1.66,1.66v4.98c0,.92-.74,1.66-1.66,1.66Zm0-16.61c-.92,0-1.66-.74-1.66-1.66v-4.98c0-.92,.74-1.66,1.66-1.66s1.66,.74,1.66,1.66v4.98c0,.92-.74,1.66-1.66,1.66Zm0-16.61c-.92,0-1.66-.74-1.66-1.66v-4.98c0-.92,.74-1.66,1.66-1.66s1.66,.74,1.66,1.66v4.98c0,.92-.74,1.66-1.66,1.66Zm0-16.61c-.92,0-1.66-.74-1.66-1.66v-4.98c0-.92,.74-1.66,1.66-1.66s1.66,.74,1.66,1.66v4.98c0,.92-.74,1.66-1.66,1.66Zm0-16.61c-.92,0-1.66-.74-1.66-1.66v-4.98c0-.92,.74-1.66,1.66-1.66s1.66,.74,1.66,1.66v4.98c0,.92-.74,1.66-1.66,1.66Z"/>
      <path class="cls-7" d="M1310.39,344.98c-.89,0-1.63-.71-1.66-1.61l-.09-2.97c-.03-.92,.69-1.68,1.61-1.71,.92-.08,1.68,.69,1.71,1.61l.09,2.97c.03,.92-.69,1.68-1.61,1.71-.02,0-.04,0-.05,0Zm-.45-14.6c-.89,0-1.63-.71-1.66-1.61l-.15-4.98c-.03-.92,.69-1.68,1.61-1.71,.92-.04,1.68,.69,1.71,1.61l.15,4.98c.03,.92-.69,1.68-1.61,1.71-.02,0-.04,0-.05,0Zm-.52-16.6c-.89,0-1.63-.71-1.66-1.61l-.15-4.98c-.03-.92,.69-1.68,1.61-1.71,.91-.05,1.68,.69,1.71,1.61l.15,4.98c.03,.92-.69,1.68-1.61,1.71-.02,0-.03,0-.05,0Zm-.52-16.6c-.89,0-1.63-.71-1.66-1.61l-.15-4.98c-.03-.92,.69-1.68,1.61-1.71,.9-.06,1.68,.69,1.71,1.61l.15,4.98c.03,.92-.69,1.68-1.61,1.71-.02,0-.03,0-.05,0Zm-.52-16.6c-.89,0-1.63-.71-1.66-1.61l-.15-4.98c-.03-.92,.69-1.68,1.61-1.71,.94-.07,1.68,.69,1.71,1.61l.15,4.98c.03,.92-.69,1.68-1.61,1.71-.02,0-.04,0-.05,0Zm-.52-16.6c-.89,0-1.63-.71-1.66-1.61l-.15-4.98c-.03-.92,.69-1.68,1.61-1.71,.94-.04,1.68,.69,1.71,1.61l.15,4.98c.03,.92-.69,1.68-1.61,1.71-.02,0-.04,0-.05,0Zm-.52-16.6c-.89,0-1.63-.71-1.66-1.61l-.15-4.98c-.03-.92,.69-1.68,1.61-1.71,.93-.05,1.68,.69,1.71,1.61l.15,4.98c.03,.92-.69,1.68-1.61,1.71-.02,0-.04,0-.05,0Z"/>
      <path class="cls-7" d="M1370.88,335.68c-.92,0-1.66-.74-1.66-1.66v-4.98c0-.92,.74-1.66,1.66-1.66s1.66,.74,1.66,1.66v4.98c0,.92-.74,1.66-1.66,1.66Zm0-16.61c-.92,0-1.66-.74-1.66-1.66v-4.98c0-.92,.74-1.66,1.66-1.66s1.66,.74,1.66,1.66v4.98c0,.92-.74,1.66-1.66,1.66Zm0-16.61c-.92,0-1.66-.74-1.66-1.66v-4.98c0-.92,.74-1.66,1.66-1.66s1.66,.74,1.66,1.66v4.98c0,.92-.74,1.66-1.66,1.66Zm0-16.61c-.92,0-1.66-.74-1.66-1.66v-4.98c0-.92,.74-1.66,1.66-1.66s1.66,.74,1.66,1.66v4.98c0,.92-.74,1.66-1.66,1.66Zm0-16.61c-.92,0-1.66-.74-1.66-1.66v-4.98c0-.92,.74-1.66,1.66-1.66s1.66,.74,1.66,1.66v4.98c0,.92-.74,1.66-1.66,1.66Zm0-16.61c-.92,0-1.66-.74-1.66-1.66v-4.98c0-.92,.74-1.66,1.66-1.66s1.66,.74,1.66,1.66v4.98c0,.92-.74,1.66-1.66,1.66Zm0-16.61c-.92,0-1.66-.74-1.66-1.66v-4.98c0-.92,.74-1.66,1.66-1.66s1.66,.74,1.66,1.66v4.98c0,.92-.74,1.66-1.66,1.66Zm0-16.61c-.92,0-1.66-.74-1.66-1.66v-4.98c0-.92,.74-1.66,1.66-1.66s1.66,.74,1.66,1.66v4.98c0,.92-.74,1.66-1.66,1.66Zm0-16.61c-.92,0-1.66-.74-1.66-1.66v-4.98c0-.92,.74-1.66,1.66-1.66s1.66,.74,1.66,1.66v4.98c0,.92-.74,1.66-1.66,1.66Z"/>
      <g>
        <path class="cls-7" d="M1074.03,355.29c-1.28,0-2.37-.98-2.48-2.28l-17.03-201.1c-.12-1.37,.9-2.58,2.27-2.69,1.38-.1,2.58,.9,2.69,2.27l17.03,201.1c.12,1.37-.9,2.58-2.27,2.69-.07,0-.14,0-.21,0Z"/>
        <polygon class="cls-7" points="1049.42 162.3 1057.13 153.16 1066.26 160.87 1065.65 153.72 1056.52 146.02 1048.82 155.15 1049.42 162.3"/>
      </g>
      <g>
        <path class="cls-7" d="M1411.5,345.81h-350.39c-1.38,0-2.49-1.12-2.49-2.49s1.12-2.49,2.49-2.49h350.39c1.38,0,2.49,1.12,2.49,2.49s-1.12,2.49-2.49,2.49Z"/>
        <polygon class="cls-7" points="1401.58 351.76 1410.03 343.31 1401.58 334.87 1408.75 334.87 1417.2 343.31 1408.75 351.76 1401.58 351.76"/>
      </g>
      <path class="cls-7" d="M1088.61,288.02c-1.23,0-2.3-.91-2.47-2.16-.18-1.36,.78-2.62,2.14-2.8,1.84-.24,185.3-25.37,285.73-99.42,1.11-.82,2.67-.58,3.48,.53,.82,1.11,.58,2.67-.53,3.48-101.47,74.82-286.17,100.1-288.03,100.35-.11,.01-.22,.02-.33,.02Z"/>
      <path class="cls-7" d="M1376.26,198.9c-.06,0-.13,0-.2,0-1.37-.11-2.4-1.31-2.29-2.68l.77-9.79-13.8-.82c-1.37-.08-2.42-1.26-2.34-2.63,.08-1.37,1.25-2.45,2.64-2.34l16.33,.97c.67,.04,1.29,.35,1.73,.85,.44,.5,.66,1.16,.61,1.83l-.97,12.32c-.1,1.31-1.19,2.3-2.48,2.3Z"/>
    </g>
  </g>
  <g>
    <path class="cls-68" d="M92.89,255.92l198.91-106.26c10.97-5.86,24.62-2.1,31.03,8.56l168.74,280.54c5.02,8.34,2.13,19.18-6.37,23.93l-225.77,125.93c-7.99,4.46-18.08,1.49-22.39-6.58L81.99,291.81c-6.9-12.92-2.02-28.98,10.89-35.89Z"/>
    <path class="cls-3" d="M290.19,566.03h0s-25.69,13.3-25.69,13.3c-8.65,4.48-19.41,1.13-24-7.46l-20.58-38.52c-.19-.36-.06-.8,.3-1,.38-.18,.81-.06,1,.3l20.58,38.51c4.21,7.88,14.09,10.95,22.02,6.84l25.69-13.3c.36-.19,.81-.05,.99,.32,.19,.36,.05,.8-.31,.99Z"/>
    <path class="cls-3" d="M214.54,521.73c-.36,.19-.8,.05-.99-.31l-3.33-6.24c-.19-.36-.06-.81,.3-1,0,0,0,0,0,0,.36-.19,.8-.05,.99,.3l3.33,6.24c.19,.36,.06,.81-.3,1,0,0,0,0,0,0Z"/>
    <g>
      <path class="cls-6" d="M92.25,253.26c29.13-10.83,128.63-49.33,202.69-96.52,3.38-2.15,7.86-1.12,9.93,2.31l170.14,281.45c2.33,3.86,1.11,8.88-2.73,11.23-31.45,19.27-161.25,98.16-211.63,118.66-3.07,1.25-6.58-.02-8.15-2.93L88.16,264.15c-2.23-4.12-.31-9.26,4.09-10.89Z"/>
      <path class="cls-8" d="M99.17,259.21c28.03-10.42,123.78-47.48,195.05-92.89,3.25-2.07,7.56-1.07,9.56,2.22l163.74,270.85c2.25,3.71,1.07,8.54-2.63,10.81-30.27,18.55-155.18,94.47-203.66,114.19-2.95,1.2-6.33-.02-7.85-2.82L95.24,269.7c-2.15-3.96-.29-8.91,3.93-10.48Z"/>
      <path class="cls-66" d="M304.5,192.32c1.45-.77,2.09-2.27,1.42-3.34-.66-1.06-2.39-1.31-3.84-.55l-168.18,88.15c-1.45,.76-1.41,1.91,.1,2.56l1.68,.72c1.5,.65,3.92,.55,5.36-.22l163.46-87.32Z"/>
      <path class="cls-65" d="M139.86,287.72c-1.45,.76-1.41,1.91,.1,2.56l1.68,.72c1.5,.65,3.92,.55,5.36-.22l163.46-87.32c1.45-.77,2.09-2.27,1.42-3.34-.66-1.06-2.39-1.31-3.84-.55l-168.18,88.15Z"/>
      <path class="cls-3" d="M222.37,373.78s-.04,.02-.06,.03l-22.11,12.47c-3.19,1.8-7.06,1.12-9.01-1.57l-12.57-17.33c-.75-1.03-1.03-2.31-.8-3.61,.26-1.45,1.14-2.77,2.43-3.64h0c1.78-1.2,4.21-2.89,6.88-4.75,5.82-4.05,12.41-8.64,16.46-11.04,.03-.02,.06-.04,.09-.05,2.91-1.68,6.45-1.35,8.62,.82,3.59,3.58,8.12,11.66,12.82,20.33,1.54,2.84,.3,6.57-2.77,8.34Zm-40.96-11.93c-.83,.55-1.39,1.39-1.55,2.28-.13,.74,.02,1.46,.44,2.03l12.57,17.33c1.33,1.84,4.05,2.26,6.32,.98l22.11-12.47s.03-.02,.04-.03c2.1-1.21,2.99-3.69,1.98-5.56-4.63-8.53-9.07-16.47-12.47-19.85-1.5-1.5-4.18-1.71-6.19-.45-3.98,2.36-10.83,7.13-16.33,10.96-2.68,1.87-5.12,3.57-6.91,4.77h0Z"/>
      <path class="cls-55" d="M184.84,362.35c4.44-2.98,13.89-9.79,18.62-12.59,2-1.19,4.48-.99,5.96,.49,2.88,2.87,6.66,9.71,10.11,16.05,1.03,1.9,.17,4.39-1.94,5.58l-17.67,9.96c-2.17,1.23-4.82,.79-6.12-1.02l-10.04-13.85c-1.04-1.43-.55-3.51,1.1-4.62Z"/>
      <path class="cls-61" d="M231.42,343.08c-1.44,.78-1.67,2.38-.52,3.54l5.04,5.08c1.15,1.16,3.26,1.45,4.68,.63l109.16-62.94c1.42-.82,1.89-2.63,1.04-4.04l-1.82-3c-.85-1.4-2.72-1.91-4.16-1.12l-113.41,61.84Z"/>
      <path class="cls-63" d="M187.44,364.7h0c1.08-1.9,3.51-2.54,5.39-1.42l8.82,5.27c.88,.53,1.99-.18,1.89-1.2l-3.05-30.15c-.15-1.5,1.86-2.13,2.59-.81,4.11,7.39,10.2,22.43,5.21,40.84,0,0-7.9,1.21-19.67-7.2-1.7-1.22-2.22-3.52-1.18-5.34Z"/>
      <path class="cls-3" d="M195.97,323.27s-.04,.02-.06,.03l-22.11,12.47c-3.19,1.8-7.06,1.12-9.01-1.57l-12.57-17.33c-.75-1.03-1.03-2.31-.8-3.61,.26-1.45,1.14-2.77,2.43-3.64h0c1.78-1.2,4.21-2.89,6.88-4.75,5.82-4.05,12.41-8.64,16.46-11.04,.03-.02,.06-.04,.09-.05,2.91-1.68,6.45-1.35,8.62,.82,3.59,3.58,8.12,11.66,12.82,20.33,1.54,2.84,.3,6.57-2.77,8.34Zm-40.96-11.93c-.83,.55-1.39,1.39-1.55,2.28-.13,.74,.02,1.46,.44,2.03l12.57,17.33c1.33,1.84,4.05,2.26,6.32,.98l22.11-12.47s.03-.02,.04-.02c2.1-1.21,2.99-3.69,1.98-5.56-4.63-8.53-9.07-16.47-12.47-19.85-1.5-1.5-4.18-1.71-6.19-.45-3.98,2.36-10.83,7.13-16.33,10.96-2.68,1.87-5.12,3.57-6.91,4.77h0Z"/>
      <path class="cls-64" d="M158.44,311.83c4.44-2.98,13.89-9.79,18.62-12.59,2-1.19,4.48-.99,5.96,.49,2.88,2.87,6.66,9.71,10.11,16.05,1.03,1.9,.17,4.39-1.94,5.58l-17.67,9.96c-2.17,1.23-4.82,.79-6.12-1.02l-10.04-13.85c-1.04-1.43-.55-3.51,1.1-4.62Z"/>
      <path class="cls-56" d="M205.02,292.57c-1.44,.78-1.67,2.38-.52,3.54l5.04,5.08c1.15,1.16,3.26,1.45,4.68,.63l109.16-62.94c1.42-.82,1.89-2.63,1.04-4.04l-1.82-3c-.85-1.4-2.72-1.91-4.16-1.12l-113.41,61.84Z"/>
      <path class="cls-62" d="M161.04,314.18h0c1.08-1.9,3.51-2.54,5.39-1.42l8.82,5.27c.88,.53,1.99-.18,1.89-1.2l-3.05-30.15c-.15-1.5,1.86-2.13,2.59-.81,4.11,7.39,10.2,22.43,5.21,40.84,0,0-7.9,1.21-19.67-7.2-1.7-1.22-2.22-3.52-1.18-5.34Z"/>
      <path class="cls-3" d="M249.54,420.91l-.06,.03-22.11,12.47c-3.19,1.8-7.06,1.12-9.01-1.57l-12.57-17.33c-.75-1.03-1.03-2.31-.8-3.61,.26-1.45,1.14-2.77,2.43-3.64h0c1.78-1.2,4.21-2.89,6.88-4.75,5.82-4.05,12.41-8.64,16.46-11.04,.03-.02,.06-.04,.09-.05,2.92-1.68,6.45-1.35,8.63,.82,3.59,3.58,8.12,11.66,12.82,20.33,1.54,2.84,.3,6.57-2.77,8.34Zm-40.96-11.93c-.82,.55-1.39,1.38-1.55,2.28-.13,.74,.02,1.46,.44,2.03l12.57,17.33c1.33,1.84,4.05,2.26,6.32,.98l22.11-12.47s.03-.02,.04-.02c2.1-1.21,2.99-3.69,1.98-5.56-4.63-8.53-9.07-16.47-12.47-19.85-1.51-1.5-4.16-1.69-6.2-.45-3.98,2.36-10.83,7.13-16.33,10.96-2.68,1.87-5.12,3.57-6.91,4.77h0Z"/>
      <path class="cls-58" d="M212.01,409.47c4.44-2.98,13.89-9.79,18.62-12.59,2-1.19,4.48-.99,5.96,.49,2.88,2.87,6.66,9.71,10.11,16.05,1.03,1.9,.17,4.39-1.94,5.58l-17.67,9.96c-2.17,1.23-4.82,.79-6.12-1.02l-10.04-13.85c-1.04-1.43-.55-3.51,1.1-4.62Z"/>
      <path class="cls-59" d="M258.59,390.21c-1.44,.78-1.67,2.38-.52,3.54l5.04,5.08c1.15,1.16,3.26,1.45,4.68,.63l109.16-62.94c1.42-.82,1.89-2.63,1.04-4.04l-1.82-3c-.85-1.4-2.72-1.91-4.16-1.12l-113.41,61.84Z"/>
      <path class="cls-57" d="M214.61,411.83h0c1.08-1.9,3.51-2.54,5.39-1.42l8.82,5.27c.88,.53,1.99-.18,1.89-1.2l-3.05-30.15c-.15-1.5,1.86-2.13,2.6-.8,4.11,7.39,10.2,22.43,5.21,40.84,0,0-7.9,1.21-19.67-7.2-1.7-1.21-2.22-3.52-1.18-5.34Z"/>
      <path class="cls-60" d="M273.58,467.35s-.04,.02-.06,.03l-22.11,12.47c-3.19,1.8-7.06,1.12-9.01-1.57l-12.57-17.33c-.75-1.03-1.03-2.31-.8-3.61,.26-1.45,1.14-2.77,2.43-3.64h0c1.78-1.19,4.21-2.88,6.88-4.74,5.53-3.85,12.42-8.64,16.47-11.04,2.88-1.68,6.51-1.42,8.71,.77,3.59,3.58,8.12,11.66,12.82,20.33,1.54,2.84,.3,6.57-2.77,8.34Zm-40.96-11.93c-.82,.55-1.39,1.39-1.55,2.28-.13,.74,.03,1.46,.44,2.03l12.57,17.33c1.33,1.84,4.05,2.26,6.32,.98l22.11-12.47c2.05-1.23,3.04-3.71,2.02-5.58-4.63-8.53-9.07-16.46-12.47-19.85-1.5-1.5-4.15-1.67-6.19-.45-3.98,2.36-10.84,7.13-16.34,10.96-2.68,1.87-5.12,3.56-6.9,4.76h0Z"/>
      <path class="cls-4" d="M236.04,455.91c4.44-2.98,13.89-9.79,18.62-12.59,2-1.19,4.48-.99,5.96,.49,2.88,2.87,6.66,9.71,10.11,16.05,1.03,1.9,.17,4.39-1.94,5.58l-17.67,9.96c-2.17,1.23-4.82,.79-6.12-1.02l-10.04-13.85c-1.04-1.43-.55-3.51,1.09-4.62Z"/>
      <path class="cls-70" d="M282.63,436.64c-1.44,.78-1.67,2.38-.52,3.54l5.04,5.08c1.15,1.16,3.26,1.45,4.68,.63l109.16-62.94c1.42-.82,1.89-2.63,1.04-4.04l-1.82-3c-.85-1.4-2.72-1.91-4.16-1.12l-113.41,61.84Z"/>
      <path class="cls-78" d="M238.65,458.26h0c1.08-1.9,3.51-2.54,5.39-1.42l8.82,5.27c.88,.53,1.99-.18,1.89-1.2l-3.05-30.15c-.15-1.5,1.86-2.13,2.59-.8,4.11,7.39,10.2,22.43,5.21,40.84,0,0-7.9,1.21-19.67-7.2-1.7-1.22-2.22-3.52-1.18-5.34Z"/>
      <path class="cls-3" d="M297.99,515.45s-.04,.02-.06,.03l-22.11,12.47c-3.19,1.8-7.06,1.12-9.01-1.57l-12.57-17.33c-.75-1.03-1.03-2.31-.8-3.61,.26-1.45,1.14-2.77,2.43-3.64h0c1.78-1.2,4.21-2.89,6.88-4.75,5.82-4.05,12.41-8.64,16.46-11.04,3.01-1.68,6.52-1.42,8.71,.77,3.59,3.58,8.12,11.66,12.82,20.33,1.54,2.84,.3,6.57-2.77,8.34Zm-40.96-11.93c-.83,.55-1.39,1.39-1.55,2.28-.13,.74,.02,1.46,.44,2.03l12.57,17.33c1.33,1.84,4.05,2.26,6.32,.98l22.11-12.47s.03-.02,.04-.03c2.1-1.21,2.99-3.69,1.98-5.56-4.63-8.53-9.07-16.47-12.47-19.85-1.5-1.5-4.14-1.65-6.19-.45-3.98,2.36-10.83,7.13-16.33,10.96-2.68,1.87-5.12,3.57-6.91,4.77h0Z"/>
      <path class="cls-71" d="M260.45,504.01c4.44-2.98,13.89-9.79,18.62-12.59,2-1.19,4.48-.99,5.96,.49,2.88,2.87,6.66,9.71,10.11,16.05,1.03,1.9,.17,4.39-1.94,5.58l-17.67,9.96c-2.17,1.23-4.82,.79-6.12-1.02l-10.04-13.85c-1.04-1.43-.55-3.51,1.09-4.62Z"/>
      <path class="cls-69" d="M307.04,484.75c-1.44,.78-1.67,2.38-.52,3.54l5.04,5.08c1.15,1.16,3.26,1.45,4.68,.63l109.16-62.94c1.42-.82,1.89-2.63,1.04-4.04l-1.82-3c-.85-1.4-2.72-1.91-4.16-1.12l-113.41,61.84Z"/>
      <path class="cls-79" d="M263.06,506.37h0c1.08-1.9,3.51-2.54,5.39-1.42l8.82,5.27c.88,.53,1.99-.18,1.89-1.2l-3.05-30.15c-.15-1.5,1.86-2.13,2.59-.81,4.11,7.39,10.2,22.43,5.21,40.84,0,0-7.9,1.21-19.67-7.2-1.7-1.21-2.22-3.52-1.18-5.34Z"/>
    </g>
    <path class="cls-80" d="M183.68,156.88c-9.86-1.16-16.05,2.28-19.75,5.92-3.38,3.33-3.91,8.59-1.3,12.55l12.96,19.69,23.64-10.05s3.79-25.83-15.54-28.11Zm-1,22c-3.11,1.66-6.97,.49-8.63-2.62-1.66-3.11-.49-6.97,2.62-8.63,3.11-1.66,6.97-.49,8.63,2.62,1.66,3.11,.49,6.97-2.62,8.63Z"/>
    <path class="cls-82" d="M173.06,185.84c-.47,.07-.96-.14-1.24-.56l-2.06-3.14c-.38-.58-.22-1.37,.36-1.75,.58-.39,1.37-.22,1.76,.36l2.06,3.14c.38,.58,.22,1.37-.36,1.75-.16,.11-.34,.17-.52,.2Zm-4.04-6.14c-.47,.07-.96-.14-1.24-.56l-1.57-2.38c-2.65-4.03-2.09-9.41,1.33-12.78,2.34-2.31,5.15-3.96,8.34-4.91,.67-.19,1.38,.18,1.58,.85,.2,.67-.18,1.38-.85,1.58-2.79,.83-5.24,2.27-7.28,4.28-2.57,2.53-2.98,6.55-.99,9.58l1.57,2.38c.38,.58,.22,1.37-.36,1.75-.16,.11-.34,.17-.52,.2Z"/>
    <path class="cls-84" d="M151.92,224.87l-5.56-10.41c-1.92-3.59-.48-8.06,3.18-9.86l73.07-35.88c3.24-1.59,7.17-.46,9.05,2.62l5.94,9.68-85.69,43.84Z"/>
    <path class="cls-83" d="M168.78,199.5c-.36,.19-.8,.05-.99-.31-.19-.36-.06-.81,.3-1l3.09-1.65c.38-.2,.81-.06,1,.3,.19,.36,.06,.81-.3,1l-3.09,1.65s0,0,0,0Z"/>
    <path class="cls-81" d="M153.94,220.24c-.51,.07-1.04-.18-1.29-.66l-2.25-4.21c-.92-1.73-1.12-3.71-.55-5.59,.57-1.88,1.84-3.42,3.56-4.34l11.35-6.06c.62-.33,1.38-.1,1.71,.52,.33,.62,.1,1.39-.52,1.72l-11.35,6.06c-2.34,1.25-3.22,4.16-1.97,6.5l2.25,4.21c.33,.62,.1,1.39-.52,1.72-.13,.07-.28,.12-.42,.14Z"/>
    <path class="cls-75" d="M127.4,233.08l125.48-67.04c4.51-2.41,10.1-1.22,13.25,2.81l.43,.56c3.44,4.42,2.07,10.88-2.87,13.52l-128.74,68.78c-2.96,1.58-6.64,.37-8.07-2.66l-2.8-5.91c-1.75-3.7-.29-8.12,3.32-10.05Z"/>
  </g>
  <g>
    <g>
      <path class="cls-73" d="M784.97,723.24s-10.36-27.27-22.46-24.78c-12.1,2.5-25.34,11.79-25.34,11.79l-19.44,26.29s54.57,21.5,73.77,9.18c0,0,55.74,9.63,126.14-1.92-10.19-21.51-16.26-43.05-19.83-59.77-35.65,20.18-74.06,35.26-112.83,39.2Z"/>
      <path class="cls-77" d="M1080.25,525.41s-79.81,100.52-182.45,158.62c3.57,16.72,9.64,38.26,19.83,59.77,53.24-8.74,114.86-29.59,167.11-75.92l-4.49-142.47Z"/>
    </g>
    <path class="cls-74" d="M14.28,571.77l158.44,398.46c8.06,20.28,28.98,32.39,50.58,29.28l415.48-30.68-149.65-423.72c-3.99-10.48-14.14-17.32-25.36-17.06-72.84,1.68-338.16,8.23-433.07,16.68-13.18,1.17-21.44,14.8-16.43,27.04Z"/>
    <path class="cls-72" d="M209.3,981.43L51,579.39c-3.2-8.11,2.66-16.93,11.38-17.13l391.26-14.85c10.08-.38,19.3,5.65,22.98,15.04l143.3,391.92-410.63,27.06Z"/>
    <path class="cls-76" d="M1596.6,571.77l-158.44,398.46c-8.06,20.28-28.98,32.39-50.58,29.28l-415.48-29.08,149.65-425.33c3.99-10.48,14.14-17.32,25.36-17.06,72.84,1.68,338.16,8.23,433.07,16.68,13.18,1.17,21.44,14.8,16.43,27.04Z"/>
    <path class="cls-46" d="M1401.57,981.43l158.3-402.04c3.2-8.11-2.66-16.93-11.38-17.13l-391.26-14.85c-10.08-.38-19.3,5.65-22.98,15.04l-143.3,391.92,410.63,27.06Z"/>
    <path class="cls-45" d="M482.07,538.71l4.96,133.08c14.07,4.84,27.47,8.61,40.23,11.42,7.98-25.69,25.55-57.23,39.94-80.68-52.87-18.69-85.13-63.82-85.13-63.82Z"/>
    <path class="cls-48" d="M746.03,536.44c-72.53,78.3-131.23,82.91-178.83,66.09-14.39,23.45-31.96,54.98-39.94,80.68,193.68,42.7,239.29-135.35,239.29-135.35l-20.51-11.41Z"/>
    <path class="cls-47" d="M760.74,528.13s8.35-8.97,23.82-6.15c15.46,2.82,29.22,8.19,38.86,0,9.63-8.19,13.02,2.8,13.02,2.8l-28.85,21.93-46.85-18.58Z"/>
    <path class="cls-51" d="M743.49,543.46s5.72-23.94,22.98-20.65c17.25,3.28,56.41,24.58,66.51,20.65,10.09-3.92,23-13.31,29.62-9.99l-11.66,14.5s29.98-17.3,35.14-6.67l-49.89,28.07s-72.99-7.31-92.69-25.91Z"/>
    <path class="cls-49" d="M231,977.3s-24.75-353.29,155.65-463.15c0,0,50.44-33.3,113.28,31.19,62.85,64.48,42.61,131.47-10.13,194.26-52.74,62.78-106.46,174.93-93.68,237.71H231Z"/>
    <path class="cls-1" d="M477.58,417.92c-.05,4.21-60.12,89.54-60.12,89.54,0,0,10.78,21.24,62.26,38.48l44.43-91.36-46.57-36.66Z"/>
    <path class="cls-50" d="M453.95,710.87s113.97,95.45,237.05,53.8c7.63-2.58,15.98-2.02,23.11,1.74l35.38,18.69c14.85,7.84,33.24,2.69,41.86-11.72,4.92-8.22,9.11-17.61,9.94-26.61l-69.23-28.03,5.1-8.49s-33.8-2.86-42.65,21.36c0,0-64.38,26.78-172.96-92.65,0,0-49.27,41.9-67.6,71.91Z"/>
    <path class="cls-53" d="M447.82,710.46c-.49,0-.98-.14-1.41-.43-48.13-32.52-70.77-85.01-70.99-85.54-.54-1.28,.06-2.76,1.34-3.31,1.28-.54,2.76,.05,3.31,1.34,.22,.51,22.32,51.67,69.18,83.33,1.15,.78,1.46,2.35,.68,3.5-.49,.72-1.28,1.11-2.09,1.11Z"/>
    <path class="cls-54" d="M519.3,637.92c-.83,0-1.64-.41-2.12-1.16-.14-.22-14.82-23.06-42.75-73.08-8.51-15.23-19.67-24.87-33.19-28.66-22.41-6.27-44.03,5.75-44.25,5.88-1.21,.69-2.75,.26-3.44-.95-.69-1.21-.26-2.75,.94-3.44,.95-.54,23.59-13.18,48.05-6.36,14.88,4.15,27.08,14.6,36.28,31.07,27.84,49.85,42.44,72.59,42.59,72.81,.76,1.17,.42,2.73-.75,3.49-.42,.27-.9,.4-1.36,.4Z"/>
    <g>
      <path class="cls-52" d="M524.87,369.03s21.38,49.1,22.81,74.87c1.44,25.77,6.99,42.49-22.81,47.68-29.8,5.19-54.9-9.66-68.5-35.33,0,0-21.31-39.56-16.53-55.76,4.78-16.2,85.03-31.47,85.03-31.47Z"/>
      <path class="cls-27" d="M466.56,437.8l1.7-.75c2.16-.95,3.08-3.52,2-5.62-4.2-8.12-12.39-26.72-1.81-31.06,13.64-5.59,67.66-16.61,79.32-35.78,11.2-18.42,1.28-42.2-13.64-48.97-1-.45-2.18-.09-2.69,.88l-1.24,2.35c-.85,1.61-3.23,1.37-3.74-.38h0c-.49-1.68-2.72-2.01-3.65-.52-3.58,5.74-13.26,15.03-39.12,19.81-36.76,6.78-61.07,21.66-61.67,47.07-.04,1.61-1.76,2.51-3.13,1.67-2.71-1.65-7.06-2.43-12.86,2.45-10.1,8.49-5.96,30.51,16.17,48.63,1.05,.86,1.04,2.5-.1,3.24-4.01,2.61-9.99,8.83,5.5,17.11,16.03,8.57,28,7.87,32.61,7.11,1.15-.19,1.89-1.3,1.64-2.43l-4.92-22.33c-.28-1.26,.68-2.46,1.98-2.46h7.66Z"/>
      <path class="cls-25" d="M467.48,442.51s-8.15-31.37-22.22-22.57c-14.06,8.79,7.3,35.14,18.6,36.32l3.61-13.75Z"/>
    </g>
    <path class="cls-26" d="M714.11,766.42s28.96,28.33,34.55,24.21c1.99-1.47,7.01-6.8,11.87-12.73,3.43-4.19,3.79-10.11,.85-14.65l-6.83-10.54c-6.51-10.04-20.45-12.15-29.47-4.29-4.55,3.96-8.69,9.7-10.97,18.01Z"/>
    <path class="cls-23" d="M1170.51,972.1s-.19-127.29-74.2-258.72c-23.15-41.11-31.38-88.97-24.16-135.59l8.11-52.37s101.57-34.37,214.15-1.45c0,0,156.1,128.85,51.78,458.39l-175.67-10.26Z"/>
    <path class="cls-24" d="M1097.54,458.58l26.34,63.27c1.66,4,5.26,6.84,9.52,7.58,15.18,2.6,51.91,6.67,76.03-9.19,2.87-1.89,3.61-5.8,1.64-8.62l-48.66-69.85-64.87,16.81Z"/>
    <g>
      <path class="cls-8" d="M1162.49,755.92c-3.63,.96-5.43,5.03-3.69,8.36l76.19,146.09c1.29,2.47,4.13,3.69,6.81,2.91l249.22-71.96c3.1-.9,4.89-4.14,4-7.24l-42.93-148.62c-.88-3.05-4.04-4.84-7.11-4.03l-282.48,74.48Z"/>
      <path class="cls-21" d="M1178.57,738.75c-3.57,.85-5.59,4.63-4.33,8.07l60.99,165.67c1.11,3.01,4.36,4.66,7.44,3.77l248.47-71.74c3.09-.89,4.96-4.03,4.29-7.17l-34.43-159.45c-.72-3.35-4.06-5.46-7.4-4.66l-275.03,65.52Z"/>
      <path class="cls-22" d="M1200.21,722.03c-4.36,.66-7.23,4.89-6.23,9.19l41.42,178.85c.98,4.23,5.3,6.76,9.47,5.56l244.71-70.65c3.93-1.14,6.25-5.19,5.23-9.16l-37.63-145.99c-.97-3.76-4.63-6.17-8.46-5.59l-248.5,37.79Z"/>
    </g>
    <path class="cls-19" d="M1398.3,790.23c18.99-143.47-91.57-253.79-91.57-253.79l-65.78,76.69c49.94,62.25,73.68,119.3,84.53,164.1,14.38-4.19,49.01-10.81,72.82,13Z"/>
    <path class="cls-20" d="M1325.47,778.91c-.76,0-1.45-.52-1.63-1.29-13.45-55.57-41.78-110.56-84.21-163.44-.58-.72-.46-1.78,.26-2.36,.73-.58,1.78-.46,2.36,.26,42.73,53.27,71.28,108.7,84.85,164.76,.22,.9-.33,1.81-1.24,2.03-.13,.03-.27,.05-.4,.05Z"/>
    <path class="cls-18" d="M1325.47,777.23c10.08,41.64,9.02,72.71,7.49,87.54-.58,5.59-5.07,9.96-10.68,10.35-6.37,.45-15.04,1.03-22.79,1.48-8.52,.49-17.97-4.89-24.29-9.39-3.23-2.3-7.4,1.28-5.6,4.81,4.72,9.23,16.69,17.45,24.95,22.28,3,1.76,2.44,6.25-.91,7.2l-35.3,10c58,54.64,96.29-6.5,96.29-6.5,25.6-39.56,38.84-78.24,43.67-114.77-23.81-23.81-58.44-17.19-72.82-13Z"/>
    <g>
      <path class="cls-42" d="M1124.77,361.78c-1.11,1.04-46.68,90.54-46.68,90.54l51.65,24.94,55.8-78.41s-42.25-54.5-60.77-37.07Z"/>
      <path class="cls-44" d="M1162.07,408.25l-25.76,42.94c-.39,.65-.86,1.24-1.41,1.76-3.07,2.85-13.56,11.16-21.67-.15-6.91-9.63-13.4-18.39-20.35-22.01-4.06-2.11-9.05-.42-11.11,3.66-4.24,8.41-12.47,25.56-17.63,41.82-1.29,4.08,.81,8.45,4.77,10.06,10.46,4.24,31.13,11.9,49.47,14.43,3.01,.42,6-.86,7.79-3.31,7.89-10.81,30.14-41.03,37.73-48.59,7.05-7.03,20.07-4.38,25.94-2.69,2.23,.64,4.6,.33,6.58-.86,5.95-3.58,16.34-12.51,6.84-27.62-2.36-3.76-1.16-8.76,2.55-11.2,6.64-4.37,13.85-12.57,6.98-25.86-6.95-13.45-19.37-14.66-27.83-13.62-3.74,.46-7.54-1.51-8.98-4.99-.64-1.55-1.9-2.87-4.25-3.35-4.43-.9-7.34-4.95-6.47-9.39,1.49-7.61,.37-17.5-11.78-24.18-22.29-12.25-41.81,7.71-46.77,24.57-4.96,16.85,19.95,28.77,35.63,30.75,11.51,1.46,17.83,14.03,20.37,20.59,.92,2.38,.69,5.04-.62,7.24Z"/>
      <path class="cls-43" d="M1154.22,464.64s9.91-29,22.6-27.93c12.69,1.06,22.67,13.7,6.95,27.91-19.56,17.67-29.54,.02-29.54,.02Z"/>
    </g>
    <path class="cls-39" d="M780.06,986.55c0,7.43-6.02,13.45-13.45,13.45H220.18c-11.29,0-20.44-9.15-20.44-20.44l-8.59-9.99,567.37-4.86c11.94,.16,21.54,9.89,21.54,21.84h0Z"/>
    <path class="cls-38" d="M830.82,986.55c0,7.43,6.02,13.45,13.45,13.45h546.43c11.29,0,20.44-9.15,20.44-20.44l8.6-9.99-567.37-4.86c-11.94,.16-21.54,9.89-21.54,21.84h0Z"/>
  </g>
  <g>
    <g>
      <circle class="cls-41" cx="99.5" cy="785.87" r="44.24" transform="translate(-640.33 502.78) rotate(-61.85)"/>
      <circle class="cls-40" cx="99.5" cy="785.87" r="42.77" transform="translate(-76.95 13.63) rotate(-5.65)"/>
      <path class="cls-4" d="M64.24,769.76c-.25,0-.51-.06-.75-.18-.82-.41-1.15-1.41-.73-2.23,7.04-13.96,21.12-22.62,36.75-22.62,2.5,0,4.99,.22,7.42,.67,.9,.16,1.5,1.03,1.34,1.93-.16,.9-1.03,1.5-1.93,1.34-2.23-.41-4.53-.61-6.82-.61-14.36,0-27.31,7.97-33.78,20.8-.29,.58-.88,.91-1.48,.91Z"/>
      <circle class="cls-4" cx="100.44" cy="786.8" r="36.2" transform="translate(-441.09 207.24) rotate(-35.78)"/>
      <path class="cls-36" d="M96.88,813.71v-3.94c-4.11-.16-8.17-1.13-11.05-2.4-1.03-.45-1.55-1.61-1.26-2.69l1-3.67c.37-1.35,1.83-2.04,3.12-1.5,2.86,1.2,6.39,2.15,10.2,2.15s6.9-1.34,6.9-4.09c0-2.48-2.28-3.95-7.77-5.43-7.84-2.14-13.47-5.56-13.47-12.47,0-6.23,4.56-10.99,12.47-12.26v-3.94c0-1.27,1.03-2.29,2.29-2.29h2.31c1.27,0,2.29,1.03,2.29,2.29v3.54c3.8,.15,6.56,.8,8.76,1.57,1.12,.4,1.74,1.61,1.43,2.76l-.92,3.39c-.35,1.31-1.75,2.02-3.02,1.55-2.02-.76-4.88-1.56-8.59-1.56-4.69,0-6.03,1.94-6.03,3.69,0,2.14,2.81,3.62,8.91,5.5,8.71,2.61,12.33,6.23,12.33,12.73,0,5.96-4.42,11.33-13,12.67v4.41c0,1.27-1.03,2.29-2.29,2.29h-2.31c-1.27,0-2.29-1.03-2.29-2.29Z"/>
    </g>
    <g>
      <circle class="cls-35" cx="225.43" cy="733.4" r="77.01" transform="translate(-452.57 374.21) rotate(-45)"/>
      <circle class="cls-37" cx="225.43" cy="733.4" r="74.45" transform="translate(-540.15 784.3) rotate(-76.72)"/>
      <path class="cls-4" d="M164.03,704.14c-.25,0-.51-.06-.75-.18-.82-.41-1.15-1.41-.73-2.23,12.05-23.88,36.14-38.71,62.87-38.71,4.26,0,8.54,.38,12.7,1.14,.9,.16,1.5,1.03,1.34,1.93-.16,.9-1.03,1.5-1.93,1.34-3.97-.72-8.04-1.09-12.1-1.09-25.47,0-48.42,14.13-59.91,36.89-.29,.58-.88,.91-1.48,.91Z"/>
      <circle class="cls-4" cx="227.05" cy="735.03" r="63.01"/>
      <path class="cls-31" d="M220.86,781.87v-6.86c-7.15-.29-14.22-1.97-19.24-4.17-1.79-.78-2.71-2.8-2.19-4.68l1.74-6.39c.64-2.34,3.19-3.55,5.43-2.62,4.98,2.09,11.13,3.74,17.76,3.74s12.02-2.33,12.02-7.12c0-4.32-3.97-6.88-13.53-9.45-13.65-3.73-23.45-9.68-23.45-21.7,0-10.85,7.93-19.13,21.7-21.35v-6.86c0-2.21,1.79-3.99,3.99-3.99h4.03c2.21,0,3.99,1.79,3.99,3.99v6.16c6.61,.26,11.43,1.4,15.25,2.74,1.96,.69,3.03,2.8,2.48,4.8l-1.6,5.91c-.62,2.28-3.05,3.52-5.26,2.69-3.52-1.33-8.49-2.72-14.95-2.72-8.17,0-10.5,3.38-10.5,6.42,0,3.73,4.9,6.3,15.52,9.57,15.17,4.55,21.47,10.85,21.47,22.17,0,10.38-7.7,19.72-22.63,22.05v7.67c0,2.21-1.79,3.99-3.99,3.99h-4.03c-2.21,0-3.99-1.79-3.99-3.99Z"/>
    </g>
    <g>
      <circle class="cls-32" cx="278.54" cy="905.41" r="79.24" transform="translate(-664.97 989.92) rotate(-78.02)"/>
      <circle class="cls-33" cx="278.54" cy="905.41" r="76.61" transform="translate(-558.64 462.14) rotate(-45)"/>
      <path class="cls-4" d="M215.37,875.25c-.25,0-.51-.06-.75-.18-.82-.41-1.15-1.41-.73-2.23,12.39-24.55,37.17-39.81,64.65-39.81,4.39,0,8.78,.4,13.06,1.17,.9,.16,1.5,1.03,1.34,1.93-.16,.9-1.02,1.5-1.93,1.34-4.08-.74-8.27-1.12-12.46-1.12-26.22,0-49.86,14.55-61.69,37.98-.29,.58-.88,.91-1.48,.91Z"/>
      <circle class="cls-4" cx="280.21" cy="907.08" r="64.84" transform="translate(-666.99 971.38) rotate(-76.72)"/>
      <path class="cls-34" d="M273.84,955.28v-7.05c-7.35-.29-14.63-2.03-19.79-4.29-1.84-.81-2.79-2.88-2.26-4.82l1.79-6.57c.66-2.41,3.28-3.66,5.58-2.69,5.12,2.15,11.45,3.85,18.28,3.85s12.36-2.4,12.36-7.32c0-4.44-4.08-7.08-13.93-9.72-14.05-3.84-24.13-9.96-24.13-22.33,0-11.17,8.16-19.69,22.33-21.97v-7.05c0-2.27,1.84-4.11,4.11-4.11h4.14c2.27,0,4.11,1.84,4.11,4.11v6.33c6.8,.27,11.76,1.44,15.69,2.82,2.01,.71,3.11,2.88,2.56,4.94l-1.65,6.08c-.64,2.34-3.14,3.63-5.41,2.77-3.62-1.37-8.74-2.79-15.39-2.79-8.4,0-10.8,3.48-10.8,6.6,0,3.84,5.04,6.48,15.97,9.84,15.61,4.68,22.09,11.16,22.09,22.81,0,10.68-7.92,20.29-23.29,22.69v7.89c0,2.27-1.84,4.11-4.11,4.11h-4.15c-2.27,0-4.11-1.84-4.11-4.11Z"/>
    </g>
    <g>
      <circle class="cls-28" cx="380.19" cy="797.47" r="58.06" transform="translate(-445.92 1110.59) rotate(-85.27)"/>
      <circle class="cls-29" cx="380.19" cy="797.47" r="56.13" transform="translate(-452.54 502.41) rotate(-45)"/>
      <path class="cls-4" d="M333.91,775.81c-.25,0-.51-.06-.75-.18-.82-.41-1.15-1.41-.73-2.23,9.16-18.14,27.46-29.41,47.77-29.41,3.24,0,6.49,.29,9.65,.87,.9,.16,1.5,1.03,1.34,1.93-.17,.9-1.02,1.5-1.93,1.34-2.96-.54-6.01-.81-9.05-.81-19.05,0-36.21,10.57-44.8,27.58-.29,.58-.88,.91-1.48,.91Z"/>
      <circle class="cls-4" cx="381.42" cy="798.69" r="47.51" transform="translate(-242.87 171.28) rotate(-19.33)"/>
      <path class="cls-30" d="M376.75,834.01v-5.17c-5.39-.22-10.72-1.49-14.5-3.14-1.35-.59-2.04-2.11-1.65-3.53l1.31-4.81c.48-1.77,2.4-2.68,4.09-1.97,3.75,1.57,8.39,2.82,13.39,2.82s9.06-1.76,9.06-5.37c0-3.25-2.99-5.19-10.2-7.12-10.29-2.81-17.68-7.3-17.68-16.36,0-8.18,5.98-14.43,16.36-16.1v-5.17c0-1.66,1.35-3.01,3.01-3.01h3.04c1.66,0,3.01,1.35,3.01,3.01v4.64c4.99,.2,8.61,1.05,11.49,2.06,1.48,.52,2.28,2.11,1.87,3.62l-1.21,4.45c-.47,1.72-2.3,2.66-3.96,2.03-2.65-1-6.4-2.05-11.27-2.05-6.16,0-7.92,2.55-7.92,4.84,0,2.81,3.69,4.75,11.7,7.21,11.43,3.43,16.18,8.18,16.18,16.71,0,7.83-5.81,14.87-17.06,16.62v5.78c0,1.66-1.35,3.01-3.01,3.01h-3.04c-1.66,0-3.01-1.35-3.01-3.01Z"/>
    </g>
  </g>
  <g>
    <path class="cls-6" d="M1291.81,586.74c-3.83-1.32-3.28-6.92,.74-7.44,18.31-2.37,45.15-9.54,53.94-31.03,13.79-33.71-14.77-163.67,116.45-186.93,121.04-21.45,188.46,16.85,186.93,128.7-1.49,108.42-175.72,159.25-358.05,96.69Z"/>
    <g>
      <rect class="cls-8" x="1385.2" y="466.67" width="11.74" height="91.87"/>
      <rect class="cls-8" x="1404.82" y="498.25" width="11.74" height="60.3"/>
      <rect class="cls-8" x="1424.44" y="420.21" width="11.74" height="138.33"/>
      <rect class="cls-8" x="1444.06" y="525.31" width="11.74" height="33.23"/>
      <rect class="cls-8" x="1463.68" y="438.71" width="11.74" height="119.84"/>
      <rect class="cls-8" x="1483.29" y="459.46" width="11.74" height="99.09"/>
      <rect class="cls-8" x="1502.91" y="482.01" width="11.74" height="76.54"/>
      <rect class="cls-8" x="1522.53" y="392.25" width="11.74" height="166.3"/>
      <rect class="cls-8" x="1542.15" y="409.84" width="11.74" height="148.71"/>
      <rect class="cls-8" x="1561.77" y="436.45" width="11.74" height="122.09"/>
      <rect class="cls-8" x="1581.39" y="528.4" width="11.74" height="30.15"/>
    </g>
  </g>
</svg>