<?xml version="1.0" encoding="UTF-8"?><svg id="Layer_2" xmlns="http://www.w3.org/2000/svg" viewBox="0 0 595.47 180.37"><defs><style>.cls-1{fill:#fff;}</style></defs><circle class="cls-1" cx="368.01" cy="90.19" r="20.98"/><circle class="cls-1" cx="150.03" cy="90.19" r="20.98" transform="translate(-19.83 132.51) rotate(-45)"/><circle class="cls-1" cx="76.36" cy="90.19" r="20.98"/><circle class="cls-1" cx="224.96" cy="90.19" r="20.98" transform="translate(-11.54 37.2) rotate(-9.22)"/><path class="cls-1" d="m536.92,0H58.55C26.35,0,0,26.35,0,58.55v63.27C0,154.02,26.35,180.37,58.55,180.37h478.38c32.2,0,58.55-26.35,58.55-58.55v-63.27C595.47,26.35,569.13,0,536.92,0ZM76.36,123.7c-7.94,0-15.23-2.78-20.98-7.41v25.2c0,3.46-2.81,6.27-6.27,6.27s-6.27-2.8-6.27-6.27v-51.3c0-18.48,15.03-33.51,33.51-33.51s33.51,15.03,33.51,33.51-15.03,33.51-33.51,33.51Zm73.67,0c-18.48,0-33.51-15.03-33.51-33.51s15.03-33.51,33.51-33.51,33.51,15.03,33.51,33.51-15.03,33.51-33.51,33.51Zm74.93,0c-18.48,0-33.51-15.03-33.51-33.51v-51.3c0-3.46,2.81-6.27,6.27-6.27s6.27,2.81,6.27,6.27v25.2c5.75-4.63,13.04-7.41,20.98-7.41,18.48,0,33.51,15.03,33.51,33.51s-15.03,33.51-33.51,33.51Zm74.93-12.53c7.46,0,14.42-4.02,18.17-10.5,1.73-2.99,5.57-4.02,8.56-2.29,3,1.73,4.02,5.57,2.28,8.56-5.98,10.33-17.1,16.75-29.02,16.75-18.48,0-33.51-15.03-33.51-33.51s15.03-33.51,33.51-33.51c11.92,0,23.04,6.42,29.02,16.75,1.73,3,.71,6.83-2.28,8.56-3,1.74-6.83.71-8.56-2.28-3.75-6.47-10.71-10.5-18.17-10.5-11.57,0-20.98,9.41-20.98,20.98s9.41,20.98,20.98,20.98Zm68.12,12.53c-18.48,0-33.51-15.03-33.51-33.51s15.03-33.51,33.51-33.51,33.51,15.03,33.51,33.51-15.03,33.51-33.51,33.51Zm109.69-6.27c0,3.46-2.81,6.27-6.27,6.27s-6.27-2.8-6.27-6.27v-27.25c0-11.57-9.41-20.98-20.98-20.98s-20.98,9.41-20.98,20.98v27.25c0,3.46-2.81,6.27-6.27,6.27s-6.27-2.8-6.27-6.27v-27.25c0-18.48,15.03-33.51,33.51-33.51s33.51,15.03,33.51,33.51v27.25Zm68.66-20.98h-47.27c2.67,8.52,10.64,14.71,20.02,14.71,5.11,0,10.03-1.86,13.87-5.24,2.6-2.29,6.56-2.04,8.85.55,2.29,2.6,2.04,6.56-.55,8.85-6.13,5.4-14,8.38-22.16,8.38-18.48,0-33.51-15.03-33.51-33.51s15.03-33.51,33.51-33.51,33.51,15.03,33.51,33.51c0,3.46-2.81,6.27-6.27,6.27Z"/><path class="cls-1" d="m519.11,69.21c-9.39,0-17.35,6.2-20.02,14.71h40.05c-2.67-8.52-10.64-14.71-20.02-14.71Z"/></svg>