<?xml version="1.0" encoding="UTF-8"?>
<svg id="Layer_1" data-name="Layer 1" xmlns="http://www.w3.org/2000/svg" viewBox="0 0 500 180.32">
  <defs>
    <style>
      .cls-1 {
        fill: #fff;
      }
    </style>
  </defs>
  <path class="cls-1" d="M138.11,67.43c1.19,2.05,2.32,3.99,3.46,5.93,7.12,12.11,14.26,24.22,21.37,36.35,1.88,3.2,.68,7.5-2.6,9.68-3.08,2.05-7.36,1.46-9.48-1.59-1.97-2.84-3.63-5.89-5.39-8.87-7.92-13.45-15.83-26.91-23.73-40.37-.31-.53-.65-.72-1.26-.72-9.98,.02-19.95,.01-29.93,.01-.24,0-.48,.03-.87,.06,0,.41,0,.78,0,1.16,0,14.88,0,29.76,0,44.64,0,4.14-3,7.34-6.97,7.42-4.17,.08-7.46-3.04-7.59-7.2-.01-.39,0-.78,0-1.17,0-34.92,.02-69.84-.03-104.76,0-4.56,3.11-7.31,6.08-7.8,.42-.07,.84-.1,1.26-.1,17.09,0,34.18-.28,51.26,.08,13.07,.28,23.58,5.83,30.44,17.31,2.68,4.48,3.83,9.45,4.07,14.65,.38,8.07-1.48,15.49-6.49,21.96-5.21,6.73-12.16,10.73-20.37,12.67-1.02,.24-2.06,.42-3.23,.65Zm-48.35-14.09c.43,0,.78,0,1.12,0,13.83,0,27.66,.01,41.5,0,3.06,0,6.04-.57,8.9-1.68,11.68-4.55,16.09-18.57,8.89-28.58-4.2-5.83-10.29-8.33-17.27-8.4-14.01-.15-28.02-.04-42.03-.04h-1.11V53.33Z"/>
  <path class="cls-1" d="M410.09,91.72c0-.76,0-1.21,0-1.65,0-27.53,0-55.06,0-82.6,0-3.81,2.9-7.06,6.54-7.36,4.01-.34,7.41,2.17,8.12,6.01,.11,.59,.11,1.2,.11,1.79,0,35.06-.03,70.12,.05,105.18,.01,5.06-4.1,8.52-8.46,7.98-2.01-.24-3.58-1.23-4.79-2.83-11.15-14.82-22.31-29.63-33.45-44.46-10.87-14.46-21.73-28.92-32.6-43.38-.17-.22-.34-.43-.73-.92,0,.64,0,.96,0,1.29,0,27.39,0,54.78,.02,82.17,0,2.65-.67,4.98-2.81,6.67-2.26,1.79-4.81,2.02-7.39,.88-2.67-1.18-4.1-3.36-4.39-6.27-.03-.32-.02-.64-.02-.95,0-35.13,0-70.26,0-105.39,0-4.09,2.15-6.85,6.07-7.64,3.02-.61,5.43,.52,7.24,2.91,4.64,6.14,9.24,12.32,13.87,18.48,13.08,17.43,26.17,34.86,39.24,52.3,4.3,5.74,8.59,11.49,12.88,17.23,.08,.11,.18,.2,.51,.56Z"/>
  <path class="cls-1" d="M220.99,14.62V53.33c.51,0,.96,0,1.41,0,16.27,0,32.55,0,48.82,.01,3.62,0,6.47,2.58,7.02,6.25,.52,3.5-1.5,6.87-4.81,7.89-.79,.24-1.66,.35-2.5,.35-16.17,.02-32.33,.01-48.5,.01h-1.42v38.76c.49,0,.94,0,1.39,0,20.59,0,41.18,0,61.77,0,3.73,0,6.66,2.45,7.14,5.94,.55,3.95-1.56,7.37-5.2,8.35-.64,.17-1.33,.21-1.99,.21-23.38,.01-46.77,.01-70.15,.01-4.42,0-7.62-3.18-7.62-7.62,0-35.24,0-70.47,0-105.71,0-4.59,3.15-7.7,7.74-7.7,23.38,0,46.77,0,70.15,0,3.15,0,5.77,1.86,6.78,4.81,1.06,3.09,.11,6.39-2.39,8.28-1.44,1.09-3.11,1.44-4.89,1.44-17.33,0-34.67,0-52,0-3.53,0-7.06,0-10.73,0Z"/>
  <path class="cls-1" d="M334.23,171.74c0-.37,0-.75,0-1.12,0-7.07,0-14.13,0-21.2,0-1.46,.55-2.22,1.7-2.42,1.32-.22,2.42,.65,2.42,1.99,.01,9.72,0,19.43,.01,29.15,0,1.02-.48,1.68-1.39,2.03-.97,.37-1.75,.05-2.54-1-4.1-5.44-8.2-10.89-12.3-16.34-1.74-2.31-3.49-4.62-5.23-6.93-.12-.16-.27-.3-.63-.71,0,.65,0,1.01,0,1.38,0,7.14,0,14.28,0,21.41,0,1.59-.83,2.43-2.22,2.28-.97-.11-1.68-.82-1.78-1.8-.02-.21-.02-.42-.02-.64,0-9.47,0-18.94,0-28.41,0-1.51,.58-2.26,1.79-2.44,1.09-.16,1.7,.49,2.27,1.25,2.37,3.17,4.74,6.33,7.11,9.5,3.37,4.49,6.73,8.99,10.1,13.49,.15,.2,.3,.38,.45,.58,.08-.01,.16-.03,.24-.04Z"/>
  <path class="cls-1" d="M453.75,165.54c1.59,2.72,3.1,5.3,4.62,7.89,.68,1.16,1.37,2.31,2.03,3.48,.66,1.18,.38,2.33-.66,2.94-1.03,.6-2.16,.25-2.86-.93-2.42-4.1-4.85-8.21-7.24-12.33-.42-.72-.88-1.02-1.74-1-2.44,.06-4.88,.02-7.45,.02-.02,.45-.06,.86-.06,1.26,0,3.71,0,7.42,0,11.13,0,1.47-.79,2.29-2.07,2.26-1.01-.02-1.75-.62-1.94-1.62-.06-.31-.05-.63-.05-.95,0-9.36,0-18.73,0-28.09,0-2.01,.65-2.65,2.67-2.65,4.46,0,8.91-.02,13.37,0,5.47,.03,9.62,3.98,9.68,9.18,.06,4.34-2.65,7.88-6.9,9.04-.4,.11-.81,.21-1.38,.35Zm-13.15-14.61c-.09,.13-.12,.16-.12,.19-.03,3.31-.07,6.62-.06,9.94,0,.19,.43,.55,.66,.55,3.92,0,7.84,.01,11.76-.07,1.46-.03,2.76-.65,3.74-1.75,1.5-1.66,1.73-3.6,.88-5.62-.88-2.07-2.62-3.03-4.76-3.17-2.08-.13-4.17-.06-6.25-.07-1.97,0-3.95,0-5.85,0Z"/>
  <path class="cls-1" d="M157.63,155.23c0,1.14,0,1.94,0,2.75,0,6.61,0,13.21,0,19.82,0,1.55-.67,2.41-1.87,2.48-1.12,.06-1.99-.63-2.16-1.74-.04-.24-.03-.49-.03-.74,0-9.43,0-18.87,0-28.3,0-1.42,.43-2.14,1.41-2.44,1-.3,1.76,.03,2.59,1.14,5.65,7.55,11.31,15.09,16.96,22.64,.25,.33,.5,.66,.92,1.19,.04-.55,.08-.85,.08-1.14,0-7.03,0-14.06,0-21.09,0-.39-.01-.78,.05-1.16,.18-1.04,1.06-1.71,2.13-1.66,1.02,.05,1.82,.75,1.93,1.76,.06,.52,.04,1.06,.04,1.59,0,9.08,0,18.16,0,27.24,0,.46,.09,1.04-.14,1.34-.43,.54-1.01,1.09-1.64,1.32-.78,.28-1.49-.14-2.01-.83-3.22-4.29-6.46-8.57-9.69-12.86-2.63-3.5-5.26-7-7.89-10.5-.15-.19-.32-.37-.69-.79Z"/>
  <path class="cls-1" d="M133.2,168.35h-15.5c0,1.44,0,2.81,0,4.18,0,1.8,.02,3.6,0,5.41-.02,1.28-.82,2.12-1.99,2.16-1.2,.03-2-.72-2.14-2.02,0-.04-.01-.07-.01-.11,.03-7.1-.1-14.21,.15-21.3,.18-5.01,4.73-9.27,9.86-9.8,3.45-.36,6.7,.12,9.51,2.34,2.69,2.12,4.17,4.92,4.22,8.31,.09,6.78,.03,13.57,.02,20.35,0,1.4-.84,2.26-2.12,2.23-1.23-.03-1.99-.86-2-2.25,0-3.14,0-6.28,0-9.5Zm-.02-4.11c0-2.26,.08-4.37-.02-6.48-.17-3.72-2.46-6.27-6.15-6.87-5.27-.85-9.47,2.34-9.31,7.66,.04,1.48,.06,2.97-.02,4.45-.05,.95,.21,1.27,1.22,1.26,4.35-.06,8.7-.02,13.05-.02,.38,0,.76,0,1.23,0Z"/>
  <path class="cls-1" d="M415,168.34h-15.51c0,1.99,0,3.92,0,5.86,0,1.31,.02,2.62,0,3.92-.02,1.18-.78,1.93-1.91,1.97-1.12,.04-1.97-.67-2.12-1.79-.04-.28-.03-.56-.03-.85,0-6.32,.11-12.65-.03-18.97-.15-6.69,5.09-12.25,12.84-11.69,6.75,.49,10.89,5.02,10.9,11.78,0,6.36,0,12.72,0,19.08,0,1.53-.76,2.44-2.02,2.45-1.27,.01-2.04-.86-2.05-2.3,0-2.97-.01-5.93-.02-8.9,0-.17-.02-.33-.04-.56Zm-.07-4.17c0-2.59,.3-5.13-.07-7.58-.58-3.86-3.89-6.04-8.12-5.83-3.97,.2-6.81,2.75-7.16,6.61-.17,1.93-.03,3.88-.11,5.82-.04,.87,.29,1.06,1.1,1.06,4.49-.03,8.98-.01,13.48-.02,.31,0,.62-.04,.89-.06Z"/>
  <path class="cls-1" d="M480.64,165.62v10.73c.45,0,.86,0,1.27,0,5.34,0,10.68,0,16.03,0,.98,0,1.67,.41,1.95,1.31,.25,.82,.12,1.65-.64,2.18-.35,.25-.83,.42-1.26,.42-6.44,.03-12.88,.03-19.32,.01-1.37,0-2.1-.76-2.1-2.11,0-9.68,0-19.37,0-29.05,0-1.34,.74-2.13,2.09-2.13,6.44-.02,12.88-.02,19.32,0,1.28,0,1.99,.77,1.98,1.99,0,1.24-.74,1.96-2.12,1.96-5.31,.01-10.61,0-15.92,0q-1.35,0-1.36,1.4c0,2.72,.03,5.44-.02,8.16-.02,.87,.23,1.16,1.13,1.15,4.17-.04,8.35-.03,12.52-.01,1.27,0,2.01,.64,2.13,1.75,.14,1.37-.68,2.24-2.16,2.24-4.1,.01-8.21,0-12.31,0-.38,0-.76,0-1.21,0Z"/>
  <path class="cls-1" d="M78.87,150.93c0,2.31,0,4.46,0,6.61,0,1.02,.04,2.05-.01,3.07-.04,.79,.23,1.04,1.03,1.03,4.1-.03,8.2-.03,12.31,0,.57,0,1.23,.1,1.7,.4,.79,.49,1.04,1.33,.73,2.23-.33,.95-1.06,1.35-2.05,1.35-4.07,0-8.13,0-12.2,0-.45,0-.9,0-1.42,0v10.73c.44,0,.85,0,1.25,0,5.27,0,10.54,0,15.81,0,1.51,0,2.26,.63,2.28,1.89,.02,1.3-.79,2.03-2.27,2.04-6.29,0-12.59,0-18.88,0-1.51,0-2.23-.69-2.23-2.18,0-9.68,0-19.36,0-29.04,0-1.33,.68-2.07,2.01-2.07,6.47-.02,12.94-.02,19.41,0,1.19,0,1.92,.78,1.96,1.92,.03,1.18-.6,1.91-1.85,2.01-.81,.06-1.62,.02-2.44,.02-4.98,0-9.96,0-15.12,0Z"/>
  <path class="cls-1" d="M255.49,163.52c5.52,4.2,10.94,8.33,16.36,12.46,.08,.06,.17,.13,.25,.19,1.24,.96,1.53,2.17,.76,3.19-.7,.93-2.03,.97-3.21,.08-2.9-2.19-5.8-4.4-8.7-6.6-2.53-1.92-5.06-3.83-7.79-5.89-.02,.53-.05,.88-.05,1.24,0,3.25,0,6.5,0,9.75,0,.95-.26,1.76-1.19,2.19-1.09,.5-2.38-.08-2.71-1.24-.11-.4-.14-.84-.14-1.25,0-9.36,0-18.72,0-28.09,0-1.5,.5-2.28,1.6-2.52,1.38-.3,2.44,.6,2.45,2.16,.02,3.14,0,6.29,0,9.43,0,.38,0,.77,0,1.4,.47-.31,.81-.51,1.13-.74,5.25-3.95,10.5-7.9,15.74-11.86,.84-.64,1.68-.71,2.53-.1,.74,.53,.99,1.58,.56,2.48-.19,.39-.53,.74-.89,1.01-5.39,4.11-10.8,8.2-16.2,12.3-.14,.1-.26,.22-.49,.42Z"/>
  <path class="cls-1" d="M218.66,180.15c-3.25,.06-6.83-1.37-10.21-3.38-1.28-.76-1.66-1.98-1.04-3.03,.62-1.07,1.83-1.31,3.13-.47,3.18,2.07,6.63,3.11,10.43,2.89,2.09-.12,4.06-.57,5.6-2.15,1.7-1.75,1.74-4.05-.17-5.55-1.25-.98-2.76-1.71-4.24-2.32-2.51-1.03-5.15-1.77-7.63-2.86-1.62-.72-3.26-1.64-4.54-2.84-3.29-3.12-2.62-8.45,1.22-11.25,1.71-1.25,3.64-1.91,5.71-2.04,3.5-.23,6.93,.04,10.07,1.84,.82,.47,1.73,.8,2.56,1.27,1.15,.65,1.53,1.84,.98,2.87-.55,1.03-1.67,1.28-2.95,.72-1.96-.86-3.88-1.92-5.93-2.45-2.26-.58-4.65-.55-6.86,.46-.69,.32-1.36,.78-1.88,1.33-1.3,1.37-1.29,3.35,.2,4.49,1.27,.97,2.75,1.72,4.23,2.34,2.99,1.26,6.06,2.32,9.06,3.55,.87,.35,1.66,.95,2.4,1.53,4.84,3.8,3.54,10.76-1.46,13.45-2.48,1.33-5.13,1.71-8.67,1.61Z"/>
  <path class="cls-1" d="M370.51,180.17c-9.36-.07-16.86-7.85-16.56-17.22,.31-9.41,8.37-16.74,17.72-16.07,3.25,.23,6.19,1.37,8.81,3.3,1.19,.88,1.44,2.06,.69,3.12-.69,.96-1.92,1.04-3.09,.2-5.72-4.12-13.08-3.19-17.33,2.21-4.26,5.41-3.45,12.96,1.87,17.5,4.22,3.6,10.54,3.8,15.15,.49,.2-.14,.39-.31,.6-.44,1.05-.65,2.25-.43,2.9,.53,.59,.85,.38,2.15-.52,2.84-2.14,1.64-4.52,2.75-7.19,3.19-1.01,.17-2.03,.23-3.05,.35Z"/>
  <path class="cls-1" d="M16.52,180.1c-9.62-.01-16.93-7.9-16.5-17.79,.39-8.95,8.63-16.11,17.79-15.42,3.25,.25,6.19,1.37,8.76,3.4,1.17,.92,1.38,2.02,.62,3.01-.75,.97-1.92,1.06-3.1,.23-4.88-3.43-10.3-3.49-14.88-.16-5.6,4.06-6.82,11.92-2.72,17.53,4.11,5.64,11.73,6.81,17.4,2.73,.56-.4,1.34-.69,2.02-.68,.79,0,1.45,.55,1.66,1.41,.23,.96-.11,1.71-.88,2.32-2.71,2.16-6.44,3.42-10.16,3.41Z"/>
  <path class="cls-1" d="M40.76,163.66c0-4.74,.05-9.47-.03-14.21-.03-1.61,.96-2.5,2.1-2.49,1.25,.02,1.94,.87,1.94,2.5,0,8.52,.02,17.04-.02,25.55,0,1.05,.23,1.37,1.34,1.36,4.78-.07,9.55-.04,14.33-.03,1.14,0,1.91,.62,2.06,1.58,.15,.98-.34,1.88-1.24,2.21-.29,.1-.62,.13-.93,.13-5.77,0-11.53,0-17.3,0-1.55,0-2.24-.72-2.24-2.29,0-4.77,0-9.54,0-14.31Z"/>
  <path class="cls-1" d="M292.35,163.65c0,4.77,0,9.53,0,14.3,0,1.44-.72,2.29-1.9,2.33-1.16,.03-1.96-.64-2.09-1.79-.04-.35-.02-.71-.02-1.06,0-9.21,0-18.43,0-27.64,0-.21,0-.42,0-.64,.05-1.37,.84-2.21,2.06-2.18,1.17,.03,1.92,.86,1.95,2.18,.02,.74,0,1.48,0,2.22v12.28Z"/>
</svg>