<?xml version="1.0" encoding="utf-8"?>
<!-- Generator: Adobe Illustrator 26.4.1, SVG Export Plug-In . SVG Version: 6.00 Build 0)  -->
<svg version="1.1" id="Layer_1" xmlns="http://www.w3.org/2000/svg" xmlns:xlink="http://www.w3.org/1999/xlink" x="0px" y="0px"
	 viewBox="0 0 1000 155.5" style="enable-background:new 0 0 1000 155.5;" xml:space="preserve">
<style type="text/css">
	.st0{fill:#FFFFFF;}
</style>
<path class="st0" d="M218.5,13.6c0,0-9.1-7.1-25.9-7.1c0,0-23.3-2.6-38.6,17.2c0,0-10.7,10.1-19.8,43.1c0,0-9.7,34-17.2,50.2
	c0,0-8.8,15.2-20.7,23.3c0,0-16.5,14.9-44.4,14.9c0,0-11.7,1.9-28.9-5.2c0,0-13.6-6.2-23-17.8h5.2c0,0,14.3,14.9,41.2,14.9
	c0,0,24,4.9,39.5-18.8c0,0,11.3-12.3,18.8-43.1c0,0,8.8-27.5,14.9-39.9c0,0,7.1-15.6,24.6-30.5c0,0,11.7-12,33.7-14.6
	c0,0,17.8-2.9,40.5,8.1L218.5,13.6L218.5,13.6L218.5,13.6z M926.4,151.1c-30.5,0-41.2-7.5-41.2-7.5c-13.3-5.5-22.4-20.4-22.4-20.4
	c-10-16.2-9.1-37-9.1-37c0-22.4,9.1-34.7,9.1-34.7c6.5-12,21.4-20.1,21.4-20.1c29.5-13.3,42.1-9.7,42.1-9.7h1c0,0,12.6-3.6,42.2,9.7
	c0,0,14.6,8.1,21.4,20.1c0,0,9.1,12.3,9.1,34.7c0,0,1,20.7-9.1,37c0,0-9.1,14.9-22.4,20.4c0,0-10.7,7.5-41.2,7.5H926.4L926.4,151.1z
	 M927.4,143.9c26.9,0,39.5-15.6,39.5-15.6c14.3-14.9,13.3-44.7,13.3-44.7c0-29.5-15.2-41.2-15.2-41.2
	c-14.3-14.3-37.6-11.7-37.6-11.7h-1c0,0-23.3-2.6-37.6,11.7c0,0-15.2,11.7-15.2,41.2c0,0-1,29.8,13.3,44.7c0,0,12.6,15.6,39.5,15.6
	H927.4L927.4,143.9z M759.8,22.7c31.5,0,44.1,9.7,44.1,9.7c19.5,10.7,22,19.8,22,19.8c11.7,15.6,9.4,35,9.4,35
	c0,27.9-11.7,37.6-11.7,37.6c-9.4,14.3-22.4,18.8-22.4,18.8c-13.6,5.5-40.5,5.5-40.5,5.5h-48.6V22.7H759.8L759.8,22.7z M732.9,30.8
	v111.8h27.9c0,0,20.4,1.9,32.4-7.1c0,0,14.3-7.1,18.8-20.4c0,0,3.6-13.3,3.6-25.9c0,0,2.3-16.2-4.8-30.8c0,0-5.2-11.7-14.9-17.8
	c0,0-9.7-9.7-33.1-9.7L732.9,30.8L732.9,30.8z M541.3,22.7v124.5h101.8v-7.8h-76.8V87.2h60v-7.8h-60V30.8h76.8v-8.1H541.3
	L541.3,22.7z M532.2,24.7c0,0-8.4-6.2-19.8-6.2s-25.3,6.8-30.8,12.3c0,0-11.4,8.8-22,29.8c0,0-8.1,13.9-15.2,33.1
	c0,0-6.5,18.5-10,29.5c0,0-7.1,18.2-16.9,20.4c0,0-20.1,7.5-35.3-8.1v3.9c0,0,13,12.3,21.7,12.3c0,0,12,2.9,26.9-4.5
	c0,0,13.6-7.1,24-27.9c0,0,9.1-17.5,17.2-41.8c0,0,8.1-28.8,11.7-33.1c0,0,6.2-13,16.2-17.8c0,0,6.2-2.9,13.3-2.9
	c0,0,5.5-1,19.1,3.6L532.2,24.7L532.2,24.7L532.2,24.7z M686.5,21.8v125.8h-23.7V21.8H686.5z M365.6,21.8v125.8H342V21.8H365.6z
	 M204.9,21.8v125.4h23.3v-60h69v60h24V21.8h-23.7v56.7h-69.4V21.8H204.9L204.9,21.8z"/>
</svg>
