<?xml version="1.0" encoding="UTF-8"?>
<svg id="layer" xmlns="http://www.w3.org/2000/svg" viewBox="0 0 520.58 497.57">
  <defs>
    <style>
      .cls-1 {
        fill: #fff;
      }
    </style>
  </defs>
  <path class="cls-1" d="M268.32,382.13h-3.9l.23,11.7c0,3.44-1.61,5.51-4.82,5.51h0c-2.98,0-4.82-2.07-4.82-5.51l-.23-11.7h-3.9l.23,11.7c0,5.74,3.21,8.95,8.72,8.95h.23c5.51,0,8.72-3.44,8.72-9.41l-.46-11.25h0Z"/>
  <path class="cls-1" d="M289.44,386.49h0c-.23-1.84-.92-3.21-2.3-4.36-1.61-1.15-3.67-1.61-6.2-1.38l-9.18,1.15,2.52,20.43,3.9-.46-.92-6.89,4.13-.46,5.74,6.43h0l4.59-.46-6.43-6.89c2.98-1.84,4.36-4.13,4.13-7.11m-3.9,.46c0,.92-.23,1.84-.69,2.52-.69,.69-1.61,1.15-2.75,1.15l-5.05,.69-.69-6.43,5.05-.69c2.3-.23,3.9,.92,4.13,2.75h0Z"/>
  <path class="cls-1" d="M301.83,376.62l-3.44,.92-3.9,21.8v.23l3.9-.92,.92-5.28,8.95-2.07,3.21,4.36,3.9-.92-13.54-18.13h0Zm4.36,11.7l-6.2,1.61,1.38-8.03,4.82,6.43Z"/>
  <polygon class="cls-1" points="322.03 388.55 316.29 372.72 312.62 373.87 319.5 393.14 319.5 393.14 333.04 388.32 331.89 384.88 322.03 388.55"/>
  <path class="cls-1" d="M207.5,411.51c.23-.92,1.15-1.61,2.52-1.61,.46,0,.69,0,1.15,.23,1.84,.46,3.21,1.38,4.82,3.21l.23,.23,2.75-2.52v-.23c-1.84-2.3-3.9-3.44-6.66-4.13-.69-.23-1.38-.23-2.07-.23-3.21,0-5.51,1.84-6.2,4.59h0c-.69,2.75,0,5.05,5.28,7.57,3.44,1.61,3.9,2.52,3.67,3.9h0c-.23,1.15-1.15,1.84-2.52,1.84-.46,0-.92,0-1.38-.23-2.3-.46-3.9-1.84-5.51-3.9v-.23l-2.98,2.3v.23c1.84,2.75,4.59,4.36,7.57,5.05,.92,.23,1.61,.23,2.3,.23,3.21,0,5.51-1.84,6.2-4.59h0c.69-2.98-.69-5.28-5.05-7.34-3.9-2.3-4.36-2.98-4.13-4.36h0Z"/>
  <polygon class="cls-1" points="224.49 409.44 224.03 413.11 230.45 413.8 228.16 430.55 228.16 430.78 232.06 431.24 234.12 414.49 240.55 415.18 241.01 411.51 224.49 409.44"/>
  <path class="cls-1" d="M256.62,411.73h-.23c-5.97,0-10.56,4.36-10.79,10.33h0c0,2.75,.92,5.51,2.75,7.57,1.84,2.07,4.59,3.21,7.57,3.21h.23c5.97,0,10.56-4.36,10.79-10.33h0c.46-5.97-4.13-10.56-10.33-10.79m-6.89,10.56c0-3.9,2.98-6.89,6.66-6.89h.23c1.84,0,3.67,.92,4.82,2.3s1.84,3.21,1.84,5.05h0c0,3.9-2.98,6.89-6.89,6.89-1.84,0-3.67-.92-4.82-2.3-1.38-1.38-1.84-3.21-1.84-5.05h0Z"/>
  <path class="cls-1" d="M290.35,416.55h0c-.23-1.84-.92-3.21-2.3-4.36-1.61-1.15-3.67-1.61-6.2-1.38l-9.18,.92,2.07,20.2v.23l3.9-.46-.69-7.11,4.13-.46,5.74,6.43h0l4.59-.46-6.2-7.11c2.98-.92,4.59-3.21,4.13-6.43m-3.9,.69h0c.23,2.07-1.15,3.44-3.67,3.67l-5.05,.46-.69-6.43,5.05-.46c2.52-.23,4.13,.69,4.36,2.75"/>
  <polygon class="cls-1" points="305.27 415.87 297.93 408.52 297.93 408.52 293.57 409.44 304.12 420 305.96 427.8 309.63 427.11 308.03 419.08 313.07 405.54 313.3 405.31 308.94 406.23 305.27 415.87"/>
  <path class="cls-1" d="M403.73,364.92c1.84-2.3,3.44-5.05,4.82-7.57s2.98-5.05,4.82-7.34c2.07-2.75,4.13-5.28,6.2-7.8,.23-.23,.23-.69,.23-.92s-.23-.69-.46-.92l-1.61-1.15c-.46-.46-1.15-.23-1.61,.23-3.21,3.44-4.59,3.44-7.8,1.15l-35.34-26.39c-3.67-2.75-3.9-4.82-1.38-8.26,.23-.23,.23-.69,.23-.92s-.23-.69-.46-.69l-1.61-1.15c-.23-.23-.69-.23-.92-.23s-.69,.23-.92,.46c-1.61,2.52-3.21,4.82-5.05,7.34-2.98,4.13-5.74,7.57-8.26,10.56-.23,.23-.23,.69-.23,.92s.23,.69,.46,.92l1.61,1.15c.46,.46,1.15,.23,1.61-.23,3.67-4.59,5.51-4.82,9.41-1.84l38.79,28.92c-1.15,2.07-2.3,3.9-3.44,5.51-7.34,9.64-16.29,11.7-25.02,5.05-2.75-2.07-4.82-5.05-5.28-8.03-.69-3.21,.23-6.43,2.3-9.18,1.61-2.3,4.59-5.05,6.89-5.28,.46,0,.92-.46,1.15-.92,0-.46-.23-.92-.69-1.38l-2.98-1.61c-.46-.23-.92-.23-1.15,0-3.21,1.84-5.74,3.9-7.8,6.43-3.44,4.59-5.05,10.1-4.59,15.38,.46,5.51,3.44,10.33,8.03,13.77,4.13,3.21,8.26,4.59,12.39,4.59,6.43,.23,12.39-3.44,17.67-10.56"/>
  <path class="cls-1" d="M415.89,246.72c-2.3-.46-4.59-.69-6.89-.69-16.07,0-30.52,11.93-33.97,28.46-1.84,8.95-.23,18.59,4.36,26.39,4.82,8.26,12.62,13.77,21.8,15.61,2.3,.46,4.59,.69,7.11,.69,16.07,0,30.29-11.93,33.97-28.46,3.67-19.28-8.03-38.1-26.39-42m20.89,40.85c-2.52,11.93-12.39,18.82-26.62,18.82-2.98,0-6.2-.23-9.18-.92-15.84-3.44-23.64-14.92-20.43-30.07,2.52-11.93,12.62-19.05,26.62-19.05,2.98,0,5.97,.23,8.95,.92,15.61,3.44,23.64,15.15,20.66,30.29"/>
  <path class="cls-1" d="M370.91,185.67c-.23-.46-.92-.92-1.38-.69l-1.84,.46c-.23,0-.69,.23-.69,.69-.23,.23-.23,.69,0,.92,1.15,2.75,2.07,5.97,2.98,8.95,.46,2.07,.92,3.9,1.38,5.97,.23,1.38,.69,2.98,1.15,4.59,0,.23,.23,.69,.46,.69,.23,.23,.69,.23,.92,.23l1.84-.46c.69-.23,.92-.69,.92-1.38-.69-3.9-.46-5.51,3.44-6.66l20.89-5.97,8.72,30.07-20.89,5.97c-3.67,1.15-4.82,0-6.43-3.9-.23-.46-.92-.92-1.38-.69l-1.84,.46c-.23,0-.69,.23-.69,.69-.23,.23-.23,.69,0,.92,1.15,2.75,2.07,5.74,2.98,8.72,.46,2.07,.92,3.9,1.61,5.97,.46,1.61,.69,3.21,1.15,4.59,0,.23,.23,.69,.46,.69s.46,.23,.69,.23h.23l1.84-.46c.69-.23,.92-.69,.92-1.38-.92-3.9-.69-5.51,3.21-6.66l42.46-12.16c.92-.23,1.61-.46,2.3-.46,1.38,0,3.21,.46,4.59,4.13,.23,.69,.92,.92,1.38,.69l1.84-.46c.23,0,.46-.23,.69-.69,.23-.23,.23-.69,0-.92-.23-.92-.69-2.07-.92-2.98-.69-1.84-1.15-3.9-1.84-5.97-.92-3.44-2.07-7.11-2.75-10.56,0-.23-.23-.69-.46-.69-.23-.23-.69-.23-.92-.23l-1.84,.46c-.69,.23-.92,.69-.92,1.38,.92,3.9,0,5.51-3.9,6.66l-16.07,4.59-8.72-30.07,16.07-4.59c.92-.23,1.84-.46,2.52-.46,1.61,0,3.21,.46,4.36,4.13,.23,.69,.92,.92,1.38,.92l1.84-.46c.23,0,.69-.23,.69-.69,.23-.23,.23-.69,0-.92l-.92-2.75c-.69-1.84-1.15-3.67-1.84-5.74-.69-2.52-1.38-4.82-1.84-7.34-.23-1.15-.69-2.52-.92-3.67,0-.23-.23-.69-.46-.69-.23-.23-.69-.23-.92,0l-1.84,.46c-.69,.23-.92,.69-.92,1.38,.92,3.67,.46,5.51-3.67,6.66l-42.69,12.16c-3.21,1.15-4.59,.69-6.43-3.67"/>
  <path class="cls-1" d="M380.55,176.72c8.26-7.11,5.28-18.13,2.52-27.77-2.3-8.26-5.05-16.98,0-21.34,1.38-1.15,2.98-1.84,4.59-1.84,4.36,0,8.03,3.9,9.41,5.74,3.67,4.36,5.74,14,2.3,19.51-.23,.46-.23,1.15,0,1.61l1.38,1.61c.23,.23,.46,.46,.92,.46s.69-.23,.92-.46l8.26-9.18c.46-.46,.46-1.15,0-1.61l-1.38-1.84c-.23-.46-.92-.46-1.38-.46-.23,0-.46,.23-.69,.23-.23-.23-.46-.69-.46-1.38-1.38-4.59-3.21-8.03-5.74-11.25-4.59-5.74-10.56-8.95-16.07-8.95-3.67,0-7.11,1.38-10.1,3.9-8.26,7.11-4.82,17.67-2.07,26.39,2.52,8.26,4.82,16.07-1.38,21.34-2.3,2.07-4.59,2.98-6.89,2.98-3.67,0-7.57-2.3-10.79-6.2-5.05-6.43-5.74-16.07-1.15-22.26,.46-.46,.23-1.15,0-1.61l-1.61-1.84c-.23-.23-.46-.46-.92-.46s-.69,.23-.92,.46l-10.56,11.48c-.46,.46-.46,1.15,0,1.61l1.38,1.84c.23,.46,.92,.46,1.38,.46h.46c.23,.46,.46,.92,.92,1.61,.23,.46,.23,.69,.46,.92,1.84,3.9,3.9,7.57,6.66,10.79,5.05,6.2,12.39,9.87,19.28,9.87,3.9,0,8.03-1.38,11.25-4.36"/>
  <path class="cls-1" d="M286.22,129.21c2.98,1.38,6.43,2.75,9.87,4.13s6.89,2.75,9.87,3.9c2.98,1.38,5.74,2.52,8.26,3.9,2.75,1.38,5.51,2.52,8.26,3.9,.46,.23,.92,.23,1.38,.23,2.98,0,5.05-3.21,6.43-5.51,.46-.69,.69-1.15,1.15-1.61s.23-1.38-.23-1.61l-1.38-1.15c-.46-.46-1.15-.46-1.61,0-1.38,1.15-3.21,1.61-5.74,1.61-5.51-.23-11.93-2.98-15.15-4.36-2.07-.92-3.9-1.61-4.36-2.52-.23-.46-.46-1.38,.69-4.36l7.8-18.36,13.77,5.97c1.61,.69,5.05,2.75,3.21,6.66-.23,.23-.23,.69,0,.92,.23,.23,.46,.46,.69,.69l1.84,.69c.23,.23,.69,.23,.92,0,.23-.23,.46-.46,.69-.69l.92-2.3c.69-1.61,1.15-3.21,1.84-4.82,.46-1.15,1.15-2.52,1.84-3.67l.92-1.84c.23-.23,.23-.69,0-.92,0-.23-.46-.46-.69-.69l-1.84-.69c-.69-.23-1.15,0-1.61,.46-1.15,2.3-2.75,2.52-6.66,.92l-13.77-5.74,8.72-20.2c4.13,1.84,8.26,3.9,12.85,6.43,3.9,2.07,6.43,4.36,6.89,8.26,0,.46,.46,.92,.92,1.15l1.61,.46c.23,0,.69,0,.92-.23,.23-.23,.46-.46,.46-.69,.23-.92,.46-1.84,.69-2.52,.92-4.13,1.84-7.11-3.9-9.64-1.84-.69-4.13-1.61-6.66-2.52-2.3-.92-4.82-1.84-6.43-2.52-3.67-1.61-6.66-2.98-9.64-4.36-2.98-1.38-5.97-2.75-9.64-4.36-.23-.23-.69-.23-.92,0-.23,.23-.46,.46-.69,.69l-.69,1.61c-.23,.46,0,1.15,.46,1.61,3.9,2.07,4.59,3.21,2.75,7.34l-16.75,39.02c-2.07,4.82-3.44,5.28-7.57,3.9-.69-.23-1.15,0-1.61,.69l-.69,1.84c.69-.23,.92,.69,1.61,.92"/>
  <path class="cls-1" d="M257.3,131.51h2.3c.23,0,22.95-.92,24.79-10.33,.46-1.38,.46-2.75,.69-3.9,0-.69,.23-1.15,.23-1.61,0-.23,0-.69-.23-.92-.23-.23-.46-.46-.92-.46l-2.3-.23c-.69,0-.92,.23-1.15,.69-4.59,9.64-15.84,11.02-20.66,11.25-16.75,.46-28.23-11.7-28.92-30.07-.23-7.34,1.84-14,5.97-19.05,4.36-5.28,10.56-8.26,17.9-8.49h2.07c4.82,0,16.75,1.38,21.11,11.02,.23,.46,.69,.69,1.15,.69h2.07c.46,0,.69-.23,.92-.46,.23-.23,.23-.69,.23-.92l-2.07-13.08c0-.69-.69-1.15-1.15-.92h-1.84c-.46,0-.69,.23-.92,.46l-.23,.46c0,.23-.23,.46-.23,.46h-.46c-6.43-2.3-12.62-3.21-19.51-2.98-9.87,.23-18.82,4.13-25.48,10.79-6.66,6.66-10.1,15.84-9.64,25.48,.69,20.2,19.28,31.67,36.26,32.13"/>
  <path class="cls-1" d="M190.98,149.64v-.92l-.92-1.84c-.23-.69-1.15-.69-1.61-.46-2.07,1.15-3.9,1.15-4.59-.46-.69-1.15-.92-3.44-.92-4.36l-.92-10.1,19.05-10.33,8.95,7.11c.69,.69,1.84,1.61,2.3,2.52,.46,.92,.46,1.61,.23,1.84-.23,.69-1.15,1.38-2.52,2.07-.23,.23-.46,.46-.69,.69v.92l.92,1.84c.23,.23,.46,.46,.69,.69h.92c1.15-.69,2.52-1.38,3.67-2.07,1.84-1.15,3.67-2.07,5.51-3.21,1.61-.92,3.44-1.84,5.28-2.52,1.15-.46,2.3-1.15,3.44-1.84,.23-.23,.46-.46,.69-.69v-.92l-.92-1.84c-.23-.46-.92-.69-1.61-.46-3.44,1.61-5.51,1.15-8.72-1.38l-43.15-34.2c-1.38-1.15-3.44-1.84-5.28-.92-.92,.46-1.84,.92-2.75,1.61-.92,.46-1.61,.92-2.52,1.38-.69,.23-1.38,.69-2.07,.92-.23,.23-.46,.46-.69,.69-.23,.23,0,.69,0,.92l.92,1.61c.23,.69,1.15,.69,1.61,.46,.23,0,.46-.23,.69-.23,.92,0,2.98,.46,7.34,3.67l3.21,42.92c.46,4.82,.69,9.18-3.44,11.48-.46,.23-.69,1.15-.46,1.61l.92,1.84,.69,.69h.23c.23,0,.46,0,.69-.23,.69-.46,1.61-.92,2.3-1.38,1.61-.92,2.98-1.84,4.59-2.52,2.52-1.38,5.28-2.75,8.03-3.9,.69-.23,.92-.46,.92-.69m-9.64-24.1l-1.84-21.11,16.75,13.08-14.92,8.03Z"/>
  <path class="cls-1" d="M167.34,167.31c-.46-.46-1.15-.46-1.61,0-3.67,3.67-5.28,4.59-9.41,1.15l-14.92-12.85,9.87-11.25c2.52-2.98,4.82-3.21,7.57-.92,.46,.46,1.38,.46,1.61-.23l1.15-1.38c.23-.23,.23-.46,.23-.92,0-.23-.23-.69-.46-.92l-2.07-1.61c-1.38-1.15-2.75-2.07-4.13-3.21-1.61-1.38-2.98-2.52-4.36-4.13-.23-.23-.46-.46-.92-.46h0c-.23,0-.69,.23-.92,.46l-1.15,1.38c-.46,.46-.46,1.15,0,1.61,1.84,1.84,1.61,3.44-1.15,6.66l-9.64,11.25-16.75-14.46c3.21-3.67,6.43-7.11,9.64-10.1,2.75-2.52,6.2-5.28,10.33-4.36,.46,.23,.92,0,1.38-.46l.92-1.38c.23-.23,.23-.69,.23-.92s-.23-.69-.46-.69c-.46-.23-1.15-.69-1.61-1.15-1.84-1.15-3.9-2.52-6.2-2.52-1.61,0-2.98,.69-4.13,2.07-1.38,1.61-2.75,3.44-4.13,5.05s-2.52,3.44-3.9,5.05c-4.59,5.28-9.41,10.79-15.61,17.21-.23,.23-.23,.46-.23,.92,0,.23,.23,.69,.46,.92l1.38,1.15c.46,.46,1.15,.46,1.61,0,3.21-3.21,4.59-3.21,8.26,0l32.13,27.77c3.44,2.98,3.67,4.82,1.15,8.26-.46,.46-.23,1.15,.23,1.61l1.61,1.38c.23,.23,.46,.23,.69,.23h0c.23,0,.69-.23,.92-.46,1.15-1.38,2.3-2.75,3.44-4.36,1.15-1.38,2.3-2.75,3.44-4.13,1.61-1.84,3.21-3.67,4.82-5.28,.92-.92,1.61-1.84,2.52-2.75,.23-.23,.23-.46,.23-.92,0-.23-.23-.69-.46-.92l-1.61-1.38Z"/>
  <path class="cls-1" d="M77.37,228.13l1.84,.46c.69,.23,1.15-.23,1.38-.69,1.38-3.9,2.3-4.36,4.36-4.36,.69,0,1.61,.23,2.75,.46l41.08,10.33c4.59,1.15,5.97,2.3,5.05,6.89,0,.69,.23,1.15,.92,1.38l1.84,.46h.23c.23,0,.46,0,.69-.23s.46-.46,.46-.69c.69-3.21,1.61-6.89,2.3-10.33,.69-3.67,1.61-7.11,2.3-10.56,.69-3.21,1.61-5.97,2.52-8.72,.92-2.75,1.61-5.74,2.52-8.95,.92-3.67-3.44-5.74-6.43-7.11-.69-.23-1.38-.46-1.61-.69-.46-.23-1.38-.23-1.61,.46l-.92,1.61c-.23,.46-.23,1.15,.23,1.38,4.82,4.36,1.61,16.52,.69,21.11-1.15,4.59-1.84,5.28-3.44,5.05-.69,0-1.61-.23-2.75-.46l-19.28-4.82,3.67-14.46c.23-1.38,1.61-4.59,4.82-4.59,.46,0,.92,0,1.38,.23,.23,0,.69,0,.92-.23,.23-.23,.46-.46,.46-.69l.46-1.84c0-.23,0-.69-.23-.92s-.46-.46-.69-.46l-2.52-.46c-1.61-.23-3.21-.69-5.05-1.15-1.38-.23-2.52-.69-3.9-1.15-.69-.23-1.38-.46-2.07-.69h-.92c-.23,.23-.46,.46-.46,.69l-.46,1.84c-.23,.69,.23,1.15,.92,1.38,2.52,.69,2.98,2.52,2.07,6.43l-3.67,14.46-21.34-5.28c1.15-4.36,2.52-8.95,4.36-13.77,1.38-4.36,3.21-7.11,7.11-8.26,.46-.23,.92-.69,.92-1.15v-1.61c0-.23,0-.69-.23-.92s-.46-.46-.92-.46c-.92,0-1.84-.23-2.75-.23s-1.61-.23-2.3-.23c-2.98,0-5.28,.92-6.43,5.51-.46,1.84-.92,4.36-1.61,6.89-.46,2.52-.92,5.05-1.38,6.89-.92,3.67-1.84,6.89-2.75,10.1s-1.84,6.43-2.75,10.33c-.92,.92-.46,1.61,.23,1.84"/>
  <path class="cls-1" d="M145.99,306.62c.23,.46,.69,.92,1.38,.69l2.07-.46c.23,0,.69-.23,.69-.69,.23-.23,.23-.69,0-.92-1.15-2.75-1.84-5.97-2.52-9.18-.46-2.07-.69-3.9-1.15-5.97-.23-1.61-.46-2.98-.92-4.59,0-.23-.23-.69-.46-.69-.23-.23-.69-.23-.92-.23l-2.07,.46c-.69,.23-.92,.69-.92,1.38,.46,3.9,0,5.51-3.67,6.43l-21.11,4.82-6.89-30.52,21.11-4.82c3.67-.92,4.82,.23,6.2,4.36,.23,.69,.69,.92,1.38,.69l2.07-.46c.23,0,.69-.23,.69-.69,.23-.23,.23-.69,0-.92-1.15-2.98-1.84-5.97-2.52-8.95-.46-2.07-.92-4.13-1.15-6.2-.23-1.61-.46-3.21-.92-4.59,0-.23-.23-.69-.46-.69-.23-.23-.69-.23-.92-.23l-2.07,.46c-.69,.23-.92,.69-.92,1.38,.69,3.9,.23,5.74-3.44,6.43l-43.15,9.87c-.69,.23-1.38,.23-2.07,.23-1.61,0-3.67-.46-4.59-4.36-.23-.69-.69-.92-1.38-.92l-1.84,.46c-.23,0-.69,.23-.69,.46-.23,.23-.23,.69-.23,.92l.69,2.98c.46,2.07,1.15,3.9,1.61,5.97,.92,3.67,1.61,7.34,2.3,10.79,0,.23,.23,.69,.46,.92,.23,.23,.69,.23,.92,.23l1.84-.46c.69-.23,1.15-.69,.92-1.38-.69-4.13,.23-5.51,4.13-6.43l16.29-3.67,6.89,30.52-16.29,3.67c-.92,.23-1.61,.23-2.3,.23-1.84,0-3.44-.46-4.36-4.36-.23-.69-.69-1.15-1.38-.92l-1.84,.46c-.23,0-.69,.23-.69,.46-.23,.23-.23,.69-.23,.92l.69,2.75c.46,1.84,1.15,3.9,1.38,5.74,.46,2.52,1.15,4.82,1.61,7.34,.23,1.38,.46,2.52,.69,3.9,0,.23,.23,.69,.46,.69,.23,.23,.46,.23,.69,.23h.23l1.84-.46c.69-.23,.92-.69,.92-1.38-.69-3.67-.23-5.51,4.13-6.43l43.15-9.87c3.9-.46,5.05,.23,6.66,4.59"/>
  <path class="cls-1" d="M166.88,325.67c-1.15-1.61-2.52-3.21-3.67-4.82-1.15-1.61-2.3-3.44-3.44-5.05-.69-1.15-1.61-2.3-2.3-3.44-.23-.23-.46-.46-.69-.46s-.69,0-.92,.23l-1.61,1.15c-.46,.46-.69,1.15-.23,1.61,2.52,3.9,2.3,5.05-1.61,8.03l-38.56,27.77-.23-.46c-2.75-3.67-10.79-14.92-7.11-19.28,.46-.46,.46-1.15,0-1.61l-1.38-1.15c-.46-.46-1.15-.46-1.61,0s-1.15,1.15-1.61,1.61c-2.75,2.75-5.74,5.51-2.52,10.1,2.07,2.75,4.13,5.51,6.2,8.26,2.07,2.75,4.13,5.51,6.2,8.26,2.3,3.21,4.59,6.66,6.89,9.87,2.3,3.44,4.59,6.66,7.11,10.1,.92,1.38,2.52,2.07,4.13,2.07,2.07,0,4.36-1.15,6.2-2.07,.46-.23,.92-.46,1.38-.69,.23-.23,.46-.46,.69-.69v-.92l-.92-1.61c-.23-.46-.92-.69-1.38-.69-5.51,1.61-12.85-8.49-16.07-13.31h0l37.64-28c3.67-2.75,5.28-2.52,8.03,.92,.46,.46,1.15,.69,1.61,.23l1.61-1.15c.23-.23,.46-.46,.46-.69s0-.69-.23-.92c-.46-1.15-1.38-2.3-2.07-3.21"/>
  <path class="cls-1" d="M514.35,274.03c-1.84-1.61-4.13-2.52-6.43-3.21,.69-7.11,.92-14.46,.92-21.8s-.46-14.69-.92-21.8c2.3-.69,4.59-1.61,6.43-3.21,3.67-2.75,5.74-6.66,5.97-10.79,.46-8.95-5.05-12.62-8.72-13.54,3.9-20.2,.92-40.39-8.49-56.69-7.11-12.16-18.82-22.49-35.34-31.21-13.54-20.43-29.84-38.56-48.66-54.16,2.52-3.44,3.67-7.8,2.98-12.16-.92-6.43-5.05-11.93-11.25-14.46-5.97-2.52-12.16-2.52-18.36,.23-2.3,.92-4.13,2.3-5.97,3.67C349.34,12.62,306.19,0,260.06,0s-89.28,12.62-126.46,34.66c-1.84-1.38-3.67-2.52-5.97-3.67-6.2-2.75-12.39-2.75-18.36-.23-6.2,2.52-10.33,8.03-11.25,14.46-.69,4.59,.46,8.95,2.98,12.16-18.59,15.61-34.88,33.97-48.43,54.16-16.75,8.72-28.46,19.05-35.34,31.21-9.41,16.29-12.39,36.49-8.49,56.69-3.9,.92-9.18,4.36-8.72,13.54,.23,4.13,2.3,8.03,5.97,10.79,1.84,1.61,4.13,2.52,6.43,3.21-.69,7.11-.92,14.46-.92,21.8s.46,14.69,.92,21.8c-2.3,.69-4.59,1.84-6.43,3.21-3.67,2.75-5.74,6.66-5.97,10.79-.46,8.95,5.05,12.62,8.72,13.54-3.9,20.2-.92,40.39,8.49,56.69,7.11,12.16,18.82,22.49,35.34,31.21,13.54,20.43,29.84,38.56,48.66,54.16-2.52,3.44-3.67,7.8-2.98,12.16,.92,6.43,5.05,11.93,11.25,14.46,2.75,1.15,5.74,1.84,8.72,1.84,3.21,0,6.43-.69,9.64-2.07,2.3-.92,4.13-2.3,5.97-3.67,36.95,22.03,80.33,34.66,126.46,34.66s89.28-12.62,126.46-34.66c1.84,1.38,3.67,2.52,5.97,3.67,3.21,1.38,6.43,2.07,9.64,2.07,2.98,0,5.97-.69,8.72-1.84,6.2-2.52,10.33-8.03,11.25-14.46,.69-4.59-.46-8.95-2.98-12.16,18.82-15.61,35.11-33.74,48.66-54.16,16.75-8.72,28.46-19.05,35.34-31.21,9.41-16.29,12.39-36.49,8.49-56.69,3.9-.92,9.18-4.36,8.72-13.54-.46-3.9-2.52-7.8-6.2-10.56m-51.41-164.79c-5.28-2.52-11.25-5.05-17.44-7.34-11.48-14.46-24.33-27.31-38.79-38.79,3.21,.23,6.66-.92,9.41-2.75,.46-.23,.92-.69,1.15-1.15,17.44,14.46,32.82,31.44,45.67,50.03m-59.21-37.41l-2.07,2.52c-.46-.92-.92-1.61-1.15-2.52-.46-1.15-.92-2.3-1.15-3.67,1.38,1.38,2.75,2.52,4.36,3.67m1.61,1.38c1.38,1.15,2.75,2.3,4.13,3.67l-3.44,3.9c-1.15-1.38-2.3-2.75-3.44-4.36l2.75-3.21Zm5.74,5.05c1.38,1.15,2.52,2.3,3.67,3.44l-3.67,3.9c-1.38-1.15-2.52-2.3-3.67-3.44l3.67-3.9Zm5.28,4.82c1.38,1.15,2.75,2.52,3.9,3.9l-3.21,3.21c-1.61-.92-2.98-2.07-4.36-3.21l3.67-3.9Zm5.51,5.28c2.52,2.52,5.05,5.28,7.34,7.8-3.67-1.38-7.11-3.21-10.1-5.05l2.75-2.75Zm-28-53.7c2.75-1.15,5.51-1.84,8.03-1.84s4.82,.46,7.11,1.61c4.82,2.07,8.03,6.2,8.72,11.48,.69,4.59-1.15,8.95-4.36,11.48-2.98,2.3-7.11,2.52-9.64,1.38-.92-.46-2.52-1.38-3.21-3.21,.69-1.15,1.84-2.75,3.44-4.36,.92-.69,.92-2.07,0-2.75-.69-.92-2.07-.92-2.75,0-2.52,2.3-3.9,4.82-4.59,5.97h0v.23c0,.23-.23,.23-.23,.23h0c-2.75,5.74-2.75,12.16,0,18.59,5.05,12.16,19.74,23.18,38.1,29.15,33.28,10.56,54.39,24.33,64.72,42.23,9.18,15.61,11.93,34.88,8.03,54.39-2.98,.23-6.89,1.84-8.03,7.11-.23,1.15,.46,2.07,1.61,2.3s2.07-.46,2.3-1.61c1.15-4.82,5.28-4.13,6.43-3.9,.69,0,6.89,.92,6.43,9.41-.23,2.98-1.61,5.74-4.36,7.8-3.21,2.52-7.8,3.67-11.93,2.75-5.28-1.15-11.48-4.82-10.79-16.29,0-1.15,.23-2.75,.69-5.05,2.52-16.52,8.72-55.08-34.66-75.05-7.8-3.67-15.38-6.43-22.72-9.18-10.1-3.67-19.51-7.11-27.31-12.16-16.98-11.02-25.7-23.41-26.85-37.64-.69-11.93,2.75-27.31,15.84-33.05m101.67,191.64c1.38,.46,2.75,.92,3.67,1.15,1.15,.23,2.3,.46,3.44,.46,.92,0,1.84,0,2.75-.23,.69,7.11,.92,14.23,.92,21.34s-.46,14.23-.92,21.34c-2.07-.23-4.13-.23-6.2,.23-.92,.23-2.3,.46-3.67,1.15,.69-7.34,1.15-14.92,1.15-22.49,0-8.03-.46-15.61-1.15-22.95m-198.75,234.56c1.61-.23,2.98-.46,4.59-.92l2.52,12.62c-1.61,.23-3.44,.69-5.05,.92l-2.07-12.62Zm0,13.08c-1.84,.23-3.67,.46-5.51,.69l-1.61-12.85c1.61-.23,3.44-.46,5.05-.69l2.07,12.85Zm6.66-14.46c1.61-.46,3.21-.69,5.05-1.15l2.98,12.62c-1.84,.46-3.67,.92-5.28,1.15l-2.75-12.62Zm7.11-1.61c1.38-.23,2.75-.69,4.13-.92l3.44,12.39c-1.38,.46-2.98,.69-4.59,1.15l-2.98-12.62Zm6.2-1.61c1.61-.46,3.21-.92,4.82-1.38l3.67,12.39c-1.84,.46-3.44,.92-5.28,1.61l-3.21-12.62Zm6.89-1.84c1.61-.46,2.98-.92,4.36-1.61l4.13,12.16c-1.61,.46-3.21,1.15-4.82,1.61l-3.67-12.16Zm6.66-2.3c1.61-.46,3.21-1.15,4.82-1.61l4.59,11.93c-1.61,.69-3.44,1.15-5.28,1.84l-4.13-12.16Zm6.66-2.52c1.61-.69,3.21-1.15,4.82-1.84l5.05,11.93c-1.84,.69-3.44,1.38-5.28,2.07l-4.59-12.16Zm6.89-2.52c1.61-.69,2.98-1.38,4.59-2.07l5.28,11.7c-1.61,.69-3.21,1.61-5.05,2.3l-4.82-11.93Zm6.66-2.98c1.38-.69,2.75-1.38,4.13-2.07l5.74,11.48c-1.61,.69-2.98,1.38-4.59,2.07l-5.28-11.48Zm5.97-2.98c1.61-.69,2.98-1.61,4.59-2.3l6.2,11.25c-1.61,.92-3.21,1.61-4.82,2.52l-5.97-11.48Zm6.43-3.44c1.15-.69,2.52-1.38,3.67-2.07l6.43,11.25c-1.38,.69-2.75,1.61-3.9,2.3l-6.2-11.48Zm5.51-3.21c1.84-1.15,3.9-2.3,5.74-3.44-.23,4.59,.23,9.64,1.38,14.23-.23,.23-.46,.23-.69,.46l-6.43-11.25Zm6.43-8.49c-33.05,21.57-72.52,33.97-114.75,33.97s-81.7-12.62-114.75-33.97c-2.3-14.23-11.48-26.39-28.23-37.41-7.11-4.59-15.38-7.8-24.33-11.25-27.54-35.57-43.84-80.1-43.84-128.52s16.52-92.95,43.84-128.52c8.95-3.21,17.21-6.66,24.33-11.25,16.75-11.02,25.93-23.18,28.23-37.41,33.05-21.57,72.52-33.97,114.75-33.97s81.7,12.62,114.75,33.97c2.3,14.23,11.48,26.39,28.23,37.41,7.11,4.59,15.38,7.8,24.33,11.25,27.54,35.57,43.84,80.1,43.84,128.52s-16.52,92.95-43.84,128.52c-8.95,3.21-17.21,6.66-24.33,11.25-16.75,11.02-26.16,23.18-28.23,37.41m-85.61,48.88c-1.84,.23-3.67,.46-5.74,.69l-1.38-12.85c1.84-.23,3.44-.46,5.28-.69l1.84,12.85Zm-7.8,.92c-1.84,.23-3.67,.23-5.51,.46l-.92-12.85c1.61-.23,3.44-.23,5.05-.46l1.38,12.85Zm-7.57,.69c-1.61,0-3.44,.23-5.05,.23l-.46-12.85c1.61,0,3.21-.23,4.59-.23l.92,12.85Zm-7.11,.23c-1.84,0-3.67,.23-5.51,.23v-12.85c1.61,0,3.44,0,5.05-.23l.46,12.85Zm-7.8-12.85v12.85h-4.59l.46-12.85h4.13m-6.43,0l-.46,12.85c-1.84,0-3.67,0-5.51-.23l.92-12.85c1.84,0,3.44,.23,5.05,.23m-7.11-.46l-.92,12.85c-1.61-.23-3.44-.23-5.05-.46l1.15-12.85c1.61,.23,3.21,.46,4.82,.46m-6.89-.46l-1.15,12.85c-1.84-.23-3.67-.46-5.51-.69l1.61-12.85c1.84,.23,3.44,.46,5.05,.69m-7.11-.92l-1.61,12.85c-1.84-.23-3.67-.46-5.51-.69l2.07-12.62c1.61,0,3.44,.23,5.05,.46m-85.61-30.98c1.84,1.15,3.9,2.3,5.74,3.44l-6.43,11.25c-.23-.23-.46-.23-.69-.46,1.38-4.59,1.61-9.64,1.38-14.23m7.57,4.59c1.38,.92,2.98,1.61,4.36,2.52l-5.97,11.25c-1.61-.92-3.21-1.84-4.82-2.75l6.43-11.02Zm6.43,3.44c1.38,.69,2.75,1.38,4.13,2.07l-5.74,11.48c-1.61-.69-2.98-1.61-4.59-2.3l6.2-11.25Zm5.97,3.21c1.61,.69,2.98,1.38,4.59,2.07l-5.28,11.7c-1.61-.69-3.44-1.61-5.05-2.3l5.74-11.48Zm6.66,2.98c1.61,.69,3.21,1.38,4.82,2.07l-4.82,11.93c-1.84-.69-3.44-1.61-5.28-2.3l5.28-11.7Zm6.89,2.98c1.61,.69,3.21,1.15,4.82,1.84l-4.59,12.16c-1.61-.69-3.44-1.38-5.05-2.07l4.82-11.93Zm6.66,2.52c1.38,.46,2.98,.92,4.36,1.61l-4.13,12.16c-1.61-.46-3.21-1.15-4.82-1.61l4.59-12.16Zm6.43,2.3c1.61,.46,3.21,1.15,4.82,1.61l-3.67,12.39c-1.84-.46-3.44-1.15-5.28-1.61l4.13-12.39Zm6.89,2.07c1.38,.46,2.75,.69,4.13,1.15l-3.44,12.39c-1.38-.46-2.98-.92-4.36-1.38l3.67-12.16Zm6.2,1.84c1.61,.46,3.21,.69,4.82,1.15l-2.98,12.62c-1.84-.46-3.67-.92-5.28-1.38l3.44-12.39Zm6.89,1.61c1.61,.46,2.98,.69,4.59,1.15l-2.52,12.62c-1.61-.23-3.21-.69-5.05-1.15l2.98-12.62Zm6.66,1.38c1.61,.23,3.21,.69,5.05,.92l-2.07,12.62c-1.84-.23-3.67-.69-5.51-.92l2.52-12.62ZM80.36,130.59c-.92,1.38-1.84,2.75-2.75,4.36l-8.72-5.28c2.07-.92,3.9-1.84,5.97-2.52l5.51,3.44Zm-2.98-4.59c2.98-1.15,5.74-2.3,8.49-3.21-1.38,2.07-2.98,3.9-4.36,5.97l-4.13-2.75Zm-.92,10.79c-.69,1.15-1.38,2.52-2.07,3.67l-11.25-6.43c.46-.92,.92-1.61,1.38-2.52,.69-.23,1.38-.69,1.84-.92l10.1,6.2Zm-3.21,5.51c-.92,1.38-1.61,2.98-2.52,4.36l-11.25-5.97c.92-1.61,1.84-3.21,2.75-4.82l11.02,6.43Zm-3.44,6.2c-.69,1.38-1.38,2.75-2.07,4.13l-11.48-5.74c.69-1.61,1.61-2.98,2.3-4.59l11.25,6.2Zm-3.21,6.2c-.69,1.61-1.38,2.98-2.07,4.59l-11.7-5.28c.69-1.61,1.61-3.44,2.3-5.05l11.48,5.74Zm-2.98,6.43c-.69,1.61-1.38,3.21-2.07,4.82l-11.93-4.82c.69-1.84,1.61-3.44,2.3-5.28l11.7,5.28Zm-2.98,6.89c-.69,1.61-1.15,3.21-1.84,4.82l-12.16-4.59c.69-1.61,1.38-3.44,2.07-5.05l11.93,4.82Zm-16.75,153.08c-.46-1.61-1.15-3.21-1.61-4.82l12.39-3.67c.46,1.61,.92,2.98,1.61,4.36l-12.39,4.13Zm12.85-2.07c.46,1.61,1.15,3.21,1.61,4.82l-11.93,4.59c-.69-1.61-1.15-3.44-1.84-5.28l12.16-4.13Zm-15.15-4.82c-.46-1.84-.92-3.44-1.61-5.28l12.39-3.21c.46,1.61,.92,3.21,1.38,4.82l-12.16,3.67Zm-2.07-7.34c-.46-1.38-.69-2.98-1.15-4.59l12.62-2.98c.23,1.38,.69,2.75,.92,4.13l-12.39,3.44Zm-1.61-6.66c-.46-1.84-.92-3.67-1.15-5.28l12.62-2.52c.23,1.61,.69,3.21,1.15,5.05l-12.62,2.75Zm-1.61-7.34c-.23-1.61-.69-3.44-.92-5.05l12.62-2.07c.23,1.61,.46,2.98,.92,4.59l-12.62,2.52Zm10.33-70.46c-.23,1.61-.46,3.44-.69,5.05l-12.85-1.15c.23-1.84,.46-3.67,.69-5.51l12.85,1.61Zm-12.62-3.9c.23-1.84,.46-3.67,.69-5.51l12.62,2.07c-.23,1.61-.46,3.44-.69,5.28l-12.62-1.84Zm11.7,11.02c-.23,1.61-.23,3.21-.46,4.59l-12.85-.92c0-1.61,.23-3.44,.46-5.05l12.85,1.38Zm-.23,34.43c.23,1.61,.23,3.44,.46,5.05l-12.85,1.38c-.23-1.84-.23-3.67-.46-5.51l12.85-.92Zm.46,7.11c.23,1.84,.46,3.44,.69,5.28l-12.85,1.61c-.23-1.84-.46-3.67-.69-5.74l12.85-1.15Zm.92,7.34c.23,1.61,.46,3.44,.69,5.05l-12.62,2.07c-.23-1.84-.46-3.67-.69-5.51l12.62-1.61Zm1.15-65.41l-12.62-2.07c.23-1.84,.69-3.67,.92-5.51l12.62,2.52c-.46,1.61-.69,3.21-.92,5.05m-11.48-9.64c.23-1.61,.69-3.21,1.15-5.05l12.62,2.98c-.46,1.61-.69,2.98-1.15,4.59l-12.62-2.52Zm1.61-7.11c.46-1.84,.92-3.67,1.38-5.28l12.39,3.44c-.46,1.61-.69,3.21-1.15,5.05l-12.62-3.21Zm2.07-7.34c.46-1.38,.92-2.98,1.38-4.36l12.39,3.67c-.46,1.38-.69,2.75-1.15,4.13l-12.62-3.44Zm1.84-6.66c.46-1.84,1.15-3.44,1.61-5.28l12.16,4.13c-.46,1.61-1.15,3.21-1.61,4.82l-12.16-3.67Zm2.3-7.11c.46-1.61,1.15-3.21,1.61-4.82l12.16,4.59c-.46,1.38-.92,2.98-1.61,4.36l-12.16-4.13Zm-11.93,8.95c-.23-13.08,2.75-28.92,16.29-41.77-6.66,13.31-12.16,27.31-16.29,41.77m0,51.41l12.85,.92c0,1.61-.23,3.44-.23,5.05l-12.85-.46c0-1.84,.23-3.67,.23-5.51m12.62,8.03v4.13h-13.08c0-1.61,0-2.98,.23-4.59l12.85,.46Zm-.23,6.43c0,1.61,0,3.44,.23,5.05l-12.85,.46c0-1.84-.23-3.67-.23-5.51h12.85Zm.23,7.11c0,1.61,.23,3.21,.23,4.59l-12.85,.92c0-1.61-.23-3.44-.23-5.05l12.85-.46Zm3.67,98.23c-13.77-12.85-16.52-28.92-16.29-41.77,4.13,14.46,9.64,28.46,16.29,41.77m-1.61-25.02l11.93-4.59c.69,1.61,1.15,3.21,1.84,4.82l-11.93,5.05c-.46-1.61-1.15-3.44-1.84-5.28m14.69,2.3c.69,1.61,1.38,2.98,2.07,4.59l-11.7,5.28c-.69-1.61-1.61-3.21-2.3-5.05l11.93-4.82Zm2.98,6.66c.69,1.38,1.38,2.75,2.07,4.13l-11.48,5.74c-.69-1.61-1.38-2.98-2.07-4.59l11.48-5.28Zm2.98,6.2c.69,1.61,1.61,2.98,2.3,4.59l-11.25,6.2c-.92-1.61-1.61-3.21-2.52-4.82l11.48-5.97Zm3.44,6.43c.69,1.15,1.38,2.52,2.07,3.67l-11.25,6.43c-.69-1.38-1.61-2.75-2.3-3.9l11.48-6.2Zm3.21,5.51c.92,1.38,1.61,2.98,2.52,4.36l-9.41,5.97c-.23-.23-.69-.23-.92-.46-.69-.23-1.38-.69-2.07-.92-.46-.92-.92-1.61-1.38-2.52l11.25-6.43Zm3.67,6.2c.92,1.38,1.61,2.75,2.52,3.9l-5.28,3.44c-1.84-.69-3.67-1.61-5.51-2.3l8.26-5.05Zm3.67,5.74c1.38,1.84,2.75,3.9,4.13,5.74-2.75-.92-5.28-2.07-8.03-2.98l3.9-2.75ZM223.34,36.95c-1.61,.23-2.98,.46-4.59,.92l-2.52-12.62c1.61-.23,3.44-.69,5.05-.92l2.07,12.62Zm0-13.08c1.84-.23,3.67-.46,5.51-.92l1.61,12.85c-1.61,.23-3.44,.46-5.05,.69l-2.07-12.62Zm-6.89,14.23c-1.61,.23-3.21,.69-5.05,1.15l-2.75-12.39c1.84-.46,3.67-.92,5.28-1.15l2.52,12.39Zm-6.89,1.61c-1.38,.23-2.75,.69-4.13,.92l-3.44-12.39c1.38-.46,2.98-.69,4.59-1.15l2.98,12.62Zm-6.2,1.61c-1.61,.46-3.21,.92-4.82,1.38l-3.67-12.39c1.84-.46,3.44-.92,5.28-1.61l3.21,12.62Zm-7.11,2.07c-1.61,.46-2.98,.92-4.36,1.38l-4.13-12.16c1.61-.46,3.21-1.15,4.82-1.61l3.67,12.39Zm-6.43,2.07c-1.61,.46-3.21,1.15-4.82,1.61l-4.59-11.93c1.61-.69,3.44-1.15,5.28-1.84l4.13,12.16Zm-6.66,2.52c-1.61,.69-3.21,1.15-4.82,1.84l-5.05-11.93c1.84-.69,3.44-1.38,5.28-2.07l4.59,12.16Zm-6.89,2.75c-1.61,.69-2.98,1.38-4.59,2.07l-5.28-11.7c1.61-.69,3.21-1.61,5.05-2.3l4.82,11.93Zm-6.66,2.98c-1.38,.69-2.75,1.38-4.13,2.07l-5.74-11.48c1.61-.69,2.98-1.38,4.59-2.07l5.28,11.48Zm-6.2,2.98c-1.61,.69-2.98,1.61-4.59,2.3l-6.2-11.25c1.61-.92,3.21-1.61,4.82-2.52l5.97,11.48Zm-6.43,3.21c-1.15,.69-2.52,1.38-3.67,2.07l-6.43-11.25c1.38-.69,2.75-1.61,3.9-2.3l6.2,11.48Zm-5.51,3.21c-1.84,1.15-3.9,2.3-5.74,3.44,.23-4.59-.23-9.64-1.38-14.23,.23-.23,.46-.23,.69-.46l6.43,11.25ZM230.91,22.72c1.84-.23,3.67-.46,5.74-.69l1.38,12.85c-1.84,.23-3.44,.46-5.28,.69l-1.84-12.85Zm7.57-.92c1.84-.23,3.67-.23,5.51-.46l.92,12.85c-1.61,0-3.44,.23-5.05,.46l-1.38-12.85Zm7.8-.46c1.61,0,3.44-.23,5.05-.23l.46,12.85c-1.61,0-3.21,.23-4.59,.23l-.92-12.85Zm7.11-.23c1.84,0,3.67-.23,5.51-.23v12.85c-1.61,0-3.44,0-5.05,.23l-.46-12.85Zm7.8,12.62v-12.85c1.61,0,2.98,0,4.59,.23l-.46,12.85c-1.38-.23-2.75-.23-4.13-.23m6.2,.23l.46-12.85c1.84,0,3.67,.23,5.51,.23l-.92,12.85c-1.61-.23-3.21-.23-5.05-.23m7.34,.23l.92-12.85c1.61,.23,3.44,.23,5.05,.46l-1.15,12.85c-1.84-.23-3.21-.23-4.82-.46m6.66,.69l1.15-12.85,5.51,.69-1.61,12.85c-1.61-.46-3.21-.69-5.05-.69m7.34,.69l1.61-12.85,5.51,.69-2.07,12.62c-1.61,0-3.44-.23-5.05-.46m85.38,31.21c-1.84-1.15-3.67-2.3-5.74-3.44l6.43-11.25c.23,.23,.46,.23,.69,.46-1.15,4.59-1.61,9.41-1.38,14.23m-7.57-4.59c-1.38-.92-2.98-1.61-4.36-2.52l5.97-11.25c1.61,.92,3.21,1.84,4.82,2.75l-6.43,11.02Zm-6.2-3.67c-1.38-.69-2.75-1.38-4.13-2.07l5.74-11.48c1.61,.69,2.98,1.61,4.59,2.3l-6.2,11.25Zm-6.2-2.98c-1.61-.69-2.98-1.38-4.59-2.07l5.28-11.7c1.61,.69,3.44,1.61,5.05,2.3l-5.74,11.48Zm-6.43-2.98c-1.61-.69-3.21-1.38-4.82-2.07l4.82-11.93c1.84,.69,3.44,1.61,5.28,2.3l-5.28,11.7Zm-6.89-2.98c-1.61-.69-3.21-1.15-4.82-1.84l4.59-12.16c1.61,.69,3.44,1.38,5.05,2.07l-4.82,11.93Zm-6.66-2.75c-1.38-.46-2.98-.92-4.36-1.61l4.13-12.16c1.61,.46,3.21,1.15,4.82,1.61l-4.59,12.16Zm-6.43-2.07c-1.61-.46-3.21-1.15-4.82-1.61l3.67-12.39c1.84,.46,3.44,1.15,5.28,1.61l-4.13,12.39Zm-6.89-2.3c-1.38-.46-2.75-.69-4.13-1.15l3.44-12.39c1.38,.46,2.98,.92,4.36,1.38l-3.67,12.16Zm-6.2-1.61c-1.61-.46-3.21-.69-4.82-1.15l2.98-12.62c1.84,.46,3.67,.92,5.28,1.38l-3.44,12.39Zm-7.11-1.84c-1.61-.46-2.98-.69-4.59-1.15l2.52-12.62c1.61,.23,3.21,.69,5.05,1.15l-2.98,12.62Zm-6.66-1.38c-1.61-.23-3.21-.69-5.05-.92l2.07-12.62c1.84,.23,3.67,.69,5.51,.92l-2.52,12.62Zm163.41,278.85c.46-1.61,1.15-3.21,1.61-4.82l12.39,3.67c-.46,1.84-1.15,3.44-1.61,5.28l-12.39-4.13Zm11.48,6.2c-.46,1.61-1.15,3.21-1.61,4.82l-12.16-4.59c.46-1.38,.92-2.98,1.61-4.36l12.16,4.13Zm-9.41-13.08c.46-1.38,.69-2.75,1.15-4.13l12.39,3.44c-.46,1.38-.92,2.98-1.15,4.36l-12.39-3.67Zm1.84-6.2c.46-1.61,.69-3.21,1.15-4.82l12.62,2.98c-.46,1.84-.92,3.67-1.38,5.28l-12.39-3.44Zm1.61-6.89c.46-1.61,.69-2.98,1.15-4.59l12.62,2.52c-.23,1.61-.69,3.21-1.15,5.05l-12.62-2.98Zm1.38-6.66c.23-1.61,.69-3.21,.92-5.05l12.62,2.07c-.23,1.84-.69,3.67-.92,5.51l-12.62-2.52Zm5.05-113.15c.46,1.61,1.15,3.21,1.61,4.82l-12.39,3.67c-.46-1.61-.92-2.98-1.61-4.36l12.39-4.13Zm-12.85,2.07c-.46-1.61-1.15-3.21-1.61-4.82l11.93-4.59c.69,1.61,1.15,3.44,1.84,5.28l-12.16,4.13Zm15.15,4.82c.46,1.84,.92,3.44,1.61,5.28l-12.39,3.44c-.46-1.61-.92-3.21-1.38-4.82l12.16-3.9Zm2.07,7.34c.46,1.38,.69,2.98,1.15,4.59l-12.62,2.98c-.23-1.38-.69-2.75-.92-4.13l12.39-3.44Zm1.61,6.43c.46,1.84,.92,3.67,1.15,5.28l-12.62,2.52c-.46-1.61-.69-3.21-1.15-5.05l12.62-2.75Zm1.61,7.57c.23,1.61,.69,3.44,.92,5.05l-12.62,2.07c-.23-1.61-.46-2.98-.92-4.59l12.62-2.52Zm-9.87,21.57c-.23-1.84-.46-3.44-.69-5.28l12.85-1.61c.23,1.84,.46,3.67,.69,5.74l-12.85,1.15Zm13.08,.92c.23,1.84,.23,3.67,.46,5.51l-12.85,.92c0-1.61-.23-3.44-.46-5.05l12.85-1.38Zm-14-8.26c-.23-1.61-.46-3.44-.69-5.05l12.62-2.07c.23,1.84,.46,3.67,.92,5.51l-12.85,1.61Zm-.46,63.57c.23-1.61,.46-3.44,.69-5.28l12.85,1.61c-.23,1.84-.46,3.67-.69,5.51l-12.85-1.84Zm.92-7.34c.23-1.61,.46-3.44,.69-5.05l12.85,1.15c-.23,1.84-.46,3.67-.69,5.51l-12.85-1.61Zm.69-7.34c.23-1.61,.23-3.21,.46-4.59l12.85,.92c-.23,1.61-.23,3.44-.46,5.05l-12.85-1.38Zm13.31-33.05c0,1.61,.23,3.44,.23,5.05l-12.85,.46c0-1.61-.23-3.21-.23-4.59l12.85-.92Zm-16.07-92.72c13.54,12.85,16.52,28.69,16.29,41.77-4.13-14.46-9.64-28.46-16.29-41.77m1.61,25.02l-11.93,4.59c-.69-1.61-1.15-3.21-1.84-4.82l11.93-5.05c.46,1.84,1.15,3.67,1.84,5.28m-14.92-2.3c-.69-1.61-1.38-2.98-2.07-4.59l11.7-5.28c.69,1.61,1.61,3.21,2.3,5.05l-11.93,4.82Zm-2.98-6.43c-.69-1.38-1.38-2.75-2.07-4.13l11.48-5.74c.69,1.61,1.38,2.98,2.07,4.59l-11.48,5.28Zm-2.98-6.2c-.69-1.61-1.61-2.98-2.3-4.59l11.25-6.2c.92,1.61,1.61,3.21,2.52,4.82l-11.48,5.97Zm-3.21-6.43c-.69-1.15-1.38-2.52-2.07-3.67l11.25-6.43c.69,1.38,1.61,2.75,2.3,3.9l-11.48,6.2Zm-3.21-5.51c-.92-1.38-1.61-2.98-2.52-4.36l9.41-5.97c.23,.23,.69,.23,.92,.46,.69,.23,1.38,.69,2.07,.92,.46,.92,.92,1.61,1.38,2.52l-11.25,6.43Zm-3.67-6.2c-.92-1.38-1.61-2.52-2.52-3.9l5.28-3.44c1.84,.69,3.67,1.61,5.51,2.3l-8.26,5.05Zm-3.67-5.74c-1.38-1.84-2.75-3.9-4.13-5.74,2.75,.92,5.28,2.07,8.03,2.98l-3.9,2.75Zm.23,240.29l4.13,2.75c-2.98,1.15-5.74,2.3-8.49,3.21,1.38-1.84,2.98-3.9,4.36-5.97m1.15-1.84c.92-1.38,1.84-2.75,2.75-4.36l8.72,5.28c-2.07,.92-3.9,1.84-5.97,2.52l-5.51-3.44Zm3.9-5.97c.69-1.15,1.38-2.52,2.07-3.67l11.25,6.43c-.46,.92-.92,1.61-1.38,2.52-.69,.23-1.15,.69-1.84,.92l-10.1-6.2Zm3.21-5.51c.92-1.38,1.61-2.98,2.52-4.36l11.25,5.97c-.92,1.61-1.84,3.21-2.75,4.82l-11.02-6.43Zm3.44-6.43c.69-1.38,1.38-2.75,2.07-4.13l11.48,5.74c-.69,1.61-1.61,2.98-2.3,4.59l-11.25-6.2Zm3.21-5.97c.69-1.61,1.38-2.98,2.07-4.59l11.7,5.28c-.69,1.61-1.61,3.44-2.3,5.05l-11.48-5.74Zm2.98-6.66c.69-1.61,1.38-3.21,2.07-4.82l11.93,4.82c-.69,1.84-1.61,3.44-2.3,5.28l-11.7-5.28Zm2.75-6.89c.69-1.61,1.38-3.21,1.84-4.82l12.16,4.59c-.69,1.61-1.38,3.44-2.07,5.05l-11.93-4.82Zm28.46-16.07c.23,13.08-2.75,28.92-16.29,41.77,6.66-13.31,12.16-27.31,16.29-41.77m0-51.41l-12.85-.92c0-1.61,.23-3.44,.23-5.05l12.85,.46c-.23,1.84-.23,3.67-.23,5.51m-12.62-8.03v-4.13h12.85c0,1.61,0,2.98-.23,4.59l-12.62-.46Zm0-6.2c0-1.61,0-3.44-.23-5.05l12.85-.46c0,1.84,.23,3.67,.23,5.51h-12.85ZM260.06,2.52c45.44,0,87.9,12.39,124.39,33.74-2.3,2.3-4.36,5.05-5.74,7.8-34.88-20.2-75.28-31.9-118.65-31.9s-83.77,11.7-118.65,31.9c-1.61-2.98-3.44-5.51-5.74-7.8C172.16,14.69,214.62,2.52,260.06,2.52M102.85,59.21l1.15,1.15c2.52,2.07,5.97,2.98,9.41,2.75-14.46,11.48-27.31,24.33-38.79,38.79-6.2,2.3-12.16,4.59-17.44,7.34,12.85-18.59,28.23-35.57,45.67-50.03m0,30.98l-3.21-3.21c1.15-1.15,2.3-2.07,3.44-3.21l3.67,3.67c-1.38,.92-2.75,1.84-3.9,2.75m-1.84,1.15c-3.21,1.84-6.66,3.67-10.1,5.05,2.3-2.75,4.82-5.28,7.34-7.8l2.75,2.75Zm7.11-5.05l-3.67-3.9c1.38-1.15,2.75-2.52,4.13-3.67l3.67,3.9c-1.38,1.15-2.52,2.52-4.13,3.67m5.51-5.28l-3.44-3.9c1.38-1.15,2.52-2.3,3.9-3.44l2.75,3.44c-.92,1.38-2.07,2.75-3.21,3.9m4.36-5.74l-2.3-2.75c1.61-1.38,3.44-2.75,5.05-4.13-.23,1.15-.69,2.3-1.15,3.67-.46,.92-.92,2.07-1.61,3.21M8.06,220.56c-2.75-2.07-4.13-4.82-4.36-7.8-.46-8.49,5.74-9.41,6.43-9.41h.23c.23,0,.69-.23,1.15-.23,1.61,0,4.13,.69,4.82,4.13,.23,1.15,1.38,1.84,2.3,1.61,1.15-.23,1.84-1.38,1.61-2.3-1.15-5.28-5.05-6.89-8.03-7.11-3.9-19.51-1.15-38.79,8.03-54.39,10.33-17.9,31.44-31.67,64.72-42.23,18.36-5.74,33.05-16.98,38.1-29.15,2.75-6.43,2.75-12.62,0-18.59h0s0-.23-.23-.23v-.23h0c-.69-1.15-2.07-3.67-4.59-5.97-.92-.69-2.07-.69-2.75,0-.69,.92-.69,2.07,0,2.75,1.61,1.38,2.75,3.21,3.44,4.36-.46,1.84-2.07,2.75-3.21,3.21-2.52,.92-6.43,.92-9.64-1.38-3.44-2.75-5.05-6.89-4.36-11.48,.69-5.05,3.9-9.41,8.72-11.48,5.05-2.07,10.1-2.07,15.38,.23,13.08,5.74,16.52,21.11,15.61,33.51-1.15,14.23-9.87,26.62-26.85,37.64-7.57,5.05-17.21,8.49-27.31,12.16-7.34,2.75-14.92,5.51-22.72,9.18-42.92,19.51-36.95,58.07-34.43,74.59,.23,2.07,.69,3.9,.69,5.05,.69,11.7-5.51,15.38-10.79,16.29-3.9,.92-8.49-.23-11.93-2.75m16.52,50.95c-1.38-.46-2.75-.92-3.67-1.15-2.07-.46-4.13-.46-6.2-.23-.69-7.11-.92-14.23-.92-21.34s.46-14.23,.92-21.34c.92,.23,1.84,.23,2.75,.23,1.15,0,2.3,0,3.44-.23,.92-.23,2.3-.46,3.67-1.15-.69,7.34-1.15,14.92-1.15,22.49s.46,15.15,1.15,22.72m32.59,116.82c5.28,2.52,11.25,5.05,17.44,7.34,11.48,14.46,24.33,27.31,38.79,38.79-3.21-.23-6.66,.92-9.41,2.75-.46,.23-.92,.69-1.15,1.15-17.44-14.46-32.82-31.21-45.67-50.03m57.61,36.03c-1.38-1.15-2.75-2.3-4.13-3.67l3.44-3.9c1.15,1.38,2.3,2.75,3.44,4.36l-2.75,3.21Zm3.67-1.15c.46,.92,.92,1.61,1.15,2.52,.46,1.15,.92,2.3,1.15,3.67-1.61-1.15-2.98-2.3-4.36-3.44l2.07-2.75Zm-9.41-3.9c-1.38-1.15-2.52-2.3-3.67-3.44l3.67-3.9c1.38,1.15,2.52,2.3,3.67,3.44l-3.67,3.9Zm-5.51-4.82c-1.38-1.15-2.75-2.52-3.9-3.9l3.21-3.21c1.61,.92,2.98,2.07,4.36,3.21l-3.67,3.9Zm-5.51-5.28c-2.52-2.52-5.05-5.28-7.34-7.8,3.67,1.38,7.11,3.21,10.1,5.05l-2.75,2.75Zm28,53.93c-5.28,2.3-10.33,2.52-15.38,.23-4.82-2.07-8.03-6.2-8.72-11.48-.69-4.59,1.15-8.72,4.36-11.48,1.84-1.38,4.13-2.07,6.2-2.07,1.38,0,2.52,.23,3.44,.69s2.52,1.38,3.21,3.21c-.69,1.15-1.84,2.75-3.44,4.36-.92,.69-.92,2.07,0,2.75,.46,.46,.92,.69,1.38,.69s.92-.23,1.38-.46c2.52-2.3,3.9-4.82,4.59-5.97h0v-.23c0-.23,.23-.23,.23-.23h0c2.75-5.74,2.75-12.16,0-18.59-5.05-12.16-19.74-23.18-38.1-29.15-33.28-10.56-54.39-24.33-64.72-42.23-9.18-15.61-11.93-34.88-8.03-54.39,2.98-.23,6.89-1.84,8.03-7.11,.23-1.15-.46-2.07-1.61-2.3s-2.07,.46-2.3,1.61c-1.15,4.82-5.28,4.13-6.43,3.9-.69,0-6.89-.92-6.66-9.41,.23-2.98,1.61-5.74,4.36-7.8,3.21-2.52,7.8-3.67,11.93-2.75,5.28,1.15,11.48,4.82,10.79,16.29,0,1.15-.23,2.75-.69,5.05-2.52,16.52-8.72,55.08,34.66,75.05,7.8,3.67,15.38,6.43,22.72,9.18,10.1,3.67,19.51,7.11,27.31,12.16,16.98,11.02,25.7,23.41,26.85,37.64,1.38,11.7-2.3,27.08-15.38,32.82m134.03,32.13c-45.44,0-87.9-12.39-124.39-33.74,2.3-2.3,4.36-5.05,5.74-7.8,34.88,20.2,75.28,31.9,118.65,31.9s83.77-11.7,118.65-31.9c1.61,2.98,3.44,5.51,5.74,8.03-36.49,21.11-78.95,33.51-124.39,33.51m157.21-56.92l-1.15-1.15c-2.52-2.07-5.97-2.98-9.41-2.75,14.46-11.48,27.54-24.33,38.79-38.79,6.2-2.3,12.16-4.59,17.44-7.34-12.85,18.82-28.23,35.57-45.67,50.03m-14-17.9c.92-1.38,2.07-2.75,3.21-3.9l3.44,3.9c-1.38,1.15-2.52,2.3-3.9,3.44l-2.75-3.44Zm1.15,4.82c-1.61,1.38-3.44,2.75-5.05,4.13,.23-1.15,.69-2.3,1.15-3.67,.46-1.15,1.15-2.3,1.61-3.21l2.3,2.75Zm16.07-14.46c-1.15,1.15-2.3,2.07-3.44,3.21l-3.44-3.67c1.15-.92,2.52-1.84,3.67-2.52l3.21,2.98Zm-1.38-4.36c3.21-1.84,6.43-3.67,10.1-5.05-2.3,2.75-4.82,5.28-7.34,7.8l-2.75-2.75Zm-3.67,8.95c-1.38,1.15-2.75,2.52-4.13,3.67l-3.67-4.13c1.15-1.15,2.52-2.3,3.9-3.44l3.9,3.9Zm94.33-120.95h-.23c-.46,.23-5.05,.92-6.2-4.13-.23-1.15-1.38-1.84-2.3-1.61-1.15,.23-1.84,1.38-1.61,2.3,1.15,5.28,5.05,6.89,8.03,7.11,3.9,19.51,1.15,38.79-8.03,54.39-10.33,17.9-31.44,31.67-64.72,42.23-18.36,5.74-33.05,16.98-38.1,29.15-2.75,6.43-2.75,12.62,0,18.59h0s0,.23,.23,.23v.23h0c.69,1.15,2.07,3.67,4.59,5.97,.46,.46,.92,.46,1.38,.46s1.15-.23,1.38-.69c.69-.92,.69-2.07,0-2.75-1.61-1.38-2.75-3.21-3.44-4.36,.46-1.84,2.07-2.75,3.21-3.21,2.52-.92,6.43-.92,9.64,1.38,3.44,2.75,5.05,6.89,4.36,11.48-.69,5.05-3.9,9.41-8.72,11.48-5.05,2.07-10.1,2.07-15.38-.23-13.08-5.74-16.52-21.11-15.61-33.51,1.15-14.23,9.87-26.62,26.85-37.64,7.57-5.05,17.21-8.49,27.31-12.16,7.34-2.75,14.92-5.51,22.72-9.18,43.38-19.97,37.41-58.52,34.66-75.05-.23-2.07-.69-3.9-.69-5.05-.69-11.7,5.51-15.38,10.79-16.29,.92-.23,1.84-.23,2.75-.23,3.21,0,6.66,1.15,9.18,3.21,2.75,2.07,4.13,4.82,4.36,7.8,.46,9.18-5.74,10.1-6.43,10.1"/>
  <path class="cls-1" d="M294.94,278.62c3.9,0,7.11-3.21,7.11-7.11s-3.21-7.11-7.11-7.11-7.11,3.21-7.11,7.11c0,3.9,3.21,7.11,7.11,7.11m0-10.1c1.61,0,2.98,1.38,2.98,2.98s-1.38,2.98-2.98,2.98-2.98-1.38-2.98-2.98,1.38-2.98,2.98-2.98"/>
  <path class="cls-1" d="M199.47,272.42c-1.61-.23-3.21-1.38-4.82-2.07-.92-.46-2.75-.69-2.3-1.84,.46-1.84,4.59,.23,5.74,.69,.92,.46,2.3,.69,2.98-.69,.23-.92,0-1.61-.69-2.3-.69-.46-2.07-1.61-.92-2.52,.46-.46,1.84,0,2.3,.23,1.61,1.15,2.75,2.75,2.3,4.82-.23,1.38-1.15,2.52-2.3,2.98-1.15,.69-1.61,.69-2.3,.69"/>
  <path class="cls-1" d="M217.14,242.59c-8.49-2.98-12.62-3.9-14.69-4.13,0-.46,.23-.92,.23-1.15,.23-.69,.23-1.38-.23-1.84-.69-.46-1.38-.23-1.84,.46-.23,.23-1.38,2.3-1.15,4.36-1.15,.69-2.52,1.15-2.75,1.38-.92,.46-.92,1.15-.92,1.38,.23,.92,1.15,.92,1.38,.92,.92,0,2.3-.23,3.67-.46,0,.23,0,.46,.23,.92-1.61,2.3-1.15,5.05,1.38,6.43,.92,.46,2.3,.69,3.44,.69,.69,0,1.38,0,1.84-.23,.69-.23,1.38-1.15,1.15-1.84s-.92-.69-2.07-.69-3.9-.23-4.13-1.61v-.23c.69,.23,1.61,.46,2.75,.46,1.84,0,4.82-.46,8.03-2.52,.46,.23,.92,.23,1.38,.46,.23,0,.46,.23,.69,.23,.69,0,1.61,0,1.84-.69,.92-1.15,.46-1.84-.23-2.3m-11.02,1.84c0-.69,0-1.61-.23-2.3,1.15,.23,2.52,.69,4.36,1.15-1.61,.92-3.21,1.15-4.13,1.15"/>
  <path class="cls-1" d="M350.48,274.26c-.23-.46-3.67-9.87-14.69-14.46,4.13-4.82,5.74-8.95,5.97-9.41,.46-1.15,0-2.3-1.15-2.75,0,0-.46-.23-.92-.23,.46-7.57-1.61-22.26-12.39-28.46-.23-10.33-2.75-16.29-2.75-16.75-.23-.69-.69-1.15-1.38-1.15-.46-.23-.92,0-1.38,0-11.02-20.43-37.87-39.7-73.44-36.26-.92-.69-1.38-1.15-1.38-1.15-.23,0-.23-.23-.46-.23-2.75-1.15-5.51-1.15-7.34-.23-2.3,1.15-2.75,3.21-2.75,3.44h0c-36.95,6.89-36.95,23.87-36.95,29.61v.92c-7.57,11.02-8.72,27.77-7.34,39.48,.46,3.9,.23,7.57-.69,11.25-.69,2.52-1.61,5.05-3.21,7.57-.69,1.15-1.38,2.07-2.07,3.21s-1.38,2.3-2.07,3.44c-1.38,2.07-2.75,6.66,1.15,10.33,.46,.46,1.15,.92,2.07,1.38,1.15,.69,2.3,.92,3.44,1.15,1.38,.23,2.3,.46,2.75,.92,.23,.23,0,.92-.23,1.61-1.15,2.52-.69,5.05,.92,6.89,.46,.46,.92,.92,1.61,1.38l-.23,1.61c0,.69,.23,1.38,.23,1.84,.69,2.3,2.75,3.67,5.05,4.36,.46,.23,.69,1.38,.46,3.44v1.15c-.23,6.43,2.52,9.64,5.05,11.48s5.74,2.52,9.18,2.52c3.9,0,7.34-.69,10.79-2.07,2.07-.69,4.13-1.84,5.97-2.75,1.84,4.59,5.74,18.36-3.9,39.02l-.23,.92c-.46,1.15,.23,2.3,1.38,2.75,.23,0,10.33,3.44,24.56,3.44s33.51-3.9,51.18-17.9c.92-.69,1.15-2.07,.46-2.98l-.69-.92c-8.72-9.18-10.1-22.03-9.87-31.67h0c.46,0,.92,0,1.61-.23,2.52,1.38,5.74,2.07,9.41,2.07,7.57,0,16.75-3.21,22.72-11.02,1.61-2.07,2.75-4.13,3.67-6.2,11.93-1.15,17.44-7.34,17.67-7.8,.46-.92,.46-1.84,.23-2.52m-29.15-9.18c-2.07-4.36-6.2-7.8-11.48-8.49,0-.69-.23-1.38-.46-2.07,11.02-7.11,22.26-5.05,27.08-3.67-1.84,3.44-6.43,10.1-15.15,14.23m-11.48,6.43c1.61-1.84,2.3-4.36,2.3-6.66,0-1.15-.23-2.3-.69-3.44,4.13,1.61,7.11,5.51,7.11,10.33s-2.98,8.72-7.11,10.33c.46-1.15,.69-2.52,.69-3.67,.23-2.75-.69-5.05-2.3-6.89m17.21-47.74c6.89,5.51,8.49,16.07,8.49,22.26-3.21-.69-7.8-1.38-13.08-.69,2.98-8.26,4.36-15.38,4.59-21.57m-5.05-13.54c1.15,7.11,1.84,19.97-4.59,36.03-3.21,.92-6.43,2.3-9.87,4.13-.23-.46-.46-.69-.92-1.15l15.38-39.02Zm-37.87,59.9l-.23-.23-.23-.23c-2.52-2.52-2.52-6.66,0-9.18,1.15-1.38,2.98-2.07,4.59-2.07,1.84,0,3.44,.69,4.59,1.84l.23,.23,.23,.23c.46,.46,.92,.69,1.61,.69s1.15-.23,1.61-.69l.23-.23,.23-.23c2.52-2.52,6.66-2.52,9.18,0,1.15,1.15,2.07,2.75,2.07,4.59s-.69,3.44-1.84,4.59l-.23,.23-.23,.23c-.46,.46-.69,.92-.69,1.61s.23,1.15,.69,1.61l.23,.23,.23,.23c1.15,1.15,2.07,2.75,2.07,4.59s-.69,3.44-1.84,4.59c-2.52,2.52-6.66,2.52-9.18,0l-.23-.23-.23-.23c-.46-.46-.92-.69-1.61-.69s-1.15,.23-1.61,.69l-.23,.23-.23,.23c-2.52,2.52-6.66,2.52-9.18,0-1.15-1.15-2.07-2.75-2.07-4.59s.69-3.44,1.84-4.59l.23-.23,.23-.23c.46-.46,.69-.92,.69-1.61,0-.46-.46-.92-.92-1.38m15.15-47.28c-1.61,2.3-2.98,4.82-3.9,7.57-2.75-5.97-6.66-9.18-6.89-9.41-.92-.69-2.3-.69-3.21,.23-.23,.23-.69,.92-1.61,2.3-1.15-5.05-2.52-9.64-4.36-14,8.95,4.82,14.92,9.18,19.97,13.31m-20.66-18.36c-.69-.46-1.38-.69-2.07-.92-5.05-11.48-11.25-20.43-16.75-27.08,15.61,5.51,38.1,16.29,47.74,35.57-2.07,2.07-4.13,4.59-6.2,7.34-5.51-4.82-12.39-9.87-22.72-14.92m26.62,50.26c-1.15-.46-2.3-.69-3.67-.69-2.52,0-4.82,.92-6.89,2.52-1.84-1.38-4.13-2.3-6.66-2.3-1.15,0-2.3,.23-3.44,.69,1.61-4.13,5.51-7.11,10.33-7.11s8.72,2.98,10.33,6.89m-18.13-28.69c2.52,2.75,6.66,8.95,6.2,17.9-5.51,.69-10.1,4.13-12.16,9.18-2.07-12.62,3.21-22.95,5.97-27.08m16.29,20.43c-1.61-1.15-3.67-2.07-5.74-2.3,.23-2.3,0-4.36-.23-6.43,0,0,.23-.46,.23-.69,3.44-12.85,14-23.18,20.66-28.46l-14.92,37.87Zm14.69-43.38c-1.84,1.38-4.36,3.44-7.11,5.97-7.11-13.08-20.66-24.33-39.25-32.59-6.43-2.75-12.62-4.82-17.44-6.2l-1.84-1.84c31.9-1.38,55.77,16.07,65.64,34.66m-74.13-36.95c2.3,1.84,30.52,24.56,36.95,66.33l-1.84,5.28c-5.05-41.08-30.98-65.41-37.64-70.92,.46-1.15,1.38-1.15,2.52-.69m34.43,115.67c-4.13-1.61-7.11-5.51-7.11-10.33v-1.61c.69-3.9,3.21-7.11,6.89-8.49-1.15,3.44-.69,7.57,1.84,10.33-1.61,1.84-2.3,4.36-2.3,6.66,0,1.38,.23,2.52,.69,3.44m-28.23-38.79c-7.57-2.98-12.39-15.38-15.38-22.72,5.97,2.52,12.39,3.67,18.82,4.59,7.34,1.15,14.23,2.3,20.43,5.74,.46,2.3,.92,4.82,1.15,7.34-1.38-1.15-2.75-2.07-4.13-2.3-2.52-.69-5.05-.23-7.57,1.38-.23,0-2.52,1.61-3.9,4.36-.46,.46-.69,.92-1.15,1.38-3.21,1.15-5.74,1.38-8.26,.23m4.82,4.82c-.23,.46-.46,.69-.69,1.15-1.38,2.52-2.52,5.05-4.36,6.66v-.92c-.23-2.52-.23-5.05-.92-7.57,1.38,.46,2.75,.69,4.36,.69,.69,.23,1.15,0,1.61,0m-15.84-77.8c3.9,3.44,13.31,12.39,21.57,26.39-6.43-2.3-11.7-3.67-18.82-5.51-2.98-.69-5.97-1.61-9.64-2.52-14.46-3.9-22.49-2.75-26.85-.92,2.75-6.2,11.02-13.77,33.74-17.44m-8.03,22.26c3.67,.92,6.89,1.84,9.87,2.52,8.95,2.3,14.69,3.67,22.95,7.11,3.44,6.89,6.66,14.69,8.72,23.41-5.97-2.52-12.39-3.67-18.59-4.59-7.57-1.15-15.15-2.52-21.8-6.2-2.98-1.84-5.51-4.82-8.03-8.26-2.75-3.44-5.74-7.11-9.64-9.87-3.9-2.75-7.34-3.9-10.1-3.67,1.84-1.84,8.03-5.28,26.62-.46m69.77,140.69c-28.69,21.34-59.9,15.15-68.16,13.08,9.64-22.03,5.05-36.72,2.98-41.31,6.2-3.9,11.48-8.72,16.07-14.69,.69-.92,.46-2.3-.46-2.98-.92-.69-2.3-.46-2.98,.46-6.2,8.26-14.46,14.69-23.87,18.36-6.43,2.52-12.62,2.3-16.07,0-2.3-1.61-3.44-4.13-3.21-7.8v-1.15c.23-1.38,.23-3.44-.46-5.05,.46-.23,.92-.23,1.61-.69,.92-.46,1.15-1.38,.69-2.3-.69-1.38-2.07-.69-3.21-.46-.92,.23-2.07,.46-2.98,0s-1.84-1.61-1.38-2.75c.23-.69,1.15-.69,1.84-.69,1.61,0,3.9-.23,6.2-1.15,.23,.46,.69,.69,1.15,.92,.23,.23,.46,.23,.69,.23,.46,0,.92-.23,1.15-.69,.46-.69,.23-1.61-.46-2.07-.46-.23-1.15-1.38-1.61-1.84-.46-.69-1.38-1.15-1.84-.69-.46,.23-.69,.92-.69,1.38-1.15,.46-2.07,.69-3.21,.69-.92,0-1.84,.23-2.75,0-.69,0-1.84-.23-2.52-.69-.92-.69-1.15-1.84-.69-3.67,.92-3.21,.46-4.36-.46-5.28-1.61-1.61-3.21-1.84-5.05-2.3-.92-.23-1.61-.46-2.3-.69-.46-.23-.69-.46-.92-.69-2.3-2.07-.69-4.82-.46-5.05,.69-1.15,1.38-2.07,2.07-3.21s1.38-2.3,2.07-3.21c1.61-2.98,2.98-5.74,3.67-8.72,.92-4.13,1.15-8.26,.69-12.62-.23-1.61-.23-3.21-.46-4.82,2.52-1.15,9.87-3.21,23.41,4.59,.23,.23,.46,.23,.92,.23,.69,0,1.15-.23,1.61-.69,.46-.92,.23-1.84-.69-2.3-12.85-7.34-21.11-6.66-25.25-5.28,0-10.33,2.3-22.26,8.49-30.07l.23-.23c.69-.23,2.98-.46,7.8,2.75,3.44,2.3,6.2,5.74,8.72,9.18,2.52,3.21,4.82,6.2,7.8,8.26,.46,.69,1.15,2.75,2.07,4.82,2.52,6.43,6.43,16.07,12.39,21.8h0c2.3,3.67,2.52,7.11,2.52,11.25v1.38c.23,2.52,1.38,3.67,2.3,4.13,1.38,.46,2.98,0,4.59-1.38,2.3-2.07,3.9-5.05,5.28-8.03,.69-1.15,1.38-2.52,2.07-3.67,.69,.92,1.84,1.84,2.75,2.52,2.75,2.07,4.82,3.67,2.3,9.18-.23,.46-.69,.69-1.15,.46-.46-.23-.46-1.15-.46-1.61,0-1.15-.69-2.07-1.84-2.3-1.15,0-2.07,.69-2.3,1.84-.23,3.67,1.84,5.51,3.67,5.97,.46,0,.69,.23,1.15,.23,2.07,0,3.9-1.15,4.82-2.98,3.67-8.49-.69-11.93-3.67-14.23-2.3-1.84-2.52-2.3-2.3-3.44v-.23c.92-1.38,2.07-2.3,2.07-2.3,1.61-.92,2.98-1.15,4.36-.92,1.84,.46,3.67,2.3,5.05,5.05,.69,1.15,1.15,2.75,1.15,4.13v1.84c0,2.52-.69,5.28-1.84,8.26-3.67,2.3-6.43,6.2-7.11,10.79-.69,1.15-1.61,1.84-2.75,2.07s-2.3,0-3.44-.69c0,0-.69-.69-.46-2.98,0-1.15-.69-2.07-1.84-2.3-1.15,0-2.07,.69-2.3,1.84-.46,4.59,1.84,6.43,2.07,6.66,1.61,1.15,3.44,1.84,5.05,1.84,.46,0,1.15,0,1.61-.23,.69-.23,1.38-.46,2.07-.69,1.38,6.2,6.2,10.79,12.62,11.7,.92,5.97,5.05,10.56,10.79,12.16,.46,9.87,1.84,23.41,11.02,33.74m-5.97-37.64c-4.59,0-8.72-2.98-10.33-7.11,1.15,.46,2.3,.69,3.67,.69,2.52,0,4.82-.92,6.89-2.52,1.84,1.38,4.13,2.3,6.66,2.3h0c1.15,0,2.3-.23,3.44-.69-1.61,4.36-5.51,7.34-10.33,7.34m30.52-7.34c-6.43,8.03-16.07,10.1-22.49,9.18,3.67-2.3,6.2-5.97,6.89-10.56,2.98-.46,5.51-1.61,7.57-3.44h.23c3.67,.92,6.89,1.15,10.1,1.38-.69,1.15-1.38,2.3-2.3,3.44m-4.59-8.72c1.15-2.07,1.84-4.36,2.07-6.89l20.89,3.9c-3.9,2.07-11.48,5.05-22.95,2.98m3.9-10.79c2.98-1.61,5.51-3.44,7.57-5.28,6.2,2.07,9.87,5.97,11.93,8.95l-19.51-3.67Z"/>
  <polygon class="cls-1" points="203.83 395.21 210.49 375.7 206.81 374.55 202.45 387.41 196.94 371.11 196.94 371.11 193.5 369.96 186.85 389.47 190.52 390.62 195.11 377.31 200.85 394.06 203.83 395.21"/>
  <path class="cls-1" d="M215.08,392.92l9.18,1.84,.92,5.28,4.13,.92-4.59-21.8h0l-3.44-.69-13.08,18.36,3.9,.92,2.98-4.82Zm2.07-3.21l4.59-6.66,1.61,8.03-6.2-1.38Z"/>
  <polygon class="cls-1" points="248.35 382.13 231.83 380.29 231.83 380.29 231.37 383.96 237.8 384.65 235.96 401.18 235.96 401.41 239.86 401.64 241.7 384.88 247.9 385.57 248.35 382.13"/>
</svg>