<?xml version="1.0" encoding="UTF-8"?>
<svg id="layer" xmlns="http://www.w3.org/2000/svg" viewBox="0 0 500 178.25">
  <defs>
    <style>
      .cls-1 {
        fill: #fff;
      }
    </style>
  </defs>
  <path class="cls-1" d="M37.42,6.5h-15.83V47.08h-5.83V6.5H0V1.33H37.42V6.5Zm34.83,40.58h-5.67V28.25c0-3.5-.58-6.08-1.83-7.75-1.17-1.67-3-2.58-5.25-2.58-1.08,0-2.25,.25-3.33,.67s-2.17,1.08-3.17,1.83c-1,.75-1.83,1.67-2.58,2.75s-1.33,2.25-1.75,3.58v20.33h-5.67V0h5.67V20.67c1.33-2.42,3.17-4.33,5.42-5.75,2.25-1.33,4.75-2.08,7.5-2.08,2,0,3.67,.33,5,1.08,1.33,.75,2.5,1.75,3.25,3,.83,1.25,1.42,2.75,1.75,4.5,.33,1.75,.58,3.58,.58,5.58,.08,0,.08,20.08,.08,20.08Zm23.75,.67c-2.5,0-4.83-.5-6.92-1.42s-3.92-2.17-5.42-3.75-2.67-3.42-3.5-5.58-1.25-4.33-1.25-6.75,.42-4.58,1.25-6.67,2-3.92,3.58-5.58c1.5-1.58,3.33-2.83,5.42-3.75s4.42-1.42,7-1.42,4.83,.5,6.92,1.42c2.08,.92,3.83,2.17,5.33,3.75,1.5,1.58,2.58,3.42,3.42,5.5s1.17,4.25,1.17,6.5v1.25c0,.42-.08,.67-.08,.92h-27.92c.17,1.67,.5,3.17,1.17,4.58,.67,1.42,1.5,2.58,2.5,3.58,1,1,2.17,1.75,3.5,2.33,1.33,.58,2.67,.83,4.17,.83,1,0,2-.17,3-.42,1-.25,1.92-.67,2.75-1.17s1.58-1.08,2.25-1.75c.67-.67,1.17-1.5,1.5-2.33l4.92,1.33c-.58,1.25-1.33,2.42-2.25,3.42-1,1-2.08,1.92-3.33,2.67-1.25,.75-2.67,1.33-4.25,1.75-1.67,.5-3.25,.75-4.92,.75Zm11.5-19.75c-.17-1.58-.5-3.08-1.17-4.42s-1.5-2.5-2.5-3.42-2.17-1.67-3.5-2.25c-1.33-.5-2.75-.83-4.25-.83s-2.92,.25-4.25,.83c-1.33,.5-2.5,1.25-3.5,2.25s-1.83,2.08-2.42,3.42-1,2.83-1.17,4.42h22.75Zm-62.42,122.83c-6.33,0-12.17-1.25-17.33-3.75s-9.67-5.83-13.33-9.92c-3.75-4.08-6.58-8.83-8.67-14.17-2.08-5.33-3.08-10.75-3.08-16.33s1.08-11.33,3.25-16.67c2.17-5.33,5.17-10,8.92-14.08,3.83-4.08,8.33-7.33,13.5-9.75s10.92-3.58,17-3.58,12,1.25,17.25,3.83c5.17,2.58,9.58,5.92,13.25,10.08s6.5,8.92,8.58,14.25c2,5.33,3.08,10.67,3.08,16.17,0,5.83-1.08,11.33-3.17,16.58s-5.08,9.92-8.83,14-8.25,7.25-13.5,9.67c-5.08,2.5-10.75,3.67-16.92,3.67Zm-25.25-44.08c0,3.75,.58,7.42,1.75,10.92,1.17,3.5,2.83,6.58,5,9.33,2.17,2.67,4.83,4.83,8,6.5s6.75,2.42,10.75,2.42,7.67-.83,10.83-2.5,5.83-3.92,8-6.67,3.83-5.92,4.92-9.33c1.08-3.5,1.67-7,1.67-10.58s-.58-7.42-1.75-10.92-2.83-6.58-5-9.33c-2.17-2.67-4.83-4.83-8-6.42-3.17-1.58-6.67-2.42-10.58-2.42s-7.75,.83-10.92,2.5c-3.17,1.67-5.83,3.92-8,6.58-2.08,2.75-3.75,5.83-4.83,9.33-1.25,3.5-1.83,7-1.83,10.58Zm114.33-6.5c-5,.08-9.42,1.08-13.33,2.92s-6.75,4.58-8.42,8.25v38.83h-16.42V86.08h15.08v13.75c1.17-2.17,2.5-4.17,4.08-5.92s3.25-3.25,5-4.58c1.83-1.33,3.58-2.33,5.42-3,1.83-.67,3.58-1,5.33-1h2c.42,0,.83,0,1.25,.08v14.83h0Zm29.5,51.25c-4.42,0-8.5-.83-12.25-2.58s-7-4.08-9.67-7.08c-2.67-3-4.83-6.58-6.33-10.58-1.5-4-2.25-8.42-2.25-13.08s.75-9,2.17-13c1.42-4,3.42-7.5,5.92-10.5s5.58-5.42,9.08-7.08c3.5-1.75,7.33-2.58,11.5-2.58,4.75,0,9,1.17,12.83,3.42,3.83,2.25,6.75,5.25,8.92,8.92V60.83h16.42v70.58c0,1.75,.25,2.92,.83,3.67s1.58,1.17,2.92,1.25v14c-2.83,.58-5.17,.83-7,.83-2.92,0-5.33-.75-7.25-2.17-1.92-1.5-2.92-3.42-3.17-5.75l-.33-4.08c-2.33,4.08-5.58,7.17-9.58,9.25-4.08,2-8.33,3.08-12.75,3.08Zm4.25-14c1.58,0,3.17-.25,4.75-.83,1.67-.5,3.17-1.25,4.5-2.25,1.42-1,2.67-2.08,3.75-3.42s1.92-2.75,2.5-4.25v-15.33c-.67-1.83-1.58-3.42-2.75-5-1.17-1.5-2.5-2.83-4.08-3.92-1.5-1.08-3.08-2-4.75-2.67-1.67-.67-3.33-1-5-1-2.42,0-4.75,.5-6.83,1.58s-3.83,2.5-5.33,4.33c-1.5,1.83-2.58,3.92-3.42,6.33-.83,2.33-1.25,4.83-1.25,7.33,0,2.67,.42,5.17,1.33,7.5,.92,2.25,2.08,4.25,3.67,6s3.42,3.08,5.58,4.08c2.33,1,4.75,1.5,7.33,1.5Zm45.08-60.42v-16.33h16.42v16.33h-16.42Zm0,73.17V86.08h16.42v64.17h-16.42Zm87.83,0h-16.42v-36c0-5.17-.92-8.92-2.67-11.25-1.83-2.33-4.25-3.58-7.5-3.58-1.67,0-3.33,.33-5,1-1.75,.67-3.33,1.58-4.83,2.75s-2.92,2.58-4.08,4.25c-1.25,1.67-2.08,3.42-2.67,5.42v37.5h-16.42V86.17h14.83v11.75c2.33-4.08,5.83-7.25,10.25-9.58,4.5-2.25,9.58-3.42,15.17-3.42,4,0,7.25,.75,9.83,2.17s4.5,3.42,5.92,5.75,2.33,5.08,2.92,8.08c.5,3,.83,6.08,.83,9.17l-.17,40.17h0Zm28.83,1.25c-3.08,0-6-.5-8.67-1.5s-5-2.42-7-4.25-3.5-4-4.58-6.42c-1.08-2.42-1.67-5.17-1.67-8.08s.67-5.83,2-8.42,3.25-4.75,5.67-6.58c2.42-1.83,5.25-3.17,8.67-4.25,3.33-1,7-1.5,11-1.5,2.83,0,5.67,.25,8.42,.75,2.75,.5,5.17,1.17,7.25,2.08v-3.75c0-4.25-1.17-7.5-3.58-9.83-2.42-2.25-6-3.42-10.75-3.42-3.42,0-6.75,.58-10.08,1.83-3.25,1.25-6.58,3-10.08,5.42l-5-10.42c8.25-5.5,17.17-8.17,26.67-8.17s16.42,2.25,21.5,6.83c5.08,4.5,7.67,11.08,7.67,19.67v20c0,1.75,.33,2.92,.92,3.67s1.58,1.17,3,1.25v14c-2.75,.58-5.17,.83-7.25,.83-3.08,0-5.5-.67-7.17-2.08s-2.75-3.25-3.08-5.5l-.33-3.58c-2.83,3.75-6.33,6.58-10.42,8.58-4.08,1.83-8.42,2.83-13.08,2.83Zm4.67-12c2.75,0,5.42-.5,7.92-1.5,2.5-1,4.42-2.25,5.83-3.92,1.83-1.42,2.67-2.92,2.67-4.67v-7.33c-2-.75-4.08-1.33-6.33-1.75s-4.5-.67-6.58-.67c-4.25,0-7.75,1-10.42,2.92s-4.08,4.33-4.08,7.25c0,2.75,1.08,5.08,3.17,6.92,2.08,1.83,4.67,2.75,7.83,2.75Zm83.25-39.25c-5,.08-9.42,1.08-13.33,2.92s-6.75,4.58-8.42,8.25v38.83h-16.42V86.08h15.08v13.75c1.17-2.17,2.5-4.17,4.08-5.92s3.25-3.25,5-4.58c1.83-1.33,3.58-2.33,5.42-3,1.83-.67,3.58-1,5.33-1h2c.42,0,.92,0,1.25,.08v14.83h0Zm9.17,62.5c1.42,.42,2.75,.75,4.08,.92,1.33,.17,2.42,.33,3.33,.33,1.08,0,2-.17,2.92-.58s1.75-1.08,2.42-2.17c.75-1,1.5-2.42,2.17-4.25,.75-1.83,1.5-4.08,2.33-6.75l-25.33-64.17h16.92l17.42,50,15.42-50h15.42l-26.92,76.92c-1.58,4.5-4.17,8.17-8,11-3.75,2.83-8.42,4.25-14,4.25-1.33,0-2.67-.08-4-.33-1.33-.17-2.75-.58-4.25-1.08v-14.08h.08Zm59.75-12.5v-17.67h13.5v17.67h-13.5Z"/>
</svg>