<?xml version="1.0" encoding="UTF-8"?>
<svg id="Layer_1" data-name="Layer 1" xmlns="http://www.w3.org/2000/svg" viewBox="0 0 400.54 500">
  <defs>
    <style>
      .cls-1 {
        fill: #fff;
      }
    </style>
  </defs>
  <path class="cls-1" d="M.15,205.99c-.15-2.38-.15-4.71-.15-7.09,0-1.54,.05-3.12,.05-4.66,1.68-43.78,16.81-83.09,43.08-117.2C87.21,22.15,151.02-5.86,222.11,1.03c45.52,4.96,85.58,23.85,119.09,56.67,37.04,37.13,57.36,84.88,59.2,136.54,.15,2.33,.15,4.71,.15,7.04,0,1.54,0,3.12-.05,4.71-1.69,43.73-16.81,83.04-43.08,117.15-44.08,54.88-107.84,82.9-178.93,76.05-45.56-4.96-85.62-23.85-119.14-56.72C22.31,305.34,2.03,257.6,.15,205.99h0Zm396.42,0c2.48-79.08-44.67-154.78-118.93-186.51-23.25-9.92-48.34-15.52-75.56-15.97-7.09,.2-15.22,.44-22.31,1.24C115.02,11.04,53.45,53.68,24.69,112.92c-12.64,24.84-19.53,51.91-20.82,81.31-2.33,79.08,44.77,154.78,119.04,186.46,23.25,9.91,48.34,15.57,75.56,16.01,7.1-.25,15.22-.44,22.31-1.24,64.8-6.3,126.32-48.93,155.08-108.23,12.64-24.84,19.58-51.91,20.82-81.26h-.1s0,0,0,0Zm-39.86-112.64l-10.36,7.09-1.98-.89c-3.02-3.57-5.7-8.62-9.47-11.7h-.55l-5.3,4.61,1.09,1.34c-1.01-.31-2.04-.55-3.08-.75-.88-.11-1.75-.33-2.58-.64l-.39-.5,10.81-9.57c4.26,4.26,7.34,9.12,11.05,13.73,2.13-.89,4.17-2.48,6.05-4.06-4.81-7.64-11.16-15.27-17.65-21.72l-.79,.15c-5.51,4.91-10.22,10.31-15.62,14.92-6.99-6.5-13.83-13.14-21.71-18.3l-.7-.79c2.83-4.07,5.5-8.13,8.43-12.05,4.16,3.12,8.67,6.54,13.19,9.91,1.58-1.49,3.12-3.52,4.37-5.21v-.64c-6.4-5.75-13.24-10.71-20.33-15.22h-.94c-3.82,6-7.98,11.85-11.21,17.99l-.59,.44c-8.08-4.91-16.41-9.67-25.18-13.24,1.79-4.51,3.27-9.22,5.51-13.63,5.3,2.13,10.26,5.06,15.52,7.19l3.27-6.15c-1.34-1.58-3.37-2.28-5.15-3.27-6-2.93-12.15-5.65-18.44-7.79l-.59,.35-7.19,20.23-.45,.25c-4.71-1.49-9.47-3.02-14.18-4.26-4.36-1.39-9.12-1.84-13.73-2.73,.44-4.81,1.69-9.67,2.28-14.63l.44-.2c5.26,1.34,10.81,2.13,15.97,3.47,.64-2.38,1.44-4.71,1.88-7.19-8.18-2.43-16.58-4.06-25.08-4.86-.9,6.59-1.64,13.29-2.58,19.93-.95-1.24-1.69-2.72-2.34-4.11-.05-.36-.15-.71-.3-1.04,.8-6.1,1.05-12.49,2.09-18.34,1.14-.45,1.78,.1,2.92,.1,10.17,1.2,20.21,3.24,30.04,6.1-1.34,4.46-2.72,8.97-3.96,13.49-3.03-.25-6.05-1.58-9.22-2.03-2.25-.58-4.53-.99-6.84-1.24-.89,2.23-.89,4.86-1.48,7.29,1.94,.7,4.06,.79,6,1.49,5.4,1.34,10.76,2.68,16.06,4.36,2.58-6.84,4.41-14.03,6.99-20.92,11.01,3.27,21.27,8.13,31.48,13.54l.35,.35c-2.28,4.12-4.62,8.43-6.89,12.59-4.81-2.38-9.52-5.21-14.58-7.09-.79,.1-.79,.99-1.13,1.54l-2.28,5.21c6.54,3.47,13.29,6.3,19.58,10.36,4.26-6.1,7.78-12.74,11.8-18.79,9.72,5.7,18.94,12.79,27.81,20.33l-.1,.7-8.92,10.01h-.99c-3.64-3.28-7.43-6.39-11.36-9.32l-.7-.15-4.26,5.75c5.76,4.86,11.9,10.01,17.65,15.42l15.67-15.52c8.62,8.43,16.41,17.85,23.25,27.57l-.34,.74h0Zm4.41,13.88l-2.19,1.19c-1.04-.79-2.13-1.54-3.17-2.33,2.38-1.34,4.71-2.73,7.04-4.16,4.67,7.29,8.71,14.97,12.05,22.95-.6-.79-1.2-1.54-1.89-2.13-1.68-2.87-4.31-5.4-6.64-7.93-1.39-2.58-2.83-5.2-4.51-7.58h-.69Zm-320.57-1.69l11.05,6.5c-.64,.89-1.64,1.68-2.38,2.58-4.56-2.53-9.07-4.96-13.53-7.64,1.34-2.93,3.02-5.75,4.86-8.53,4.91-7.88,10.66-15.22,16.85-22.31h.54c3.17,3.07,6.99,6.1,10.11,9.02-3.12,4.81-7.39,9.57-10.66,14.38l.1,.44,.84,.6c-1.06,.83-2.06,1.74-2.97,2.73-1.05-.71-2.09-1.44-3.12-2.18v-.55c3.52-4.89,7.11-9.73,10.76-14.52-1.24-1.79-3.22-2.83-5.06-4.36h-.89c-6.3,7.54-12.25,15.37-16.51,23.85h0Zm-3.22,74.32c-.3,2.14-.55,4.29-.75,6.44-1.34,.45-3.12,.2-4.61,.1l-9.77-.89c-.1-5.06,1.09-10.06,1.79-15.12l.4-.15c.59,2.03,1.09,4.17,2.08,6.05-.25,1.89-.45,3.77-.55,5.6,2.33,.54,4.71,.79,7.19,.89l.4-2.48h.79c1.19,.4,2.13,0,3.02-.45h0Zm-.75-56.71c-.79-.3-1.64-.59-2.23-1.09-.79-.2-1.69-.79-2.48-.55-1.54,3.03-2.98,6.1-4.31,9.22-2.18,2.13-4.26,4.26-6.1,6.64,2.58-7.24,5.5-14.33,9.07-21.17l.54-.2c2.93,1.64,6.05,3.07,9.12,4.61-1.24,.79-2.43,1.64-3.62,2.53ZM210.95,36.43c-5.99-.28-12-.31-17.99-.1-.54-5.06-.69-10.11-.69-14.73,5.65-.7,10.61,.1,16.31-.1,.44-2.38,.79-4.96,.24-7.34l-.24-.35c-7.74-.44-16.41-.44-24.3,.59l-.55,.55c.55,6.99,1.14,14.28,2.03,21.17l-.89,.89c-9.47,.55-18.34,2.92-27.02,4.71-1.68-4.61-2.68-9.32-4.06-13.93l.69-.6c4.81-.89,9.67-1.88,14.38-3.22-.29-2.48-.89-4.86-1.54-7.24-8.23,1.14-15.87,3.27-23.4,5.85v1.39c1.98,6.74,4.61,13.24,6.15,20.13-6.59,2.33-12.99,4.81-19.24,7.73-.79-.5-1.77-.58-2.63-.2-1.54,1.34-3.12,2.53-4.51,3.82-2.63-4.17-4.86-8.68-6.99-13.04,4.91-2.63,10.01-4.76,14.92-7.09-.3-2.48-1.44-5.06-3.02-7.09-7.98,3.37-15.87,6.94-23.3,11.9,3.52,6.44,7.54,12.59,11.4,18.89-7.54,5.31-15.42,10.01-22.31,16.21l-2.92,2.58c-3.22-3.22-6.3-6.94-9.67-10.66,2.48-3.02,5.75-5.3,8.78-7.78,1.68-1.44,3.97-2.68,5.5-4.36-1.24-2.03-2.68-3.82-4.26-5.75-8.18,5.3-15.42,11.5-22.61,19.14,4.71,4.81,10.81,10.91,15.52,15.62l-2.13,2.33c-.79,.3-1.54,.59-2.28,.84-1.89,.84-3.77,1.69-5.6,2.58,.99-1.19,2.03-2.33,3.07-3.47l1.98-2.28c-5.06-5.5-10.31-9.67-15.52-15.62,8.58-9.47,18.59-16.91,28.26-24.2h.64l7.54,11.01v1.04c-4.61,3.37-9.32,6.84-13.48,10.66v.6c1.49,1.98,2.92,3.37,4.61,5.26,6.54-5.06,13.04-10.31,19.93-14.83-3.97-6.2-7.69-12.49-11.5-18.69,10.26-6.05,20.38-11.7,31.08-15.96,1.79,4.26,3.67,8.78,5.16,13.29l-.1,.45c-4.96,2.13-10.16,4.17-14.87,6.94,.7,2.38,2.28,4.31,3.37,6.54,6.91-3.22,13.92-6.21,21.02-8.97-2.13-7.09-4.81-13.88-6.84-21.07,10.36-3.12,20.92-6.2,31.73-7.73,.99,4.46,1.14,9.42,2.58,13.83-2.93,1.09-6.2,1.09-9.12,2.03-2.13,.3-4.26,.74-6.15,1.78l1.54,6.99c3.27,0,6.2-1.59,9.47-1.68,4.17-1.04,8.53-1.49,12.69-2.28-.19-7.29-1.54-14.63-2.13-21.81l.25-.45c10.81-.79,21.81-1.34,32.62-.45,.44,4.51-.79,9.32-.59,13.73,.25,.64-.55,.55-.99,.64-4.61-.2-10.36-.64-14.63-.1-.35,2.03-.25,4.96,0,7.29,5.6,.3,11.01,.5,16.41,.75l-.15,.4c-.55,1-1.09,2.04-1.64,3.03h0Zm167.33,143.33l.39,2.38c2.48-.15,5.06-.35,7.29-1.04l-.15-1.54c.59-.3,1.34-.4,1.88-.79,.3-.4,.55-1.09,.99-1.19,.55,2.68,.8,5.15,.99,7.58-4.71,.35-9.66,1.14-14.18,.8-.25-2.63-.49-5.31-.84-7.93,.25-.05,.5-.15,.7-.2,.7,.89,1.74,1.63,2.93,1.93h0Zm-13.58,18.34c-.07-8.03-.8-16.04-2.19-23.95,1.29,1.24,2.63,2.48,4.01,3.17,.8,5.5,1.49,11.01,1.54,16.91l.4,5.85,.44,.3,20.47,.15c.35,.3,.99,.1,1.09,.64-.1,12.94-1.88,25.34-4.12,37.13l-.34,.35c-4.51-1.14-9.22-1.83-13.74-2.83-.89-1.34,.55-2.58,.35-4.06,1-4.44,1.68-8.95,2.03-13.49-2.38-.52-4.8-.82-7.23-.89-1.44,8.67-2.78,17.3-5.06,25.53,1.69,1.34,4.26,1.24,6.44,2.13,4.91,1.24,9.67,2.58,14.48,4.06l.25,.35c-3.72,11.8-7.78,23.5-13.48,34.51l-.59,.25c-3.92-2.28-8.18-4.07-12.15-6.19,1.78-5.31,4.61-10.11,6.39-15.52-2.33-1.04-4.61-2.28-7.04-2.58-2.92,7.73-6.89,15.17-10.71,22.61,6.3,3.72,12.69,6.94,18.89,10.66-1.34,2.92-3.03,5.75-4.81,8.58-4.96,7.83-10.71,15.17-16.91,22.26h-.55c-3.17-3.02-6.99-6.09-10.11-9.02,3.12-4.81,7.39-9.52,10.66-14.38l-.1-.44-5.6-3.97c-4.76,5.85-9.57,12.05-14.63,17.7l-2.03,2.23c5.06,5.51,10.31,9.67,15.52,15.62-8.58,9.47-18.59,16.91-28.26,24.2h-.64l-7.54-11.01v-1.05c4.61-3.37,9.32-6.84,13.48-10.66v-.55c-1.48-2.03-2.92-3.37-4.61-5.3-6.54,5.05-13.04,10.36-19.93,14.83,3.96,6.19,7.68,12.49,11.5,18.69-10.26,6.1-20.37,11.7-31.04,15.97-1.84-4.26-3.72-8.77-5.2-13.24l.09-.49c4.96-2.13,10.16-4.12,14.87-6.94-.7-2.38-2.23-4.26-3.37-6.54-6.92,3.21-13.93,6.22-21.02,9.02,2.13,7.09,4.81,13.83,6.84,21.02-10.36,3.17-20.93,6.19-31.73,7.78-.99-4.51-1.09-9.47-2.58-13.88,2.92-1.09,6.19-1.09,9.12-1.98,2.13-.34,4.26-.79,6.2-1.84l-1.58-6.94c-3.27,0-6.2,1.54-9.47,1.69-4.17,.99-8.53,1.44-12.69,2.23,.19,7.34,1.58,14.63,2.13,21.82l-.25,.44c-10.76,.79-21.81,1.39-32.62,.44-.44-4.46,.79-9.32,.59-13.69-.25-.69,.55-.59,.99-.69,4.61,.24,10.36,.69,14.63,.09,.34-2.03,.25-4.96,0-7.29-7.29-.34-14.28-.59-21.27-1.04-1.24,7.09-1.34,14.87-2.58,21.86-1.14,.44-1.79-.15-2.92-.15-10.16-1.21-20.21-3.23-30.04-6.05,1.39-4.51,2.72-9.02,3.97-13.53,3.03,.25,6.05,1.58,9.22,2.03,2.24,.62,4.53,1.04,6.84,1.24,.89-2.23,.89-4.81,1.49-7.29-1.93-.7-4.07-.8-6-1.49-5.36-1.34-10.76-2.67-16.06-4.36-2.58,6.84-4.36,14.03-6.99,20.92-11.01-3.27-21.22-8.13-31.48-13.48l-.35-.35,6.89-12.59c4.81,2.34,9.57,5.15,14.63,7.09,.75-.15,.75-1.04,1.09-1.58l2.28-5.2c-6.54-3.48-13.29-6.3-19.58-10.32-4.26,6.05-7.78,12.69-11.8,18.79-9.67-5.76-18.94-12.84-27.81-20.38l.15-.7,8.87-10.01h.99c3.66,3.27,7.45,6.4,11.35,9.37l.7,.1,4.26-5.76c-5.75-4.81-11.9-10.01-17.65-15.42l-15.62,15.57c-8.68-8.48-16.46-17.9-23.3-27.56l.35-.8,11.11-7.54c3.62,3.57,6.44,9.57,10.71,13.04h.54l5.3-4.62c-5.3-6.54-10.36-13.19-14.43-20.28l-.45-.3c-6.3,3.82-12.69,7.29-18.89,11.11-6.7-10.36-12.03-21.54-15.87-33.27,.89-.79,2.28-.79,3.07-1.48,3.22-1.24,6.74-2.33,10.11-3.37,2.03,5.3,4.01,10.71,6.84,15.77,2.58,0,4.61-1.94,6.99-2.93-3.52-7.87-6.65-15.91-9.37-24.1-6.94,2.03-13.93,4.07-20.92,6.3-4.26-12.5-6.5-26.53-7.73-40.16,4.71-.3,9.67-1.09,14.18-.79,.64,6.2,1.09,12.74,2.68,18.69l.35,.45c2.58-.1,4.96-.79,7.19-1.44-1.09-8.73-2.68-16.86-2.78-25.93l-.4-5.85-.44-.35-20.48-.1c-.3-.35-.99-.15-1.09-.7,.05-8.38,.84-16.51,1.98-24.39,1.29-.1,2.58-.54,3.77-.84-.6,3.57-.94,7.24-1.39,10.71-.1,3.82-.89,7.54-.2,11.35,7.09,.5,14.28,.35,21.56,.69l.05,5.55c.1,11.26,1.54,22.31,3.92,32.77l-.45,.45c-4.71,.64-9.47,1.69-14.08,2.78-1.34-6.49-2.23-13.48-3.37-19.98-2.48,.1-5.06,.3-7.29,.99,.99,10.91,3.12,20.82,5.95,30.94,6.2-.9,12.05-3.17,18.1-4.61,1.24-.1,2.63-1.49,3.82-.44,2.28,10.46,6.79,20.03,11.5,29.45l-.25,.59-12.44,6.3-.6-.15c-2.68-5.36-5.15-10.91-7.54-16.51l-6.74,2.48c1.14,5.4,3.92,10.36,6.3,15.42,1.93,3.47,3.72,7.19,6.1,10.46h.64l18.59-10.46,.3,.2c5.2,8.87,11.5,17.55,18.14,25.53l-10.81,9.57c-4.26-4.26-7.34-9.12-11.01-13.73-2.18,.89-4.17,2.48-6.1,4.06,4.86,7.64,11.16,15.32,17.65,21.72l.79-.09c5.5-4.96,10.26-10.36,15.62-14.97,6.99,6.49,13.88,13.14,21.71,18.34l.69,.8c-2.83,4.01-5.5,8.08-8.43,12-4.39-3.29-8.79-6.58-13.19-9.87-1.54,1.44-3.12,3.47-4.36,5.15v.7c6.4,5.7,13.29,10.66,20.38,15.17h.89c3.82-5.95,7.98-11.8,11.26-18l.54-.44c1.73,1.04,3.47,2.08,5.26,3.12,.5,.64,1.04,1.28,1.68,1.83,.54,.25,.69,.84,1.09,1.29,.1,.2,.5,.2,.5,.5,3.03,2.28,6.05,4.51,9.67,5.55,1.93,.79,4.07,.94,6,1.38l.79,.05c-1.68,4.36-3.12,8.92-5.3,13.14-5.3-2.13-10.21-5.06-15.52-7.19l-3.27,6.2c1.34,1.53,3.37,2.23,5.15,3.22,6,2.93,12.15,5.65,18.49,7.79l.54-.35,7.19-20.22,.45-.25c4.71,1.48,9.47,3.07,14.18,4.31,4.41,1.34,9.12,1.79,13.73,2.68-.45,4.86-1.68,9.66-2.28,14.63l-.45,.2c-5.26-1.34-10.76-2.13-15.96-3.48-.64,2.38-1.44,4.71-1.89,7.19,8.18,2.44,16.59,4.07,25.09,4.87,.99-7.34,1.79-14.73,2.93-22.07,8.87,.9,18.54,1.14,27.42,.8,.59,5.05,.7,10.11,.7,14.73-5.65,.7-10.56-.1-16.32,.15-.44,2.33-.79,4.91-.25,7.29l.25,.34c7.74,.44,16.41,.44,24.29-.55l.55-.59c-.55-6.99-1.09-14.28-2.03-21.11l.95-.95c9.42-.55,18.3-2.93,26.97-4.71,1.69,4.61,2.72,9.32,4.07,13.98l-.7,.55c-4.81,.89-9.67,1.88-14.38,3.27,.35,2.48,.89,4.81,1.58,7.19,8.18-1.14,15.82-3.27,23.36-5.85v-1.34c-1.98-6.74-4.62-13.28-6.15-20.12,4.31-1.54,8.58-3.12,12.74-4.91,.99-.15,2.03-.34,3.07-.39,1.64-.15,3.17-1.14,4.76-1.59,2.29-1.01,4.44-2.31,6.4-3.87,2.27,4.09,4.41,8.24,6.44,12.44-4.95,2.59-10.01,4.71-14.97,7.04,.34,2.48,1.44,5.1,3.02,7.09,7.98-3.37,15.87-6.94,23.3-11.9-3.52-6.4-7.54-12.59-11.36-18.89,7.54-5.3,15.37-10.01,22.26-16.21l2.92-2.58c3.27,3.27,6.3,6.99,9.67,10.66-2.48,3.08-5.75,5.3-8.77,7.79-1.69,1.44-3.92,2.67-5.51,4.36,1.24,2.03,2.68,3.87,4.26,5.75,8.23-5.26,15.42-11.45,22.61-19.14-5.15-5.23-10.32-10.43-15.52-15.62,6.99-7.53,14.28-15.87,20.22-24.64h.89c3.72,2.58,7.69,4.86,11.4,7.54v.59c-3.56,4.86-7.17,9.68-10.81,14.48,1.24,1.84,3.27,2.83,5.06,4.41h.89c6.3-7.54,12.25-15.42,16.56-23.85l-18.59-10.91v-1.04c5.5-8.63,9.47-18,13.19-27.32l.44-.34c4.37,1.79,8.97,3.17,13.49,4.86-1.69,5.4-4.26,10.46-6.54,15.72,.94,1.48,2.92,1.48,4.16,2.48,.8,.25,1.69,.8,2.48,.59,4.31-8.57,7.89-17.45,10.36-26.92-6.99-2.13-14.08-4.26-21.02-6.4,2.77-10.36,4.95-20.38,5.95-31.48,1.34-.45,3.18-.25,4.62-.15l9.77,.94c.15,5.95-1.54,11.8-2.13,17.75,2.13,.79,4.51,.99,6.74,1.49,1.94-5.75,2.38-12.3,3.17-18.24,.1-3.82,.9-7.54,.25-11.35-7.09-.44-14.33-.35-21.61-.69l-.05-5.54h0Zm-207.19,149.82c26.62,7.39,57.31,7.64,83.88,.3,.3,.15,.59,.3,.95,.39,1.53,.35,2.87,1.24,4.51,1.54-26.57,8.38-55.48,9.52-84.68,2.68-3.22-.74-6.41-1.6-9.57-2.58,1.69-.7,3.32-1.49,4.91-2.34h0ZM46.7,194.23c-2.13,51.66,23,101.09,63.9,130.79,.1,.7,.25,1.34,.45,1.94,0,.94,.1,1.88,.3,2.77-25.68-17.94-46.75-43.67-57.31-72.19-6.2-15.96-10.22-33.36-10.91-51.56h-.35c-.14-5.37-.01-10.75,.4-16.11,1.24,.84,2.38,1.68,3.62,2.48l-.1,1.88h0Zm307.08,11.75c.43-9.81-.12-19.64-1.63-29.35,1.19-.1,2.33-.74,3.32-1.54,1.05,6.33,1.7,12.72,1.94,19.14h.34c.89,38.22-11.55,73.08-33.86,102.58-11.01,13.63-23.65,25.18-37.48,34.36,.19-.64,.59-1.23,.8-1.93,.09-1.24,.59-2.34,.89-3.52,2.45-1.72,4.86-3.49,7.24-5.3,35.59-28.8,56.12-68.87,58.5-114.42h-.05ZM169.75,49.47c-10.61,2.03-20.77,5.26-30,9.57-.79,.35-1.58,.74-2.38,1.09-.6-.35-1.09-.7-1.64-.99-.35-.25-.64-.64-.89-.84-.29-.14-.56-.32-.79-.54,13.8-6.56,28.51-11.02,43.63-13.24-2.03,1.09-4.02,2.18-6,3.42-.62,.55-1.26,1.06-1.93,1.54h0Zm91.57,143.73c-.84,.15-1.39,.7-1.79,1.24-.15,.25-.34,.54-.49,.84l-.3,.64c-1.94,1.98-3.87,3.62-6.4,3.92-2.93-.44-5.51-1.93-7.93-3.77-.53-.2-1.04-.43-1.53-.69-.55-.3-1.09-.65-1.64-.94-4.31-3.03-10.41-2.33-15.37-1.59-2.53,0-4.76,1.09-6.69,2.43-.67,.15-1.28,.47-1.78,.94-.5,.4-.99,.83-1.44,1.29-.24,.17-.45,.37-.64,.6-.2,.25-.5,.59-.59,.99l-.05,.25c0,.15-.05,.3-.05,.5,.05,.54,.49,.94,1.29,.74l.34-.05,.65-.25,.79,.4,.05-1.24s.15-.15,.4-.3c.24-.15,.54-.3,.84-.45,1.53-1.09,2.92-1.73,4.56-2.23,1.58-.55,3.42-.89,5.76-1.39,4.11,.15,6.69,.55,9.52,1.64,1.88,.89,3.32,1.89,4.51,2.83l.7,.64-.6-.25c-.43-.18-.88-.31-1.34-.4-4.76-1.54-9.82-2.38-15.12-1.84-4.41,.79-8.77,2.98-11.65,6.25-.05,.1-.1,.15-.25,.5-.22,.27-.38,.57-.49,.89-.12,.43-.07,.9,.15,1.29-.19,.08-.36,.19-.5,.35-.24,.4-.33,.88-.25,1.34,.05,.35,.2,.69,.25,1.04,.35,.89,.95,1.19,1.49,1.39,.19,.1,.44,.15,.69,.25,.28,.09,.55,.22,.8,.4,2.92,.5,5.5,1.49,8.38,2.13,5.4,1.64,11.65,1.04,16.46-1.49,2.72-1.14,5.45-2.78,7.93-4.56l.5-.5,.49-.35c.15-.2,.2-.25,.5-.54l.44-.75c-.05-.5-.15-.84-.44-1.14l-.3-.25-.5-.35-.3-.2-.65-.4-.3-.2c1.64,.05,3.62,0,4.41-.1,1.09-.54,2.13-.79,3.02-1.19,.99-.4,1.89-.99,2.58-2.18,.15-.1,.3-.2,.4-.3l.3-.4c.2-.25,.35-.44,.74-.74,.2-.4,.5-.79,.75-1.19,.25-.45,.54-.89,.7-1.39,.34-.75-.05-1.54-.7-2.08l-.29-.03h0Zm-42.44,15.22c-.4-.1-.84-.15-1.24-.3-.59-.15-1.11-.52-1.44-1.04l.25-.25c.4-.84,1.14-1.39,2.18-2.03l.5-.45c-.17,.71-.23,1.45-.15,2.18,.09,.64,.24,1.34,.39,1.98l-.49-.1Zm24.09-.05c-.19,.1-.39,.15-.54,.25l-.65,.35c-.22,.12-.46,.22-.7,.3l-.4,.1c-4.06,2.68-9.81,2.28-14.87,1.19-1.69-.25-2.92-1.64-3.72-3.22-.09-.25-.09-.5-.05-.89,0-.45,.1-.84,.15-1.29,.05-.79-.05-1.73-1.09-2.23,5.55-3.32,13.39-3.17,19.09-.64,.3,.2,.59,.4,.95,.54,.29,.15,.69,.3,.99,.44,.65,.35,1.05,.64,1.29,.99,0,.84,.2,1.78,.2,2.62,0,.85-.14,1.3-.64,1.49h0Zm3.52-2.13c-.35,.2-.59,.05-.7-.35-.15-.84,.7-.2,1.09-.25,0,.2-.29,.45-.4,.6h0Zm15.91-18.34c-1.19,.15-2.33,.4-3.47,.59s-2.28,.35-3.37,.2c-1.62-.08-3.23-.31-4.81-.69-.51-.28-1.04-.53-1.58-.75-.55-.2-1.09-.35-1.64-.55-1.09-.3-2.18-.64-3.17-1.29-2.77-1.09-5.75-1.74-8.58-2.88-2.09-.3-4.01-.15-6.25,.2-1.34,.55-2.83,.99-4.31,1.44-1.44,.5-2.92,1.09-4.26,2.13-.24,.6-.79,.94-1.34,1.29l-.44,.3c-.15,.1-.3,.2-.4,.3-.27,.24-.49,.52-.64,.84-1.05,.89-2.04,1.93-3.12,2.83-1.05,.94-2.23,1.73-3.62,2.13-.24,.15-.74,.45-.89,.99,.35,.59,1.04,.7,1.58,.64h.95c.3,0,.55,0,.94,.05,1.2-.4,2.19-1.09,3.08-1.93s1.73-1.73,2.62-2.58c1.74-1.98,3.82-3.62,6.44-4.46,.84-.05,1.54-.35,2.19-.69l.99-.5c.3-.15,.59-.25,.94-.4,.59,.15,1.2,.15,1.79,.15,.64-.05,1.29-.1,1.93-.1,1.24-.05,2.43,.05,3.47,.75,2.38,.44,4.32,1.39,6.99,2.08,.65,.44,1.39,.74,2.09,1.04s1.38,.54,1.88,.84l.34,.05h.35c.1,0,.19,0,.55,.15,2.08,.29,4.12,.7,6.09,.79,1.94,.1,3.87-.15,5.85-1.09,.35,.1,.55,0,.7-.2l.3-.25,.3-.4c0-.1,.05-.25,.05-.34-.02-.25-.07-.5-.52-.7h0Zm-81.95,66.63c.94-.19,1.89-.44,2.78-.7,.94-.24,1.83-.39,2.73-.44,.99-.25,2.03-.15,3.02,.15,1.04,.25,2.03,.7,3.12,1.05,.5-.1,.7-.8,.59-1.29-.33-.44-.75-.79-1.24-1.05-2.93-2.87-7.98-2.13-11.4-.89-.6,.05-1.24,.3-1.88,.4-.6,.09-1.09,.05-1.49-.5-.79-.64-.94-1.78-.79-2.92-.54-.6-1.44-.4-2.03,.15-.59,1.88,.3,3.57,1.34,4.76,1.54,1.59,3.42,1.64,5.26,1.29h0Zm34.06,23.8c-3.02,.99-6.3,1.98-9.72,2.13-1.63,.4-3.27,.35-4.96,.1-1.64-.24-3.27-.64-4.86-.89-1.2-.1-2.41-.1-3.62,0-1.14,.1-2.28,.3-3.42,.44-2.28,.3-4.51,.5-6.94-.05-.69,0-1.24-.3-1.83-.59-.29-.19-.59-.35-.89-.5-.3-.1-.64-.25-1.04-.25-.64-.34-1.04,.35-1.09,.7-.2,.44-.05,.8,.15,1.09,.1,.1,.2,.25,.3,.39,.1,.1,.2,.2,.3,.4,3.17,2.57,8.08,2.72,11.9,1.78,1.39-.55,2.83-.59,4.36-.49,1.49,.09,3.02,.3,4.46,.3,2.78,.84,5.6,.74,8.38,.3,2.72-.44,5.5-1.24,8.13-1.94,.5-.19,1.14-.35,1.64-.59,.67-.25,1.14-.87,1.19-1.58-.3-.85-1.59-1.59-2.44-.75h0Zm10.81-8.38c-.3-.34-.59-.7-.95-1.04-.7-.7-1.58-1.29-2.92-1.29l-.3,.09c-1.14,.75-.65,1.74-.35,2.23l.2,.3c.05,.1,.05,.2,0,.35-1.54,.69-3.27,1.14-4.96,1.44-2.18,.39-4.31,0-6.49-.55l-3.27-.89c-1.14-.25-2.28-.5-3.48-.55-1.39,.05-2.53,.59-3.52,1.09-.44,.25-.94,.5-1.44,.7-.44,.19-.91,.33-1.39,.4-1.34-.59-2.72-1.19-4.26-1.58s-3.22-.55-4.96-.19c-1.44,.19-2.83,.59-4.16,.94-1.29,.35-2.53,.7-3.72,.8-1.29,0-2.58,.19-3.82,.15-.89,0-1.73-.15-2.53-.8,.05-.15,.1-.44,.05-.7,0-.4-.21-.77-.55-.99-.99-.44-1.79-.19-2.43,.3-.3,.19-.54,.44-.79,.69l-.35,.35-.3,.3-.19,.25c-.08,.24-.22,.46-.4,.64-.2,.25-.4,.44-.59,.65-.44,.49-.94,1.14-.7,2.38,.35,.55,1.04,1.14,1.93,1.04l.35-.15,.79-.79c.22-.22,.47-.41,.75-.55,.4-.1,.84,0,1.29,.25,2.83,1.68,5.65,1.39,8.33,.64,1.29-.34,2.58-.84,3.87-1.29,1.29-.39,2.53-.74,3.92-.89,1.29-.34,2.48-.1,3.67,.35,1.29,.44,2.48,1.13,3.67,1.68,1.24,.44,2.33,.3,3.32-.09,.5-.2,.94-.45,1.34-.7,.4-.25,.79-.55,1.14-.84,1.24-1.09,3.42-.74,5.25-.1,2.63,1.84,6.69,2.18,9.92,1.49,1.24-.4,2.62-.7,3.96-.99,1.3-.3,2.58-.6,3.87-1.09l1.3,.74c.84,.5,1.68,0,1.98-.7l.05-.44c-.3-.74-.65-1.58-1.34-2.18-.24-.25-.54-.55-.78-.85h0Zm-33.32-19.04c.64,.3,1.39,.55,2.13,.74,.74,.19,1.49,.35,2.33,.5,1.54-.15,3.17-.5,4.66-1.29l.25-.4v-.7c0-.3-.1-.69-.75-1.09-.94-.05-1.93,.05-2.88,.05-.94,.05-1.89,.1-2.83-.05-2.58-.25-4.16-2.03-4.86-4.46-1.09-3.32-.7-6.4,.05-9.47,.35-1.58,.74-3.12,1.09-4.71,.3-1.54,.55-3.12,.64-5.11-.1-2.13-.44-4.46-.6-6.84-.15-2.33-.15-4.66,.5-6.89-.15-1.84-.05-3.57,.05-5.26,.1-1.68,.15-3.32-.05-5.01,.29-.51,.34-1.13,.15-1.68-.05-.25-.15-.5-.2-.79-.1-.25-.1-.45-.1-.7l-.15-.35c-.25-.2-.35-.4-.45-.75l-.15-.25h-.3c-.35,0-.59,.05-.79,.2l-.35,.3-.84,.4,.55,.25-.15,.35c-.2,3.32,.3,6.5,.1,9.42-.05,2.08-.5,3.97-.69,5.85-.3,1.93-.35,3.87,.25,5.9,.1,1.29,.25,2.58,.35,3.87,.15,1.24,.2,2.53,.05,3.77-.25,1.24-.45,2.58-.74,3.92-.25,1.29-.55,2.58-1.04,3.87-.69,4.51-1.19,9.27,1.39,13.29,.7,1.54,1.93,2.53,3.37,3.13h0ZM270.54,59.23l.74,.64c4.07,3.03,8.48,5.21,13.19,7.39-4.51-2.91-9.16-5.59-13.93-8.03Zm-56.02,159.69c.35,.25,.8,0,.8-.44-.35-.64-.2-1.19-.44-1.88-.3-.84-1.09-1.39-1.29-2.28-1.54-2.58-2.34-5.4-3.18-8.23-.34-.69-.89-1.29-1.63-1.34-.23,.16-.42,.39-.55,.64,.1,2.28,.7,4.66,1.58,6.79,1.24,2.38,2.24,5.3,4.71,6.74h0Zm-12.09,33.92c.2,.14,.45,.19,.7,.15,.44-.2,.99-.3,1.68-.3h1.89c1.58-.09,3.27-.09,4.85-.3,1.64-.24,3.23-.7,4.47-1.73,2.08-1.04,2.13-3.57,1.84-5.65l-.55-.75c-1.14-.1-1.64,.5-1.84,1.29-.11,.37-.2,.75-.25,1.14-.1,.35-.15,.7-.25,.94-1.84,2.53-5.4,2.68-8.43,2.48l-3.87,.95c-.09,.1-.19,.15-.3,.25l-.35,.24c-.25,.25-.4,.55-.05,1.05l.44,.25h0Zm-6.79,5.2c-.64,.09-.54,.8-.75,1.24,1.84,1.04,4.46,2.08,6.4,.39,.25-.49,.79-.89,.64-1.54,.05-.44-.3-.49-.64-.49-1.39,.95-3.92,.85-5.65,.4h0Zm12.25,5.16c-.7-.4-1.39-.84-2.13-1.24-.75-.38-1.55-.63-2.38-.74-1.29-.4-2.33-.1-3.32,.34-.45,.2-.94,.45-1.39,.7-.44,.2-.84,.4-1.29,.5-2.13-1.34-4.26-1.09-6.3-.35-1.04,.4-2.03,.84-3.07,1.34-.97,.44-1.96,.82-2.98,1.14-.3,.18-.64,.26-.99,.24-.35,0-.75-.09-1.09-.15-.75-.15-1.64-.24-2.23,.55-.2,.25-.15,.5-.05,.7,0,.1,.05,.19,.35,.55,1.98,.84,4.01,.79,6,.05,.6-.15,1.14-.4,1.68-.64,.55-.25,1.04-.5,1.54-.75,.99-.44,1.93-.84,3.03-.79l.25-.05c.35-.05,.7,.05,1.09,.24l.64,.25c.23,.12,.48,.19,.75,.19,.15,0,.35,.05,.54,.1,.2,.05,.44,.15,.64,.25,.45,.15,.99,.3,1.64,.1,2.03-1.69,3.97-1.29,6-.5,1.05,.4,2.09,.89,3.18,1.29,1.09,.35,2.23,.59,3.47,.5l.34-.2,.44-.05c.15,0,.3,0,.5-.05,.19-.05,.34-.14,.49-.44,.1-.49-.05-1.34-.79-1.63-1.79,.15-3.17-.55-4.56-1.44h0Zm182.79-94.25c0-2.63-.89-5.31-1.23-7.93-.75-.99-.5-2.33-1.05-3.27-.19-2.53-1.93-4.36-2.43-6.74-1.48-3.72-3.27-6.94-5.35-10.56-.2-2.72-.5-5.06-1.2-7.54-.44-.44-.54-.79-.89-1.24-.09-.44-.44-.84-.54-1.39-.3-.25-.35-.74-.65-1.09-1.09-2.23-2.53-4.81-4.37-6.45-1.78-3.03-4.61-5.65-6.99-8.28-.55-.44-1.54-.94-1.84-1.54-2.68-2.78-6.05-5.15-9.22-7.58-.78-.32-1.52-.76-2.18-1.29-1.79-1.19-3.87-2.33-5.8-3.37-4.16-1.73-7.93-3.67-12.3-5.26-2.48-.89-4.91-1.93-7.58-2.38-2.33-.2-4.21-1.58-6.24-2.33-1.88-.55-3.18-2.08-4.71-2.98-1.54-1.44-3.37-2.33-4.81-3.62-1.34-.89-2.72-1.58-3.72-2.73-4.46-3.47-7.93-9.17-13.19-11.95-3.27-.94-6.74-2.63-10.01-2.18-4.61-2.18-9.02-4.36-13.09-7.39-1.34-1.24-2.72-2.28-4.21-3.37-5.7-5.8-13.04-9.87-21.42-9.96-1.34,.19-2.68,.74-3.97,.44-3.62-6.2-11.05-6.84-17.2-9.02-3.12-1.19-4.81-4.22-6.1-7.09-.09-.84-.64-1.49-.7-2.48-.29-.64-.94-1.09-1.53-1.39-.9-.4-1.84,.15-2.48,.69-.64,1.89-.39,3.97-1.09,5.7-.74,1.29-1.49,2.78-2.19,3.97-1.44,2.18-4.06,3.92-6.15,4.26-2.03-1.14-4.31-1.49-6.54-1.98-.84-.15-1.98,0-2.78-.2-4.96,.2-10.07,1.09-13.93,3.32-3.27,1.74-6.25,3.27-9.32,5.15-2.58,2.48-5.9,3.57-8.48,5.9-1.88,1.09-3.12,2.08-4.96,3.07-4.46,3.17-10.36,5.55-16.06,4.91-2.43,.35-4.56-1.64-6.44-2.68-.35-.25-.64-.64-.89-.84-1.83-.89-2.03-3.07-3.12-4.41-.89-.45-.35-1.64-1.09-2.23-.77-.35-1.66-.35-2.43,0-3.17,2.73-6.5,4.91-8.03,8.63-1.39,3.32-3.07,6.74-2.48,10.86-1.34,1.14-3.17,1.78-4.61,2.93-.99,.89-2.53,1.73-3.62,2.87-1.29,1.44-2.93,2.93-3.82,4.66,.15,.44-.35,.44-.5,.6-3.32,.1-7.09,.15-10.76,.54-5.01,.64-9.47,2.87-14.08,4.46-4.46,1.93-8.87,4.07-12.89,6.64-1.93,.89-3.72,2.48-5.36,3.72-2.18,2.03-4.86,3.57-6.79,5.9-1.44,1.39-2.83,2.78-3.77,4.61,.5,1.34-1.09,2.68,.25,3.72-.89,1.44-2.87,2.63-3.47,4.42-6.2,2.58-11.35,6.59-16.61,10.71-4.91,4.56-9.67,8.92-13.04,14.73-.75,.4-.35,1.29-1.09,1.49-.15,.45-.59,.69-.84,1.09-1.09,2.58-2.63,4.86-3.47,7.58-.64,.79-.7,1.84-1.09,2.72-.15,.45-.35,.99-.44,1.49l-.4,2.13c-.2,.5,.15,1.14-.45,1.44-.25,.59-.64,1.44-.2,2.03-.3,1.58,.44,2.68,1.04,3.82-.05,1.04-1.09,1.74-1.49,2.63-.7,.84-1.29,1.93-1.98,2.78-.45,1.44,.89,2.63,1.73,3.52,2.18,.7,4.41-.25,6.5-.79,2.87-.64,5.26-2.23,7.98-3.27,.84,3.17,1.64,6.74,4.56,8.93,1.54,.89,3.52,1.14,5.3,1.09,1.83,.64,3.12-.69,4.51-1.19,.2,0,.3,.15,.25,.35-.4,3.62,1.04,6.89,2.97,9.62,2.23,1.44,3.97,2.93,6.34,4.26-.2,1.83,.25,3.57,.55,5.11,.59,.89,.59,2.18,1.24,3.07,2.13,4.51,6.4,7.04,10.51,9.37,3.12,1.09,5.75,1.49,9.17,.5,.2-.2,.64-.35,.89-.25,.64,2.38,1.49,4.61,2.58,6.79,.64,.75,1.14,1.54,1.58,2.18,.5,1.44,1.74,2.43,2.58,3.62,1.29,1.79,3.47,2.43,4.61,4.41,.94,2.78,3.27,5.26,6.1,6.2,.3,.54,1.29,.3,1.14,1.09-.94,1.04-.94,2.58-1.68,3.82,.1,2.43-.15,5.55,.99,7.78-.05,.84,.55,1.24,.7,2.08,.05,.05,.2,.25,.4,.25,.4,1.94,2.03,2.83,3.27,3.97,.5,1.98,1.98,3.52,3.47,4.86,.99,.65,2.28,1.04,3.42,1.48,0,.59,0,1.14,.2,1.64,.35,1.69,.79,3.32,1.34,4.91,.2,1.24,.99,2.43,1.64,3.32,.4,1.2,1.39,2.09,1.84,3.17-.7,1.09-1.19,2.38-1.74,3.52-.99,3.23-1.09,6-.25,9.27,.2,.44,.2,.99,.64,1.39,1.29,3.72,4.76,6.49,8.28,8.18,.89,1.23,1.39,2.52,1.49,4.06,.54,2.63-.35,5.15-.79,7.69-.1,1.34-.3,3.02-.69,4.26-.05,.3,.05,.55-.15,.74-.05,1.98-.5,3.57-.74,5.45-.05,.65,.05,.95-.2,1.34,0,2.67-.64,5.8,.3,8.33-.1,2.72,1.09,5.2,1.64,7.73,1.93,2.98,3.57,6.34,6.34,9.17,.54,0,.69,.59,1.09,1.04,.1,.2,.5,.2,.5,.5,3.03,2.28,6.05,4.51,9.67,5.55,1.93,.79,4.07,.94,6,1.38,3.52,.2,7.83,.44,11.16-.49,10.06-2.13,17.3-9.27,26.42-13.48,2.98-.95,5.8-2.48,9.22-2.34,.74,.65,.84,2.03,1.64,2.38,.99,2.18,3.12,3.62,5.26,4.46,1.64,.7,3.72,.7,5.75,.89,2.43,.05,5.06-.39,7.14-1.69,1.29-.24,1.48-1.48,2.62-2.13,2.19,1.63,5.11,1.98,7.93,1.98,1.19,.54,2.62,.64,4.01,.49,2.82-.95,4.95-3.02,6.4-5.6,.54-.95,1.09,.15,1.53,.44,.4,.34,1.05,.44,1.19,.89,2.53,2.33,4.91,4.56,7.79,6.54l3.72,2.18c1.54,.25,2.83,1.29,4.26,1.73,1.93,.45,3.52,1.69,5.75,1.69,.19,0,.4,.35,.59,.05,1.19,.24,2.48,.39,3.67,.84,1.78-.09,3.57,.44,5.35,.35,.89-.05,1.69-.15,2.53,.09,2.03-.14,3.97-.69,6.05-.84,1.64-.15,3.17-1.14,4.76-1.59,3.62-1.63,7.19-4.01,9.62-7.19,1.73-.59,1.58-2.62,2.77-3.62,.55-1.98,1.49-4.01,2.68-5.75-.2-.2,.05-.4,.19-.44-.05-1.14,.6-1.98,.9-2.98,.15-1.64,.94-3.08,1.09-4.71,1.05-4.12,1.34-9.27,1.29-13.04,.59-1.98,.15-3.27,.4-5.3-.19-1.05-.19-1.94-.34-3.03-.2-1.23,.09-2.38,.39-3.57,.44-1.19,1.05-2.18,1.49-3.37,0-.7,.7-1.09,.7-1.84,1.53-2.09,2.43-4.51,3.96-6.4,.15-.84,.65-1.48,.8-2.28,.64-1.29,1.19-2.52,1.39-4.01,.19-.44-.05-1.14,.24-1.63-.09-1.98,.15-4.31-.24-6.25-.05-2.08-1.09-3.66-1.2-5.65,1.39-1.54,1.79-3.52,2.48-5.4,.05-1.64,.64-3.17,.39-4.81,.55-.99,1.39-1.29,1.74-2.43,.64-2.67,1.29-5.95,.54-8.83,.1-1.09-.69-1.93-.54-2.97,.99,.05,1.98,.4,3.07,.54,2.68-.1,5.45,.7,8.08-.3,1.19-.94,2.48,.4,3.91,.3,1.44-.4,2.48,.7,4.06,.3,.84-.25,.8-1.14,.99-1.93-2.08-1.09-2.28-3.17-3.52-4.86-1.39-2.68,.79-5.45,1.09-8.23,0-.35,.44-.5,.35-.94,1.19-1.98,1.73-4.31,2.62-6.34,.1-.45,.59-.89,.55-1.34,.89-1.34,1.44-2.88,1.98-4.41,.64-1.49,.89-3.37,1.34-4.91,.74-2.48,.65-4.71,.44-7.44-.05-2.28-.79-4.41-1.58-6.34-.34-.3-.44-.84-.55-1.19,.3,.35,.99-.35,1.49,0,3.76-.1,6.4-2.97,8.52-5.9-.09-.29,.2-.4,.35-.59,.15-.94,.89-1.74,1.09-2.78-.55-1.78,1.58-2.33,2.42-3.42,1.34-3.02,2.48-6.3,2.04-10.01,.24-.79,1.09-.84,1.69-1.49,.24-.15,.69-.3,.99-.05,.35-.2,.84,.25,1.29,.4,1.98,1.79,3.72,5.06,6.99,3.87,2.09,.15,4.07-1.39,5.36-2.92,.05-.84,1.09-1.04,1.09-1.89,.1-.54,.15-1.24,.7-1.58,.55,.5,1.2,1.29,1.64,1.93,2.27,1.79,4.46,4.56,6.99,5.5,1.09,.89,2.82,.44,4.11,1.04,1.34-.44,2.68-.44,3.97-.89,.8,.99,2.09,1.83,3.42,2.03,.74,.35,1.73,.5,2.43,.79,1.39,.05,2.58-.54,4.01-.64,.59-.75,1.73-.75,2.48-1.24,.3-.4,.55-1.09,.99-1.19,.55,.6,1.34,1.24,2.34,1.24,.59,.59,1.04-.3,1.48-.44-.39-3.17-1.87-5.99-1.83-9.41h0Zm-72.04-74.12c3.12,1.24,9.92,.15,15.77,3.17,5.3,2.72,10.66,3.97,15.57,7.58,2.82,2.08,5.8,4.17,8.67,6.2,2.18,2.28,5.4,5.21,7.93,6.99,2.58,2.33,3.91,5.55,6.34,7.79,.44,1.54,1.98,2.48,2.13,4.12,.74,.4,.4,1.29,1.09,1.73,.79,1.34,1.34,2.83,1.34,4.41-10.01-8.33-17.94-18.74-30.19-24.24-20.58-12.54-63.46-6.05-73.68-21.32v-.64c10.42,6.59,20.28,4.51,32.18,3.97,2.18,.15,4.16,.35,6.09,0,1.54-.65,5.16-.35,6.75,.24h0Zm-4.51-3.77c-5.95,.79-40.56,3.37-39.91-6.5,7.93-2.13,16.01-3.82,24.29-2.93,2.78-.64,14.18,7.09,15.62,9.42h0Zm-14.47-13.38c-2.72,.99-6.05,.15-8.93,.44-4.12,.4-8.18,1.64-12.24,1.89-1.09,.1-8.28,1.79-8.58,2.28-.2,.35,1.04,3.37,1.13,4.21-2.08,2.53-9.42,5.55-12.74,5.16-4.01,.35-7.63-2.03-11.6-1.84-8.18,.4-13.68,4.91-20.77,6.25,2.83-4.31,8.13-8.87,12.1-12.15,17-13.98,18.49-2.08,36.19-9.77,10.41-4.56,17.2-5.4,25.43,3.52Zm33.32,61.08c-.7,.64-1.79,.6-2.53,1.24-.99-2.93-2.98-2.63-4.61-4.51,2.33-.15,9.02,.74,10.51,2.63-1.19-.05-2.18,.69-3.37,.64h0Zm15.41,15.37c-9.42,0-12.94,8.28-20.67,11.1-.2-5.8-5.11-10.61,.19-18.59,1.05-1.49,2.63-2.73,4.26-3.57,9.52-5.06,13.54,3.57,16.21,11.06h0Zm-33.22-23.4s-.59-.2-.59-.05c-2.58-1.04-9.22-.99-11.9-.25-15.37,4.17-28.91-5.8-38.57-16.61-1.34-1.54-2.98-2.03-4.26-3.32,4.96-1.34,9.97-3.57,15.17-3.87,5.46-.3,11.3,1.83,16.71,2.58,5.6,.75,11.05,.45,16.66,.84,4.31,.3,11.2,1.83,14.63,4.46,1.58,1.24,3.91,2.38,5.26,3.87,3.07,3.42,5.2,7.24,9.22,9.82-5.6,5.9-15.27,4.26-22.31,2.53h0Zm-43.77-4.71c1.79,1.59,3.97,2.53,5.95,3.92,5,2.68,20.37,6.84,25.38,3.81,0,.2,.3-.1,.35-.19,8.33-2.48,19.88,.94,23.99,8.82-3.96,3.82-7.58,20.97-1.88,23.9-9.07,6.89-11.8-10.91-23.85-9.37-1.53-1.93-8.28-7.34-10.81-6.59-1.29,.4-2.23,2.23-3.47,2.83-2.93,1.44-12.45,.69-14.97-1.49-.95-.79-.5-2.78-.65-3.92-.44-3.03-6.34-20.67-7.83-23.4-2.34-4.26-5.4-7.04-8.08-11.01,5.26,1.19,11.65,8.87,15.87,12.69h0Zm3.52,38.22c-2.09-.4-3.18-2.38-4.96-3.22,.1-1.44,1.04-4.11,1.54-5.5,6,2.98,15.57,3.37,20.58-1.64,1.09,.4,5.75,4.02,6.54,4.96-.05,.89,.99,1.34,1.2,2.18,.64,.5,.74,1.44,1.38,1.93,.45,1.34,.7,2.83,.7,4.26l-.4,.44c-2.03-2.23-3.27-4.56-5.75-6.59-.99-.79-2.13-1.14-2.62-2.48l-1.58-.54c-1.29,.54-1.24,2.03-1.98,2.97,.93,4.22-11.71,5.71-14.63,3.23h0Zm0,110.41c.55,.05,1.1-.11,1.53-.44,2.43-2.28,3.52-5.36,5.76-7.54,.79,.65-.3,1.09-.4,1.79-.35,1.48-1.34,2.62-1.84,4.01-.84,1.73-2.23,3.27-2.68,5.3-2.72,3.67-6,7.29-8.62,10.66-1.09,1.34-2.28,2.72-3.32,4.17-.35,.39-.65,.83-.89,1.29-.7,.79-1.39,1.38-1.98,2.23-.2,.74,.19,1.2,.59,1.73,.59,.2,1.24,.25,1.98,.1,4.01-4.56,7.58-9.62,11.45-14.33,1.48-.84,2.03-2.73,3.02-3.92,1.09-1.93,2.87-3.72,3.76-6,.44,.15,.4,.8,.35,1.24-.3,1.24-1.05,1.78-1.49,2.87-1.14,1.98-2.68,3.92-3.87,5.9-1.88,2.77-4.26,4.7-5.8,7.58-2.13,2.63-3.87,5.26-6.05,7.29-1.68,1.79-3.22,4.07-5.01,5.51-2.67,2.92-5.55,6.19-8.52,8.48-.95,1.04-2.23,1.73-3.12,2.68-1.54,2.03-3.92,3.02-5.65,4.91-1.23,.44-2.23-.59-3.42-.89-.69-.59-2.03-.64-2.08-1.84,2.18-1.69,4.61-3.57,6.64-5.4,1.79-2.03,4.31-4.26,6.1-6.54,.05-.65,.84-1.24,.44-1.98-.4-.5-.89-.99-1.49-.55-2.48,2.18-5.15,5.4-7.68,7.58-.89,.55-1.58,1.39-2.43,1.79-.05,.49-.74,.59-1.04,.84-1.14,1.14-2.53,2.09-3.82,3.03-1.34,.44-2.98-.45-4.16-.95-1.05-.3-2.63-.55-3.17-1.39,3.07-1.84,5.25-4.31,7.98-6.39,3.37-2.34,5.65-6.25,8.92-8.68,5.75-5.9,10.11-11.55,14.97-17.9,3.48-5.15,6.6-9.66,9.57-15.07,.25-.64,.5-1.44,1.09-2.03,.3-.84,.74-1.58,.95-2.58,.64-1.09,.84-2.28,1.63-3.37,.34-.54,.44-1.34,1.24-1.53,.64,.44,.74,.94,1.38,1.53,1.39,1.74,3.18,3.18,4.26,5.11-.19,1.14-1.09,2.13-1.58,3.23-1.55,2.45-2.99,4.96-4.31,7.53,.19,.36,.4,.76,.79,.95h0Zm-.8,37.23c.1,3.67-.89,7.29-1.58,10.91-.44,.38-.66,.95-.59,1.53-.05,.4-.35,.75-.5,1.14-.59,1.69-1.73,3.27-3.52,3.77-2.83,.3-6.1,.3-8.53-.8-1.24-.34-2.23-1.04-3.27-1.23-2.58-1.49-6.05-3.27-8.43-4.86,1.84-1.74,3.67-2.87,5.26-4.62,4.81-3.66,8.87-8.48,12.99-12.64,2.72-3.27,5.55-6.1,8.08-9.57,1.14-1.63,2.83-3.37,3.72-5.06-.09,1.09-.84,1.39-.89,2.48-.59,1.54-1.19,3.12-1.54,4.71-.3,2.18-.79,4.66-.79,6.94-.5,2.33,0,4.86-.4,7.28h0Zm-128.01,2.13c.75,1.34,1.58,2.48,2.93,3.57,2.38,2.34,4.76,4.76,7.24,6.74,0,.55-.69,.84-1.14,1.05-1.29,0-2.33-1.05-3.42-1.59-1.83-1.88-4.01-2.33-5.45-4.51-.94-1.04-1.89-1.94-2.78-2.72,0-.49-.2-.25-.45-.64-.64-1-1.73-1.74-2.68-2.73-.89-.89-1.69-2.18-2.68-3.07,.05-.44-.5-.59-.54-.99-1.09-1.44-2.28-2.18-3.12-3.72-1.14-1.09-1.84-2.62-2.88-3.82-.75-1.73-2.08-3.37-2.93-5.05-.2-.65-.6-1.09-.69-1.73-.59-.4-.4-1.2-.99-1.64-.3-1.63-1.64-2.92-2.03-4.71-.58-1.32-1.02-2.7-1.29-4.11-.4-1.49-1.14-3.23-1.49-4.41,.4-.95,1.09-1.73,1.59-2.53h.5c.69,2.77,2.23,5.05,2.87,7.69,1.39,2.92,2.63,5.9,4.01,8.73,.79,.25,1.09,1.73,2.13,1.29,.64-.19,.94-.84,1.14-1.49-.2-1.13-.54-2.23-1.09-3.12-.2-1.34-1.04-2.48-1.59-3.66,0-.7-.79-.84-.69-1.54-.2-.89-.84-1.84-.99-2.87-.64-1.54-1.34-3.52-2.03-5.05-.15-1.29-.64-2.43-.79-3.72,1.83-1.54,3.72-3.42,5.45-4.86,.54,.74,.35,1.84,1.09,2.52,1.19,5.55,4.31,10.22,6.59,15.22,4.12,6.3,8.48,12.89,14.13,18.4,3.12,3.56,6.49,6.99,10.31,9.86,1.44,1.15,3.17,2.23,4.51,3.33,.05,.19,0,.44-.2,.44-1.68,.84-3.47,1.88-5.2,2.72-.2,0-.45,.05-.4,.25-.5-.25-.44,.69-.94,.44-.59,.44-1.44,0-2.13-.3-2.23-1.39-3.62-2.93-5.8-4.81-.7-.79-1.54-1.45-2.48-1.94-.69-.74-1.64-1.23-2.28-1.78-.89-.3-1.74-.59-2.68-.55-.5,.35-.79,.84-.64,1.44h0Zm-19.34-5.45c-.05-2.28-.5-4.16-.25-6.54l.25-.34c2.58,3.47,4.91,7.19,8.08,10.61,1.44,1.79,2.98,3.82,4.91,5.3,2.68,3.12,5.75,6.4,9.47,8.68,.6,.64,1.39,.99,1.93,1.44-.89,1.24-2.38,1.69-3.67,2.18-.44,.59-1.29,.75-1.93,1.04-2.88,1.05-5.06,2.68-7.98,3.42l-.75,.55c-2.18,.89-5.06,.99-7.09-.19-.59-.2-.55-.74-1.09-.8-.35-.3-.7-.64-1.09-.94-1.69-3.52-1.29-7.49-1.24-11.7,.4-3.92-.2-8.73,.44-12.7h0Zm-11.85-29.7c.35-1.23,.79-2.38,.94-3.62,.94-1.84,1.24-3.22,2.58-4.91,.13-.31,.33-.58,.6-.8,3.17-4.41,6.84-8.08,11.65-11.05l.45,.25v3.07c-.1,.55-.26,1.08-.5,1.58v.35c-.25,.19-.5,.49-.44,.89-3.17,4.16-8.28,6.74-11.05,11.4-.94,.94-1.59,2.33-1.89,3.66-.59,.5-.15,1.54-.74,1.94-.05,.44-.15,.79-.15,1.39-.4,.15-.2,.39-.5,.59-1.69-.59-.6-3.07-.95-4.76h0Zm51.96,32.78c-4.51-3.52-8.28-7.83-12.24-11.85-4.11-5.3-8.18-9.97-11.35-15.67-1.84-4.06-3.72-7.04-5.21-11.1-.4-1.54-.94-3.08-1.58-4.56-.84-2.48-1.98-5.15-1.09-7.98,.05-1.19,0-2.34-.2-3.42,.35-.74-.54-1.09-.35-2.03l.35,.3,.05-.05c.2,.2,.05,.65,.25,1.05,.34,.29,.54,.7,.55,1.14,1.19,3.66,3.77,6.74,5.26,10.36,1.54,3.12,3.42,5.9,5.45,8.68,.7,.79,1.24,1.78,2.03,2.48,1.14,.15,1.39,1.48,2.23,2.09,4.56,5.01,9.97,8.13,15.12,12.2,1.93,2.09,4.46,3.52,6.05,5.7,2.43,1.98,4.17,4.41,6.79,6.19,4.86,5.15,12.59,3.67,19.28,4.16,5.65-.24,11.06-1.29,15.91-3.47,2.18-.1,3.72-1.39,5.6-2.23,1.84-1.48,3.42-3.07,4.71-5.05l.55-.19c2.33-1.94,4.46-4.46,6.54-6.5,2.74-2.31,5.41-4.69,8.03-7.14,2.38-1.29,4.06-3.62,5.9-5.45,3.22-2.62,5.55-6.54,8.23-9.77,1.14-1.84,2.62-3.67,3.57-5.7,.94-1.34,1.23-3.22,2.57-3.91,.65,.39,.25,1.29,.9,1.78,.44,.55,.44,1.54,1.19,1.94,.35,.89,.5,1.88,1.09,2.62,.15,1.24,1.69,2.58,.15,3.52-2.43,4.26-5.61,7.98-8.33,12.05-1.84,2.33-3.77,4.37-5.7,6.74-3.05,3.71-6.36,7.19-9.92,10.41-2.98,4.01-7.09,6.84-10.86,10.16-1.19,.84-1.98,1.73-3.47,2.33-1.19,.65-2.23,1.84-3.76,2.04-5.06,.39-10.31,1.63-14.83,4.31-1.54-.35-2.68-.95-4.16-1.34-2.58-.54-5.26-.59-7.39,.65-1.09,0-1.79-1.09-2.72-1.44-2.98-1.14-6.3-1.79-9.37-1.14-2.23,.24-4.66,.64-6.79,1.39-1.34,.64-2.38-.75-3.67-.8-1.99-1-3.48-2.34-5.36-3.48h0Zm103.77-55.78c-.3-.2-.05,.09-.25,.24-.4,.7-.84,1.39-.99,2.28-.59,1.2-1.09,2.34-1.69,3.42-.15,.74-.94,1.2-1.29,1.94-.84-.74-1.68-1.49-1.84-2.53-.56-1.21-.93-2.5-1.09-3.82-.84-1.44,.3-3.07-.4-4.61,.65-1.69,1.2-3.42,2.09-5.11,.34-.89,.54-1.98,1.23-2.63l.05,.3c.34,.1,.34,.59,.64,.89,.99,2.48,2.83,4.66,4.31,6.89,0,.99-.7,1.74-.79,2.73h0Zm-3.13-37.68c-.15,3.22-.95,6.94-1.39,10.36-.44,2.08-.84,4.01-1.48,6.1-.4,2.87-1.58,5.5-2.09,8.38l-1.14,4.41c-.4,.84-.84,1.79-1.09,2.73-.65,1.23-1.34,2.87-2.09,4.06-.15,.55-.49,.99-.74,1.44-1.14,2.09-3.08,3.97-3.62,6.35-.2,.39-.55,.69-.6,1.09-.44,.3-.59,.74-.94,1.19-.1,.45-.59,.99-.84,1.34-3.27,4.26-5.9,8.58-10.16,12-.95,1.19-2.18,2.28-3.12,3.27-.59,.4-1.04,.75-1.48,.9-2.63,2.72-5.51,4.71-8.33,7.39-3.72,2.97-7.38,6.89-11.1,10.06-2.53,2.18-5.55,3.76-9.02,4.36-7.09,2.19-14.58,1.74-21.82,1.34-3.37-.44-5.6-2.83-7.88-5.01-1.39-1.64-3.52-3.32-4.91-5.26-1.98-2.08-5.01-4.06-6.99-6.1-.84-.48-1.65-1.01-2.43-1.58-.94-1.04-2.08-1.58-3.17-2.48-3.97-2.87-7.24-6.05-10.51-9.77-1.19-.4-1.39-1.58-2.23-2.38-.35-.99-1.29-1.54-1.54-2.72-.44-.89-1.24-1.94-1.68-2.98-.05-.49-.44-.7-.64-1.19-1.19-2.28-2.43-4.96-3.77-7.34-.94-1.63-1.14-3.52-2.03-5.2-.54-1.54-1.39-2.98-1.83-4.51-.69-1.49-1.34-3.03-1.83-4.56-1.78-6.44-3.97-13.09-4.61-20.03-.35-.3,.05-.99-.4-1.39-.4-3.32-.79-5.9-.89-9.07-.5-3.37-.35-7.98-.15-11.3,2.58-.94,5.21-2.13,7.09-4.46,1.09-.69,1.79-1.83,2.97-2.63,.75-.25,1.54-.35,2.33-.44-.19,1.04-1.09,1.93-1.58,2.87-1.19,2.28-3.27,4.26-3.22,7.14,.6,.84,1.19,1.49,2.23,1.58,1.29,.2,2.33,.35,3.67,.15-.5,.3-.2,.75-.2,1.14,.64,.64,1.54,.25,2.33,.25-.1,.35-.15,.89,0,1.24,4.31,5.11,10.21,7.64,17.2,7.64,.35,.5,1.04,.05,1.54,.05,.35-.2,.64-.1,1.04-.1,5.5-1.09,10.91-3.22,16.31-4.91,1.14-.84,3.07-1.44,2.68-3.17-2.13-3.17-5.65-4.66-8.53-6.64-1.98-.64-4.17-1.58-6.2-1.84-3.72-.59-8.43-.35-12.35,.75-3.92,1.44-7.48,3.42-11.16,4.76-.3,.05-.69,.25-.94,.2-.15-.3,.4-.5,.64-.64,2.78-1.88,2.68-1.83,5.36-3.72,.25-.15,3.87-2.43,4.26-2.53,3.32-1.64,5.26-2.53,10.06-2.08,1.49,.6,3.03,.84,4.36,1.54,.38,.06,.76-.09,.99-.4,.1-1.54-.5-2.09-1.73-3.12-2.33-.59-4.01-1.29-7.29-1.09-2.18,.45-4.36,.64-6.4,1.74-1.24,.4-2.28,.99-3.22,1.68-1.98,.99-2.33,1.89-4.26,2.78-.79,.79-2.83,2.03-3.62,2.78-1.04,.35-2.58,1.04-3.52,.89-.05-.94,.89-1.39,1.09-2.38,.25-.29,.7-.44,.5-1.04,.79-.95,1.74-2.08,2.33-3.17,1.89-1.64,3.07-3.07,5.7-4.41,3.97-1.68,8.28-1.54,11.4-1.64,7.04,.64,11.21,1.64,15.81,1.44,3.17-.59,6.54-.79,9.07-2.93,.44-.44,.4-1.14,.64-1.68-.59-.75-1.24-.75-1.93-.35-4.22,2.08-5.7,1.58-9.32,1.83-3.57,.15-6.2-.25-8.82-.35-3.67-.44-6.5-1.58-10.16-.94-1.14-.2-3.77,1.19-4.76,.89,.05-3.87,3.32-7.19,5.5-10.56,2.23-1.64,4.61-3.37,7.29-4.41,1.64-1.29,3.87-2.08,4.91-4.01,1.59-1.19,2.63-3.02,3.82-4.61,.4-.89,.4-1.74,.4-2.83l.15-.44c2.78-1.69,5.31-3.52,7.98-5.36,.2-.25,.79-.64,.84-.99,1.29-1.04,2.88-2.28,3.77-3.67,.79-.89,1.19,.25,1.93,.5,.4,.99,1.54,1.09,2.38,1.49,1.48,.6,3.12,.79,4.66,1.24,4.76,.25,10.06,.79,14.87,.99h.4c3.07,.4,6.49,.45,9.62,1.09,4.71,.89,9.42,1.24,14.13,2.72,3.76,.99,7.48,2.18,11.16,3.62,1.58,.79,3.56,1.68,4.85,2.93,2.99,1.9,5.75,4.13,8.23,6.64,.55,.79,1.14,1.49,1.69,2.33,1.29,1.34,2.09,2.78,3.02,4.16,.59,1.14,1.63,2.18,1.79,3.52,.74,.55,.09,1.64,.84,2.23-.09,.69,.7,.79,1.09,1.14l1.04,.15c.15,3.72,.75,7.88,.65,11.85,.55,6.1-.4,11.95-.65,18.09-.2,.5-.2,1.29-.2,1.64h0Zm-139.56-25.88c.84-3.03,6.64-14.97,9.87-15.32,.69-.1,.35,1.04,.25,1.34-.55,1.72-.98,3.48-1.29,5.26-.4,2.28-.4,4.51-.05,6.79,.4,2.58-3.72,4.66-3.92,5.8-.84,.55-3.67,2.63-3.87,.75l-.25-.7c.45-1.58-1.29-2.13-.75-3.91h0Zm-3.82,22.71c-.2-.05,.1-.7-.2-.89-.53-1.62-1.16-3.21-1.89-4.76-.54,.05-.3-.7-.74-.89-.05-.84,.6-1.24,.89-1.93,.3,.05,.35-.25,.59-.3l.45-.15c0,.2-.05,.44,.05,.6,.15-.1,.15-.2,.3-.4-.35,0-.15-.2-.15-.35,0-.05-.05-.05,0-.1v.1c.13,.05,.26,.09,.4,.1,.05,.25,.3,.1,.5,.25,.64,.4,.15,1.54,.54,2.23-.15,2.78,.1,4.86,.35,7.48,.35,.55,.1,1.74,.25,2.53,0,.45-.5,.3-.69,.25-.84-1.05-.05-2.78-.64-3.77h0Zm-.89-18.34c-1.49,.69-2.08,2.68-3.92,2.68-14.33,.1-6-14.03,.84-13.53,1.74,.15,3.82,.79,5.5,.44l.3,.54c-1.34,2.33-1.94,8.93-2.73,9.87h0Zm2.72-32.37c-1.83,2.63-3.32,5.21-4.91,7.98,0-.1-.4,0-.45,0,.05-.94-.3-2.28,.35-3.12,2.08-16.46,26.08-16.06,38.18-16.61,3.42-.15,7.34-1.19,10.61-.7,4.56,.6,8.23-1.68,12.44-2.58-.2,1.24-1.39,2.03-2.08,2.97l-.55,.45c-.74,.45-2.83,1.89-3.17,2.38-15.12,15.67-39.41-6.69-50.42,9.22Zm42.34,.3c-2.93,4.71-7.34,6.05-11.6,8.97-4.66-1.29-9.62,17.25-15.82,16.86l-.54-.55c-1.09-9.47,4.22-23.45,14.92-25.14,4.36-.69,8.18,.84,12.79-.84l.25,.69h0Zm-40.36-10.61c-9.42,6.4-27.37,15.12-37.18,4.51,7.44-.94,10.26-.64,16.86-4.96,8.77-5.8,22.46-18.74,34.21-13.04l.35,.25c3.82,.35,11.35,5.3,15.07,7.34-6.3,3.22-19.14-1.04-29.3,5.9h0Zm-4.76,28.06c-1.24-.84,.2-4.86,.64-6.05,4.66-12.4,8.43-13.14,20.63-13.58v.15c1.29-.05,2.53,.35,3.72,.59-.4,.64-1.34,1.04-2.03,1.39-1.79,.94-2.48,2.83-4.11,3.87-5.75,3.62-8.82,8.23-13.43,12.89-1.84-.7-3.72,1.88-5.41,.74h0Zm23.35,25.58c.7-.15,1.58-.84,2.03-.2v1.79c-.2-.05-.5-.05-.6-.3-.57-.32-1.06-.76-1.44-1.29h0Zm25.73,.55c.1,.94,.05,1.73-.35,2.43-.25,.35-.35,.54-.4,.64-.69,.8-1.39,1.09-2.23,1.29-.89,.25-1.83,.44-2.58,.64-3.67,1.39-8.83,.45-12.4-.75-.5-.25-.99-.44-1.49-.69-.28-.12-.54-.31-.74-.54,.18-.44,.22-.93,.1-1.39-.2-.69-.3-1.39-.5-2.08,0-.3,.05-.54,.15-.84,.1-.3,.25-.59,.35-.84,3.17-1.78,6.64-3.37,10.51-3.57,1.78-.09,3.57,.08,5.31,.5,1.54,.35,3.07,.84,4.56,1.29-.31,.21-.54,.53-.64,.89,.05,1.04,.25,2.08,.35,3.03h0Zm2.73-1.44c0-.4-.15-.99-.4-1.48,1.76,1.01,3.39,2.23,4.86,3.62-.1,.09-.22,.16-.35,.2-.15,.1-.29,.15-.5,.25-.15,.05-.35,.15-.55,.25-.43,.19-.88,.34-1.34,.44l-1.19,.3c-.15-.54-.1-1.09-.1-1.58,0-.65-.05-1.34-.45-1.99h0Zm48.39-63.66c12.89,6.2,26.57,2.18,36.44,14.18,3.52,4.26,6.1,10.06,5.7,15.81l.15,.84,.05,.84-.44,.55c-2.13-1.49-3.47-3.87-5.4-5.65-12.99-11.95-26.97-14.53-44.17-16.71-3.67-.44-25.83-1.14-26.28-4.51-.05-.25,5.5-10.71,6.15-12.44,.4-.94,.94-1.79,1.09-2.78,.35-1.19,.94-2.23,1.04-3.47l.74-1.78c4.86,2.38,10.16,13.19,21.91,11.8,.15,1.73,2.18,2.03,3.02,3.32h0Zm-1.14-8.52c16.81,1.14,19.29-5.65,37.53,2.38,3.27,1.44,6.94,4.51,7.78,8.13,.84,3.42,1.54,11.95-1.19,14.63-1.24-2.58-4.16-5.4-6-7.69-7.83-10.21-36.44-5.7-38.13-17.45Zm34.11-14.88c1.19,1.24,2.58,2.38,3.47,3.92,.95,1.59,4.51,9.62,3.97,11.16-8.38-3.42-15.22-7.14-24.69-5.26-10.36,2.03-25.83,3.72-30.79-8.43-1.19-2.93-3.42-13.38-3.57-13.73,.1-1.89,.05-3.82,.4-5.7,1.19,1.39,1.93,3.17,3.62,4.07,2.03,2.13,4.76,3.82,7.54,4.56,12.2,3.47,27.51-5.26,37.38,5.95,.94,1.09,1.68,2.38,2.68,3.47h0Zm-49.63-22.75c.05-.75-.89-1.29-.59-1.98,2.23-4.91,5.05-8.43,6.44-13.88,2.58-10.36,.7-11.2,0-20.62,5.1-2.33,15.27,8.08,15.81,12.99-.44,2.97-.84,5.95-.94,8.92-.25,8.97-11.45,24.64-20.72,14.58h0Zm62.66-33.96c2.72,2.08,5.7,3.42,8.43,5.4l-.49,.4c-7.24,3.17-16.61,7.49-24.69,4.32-6.89,1.34-11.26,2.72-16.26,7.98-1.84,1.39-3.22,3.27-5.35,4.17,1.23-7.79,.79-16.31,3.52-23.8,8.34-22.41,22.71-7.54,34.86,1.54h0Zm-54.63-24.64c.49-.84,.74-1.79,1.29-2.58,.8,.3,1.29,1.29,1.84,1.93,5.9,6.2,15.77,3.47,19.93,10.81-.05,.05-.34,.55-.19,.6-3.32,2.53-5.95,6.69-6.65,10.81l-1.73,4.46c-.79,.2-1.19-.5-1.68-.99-2.98-3.03-9.67-6.69-13.98-7.09-2.09-.2-4.26,.4-6.35-.2-13.38-3.92,5.15-13.99,7.54-17.75h0Zm-14.13,6.25l.15,.35c-1.04,2.93-2.13,3.12-2.13,6.84s5.9,9.77,9.57,8.73c4.76,6.44-.39,22.95-3.72,29.35-2.38,2.78-7.93,1.44-9.96-1.09-.35-.84-1.09-1.49-1.54-2.33-1.58-3.76-4.17-5.85-8.08-6.94-2.72-1.24-5.45,.35-7.34-3.22-1.44-2.53-2.38-5.55-4.26-7.93-3.57-4.56-13.93-4.76-14.72-7.14,14.67-9.23,23.54-19.54,42.04-16.61h0Zm-43.83,22.31c.25-.59,.79-.3,1.24-.1,2.48,.99,4.71,1.29,7.34,1.93,6.4,1.49,7.49,9.07,12.44,13.88,1.49,1.44,3.92,.89,5.75,1.09l-.4,.99c-4.07,2.87-11.4,4.86-14.13-1.39-1.88-4.22-10.21-2.33-11.9-10.71-.3-1.44-.94-4.26-.35-5.7Zm-3.92-2.53l.05,2.03c0,.44-.45,.6-.64,.84-.4-.2-1.04-.55-1.59-.79-.6-.2-1.09-.55-1.49-.75,1.09-.54,2.43-.84,3.67-1.34Zm-32.12,11.35c1.64-.79,1.54-3.37,.54-4.56,.15-1.93,.05-3.47,.4-5.4l.05-.4c1.34-4.36,3.62-5.75,6.89-8.38,1.14,1.09,1.44,2.73,2.68,3.77,4.22,3.52,8.87,4.56,13.09,7.44,1.09,.89,7.04,3.37,8.48,3.67,.5,2.28,.75,4.86,2.23,6.74,3.77,4.46,5.31,4.71,10.07,6.89,3.27,6.1,11.16,8.83,17.05,4.76,.79-.55,4.56-3.62,4.86-3.72,1.19,1.29,3.82,1.59,3.67,3.77,2.62,4.96,6.69,6.4,12.04,5.8,.13,.62,.07,1.26-.19,1.83-.05,.89-.3,1.69-.5,2.53-1.69,7.88,1.39,22.26,7.04,28.26,3.22,3.42,5.9,4.06,10.26,5.4-.44,.84,.49,1.98-.4,2.43-10.86-1.54-16.41-10.61-17.6-10.91-1.19-1.24-2.33-2.63-1.98-4.41,1.64-15.02-19.53-17.1-26.97-6.99-1.04,1.44-7.34-.99-9.17-1.64-1.59-3.27-9.67-6.59-12.94-8.38,.35-12.34-17.3-30.24-29.8-21.81-.5,1.14-2.38,2.72-3.12,4.17,0,0-5.85-3.12-7.54-3.42l-.45-.75c3.92-3.71,6.59-4.6,11.31-6.69h0Zm35.65,41.25c3.77-.69,7.93-.1,11.45,1.44,1.68,.69,2.68,4.01,4.76,1.83,.75-.79,1.34-1.74,1.98-2.63,3.17-4.26,13.24-7.79,17.55-3.82,.6,.55,2.33,2.18,2.03,3.12-.05,.15-.25,.15-.4,.15l-.15,.25c-1.49-.44-3.07,.1-4.56,.5-16.91,4.61-9.02,24.64-37.63,13.34-1.54-.6-8.03-3.57-8.97-4.46,4.56-3.57,7.93-8.58,13.93-9.72h0Zm-14.18,4.71c-4.51,2.68-17.9-4.86-23.6-5.85,1.88-3.07,8.68-6.89,12.3-6.5,4.91,.55,14.03-2.92,17.7-1.24,2.92,1.29,5.75,2.68,8.43,4.46-11.45,3.27-8.38,5.3-14.82,9.12h0Zm-24.79-25.53l-.99,.25c-3.92-.84-7.59-2.58-11.55-3.03-9.82-1.09-21.27,.15-30.44,3.82-4.36,1.73-8.48,4.51-12.84,6.3,3.72-8.72,50.32-29,55.83-7.34h0Zm-13.63,.89c2.92,.25,12.74,3.77,13.63,3.72l.15,.89c-10.71,18.44-32.57,13.88-50.57,12.89-4.11-.2-8.13-.05-12.24-.05,14.32-12.84,29.4-19.09,49.03-17.45h0ZM14.38,161.46c0-7.54,5.45-15.32,9.62-21.17,5.6-7.79,17.3-17.11,26.23-20.63,19.24-7.58,54.49,13.29,69.9-15.71-.1-2.68,1.79-5.45,1.19-8.53-.4-2.43-1.83-4.22-2.23-6.34,2.72-.25,2.83-4.02,5.8-4.41,11.3-1.64,18.79,9.37,21.76,18.84-4.31,0-8.43,1.89-12.64,1.98-7.64,.15-14.63,1.59-19.48,8.48-.64,.3-4.07,4.41-4.22,5.11-1.19,.84,.3,2.98,1.79,2.68,3.03-.54,4.96-2.03,8.23-1.24,4.81,1.09,8.97,4.07,13.78,5.26,0,1.19,.54,2.97,1.79,3.52,2.73,1.14,5.95,1.29,8.68,2.93,7.54,4.56,22.26,10.46,29.8,3.62,2.72-2.48,17.8-20.57,21.62-12.1l-.44,1.64c-2.93,12.05-12.84,23.8-26.67,21.96-17.4-2.23-24.59-18.74-46.06-9.17-12.64,5.7-18.34,18.49-34.16,15.52-2.63-.44-5.75-1.44-7.69-3.37,3.87-10.56,7.69-18.99,18.39-24.2,2.43-1.14,6.44-3.22,9.22-2.83,.64-.4,.64-1.44,.5-2.08l-1.24-1.09c-5.16,.4-7.09,2.28-11.35,3.32-1.79,1.89-5.26,2.18-7.54,3.72-.6,.45-4.61,2.33-5.26,2.33-7.29,0-11.3-4.51-21.17-2.58-2.93,.59-6.89,1.19-9.47,2.72-6.59,3.97-13.09,7.24-19.48,11.65-6.2,4.22-18.15,19.59-19.19,20.18h0Zm20.08,14.23c-1.68,.15-3.92,.3-4.76-1.39-1.39-1.84-1.54-4.46-1.73-6.74,1.29-.7,1.73-2.13,2.93-2.98,.75-.64,1.24-1.54,1.78-2.38,.95-.6,.85-1.64,1.79-2.08-1.29,3.07-1.39,6.35-1.39,9.52,.1,2.18,.94,3.92,1.39,6.05h0Zm3.57-4.96c-2.18-13.93,8.33-11.55,10.36-13.48,1.84,1.78,2.48,4.16,4.81,5.8-6.4-3.57-12.99,5.95-8.33,7.24,2.48,.69,3.27-4.31,6.15-2.72,3.82,2.13-2.18,9.27-6.89,8.82-2.63-.25-5.65-2.97-6.1-5.65h0Zm8.63-18.49c-2.87,.7-5.9,1.39-8.03,3.52-.4-.2-.4,.44-.45,.25,1.14-1.88,2.88-3.52,4.36-5.11,1.34-.79,2.43-2.28,3.72-3.27l.05,.05c-.05,1.54-.05,3.02,.35,4.56h0Zm-3.82,28.85c10.31,1.19,16.11-8.87,10.86-17.5,3.92,2.18,11.35,4.86,12.4,9.47,4.36,19.44-23,21.32-23.25,8.03Zm25.88,25.93c-6.74,1.93-17.35-5.36-16.11-12.74,15.77,2.63,23.3-21.56,12.64-29.35-3.82-2.78-9.07-3.72-12.05-7.64-10.81-14.18,8.68-16.95,9.02-18.2,.2-.69-.15-2.13-.69-2.58-3.87-3.27-21.02,10.32-24.29,13.14-.4,1.24-1.83,1.74-2.28,2.93-6,5.21-10.61,16.51-20.18,16.91,7.14-15.37,37.98-41.89,55.82-38.82,4.61,.79,10.06,3.12,14.63,3.02v.5c-1.79,2.08-7.29,13.09-7.19,15.71-3.57,2.88,4.66,6.3,6.35,6.94,.64,1.64,2.23,2.48,3.28,3.77-9.87,2.08-12.3-12.89-17.7-7.19-2.18,2.33-1.29,4.01-1.98,6.79-.35,2.43,2.03,5.9,3.17,7.83,2.97,2.63,4.11,6.49,6.3,9.67,.2,6.69,4.11,6.44,.1,17.6-.35,.99-1.09,1.93-1.09,3.02-2.03,2.78-4.22,7.69-7.74,8.68h0Zm16.26,18.3c-3.67-3.57-11.85-11.11-10.21-17.25,.5-1.68,4.11-5.26,5.15-8.33,2.48-7.19,4.31-12.54,1.93-20.18-2.33-7.34-7.63-12.24-10.01-19.14,.54-1.24,.15-2.72,1.04-3.82l.44-.54c2.18,2.23,2.68,4.91,5.65,6.74,3.27,2.03,9.27,3.57,12.54,.79,6.99,4.12,19.78,5.06,26.87,.7h.3c-1.29,7.14-2.28,9.67-.1,17.01-10.51,2.87-14.68,19.19-5.26,22.11,.84,1.54,2.88,1.09,4.26,1.58,.1,.89-1.39,2.83-1.83,3.57-2.78,4.71-2.53,14.77-10.51,14.97-6.1,.15-4.76-15.67-12.94-12.69-9.22,3.32-1.73,14.52,6.15,15.17,.84,.1,1.59-.2,2.43-.1,.2,4.36-4.56,8.08-8.58,5.6-4.95,.19-4.81-3.73-7.34-6.2h0Zm12.05-3.87c-.2,.3-.7,.2-.95,.1-1.93-1.09-3.02-3.07-3.87-5.15,.25-1.09,.99-1.54,1.89-2.18,1.74,.35,1.34,2.58,1.98,3.87,.2,1.14,.5,2.28,.94,3.37Zm-2.68,23.1c-.18,.45-.4,.88-.64,1.29-.2,.4-.3,.75-.64,.84-.05-.15-.75-.64-.75-1.24-.94-2.48-.64-5.95,.7-8.58,.05-.51,.28-.98,.64-1.34,2.18-.29,4.86,.35,6.99-.59,1.64-.94,2.68-2.33,3.52-4.12,.05-.5,.4-.69,.54-1.14,.35-.05,.4-.5,.54-.84,.05-.64-.25-1.54,.3-1.83,2.58-.35,5.35-.59,7.14-2.48,2.87-2.53,4.61-6.25,5.75-9.77,.4-.35,.45-.99,.64-1.54,.15-.3,.4,.25,.4-.15,.1,.89,.64,1.34,.74,2.23,.2,2.78-.15,4.81-1.24,6.94-1.39,2.28-4.21,4.02-5.8,6.34-1.14,1.29-2.83,1.93-4.11,2.83-2.73,2.2-5.52,4.31-8.38,6.34-2.13,2.18-4.51,4.42-6.35,6.79h0Zm7.58,6.2c-.6,1.09-.64,2.48-1.29,3.47-.1,.44-.2,1.04-.44,1.29-.64,.19-1.39-.19-1.89-.49-.3-.59-.6-.65-.69-1.44-.79-1.42-1.1-3.05-.89-4.66,1.29-3.77,4.46-5.85,7.09-8.58,2.77-2.08,5.7-4.26,8.33-6.44,1.19-.35,1.73-1.34,2.83-1.89,2.33-2.13,4.01-3.92,6.2-6.3,.89-.99,1.58-2.33,2.13-3.42,1.64-.1,2.08,1.34,2.78,2.33,.94,2.38,1.24,5.2-.1,7.44-.2,.3-.64,.4-.6,.74-2.23,2.72-5.9,3.52-9.02,5.26-2.68,1.09-5.55,2.28-7.39,4.36-2.77,2.53-6.14,4.46-7.04,8.33h0Zm2.93,14.63c-.2-.64-.3-1.34-.69-1.84-.15-1.93-.79-3.76-.35-5.6,.15-1.54,.99-2.72,1.09-4.21,.15-.15,.34-.15,.34-.35,.4-.54,.45-1.38,.84-1.98,2.78-3.81,6.69-7.63,11.21-9.52,2.68-.99,4.81-2.43,7.44-3.47,.3-.7,1.24-.6,1.54-1.14,.84-.6,1.14-1.49,1.98-1.93,.35,.3,.5,.94,.84,1.49,.4,2.53,1.29,4.91,2.03,7.34,.35,1.64,1.29,3.27,.6,5.06-.15,1.49-.35,3.08-1.34,4.12-.84,1.44-1.93,2.18-3.47,2.87,.05,.44-.64,.4-.84,.74-5.63,3.78-10.24,8.89-13.44,14.87v.44c-.15,.25-.4,.65-.54,.95-.51,1.24-.87,2.54-1.09,3.87-.2,.05-.2,.3-.4,.3,.1,.19-.3,.05-.05,.34-.75-.64-.7-1.63-1.04-2.72-.55-1.63,.2-4.46-2.08-5.25-1.22-1.21-2.11-2.71-2.57-4.37h0Zm77.64,58.16c-2.28,.19-4.36,1.44-6.4,2.28-1.68,1.09-3.87,1.58-5.6,2.72-2.63,.89-4.91,2.62-7.04,4.06-1.93,.8-3.57,2.09-5.65,2.68,.1,.19-.25,.19-.4,.19-1.88,.84-3.37,1.94-5.3,2.58-.64,.51-1.39,.88-2.18,1.09-.7,.1-1.34,.44-2.08,.59-.55,.3-1.39-.05-1.89,.35-1.98,.15-3.77,.94-5.65,1.38-.5,.2-1.19,.75-.89,1.39,.05,.15,.25,.25,.4,.15,1.14,.95,2.72,1.2,4.31,.95,2.73-.44,5.95-.84,8.18-2.09,3.57-1.93,7.24-3.52,10.91-5.26,.64-.09,1.29-.89,1.98-.89,.44-.44,1.14-.64,1.68-1.24,3.62-2.62,8.33-4.16,12.3-6.39,.94-.05,1.68-.84,2.68-.7,.15,.3-.45,.49-.2,.95-.44,.84-.89,1.83-.5,2.52v1.34c-2.13,.59-4.17,1.68-6.3,2.03-2.08,.84-4.16,1.93-6.15,2.98-.2,.49-1.14,.49-1.39,.94-3.22,1.49-5.6,3.52-8.68,5.06-.2,.59-.89,.39-1.14,.74-1.14,.59-2.53,1.58-3.67,1.84-1.79,1.09-3.37,1.48-5.4,2.18-4.81,1.34-9.92,1.38-15.02,.4-2.03-.2-4.11-1.54-6.2-2.34-2.48-2.03-5.9-3.17-7.29-6.34-.84-.74-1.44-1.93-2.43-2.48-.05-.55-.55-.7-.6-1.09-1.78-1.79-1.83-4.81-2.58-7.19,.1-2.98-1.19-6.15-.3-9.02,.15-1.69,.25-3.72,.75-5.4,.54-2.38,.84-4.86,1.24-7.19,.35-.1,.05-.65,.25-.9,0-1.09,.54-1.98,.45-3.07,.35-.5,.35-1.05,.4-1.69,.15-.05,.35-.1,.35-.25,.6,.5,1.44,1.58,2.48,1.34,.64-.25,1.14-1.09,1.14-1.84-.05-.15-.3-.4,0-.44-.25-.35-.05-1.09-.45-1.2-.5-3.76-4.86-6.05-8.18-7.98-3.62-1.68-6.5-4.81-6.35-9.32,0-.69,.05-1.58,.25-2.38,.05,.19,.4-.05,.4,.3,.35,1.39,1.58,3.32,2.97,4.66,1.09,.7,1.64,1.79,2.93,2.13,2.23,1.88,5.36,2.48,6.84,5.26,1.19,1.54,1.98,3.12,2.68,4.91,.55,2.28,.59,4.31,.84,6.5,.15,2.18,.5,4.66,0,7.04,0,.55,.05,1.04-.05,1.63-.74,.3,.1,.99,.05,1.54-.15,1.24-.05,2.78-.3,4.01,.5,4.22-1.09,8.78,.54,12.69-.1,1.04,.84,1.58,.59,2.77,.64,1.14,.89,2.48,2.13,3.27,.25,.44,.25,1.14,.94,.99,.59,.4,.74,1.09,1.54,1.09,1.74,.19,3.47,.89,5.26,.84,6.4-1.14,11.95-4.81,17.85-7.24,4.26-2.62,8.53-5.3,13.04-7.29,3.52-2.33,7.58-3.42,11.45-5.2,2.03-.8,4.16-.99,6.25-1.69,2.18,.15,4.81-.65,6.89,.55,1.29,.25,2.38,.94,3.72,1.38-.1,1.49,.3,3.23,.44,4.51-3.86,.7-6.99-1.63-10.85-.74h0Zm7.24,14.58c-.94-.5-1.88-1.29-2.43-2.23-1.39-1.47-2.23-3.38-2.38-5.4,2.78-2.18,6.74-1.88,10.26-1.48,.79,1.04,.89,2.43,1.93,3.27,.15,.4,.59,.79,.84,1.14,1.09,1.58,2.48,2.83,3.92,4.21-3.52,2.13-8.63,2.03-12.15,.5h0Zm30.64-3.77c-.49,.55-.74,1.2-.94,1.89-1.09,1.23-2.58,2.08-4.32,1.98-5.35-.16-10.06-2.53-13.58-6.4-1.93-1.79-3.12-3.76-3.92-6.35-.5-1.48-1.59-3.37-.54-4.81,2.03-.5,4.11-.44,5.95,.49,.49-.15,.44,.4,.94,.3,3.48,1.54,5.46,6,8.97,7.69,.3,.4,.65,.65,1.09,.89,2.13,1.09,4.36,2.23,6.64,3.08,.2,.3-.34,.79-.3,1.24h0Zm69.16-43.48c-1.73,2.23-2.33,4.66-3.37,7.19-.19,1.98-1.34,3.81-.54,5.95,.44,4.86-.35,9.17-.4,14.23-.4,3.52-1.39,6.74-2.13,10.01-1.09,2.48-1.64,5.15-3.47,7.29-.8,2.83-2.93,4.81-5.15,6.74-1.34,1.09-2.98,1.73-4.26,2.77-3.62,1.69-8.13,2.72-12.5,2.03-3.72,.2-7.23-1.09-11.16-1.53-2.92-1.14-6.15-2.38-8.92-3.72-1.84-1.29-4.06-2.58-5.45-4.16-2.68-2.09-4.81-5.21-8.13-6.5-2.58-1.98-4.71-3.66-7.69-4.66-.44-.25-.7-.7-.95-.8,.1-.34,.8-.05,1.34-.05,.84-.5,1.78,.44,2.83,.24,.24,.45,.49,.16,.79,.35,2.18,.64,4.01,1.44,6,2.53,.44,.19,.84,1.04,1.49,1.09,.89,1.29,2.33,2.13,3.81,2.93,1.54,1.34,3.08,2.28,4.76,3.32,1.58,1.34,3.72,2.43,5.35,3.57,1.24,.25,2.03,1.24,3.37,1.44,5.15,2.09,10.81,3.82,16.8,3.42,1.64,.15,3.42,.19,4.96-.59,1.23-1.39,3.42-1.89,3.42-3.92-1.34-1.09-2.58,.7-4.07,.25-4.21,.74-8.38,.3-12.3-.64-1.63-.05-3.12-.84-4.76-1.24-1.39-.7-3.08-1.09-4.61-1.98-2.64-1.36-5.16-2.94-7.54-4.71-1.78-1.29-3.67-2.33-5.26-3.72-1.48-1.19-3.02-2.58-4.71-3.22-3.17-1.74-6.84-3.03-10.61-2.88-1.88,0-3.67-.15-5.2,.7-.7-.34-1.44-.89-1.79-1.48,0,.05-.15-.25,0-.4,1.64-.64,3.27-1.39,5.06-1.58,1.48-.89,3.47-.84,5.05-1.29,4.12-.5,7.69,.84,11.45,1.78,4.22,1.64,8.43,3.57,12.4,5.46,6.39,2.77,11.8,7.34,18.99,8.52-.05,.2,.09,.3,.19,.35,.55,0,.99,0,1.44,.05,.8,.05,1.39,.49,2.09,0,.64,.19,1.53-.25,2.18-.44,1.34-.3,3.07-.3,3.81-1.73,.75-2.03,2.19-3.72,3.12-5.65,.55-.79,.15-2.18,1.09-2.92,1.44-4.81,1.54-10.26,1.98-15.47-.34-.9-.15-2.04,0-3.12,.25-1.14,.1-2.23,.1-3.42,.39-.89,.54-1.84,.79-2.72,.44-3.27,2.18-6.05,3.57-8.93,1.04-2.38,1.58-4.95,2.38-7.38,.05-.55,.05-.95,.69-1.3,.8-1.13,1.69-2.67,2.98-3.17,1.79-1.68,3.33-2.97,5.01-4.56,.15,.44,.35,1.09,.35,1.53,1.1,6.19-1.63,11.4-4.7,16.16h0Zm4.27-24.64c-.99,1.29-1.84,2.98-2.83,4.22-1.09,.84-2.23,1.73-3.27,2.67-.25-.4,.1-.79-.1-1.44-.19-1.58-.79-3.12-1.14-4.76-1.19-4.16-4.51-7.34-7.19-10.51-3.62-3.81-7.24-7.83-9.37-12.69-1.05-1.83-1.49-3.97-1.79-6.3,.99-4.41,2.03-8.83,2.68-13.44,.24-1.93,.84-3.92,.7-5.85-.05-.1,.34-.25,0-.3,.19,0,.34-.2,.19-.4l.15,.2v.44c.1,1.49,.55,2.63,.74,3.92,.55,1.39,.15,2.43,1.04,3.72,.05,1.14,.65,2.08,.95,3.17,.89,2.53,3.02,4.81,4.91,6.84,1.24,1.34,2.48,2.78,3.97,3.77,2.53,2.92,5.7,5.75,8.28,8.97,1.73,1.93,2.98,4.16,3.87,6.59,1.64,3.62,.94,8.48-1.79,11.16h0Zm0-52.65c-.2,.74,.54,2.18-.7,2.18-3.52,0-7.39-3.32-10.22-5.26-1.93,1.09-4.01,7.14-3.87,9.37,0,1.89-.94,3.97-.74,6.05-.19,.1-.09,.4-.3,.5-4.37-6,.65-20.63-3.76-26.28,2.92-6.25,3.97-4.07,6.39-6.94,7.73,0,11.95,3.62,15.57,9.97-1.29,1.39-1.58,3.52-3.32,4.46-.4,1.84,.05,4.32,.94,5.95h0Zm4.81,38.43c-.09-.1-.34-.1-.49-.16-1.48-4.36-9.37-11.99-12.84-15.56-.19-1.78-3.91-8.13-2.62-9.47,6.09,6.99,18.34,14.03,15.96,25.19Zm-.09-14.38c-2.23-5.05-10.41-8.58-14.23-16.31,.1-1.24-.49-1.93,0-3.17,.44-1.14-1.09-1.09-.55-2.13,2.48,.5,4.37,2.63,6.89,3.27,1.94,.54,3.82,.2,5.8,.5,2.43-1.58,.84-4.36,1.54-6.4,8.92,1.64,7.14,13.88,8.52,20.08,.7,3.12,2.48,4.76,3.48,7.39-3.42,.79-9.97,.2-11.45-3.22h0Zm24.34-28.01c-1.04,5.6-4.36,9.96-5.4,15.12-.74,5.26-5.35,9.32-2.48,14.97-5.11-.6-5.01-14.77-5.7-18.39-.44-2.28-1.19-4.36-2.58-6.25-1.04-1.44-4.56-4.07-6.3-4.66-1.44-.54-2.68-.35-3.72-1.29,.7-1.79,2.08-3.22,2.92-4.96,3.02-6.3-2.33-8.23,5.8-13.24,9.76-2.97,19.48,8.78,17.45,18.69h0Zm-18.59-22.36c-1.49,1.19-2.87,1.14-4.01,2.87-.65,.94-1.34,2.13-2.13,2.87,.15,.5-.15,.94-.59,1.09l-.55,.89-.59,1.09c-.8-.1-1.84-1.04-2.38-1.58-1.58-2.72-11.5-5.7-14.43-5.01-1.78,.45-5.2,3.92-6.74,5.06l-.55-.2-.15-.89-.05,.45c-.55-5.95-1.24-20.67-2.87-25.78,.39-.4,.74-.99,.74-1.58,.99,.25,1.69,1.19,2.77,1.14,5.76,3.62,15.77,1.89,19.54-3.92,.74,.2,1.78,.6,2.13,1.39,2.62,1.68,3.76,4.86,5.2,7.54-.24,1.19,.8,2.08,.7,3.22l1.09,.94c2.03-.64,2.18-3.17,3.57-4.56,.94-4.56,.54-7.04-.95-11.45,2.68-.2,7.98,3.77,7.88,6.54-.19,4.91,4.76,18.54,9.92,19.63,.49,.64,1.48,.35,1.83,1.14,1.3,.6,2.83,.4,4.22,.84,1.09-.5,2.38,.1,3.47-.54-7.34,11.54-17.5-5.76-27.07-1.2h0Zm46.85-14.43c-2.67,.84-4.01-4.36-7.28-4.76-1.73-.2-5.31,1.39-5.9,3.07-.94,2.72,.1,7.64-1.78,9.97-5.95,7.24-15.47,5.11-18.59-3.47-1.2-3.27-2.34-4.01-2.38-7.79,6.69,1.24,7.93,2.73,14.63-1.14,5.45-3.17,14.57-13.69,21.26-9.57,1.09-.15,3.77,5.5,4.31,6.54-.75,2.73,.64,6.59-4.27,7.14Zm31.14,4.21c-5.45-.7-3.72-2.53-9.97-1.93l-1.13,.15c-8.08-.3-20.68-24.84-24.05-31.48-2.77-5.45-10.61-7.93-12.54-10.07,1.23-.5,8.08-5.7,7.78-6.54-7.88-4.56-7.69-7.79-13.44-12.3,11.16,1.98,23.4,19.34,28.75,29.05,2.19,3.87,7.24,9.17,8.73,12.89,3.12,2.28,5.65,5.95,8.68,8.58,3.27,2.43,6.44,5.06,9.62,7.54,2.08,1.69-.45,4.37-2.43,4.12h0Zm4.71-6.59c-.84-.2-6.49-5.26-7.34-6.2-.65-.75-1.88-.5-2.38-1.44-.79-.25-1.34-.94-2.08-1.34-.7-1.14-2.04-1.68-2.63-2.97-4.36-2.63-5.35-7.98-9.02-10.71-.25-.59-4.61-7.69-5.05-8.18-.25-1.44-2.18-1.79-1.98-3.42-1.54-1.24-1.39-4.06-3.62-4.61-6.69-9.07-12.89-15.81-24.05-19.04-3.07-.89-5.35-1.54-8.38-2.88-6.1-1.98-11.16-2.78-17.51-2.88-9.81-.2-21.11-3.47-29.05-2.87-5.45,.4-19.68,5.95-21.61,5.8-1.58,.84-2.77-.74-4.16-1.29-6.99-2.58-35.15,2.23-37.04-5.75,1.39,.69,3.12,.54,4.61,.5,9.52-.2,18.5-7.93,28.21-9.82,8.43-1.59,13.09,6.3,25.58-1.44,29.4,26.82,59.74-2.23,102.43,43.48,9.02,9.57,14.52,20.08,15.42,33.47l-.35,1.59h0ZM249.06,434.03l9.93,17.14c1.5,2.49,2.97,4.89,4.24,7.43l-17.87,3.96,.09-.61,1.73-13.48,1.87-14.45h0Zm45.57,49.7c-3.58-6.05-7.03-12.01-10.6-18.06l-7.89-13.24-10.42-17.74-7.67-12.81-2.64-4.49-.51-.71-10.68,2.37-.02,.47c-.77,6.07-1.58,12.03-2.35,18.1l-2.65,20.52-2.2,17.24c-.86,7.27-1.87,14.45-2.85,21.74l6.85-1.52c.52-3.53,1-7.18,1.34-10.44l1.9-14.34,.19-.75,22.6-5.01c4.35,7.41,8.34,14.78,12.76,21.94l14.84-3.28h0Zm-148.93-60.65c4.88,1.36,10.82,1.78,13.34,6.72,1.07,2.02,1.62,4.27,1.69,6.53,.05,1.82-.13,3.65-.54,5.43-.63,2.22-1.51,4.02-2.31,5.96-1.97,3.45-5.59,6.87-9.86,7.43-3.2,.57-6.35-.63-9.75-1.29l7.19-30.84,.23,.05h0Zm11.51,38.44c3.14-.82,6.22-1.88,8.81-3.88,6.34-4.46,9.24-13,8.65-20.7-1.1-10.65-11.18-15.68-20.71-17.87l-21.67-4.97-16.55,72.17,14.37,3.3,6.95-30.31,6.17,1.41-.03,.11,4.39,20.03,2.94,13.44,14.37,3.29c-2.47-11.91-5.3-23.78-7.79-35.57,0,0-.14-.39,.11-.45h0Zm-65.5-29.23l10.57-23.53,21.85,9.82,2.93-6.51-35.18-15.81-30.36,67.54,34.88,15.67,2.93-6.52-21.53-9.67,11-24.47,17.02,7.65,2.92-6.52-17.01-7.65h0Zm-65.23,9.81c7.7-5.95,16.12-12.52,23.97-18.5l13.69-10.71,22.56-17.52,.73-.62-5.7-4.11-15.21,12.04-15.9,12.81-15.71,12.53c-.09-.06-.2,.28-.26-.04l6.29-15.62c3.3-8.13,6.54-16.16,9.93-24.22l6.18-15.28-12.24-8.82c-1.31,3.6-2.83,7.47-4.28,11.26l-4.91,12.93-1.13,2.74-7.83,20.33-6.45,17.22c-.93,2.38-1.8,4.77-2.62,7.19l8.87,6.4h0Zm271.22-42.7c-4.98,2.16-9.84,5.04-13.41,8.93-3.98,4.11-6.29,10.2-6.14,16.07,.04,9.43,4.04,18.76,8.7,27.38,4.5,8.04,9.72,15.21,17.58,19.2,7.5,3.79,15.94,2.84,23.43-.99,5.27-2.83,10.45-6.12,13.44-11.14,3.14-5.49,2.77-12.03-.21-17.61l-8.41,4.3c2.26,4.66,2.92,9.5,.64,14.15-.85,1.86-2.7,3.32-4.54,4.53-1.65,.84-3.34,1.58-5.13,1.85-7.77,1.25-13.09-5.34-17.2-10.86-5.38-7.98-9.89-17.05-13.48-26.09-2.01-5.7-3.86-11.34-2.89-17.28,.59-3.15,2.73-5.28,5.55-6.85,1.75-.89,3.44-1.11,5.09-1.18,2.37,.08,4.44,1.35,6.05,2.72,2.7,2.5,4.79,5.57,6.52,8.95l11.69-5.98c-2.99-6.1-8.04-11.16-14.94-12.02-1.13-.2-2.26-.14-3.3-.12-2.06,.02-3.91,.44-5.81,1.03l-3.24,1.01h0Zm-73.9,32.64c-3.23-3-7.14-5.76-11.05-7.37-2.99-1.27-6.45-1.38-9.79-1.38-3.45,.11-6.68,.81-9.67,2.19-6.79,2.65-11.51,9.56-12.32,16.93-.92,7.37,.23,15.2,5.64,20.04,5.87,5.52,14.51,4.95,21.18,8.64,4.38,2.07,7.72,6.33,7.49,11.17,.11,1.96-.35,3.8-.93,5.53-1.15,2.76-3.8,4.6-6.33,5.64-.57,.23-1.27,.23-1.73,.46-1.96,.34-4.26,.34-6.22-.23-5.87-1.5-10.36-7.02-13.01-12.21l-8.52,8.29c4.03,5.07,10.02,8.41,16.24,9.44,2.76,.57,6.22,.92,9.56,.81,8.75-.12,17.27-4.84,20.49-13.01,3-6.79,3.23-16.35-.46-22.92-3.46-5.88-10.02-8.64-16.23-10.25-6.45-1.96-15.32-3.69-16.81-11.52-.23-2.42-.12-5.07,.81-7.14,1.73-4.03,5.76-5.41,9.9-5.53,6.45-.46,10.71,5.64,13.7,10.36l8.06-7.94h0Zm142.25-37.06l4.23,5.75-15.04,11.05,15.88,21.62,19.02-13.98,4.23,5.76-30.81,22.64-43.84-59.68,31.1-22.84,4.22,5.75-19.3,14.18,15.27,20.79,15.04-11.04h0Z"/>
</svg>