<?xml version="1.0" encoding="UTF-8"?>
<svg xmlns="http://www.w3.org/2000/svg" viewBox="0 0 240.55 500">
  <defs>
    <style>
      .cls-1 {
        fill: #fff;
      }

      .cls-2 {
        isolation: isolate;
      }
    </style>
  </defs>
  <g id="LOGO_CASSANDRE_Image" data-name="LOGO_CASSANDRE Image" class="cls-2">
    <path class="cls-1" d="M42.46,0h25.36c9.57,32.12,19.21,64.17,28.83,96.24-.01,.05,.02,.05,.06,.06,6.81-2,14.93-3.42,23.69-3.7,11.42-.36,22.61,.92,31.89,3.06,.22,.05,.39,.1,.69,.12C173.52,63.89,194.04,31.97,214.5,0h26.05c-7.52,3.21-12.15,9.8-16.75,16.12-13.82,18.98-27.24,38.36-40.96,57.48-5.72,7.97-11.32,15.99-16.98,24.03-.38,.54-.84,1.01-1.1,1.62,12.28,4.27,22.88,10.4,32.18,17.85,.47,.37,1.68,1.18,1.73,1.56,.03,.23-.38,1.33-.46,1.68-2.09,8.41-4.13,16.8-6.24,25.07-.16,.19-.16-.15-.17-.17-.46-.71-.93-1.64-1.39-2.43-1.58-2.7-3.44-5.28-5.31-7.8-7.39-9.95-17.05-18.22-28.54-24.15-.49,.46-.83,1.08-1.21,1.62-8.8,12.49-17.75,25.08-26.57,37.67-3.12,4.44-5.83,9.1-8.09,14.27-2.28,5.21-4.16,10.79-5.72,16.64-.79,2.97-1.45,6-2.14,9.07-.67,3-1.42,6.02-2.08,9.07-2.64,12.31-5.35,24.66-8.03,36.86,2.96,3.66,6.08,7.33,9.07,11.03,.41,.51,.77,1.04,1.27,1.44,3.73-17.3,7.56-34.79,11.26-52.34,.59-2.82,1.21-6.13,.98-9.47-.22-3.19-.92-5.54-2.48-7.45-.03-.03-.35-.31-.12-.29h36.57c-5.77,24.26-11.79,48.39-17.62,72.85-1.78,7.45-3.69,15.17-5.49,22.82-.13,.55-.43,1.16-.4,1.44,.02,.28,.49,.72,.87,1.15,4.54,5.33,9.12,10.83,13.4,16.41,4.61,6,9.21,12.22,12.82,19.01,3.69,6.94,6.67,14.69,7.39,24.44,.78,10.54-1.1,19.98-3.47,28.02-4.79,16.24-13.11,29.38-24.03,39.63-11.17,10.48-25.19,17.61-43.15,21.14-4.37,17.93-8.78,35.97-13.11,54.13-.28,1.18-.65,2.47-.92,3.87-.26,1.34-.48,3.1-.06,4.22,.44,1.16,1.71,1.6,3.47,1.68,1.6,.07,3.5,0,5.14,0,17.19,0,33.66-.44,49.34-1.85,6.28-.56,12.43-1.25,18.43-2.02,24.28-3.11,47.71-7.11,69.84-12.02,.16,.11-.09,.29-.12,.35-3.66,6.36-7.55,12.8-11.32,19.18-1.3,2.2-2.61,4.43-3.87,6.59H54.19c4.02-3.64,6.18-9.36,7.57-15.48,4.23-18.68,8.25-37.94,12.42-56.61-8.46-.27-16.07-1.81-23.05-3.81-12.15-3.49-22.76-8.57-32.41-14.62-6.83-4.27-13.31-8.94-18.72-14.79v-.23c2.65-10.36,5.12-20.92,7.8-31.25,5.73,14.17,14.87,25.53,26,34.6,5.51,4.49,11.63,8.31,18.54,11.73,3.38,1.67,7.03,3.06,10.92,4.22,4.12,1.23,8.54,2.23,13.4,2.37,.06,0,.07-.05,.12-.06,4.71-22.27,9.73-44.52,14.5-66.78,4.6-21.47,9.49-43.21,13.98-64.76,.15-.74,.52-1.68,.46-2.08-.06-.43-.88-1.07-1.27-1.5-2.3-2.56-4.38-4.95-6.59-7.39-.78-.87-1.54-1.77-2.31-2.54-.06-.06-.2-.38-.35-.17-2.26,10.77-4.64,21.84-6.99,32.64-1.29,5.93-2.11,15.09,1.16,19.35,.12,.15,.52,.39,.29,.52H55.86c2.43-1.5,4.12-3.73,5.37-6.35,1.3-2.72,2.03-5.83,2.66-9.13,3.78-19.79,7.16-40.15,10.75-60.02-4.39-4.88-8.76-9.71-13.17-14.56-4.39-4.83-9.04-9.41-13.06-14.73-3.97-5.25-7.35-11.12-9.94-17.85-2.6-6.77-4.27-14.39-4.27-23.51s1.51-16.93,3.7-24.09c2.17-7.08,5.32-13.36,8.78-19.01,7.11-11.58,16.42-20.64,27.73-27.85-3.6-13.52-7.01-27.52-10.63-41.13-1.21-4.56-2.39-9.17-3.52-13.75-2.24-9.03-4.72-18.35-7.05-27.5-2.34-9.19-4.34-18.81-10.74-23.86ZM118.72,101.91c-7.22,.34-13.67,1.93-19.18,3.93,4.93,16.65,9.97,33.21,14.9,49.86,.44-.4,.66-.95,.98-1.44,9.64-14.89,19.25-30.01,28.83-44.89,.56-.87,1.3-1.82,1.79-2.66,.03-.04,.19-.27,.06-.35-7.63-2.58-16.84-4.95-27.38-4.45Zm-54.71,37.15c-1.63,3.68-3.03,7.93-3.93,12.54-.91,4.68-1.45,9.93-1.04,15.25,.39,5.01,1.46,9.47,2.89,13.58,1.38,3.97,3.22,7.82,5.2,11.27,3.46,6,7.52,11.7,12.13,16.7,.5,.54,1.27,1.46,1.79,1.85,.21,.16,.03,.2,.17,0,.1-.13,.2-.88,.29-1.39,.09-.51,.17-1.1,.23-1.44,1.88-10.76,3.76-21.13,5.49-31.66,.65-3.93,1.13-7.98,.92-12.48-.19-4.03-1.1-7.77-2.02-11.44-2.73-10.84-5.62-21.48-8.32-32.24,0-.04,0-.07-.06-.06-5.7,5.49-10.29,11.72-13.75,19.53Zm53.9,269.61c6.91-3.79,12.91-8.89,17.56-14.85,4.72-6.03,8.59-13.1,10.75-21.66,1.48-5.88,2.13-12.69,1.73-19.47-.39-6.54-1.84-12.67-3.7-17.91-3.77-10.65-9.5-19.41-16.06-27.15-8.67,35.62-17.29,71.29-25.88,106.99,5.7-1.27,10.93-3.39,15.6-5.95Z"/>
  </g>
</svg>